<svg width="230" height="280" viewBox="0 0 230 280" fill="none" xmlns="http://www.w3.org/2000/svg">
<path fill-rule="evenodd" clip-rule="evenodd" d="M127.76 257.541C107.863 251.581 101.594 223.605 85.9667 208.446C72.2726 195.162 51.1884 192.553 42.3929 174.732C32.8447 155.385 34.1466 131.965 37.4394 110.12C41.2033 85.1489 44.8176 57.1938 62.4593 41.6061C80.2517 25.8852 105.236 28.6449 127.76 30.3153C148.926 31.8851 170.324 36.1971 187.126 50.8517C203.642 65.2578 217.159 86.298 218.906 109.816C220.527 131.646 200.675 147.163 195.854 168.38C190.483 192.02 203.556 220.981 189.453 239.448C175.212 258.095 148.811 263.848 127.76 257.541Z" fill="#D2E5D8"/>
</svg>
