<svg width="230" height="280" viewBox="0 0 230 280" fill="none" xmlns="http://www.w3.org/2000/svg">
<path fill-rule="evenodd" clip-rule="evenodd" d="M127.76 253.584C107.863 247.726 101.594 220.235 85.9667 205.338C72.2726 192.285 51.1884 189.721 42.3929 172.208C32.8447 153.197 34.1467 130.182 37.4394 108.715C41.2033 84.1766 44.8176 56.7056 62.4593 41.3878C80.2517 25.9392 105.236 28.6511 127.76 30.2926C148.926 31.8351 170.324 36.0724 187.126 50.4733C203.642 64.6299 217.159 85.3058 218.906 108.417C220.527 129.869 200.675 145.117 195.854 165.966C190.483 189.197 203.556 217.657 189.453 235.804C175.212 254.128 148.811 259.781 127.76 253.584Z" fill="#F1F7F3"/>
</svg>
