<svg width="230" height="280" viewBox="0 0 230 280" fill="none" xmlns="http://www.w3.org/2000/svg">
<path fill-rule="evenodd" clip-rule="evenodd" d="M119.129 259.328C94.4395 254.267 92.3181 217.959 73.9696 200.547C59.3007 186.628 34.5209 186.351 23.9832 169.04C12.3019 149.85 11.0668 125.915 15.0525 103.759C19.4722 79.1912 26.9315 52.3375 47.4826 38.4126C67.8553 24.6086 94.9736 28.8525 119.129 33.2399C139.895 37.0119 156.894 49.2448 174.194 61.4281C191.872 73.8773 216.37 83.3014 220.517 104.64C224.667 125.99 200.894 141.785 193.805 162.333C186.953 182.194 192.723 205.656 179.935 222.267C165.046 241.605 142.919 264.204 119.129 259.328Z" fill="#C2E9FA"/>
</svg>
