<svg width="208" height="229" viewBox="0 0 208 229" fill="none" xmlns="http://www.w3.org/2000/svg">
<path fill-rule="evenodd" clip-rule="evenodd" d="M106.129 228.334C81.4395 223.317 79.3181 187.323 60.9696 170.062C46.3007 156.263 21.5209 155.989 10.9832 138.828C-0.698121 119.804 -1.93321 96.076 2.05253 74.112C6.47221 49.7567 13.9315 23.1354 34.4826 9.33113C54.8553 -4.35335 81.9736 -0.146238 106.129 4.20323C126.895 7.94254 143.894 20.0695 161.194 32.1473C178.872 44.4887 203.37 53.8313 207.517 74.9851C211.667 96.1506 187.894 111.808 180.805 132.178C173.953 151.868 179.723 175.127 166.935 191.593C152.046 210.764 129.919 233.168 106.129 228.334Z" fill="#D4EEF9"/>
</svg>
