<svg width="230" height="280" viewBox="0 0 230 280" fill="none" xmlns="http://www.w3.org/2000/svg">
<path fill-rule="evenodd" clip-rule="evenodd" d="M102.681 34.0713C125.58 29.8346 149.138 38.6775 168.561 51.5549C188.602 64.842 206.375 83.4072 212.302 106.75C218.06 129.426 208.001 152.191 199.664 174.047C191.762 194.766 184.215 217.284 165.579 229.244C147.366 240.933 124.255 234.8 102.681 236.288C78.9714 237.924 51.3917 253.662 33.161 238.379C14.7147 222.915 22.9938 192.801 22.0725 168.713C21.4088 151.362 23.326 134.865 28.5687 118.316C33.8484 101.651 40.8414 86.1644 52.3785 73.0499C66.7475 56.7162 81.3171 38.0238 102.681 34.0713Z" fill="#FDDDB4"/>
</svg>
