<svg width="230" height="280" viewBox="0 0 230 280" fill="none" xmlns="http://www.w3.org/2000/svg">
<path fill-rule="evenodd" clip-rule="evenodd" d="M102.681 30.1673C125.58 25.5509 149.138 35.1863 168.561 49.2178C188.602 63.6958 206.375 83.9248 212.302 109.36C218.06 134.068 208.001 158.873 199.664 182.688C191.762 205.263 184.215 229.8 165.579 242.832C147.366 255.568 124.255 248.886 102.681 250.508C78.9714 252.29 51.3917 269.439 33.161 252.786C14.7147 235.936 22.9938 203.122 22.0725 176.875C21.4088 157.97 23.326 139.995 28.5687 121.963C33.8484 103.803 40.8414 86.9291 52.3785 72.6393C66.7475 54.8417 81.3171 34.474 102.681 30.1673Z" fill="#FDDDB4"/>
</svg>
