<svg width="230" height="280" viewBox="0 0 230 280" fill="none" xmlns="http://www.w3.org/2000/svg">
<path fill-rule="evenodd" clip-rule="evenodd" d="M110.249 32.145C131.617 30.4845 150.682 43.3935 168.626 55.1383C187.495 67.4881 206.829 80.5773 215.86 101.269C225.419 123.172 231.262 150.491 219.255 171.148C207.491 191.389 175.558 186.005 157.773 201.205C137.262 218.735 136.659 258.895 110.249 264.311C84.926 269.503 62.2953 244.305 46.1257 224.098C32.4094 206.957 34.2181 183.48 28.5782 162.248C23.3546 142.583 8.49803 123.918 14.3379 104.428C20.2046 84.8478 41.7938 76.0145 58.0981 63.7269C74.7382 51.1862 89.4901 33.758 110.249 32.145Z" fill="#E9E3FF"/>
</svg>
