<svg width="230" height="280" viewBox="0 0 230 280" fill="none" xmlns="http://www.w3.org/2000/svg">
<path fill-rule="evenodd" clip-rule="evenodd" d="M110.249 29.1437C131.617 27.4975 150.682 40.2957 168.626 51.9397C187.495 64.1835 206.829 77.1604 215.86 97.6745C225.419 119.389 231.262 146.474 219.255 166.954C207.491 187.021 175.558 181.683 157.773 196.752C137.262 214.132 136.659 253.948 110.249 259.317C84.926 264.465 62.2953 239.483 46.1257 219.449C32.4094 202.455 34.2181 179.18 28.5782 158.13C23.3546 138.634 8.49803 120.129 14.3379 100.806C20.2046 81.3941 41.7938 72.6367 58.0981 60.4545C74.7382 48.0215 89.4901 30.7429 110.249 29.1437Z" fill="#E9E3FF"/>
</svg>
