<svg width="230" height="280" viewBox="0 0 230 280" fill="none" xmlns="http://www.w3.org/2000/svg">
<path fill-rule="evenodd" clip-rule="evenodd" d="M190.243 137.79C187.213 155.177 192.08 172.565 186.57 189.322C179.013 212.298 173.798 239.638 152.855 251.478C131.201 263.72 101.383 262.538 80.226 249.443C60.0394 236.949 61.6599 207.214 48.8664 187.116C37.2361 168.846 11.1259 159.406 9.1497 137.79C7.15804 116.004 25.4567 98.3143 39.2 81.3827C52.1675 65.4068 67.1258 51.8841 85.7831 43.3779C106.409 33.9743 128.716 25.4508 150.79 30.5069C173.887 35.7972 198.923 48.7901 207.156 71.1786C215.258 93.208 194.275 114.649 190.243 137.79Z" fill="#C8DFD7"/>
</svg>
