<svg width="230" height="280" viewBox="0 0 230 280" fill="none" xmlns="http://www.w3.org/2000/svg">
<path fill-rule="evenodd" clip-rule="evenodd" d="M190.243 138.848C187.213 156.085 192.08 173.322 186.57 189.934C179.013 212.711 173.798 239.814 152.855 251.552C131.201 263.688 101.383 262.516 80.226 249.534C60.0394 237.149 61.6599 207.671 48.8664 187.747C37.2361 169.636 11.1259 160.277 9.1497 138.848C7.15804 117.251 25.4567 99.7142 39.2 82.9291C52.1675 67.0916 67.1258 53.686 85.7831 45.2534C106.409 35.9313 128.716 27.4815 150.79 32.4939C173.887 37.7383 198.923 50.6188 207.156 72.8134C215.258 94.652 194.275 115.908 190.243 138.848Z" fill="#E7F1EA"/>
</svg>
