<svg width="230" height="280" viewBox="0 0 230 280" fill="none" xmlns="http://www.w3.org/2000/svg">
<path fill-rule="evenodd" clip-rule="evenodd" d="M112.974 238.968C92.255 241.685 70.8566 256.01 52.1732 244.728C32.7693 233.011 22.1575 206.271 16.5177 180.724C11.0636 156.018 11.3745 128.438 21.5665 106.087C30.9715 85.4621 52.6624 81.0753 68.287 67.1961C83.9104 53.3181 94.086 29.8073 112.974 24.8911C133.77 19.4781 155.891 26.0783 174.012 39.6769C193.075 53.9821 211.265 74.8382 215.361 101.725C219.321 127.721 203.964 150.996 194.599 174.832C186.619 195.14 180.485 217.755 164.984 229.934C149.883 241.8 130.821 236.628 112.974 238.968Z" fill="#FBF3EF"/>
</svg>
