<svg width="230" height="280" viewBox="0 0 230 280" fill="none" xmlns="http://www.w3.org/2000/svg">
<path fill-rule="evenodd" clip-rule="evenodd" d="M112.974 249.79C92.255 252.556 70.8566 267.134 52.1732 255.652C32.7692 243.728 22.1575 216.515 16.5177 190.516C11.0636 165.372 11.3745 137.304 21.5665 114.557C30.9715 93.5677 52.6624 89.1032 68.287 74.9784C83.9104 60.8547 94.086 36.9278 112.974 31.9245C133.77 26.4158 155.891 33.1328 174.012 46.9721C193.075 61.5305 211.265 82.7557 215.361 110.118C219.321 136.575 203.964 160.262 194.599 184.519C186.619 205.186 180.485 228.202 164.984 240.597C149.883 252.672 130.821 247.409 112.974 249.79Z" fill="#F5E0D6"/>
</svg>
