<svg width="230" height="280" viewBox="0 0 230 280" fill="none" xmlns="http://www.w3.org/2000/svg">
<path d="M21.3913 168.541L29.4288 169.329C42.26 170.309 55.0861 172.357 67.819 173.585C68.1361 173.069 68.7572 173.154 69.1333 173.513C70.4039 173.402 71.8278 172.43 72.9796 173.441C73.0172 173.435 73.0547 173.429 73.0922 173.426C75.1414 169.492 76.558 165.297 77.9329 161.097C78.8104 158.514 79.991 156.014 82.1732 154.28C85.8964 151.695 94.4273 146.455 98.7991 146.675C98.8682 145.867 99.2371 145.114 99.8333 144.565C98.5128 142.313 103.792 140.845 104.165 141.106C103.926 133.584 107.465 127.053 115.266 125.554C122.256 124.098 132.197 123.854 135.956 131.157C136.368 131.111 140.592 131.089 141.001 131.135C141.636 130.33 148.614 137.955 145.754 140.61C171.322 151.92 185.86 150.572 192.937 182.367C193.894 185.354 193.963 188.623 194.974 191.543C198.568 199.936 201.483 208.872 202.209 218.004C203.961 218.453 204.162 221.542 202.133 221.989C201.358 222.16 200.71 222.394 200.145 222.836C200.587 230.32 198.777 247.415 197.636 247.362C195.311 254.763 184.939 256.851 177.596 254.251C178.862 256.632 177.596 258.13 177.596 259.402C151.173 260.402 122.283 259.826 95.8677 261.197C92.4888 261.149 88.9348 262.027 85.602 261.522C83.5695 261.034 83.5661 257.839 85.6277 257.443L76.6193 255.487C76.8207 255.412 72.9061 252.807 69.9474 247.941C67.1935 242.498 69.0679 235.928 67.82 230.008C58.0741 229.211 48.1668 228.87 38.5274 227.219C37.2131 231.152 31.5236 226.449 29.7153 224.557L29.722 224.548C29.2747 224.422 28.8788 224.158 28.5912 223.793C28.3036 223.428 28.1392 222.981 28.1214 222.517C27.5077 221.64 27.3788 220.404 27.9674 219.557C25.2697 203.99 21.1566 188.096 19.6703 172.383C19.1403 172.27 18.6459 172.029 18.2303 171.681L18.2642 171.647C17.5533 170.855 17.415 169.487 18.6003 168.814C19.5556 168.27 20.3538 168.439 21.3913 168.541Z" fill="white"/>
<path d="M89.7955 262.546C93.3438 262.546 98.5517 262.199 105.274 261.514C108.233 261.212 114.32 260.928 123.367 260.669C131.03 260.45 139.321 260.289 145.374 260.172H145.393C148.551 260.111 151.046 260.062 152.526 260.024L152.932 260.013C157.122 259.892 161.346 259.83 165.486 259.83C169.625 259.83 173.797 259.892 177.886 260.013V254.947L154.433 243.314L133.419 231.494L123.287 226.803L121.223 228.117L104.337 233.558L94.0178 234.871L85.5747 233.558V248.005L83.8861 261.514C84.0737 261.856 84.6646 262.116 85.6451 262.288C86.6256 262.459 88.0213 262.546 89.7955 262.546ZM170.182 224.662H174.541L199.905 218.536L202.19 217.782C201.997 215.517 201.682 213.264 201.246 211.033C200.829 208.885 200.287 206.65 199.636 204.389C198.35 200.014 196.793 195.724 194.974 191.543C194.452 190.034 194.176 188.402 193.909 186.824C193.658 185.342 193.4 183.811 192.937 182.367C191.535 176.067 189.82 170.961 187.696 166.759C187.185 165.749 186.641 164.774 186.079 163.862C185.527 162.968 184.94 162.105 184.334 161.297C183.176 159.749 181.874 158.316 180.445 157.016C177.9 154.699 174.901 152.743 171.007 150.86C167.477 149.153 163.644 147.701 159.206 146.018H159.204C155.186 144.494 150.631 142.768 145.755 140.611C145.97 140.407 146.142 140.161 146.259 139.889C146.376 139.617 146.437 139.324 146.438 139.027C146.438 138.335 146.298 137.651 146.025 137.015C145.534 135.764 144.599 134.296 143.459 132.987C143.035 132.49 142.573 132.029 142.076 131.606C141.655 131.259 141.331 131.076 141.141 131.076C141.115 131.074 141.088 131.078 141.064 131.089C141.04 131.099 141.018 131.115 141.001 131.135L140.961 131.131L140.875 131.127L140.763 131.123C140.47 131.114 139.939 131.109 139.266 131.109C137.901 131.109 136.206 131.129 135.956 131.157C135.746 130.749 135.511 130.355 135.251 129.977L133.7 131.135L137.086 136.698L120.592 150.04V160.697L115.37 165.636L112.385 160.697L108.179 155.104L105.19 146.037L106.208 140.063L104.161 139.87C104.151 140.277 104.153 140.693 104.166 141.106C104.113 141.081 104.055 141.07 103.997 141.076C103.632 141.076 102.775 141.274 101.904 141.642C101.472 141.819 101.06 142.041 100.674 142.304C100.326 142.529 100.031 142.828 99.8107 143.179C99.6835 143.388 99.6181 143.63 99.622 143.875C99.626 144.12 99.6991 144.359 99.833 144.565C99.2357 145.114 98.8661 145.867 98.7975 146.675C98.7078 146.671 98.6157 146.668 98.5239 146.668C97.4856 146.668 96.1676 146.949 94.6064 147.502C93.0435 148.074 91.5206 148.75 90.0477 149.525C88.6471 150.248 87.1639 151.088 85.6394 152.023C84.1009 152.968 82.9037 153.772 82.171 154.281C81.114 155.137 80.2287 156.185 79.5621 157.371C78.8948 158.555 78.3484 159.804 77.9313 161.097L77.7249 161.728L77.5114 162.374L77.2966 163.021C76.1665 166.401 74.8751 170.002 73.091 173.426C73.063 173.429 73.0347 173.433 73.0088 173.437H73.0039L72.9784 173.441C72.6391 173.138 72.1976 172.976 71.7431 172.986C71.2545 173.012 70.7715 173.103 70.307 173.257C69.9241 173.378 69.5312 173.463 69.1329 173.513C68.9499 173.333 68.7052 173.228 68.4482 173.221C68.3274 173.22 68.2081 173.249 68.1019 173.307C67.9956 173.364 67.9059 173.448 67.8413 173.55L67.8186 173.586L83.6497 176.705L94.0928 213.337L103.187 205.955L108.069 206.681L120.96 211.33L135.954 215.225L170.182 224.662Z" fill="#2B283A"/>
<path d="M98.0597 233.641C96.9947 229.611 96.1726 226.295 95.4718 223.208C95.208 222.044 94.944 220.862 94.6888 219.72V219.717C94.0781 216.983 93.4466 214.156 92.7721 211.387C90.8859 203.643 88.7143 195.713 86.3178 187.817C85.8255 186.195 85.3131 184.547 84.7945 182.92L84.4303 181.781L84.15 180.874C83.9495 180.176 83.6792 179.5 83.3432 178.857C83.0121 178.221 82.5163 177.685 81.9077 177.305C81.2908 176.953 80.6251 176.694 79.9322 176.536C79.2253 176.36 78.4888 176.244 77.7764 176.132C77.4012 176.073 77.0475 176.018 76.7012 175.955L75.5578 175.74C73.8557 175.422 72.1271 175.112 70.4201 174.819C62.247 173.413 53.9191 172.27 45.6676 171.423C41.3954 170.984 37.0369 170.615 32.7133 170.325C28.4284 170.038 24.0596 169.821 19.7277 169.68L18.8614 169.653L19.3329 172.28C19.4442 172.316 19.559 172.348 19.6746 172.374C19.8183 173.893 19.9936 175.476 20.1936 177.078L23.1169 193.371C23.6368 196.343 24.1222 199.279 24.575 202.032L25.2046 205.136L25.5943 207.065C26.3883 211.005 27.2266 215.246 27.9715 219.548C27.8643 219.703 27.779 219.872 27.718 220.051L27.7732 220.284L27.8107 220.44L27.8501 220.594C27.9876 221.137 28.1604 221.671 28.3676 222.192C28.5673 222.699 28.8223 223.182 29.1282 223.633C29.4272 224.074 29.7952 224.464 30.2181 224.787C30.669 225.125 31.1797 225.374 31.7232 225.521C33.0255 225.88 34.434 225.997 35.7962 226.111C36.2609 226.149 36.7412 226.189 37.2047 226.238L37.405 226.26L69.0504 229.819C72.3806 230.194 75.9175 230.6 80.5172 231.139L83.8294 231.528C84.6273 231.62 85.4396 231.711 86.2249 231.798L86.2343 231.799C89.9932 232.218 93.88 232.651 97.6402 233.45C97.7922 233.481 97.9352 233.546 98.0584 233.64L98.0597 233.641ZM51.1453 192.01C51.2496 192.008 51.353 192.029 51.4478 192.073C51.5426 192.116 51.6263 192.181 51.6927 192.261C51.759 192.341 51.8063 192.436 51.831 192.537C51.8557 192.639 51.8571 192.744 51.8352 192.846L51.8131 192.959C51.6917 193.635 51.7684 194.332 52.0339 194.966C52.2995 195.602 52.6914 196.177 53.1857 196.657C53.5008 196.945 53.8437 197.202 54.2092 197.422C54.8741 197.857 55.5618 198.306 55.8216 199.044C55.9316 199.344 55.9386 199.673 55.8417 199.978C55.7433 200.274 55.5686 200.54 55.3351 200.747L55.4439 200.801L55.5503 200.855L55.6543 200.91L55.7556 200.967L55.8543 201.023C56.3452 201.295 56.794 201.636 57.1868 202.037C57.5476 202.392 57.7984 202.844 57.9095 203.338C58.029 203.969 57.83 204.613 57.3177 205.254C56.9894 205.659 56.5902 206 56.1395 206.262C55.6767 206.53 55.1815 206.737 54.6661 206.878C53.5912 207.158 52.4833 207.289 51.3729 207.269C50.8905 207.269 50.3849 207.25 49.8274 207.214L49.6646 207.203C47.885 207.069 44.6882 206.486 43.2728 204.075C42.9867 203.602 42.8552 203.051 42.8964 202.499C42.9436 201.947 43.1804 201.429 43.5666 201.031C44.0308 200.546 44.9068 199.994 45.7333 199.93C45.6907 199.503 45.7516 199.071 45.911 198.673C46.0943 198.269 46.3975 197.931 46.7793 197.706C47.1623 197.468 47.6011 197.335 48.0516 197.321C48.0223 196.627 48.2302 195.875 48.6878 195.025C49.1061 194.293 49.5764 193.593 50.095 192.93C50.173 192.825 50.2537 192.717 50.3318 192.611L50.4335 192.472L50.5323 192.336C50.6008 192.236 50.6923 192.154 50.7991 192.097C50.9059 192.04 51.0248 192.01 51.1459 192.009L51.1453 192.01ZM98.5053 233.434C98.7166 233.29 98.9676 233.216 99.2232 233.222H99.2794C101.196 233.201 103.102 232.937 104.952 232.435C106.804 231.933 108.628 231.331 110.416 230.631L110.963 230.422L112.489 229.835C113.895 229.297 115.534 228.68 117.189 228.178L117.832 227.985L118.158 227.889C119.27 227.564 120.581 227.221 121.878 227.138L122.048 227.129L121.684 226.938C121.634 226.911 121.586 226.88 121.543 226.844C121.293 226.863 121.059 226.871 120.827 226.871C120.361 226.873 119.896 226.832 119.437 226.75C118.067 226.501 116.745 226.034 115.522 225.367L114.978 225.072L114.755 224.953L114.608 224.877L114.461 224.803C114.083 224.608 113.69 224.446 113.284 224.32C112.878 224.195 112.456 224.131 112.031 224.13C111.714 224.131 111.398 224.165 111.088 224.232C109.883 224.485 108.781 225.065 107.716 225.626C107.454 225.764 107.184 225.906 106.917 226.041L106.677 226.161L106.515 226.239L106.351 226.316L106.184 226.392C104.924 226.959 103.847 227.247 102.985 227.247C101.799 227.247 101.043 226.698 100.738 225.616C100.479 224.697 100.623 223.77 101.166 222.858C101.133 222.855 101.1 222.854 101.067 222.854C100.598 222.854 99.9714 223.109 99.3078 223.379C98.6582 223.644 97.9867 223.918 97.4045 223.976L97.3238 223.983L98.5059 233.431L98.5053 233.434ZM51.4455 205.955C52.2038 205.965 52.9614 205.904 53.7082 205.772C54.4274 205.655 55.1142 205.389 55.7248 204.991C56.2447 204.635 56.5466 204.207 56.598 203.757C56.6137 203.538 56.5807 203.319 56.5015 203.114C56.4224 202.91 56.2989 202.725 56.14 202.574C55.7001 202.096 55.2454 201.601 54.7739 201.119C54.5174 201.246 54.2353 201.312 53.9493 201.313C53.5293 201.296 53.1176 201.19 52.7414 201.002C52.7236 200.995 52.7092 200.981 52.7007 200.963C52.6923 200.946 52.6904 200.926 52.6954 200.907C52.6993 200.884 52.7108 200.864 52.728 200.848C52.7452 200.833 52.7671 200.823 52.7902 200.822C52.9863 200.822 53.4382 200.644 53.8645 200.398C54.1002 200.263 54.6526 199.916 54.6966 199.625C54.755 199.237 54.1227 198.907 53.7045 198.689H53.7032C53.6574 198.665 53.6141 198.642 53.5752 198.622L53.5189 198.591L53.4701 198.563C53.0636 198.316 52.6825 198.03 52.3326 197.709C51.4525 196.92 50.8227 195.891 50.5207 194.748L50.4961 194.646L49.5878 198.048L49.6036 198.076C49.6537 198.172 49.6778 198.278 49.6734 198.386C49.6689 198.494 49.6362 198.598 49.5785 198.689C49.5182 198.792 49.4329 198.879 49.3304 198.94C49.2278 199.002 49.1114 199.036 48.9919 199.041C48.916 199.04 48.8409 199.024 48.7714 198.994C48.7019 198.963 48.6393 198.919 48.5876 198.863L48.5375 198.809C48.477 198.742 48.4033 198.689 48.321 198.652C48.2386 198.615 48.1495 198.595 48.0593 198.595C47.9246 198.603 47.793 198.639 47.6725 198.7C47.552 198.761 47.445 198.845 47.3579 198.948C47.1666 199.142 47.0503 199.397 47.0298 199.668C47.0242 200.101 47.1542 200.524 47.4016 200.879C47.6459 201.228 47.957 201.526 48.3171 201.755L48.3668 201.787L48.4981 201.868C48.6041 201.93 48.6862 202.025 48.731 202.14C48.7758 202.254 48.7808 202.38 48.745 202.497C48.7025 202.633 48.6177 202.752 48.503 202.836C48.3882 202.921 48.2495 202.966 48.1071 202.966C48.0715 202.966 48.0359 202.963 48.0007 202.958C47.2718 202.846 46.6016 202.288 46.162 201.426C46.0085 201.467 45.8529 201.499 45.6958 201.521C45.3837 201.555 45.0801 201.645 44.7993 201.785C44.6405 201.857 44.5021 201.968 44.3963 202.106C44.2906 202.245 44.2208 202.408 44.1933 202.58C44.1747 202.882 44.2543 203.181 44.4201 203.434C44.5931 203.719 44.8073 203.976 45.0558 204.198L45.0858 204.225L45.1458 204.277C45.8273 204.841 46.6186 205.257 47.4694 205.499C48.3197 205.743 49.1965 205.884 50.0807 205.919L50.1809 205.923C50.5233 205.938 50.9783 205.955 51.4455 205.955Z" fill="white"/>
<path d="M83.8654 262.374C83.9636 262.374 84.0607 262.354 84.1505 262.314C84.2404 262.274 84.3208 262.216 84.3868 262.143C84.7258 261.774 84.9757 261.332 85.1172 260.851C85.2547 260.37 85.3556 259.88 85.4193 259.385V259.384V259.381C85.4444 259.218 85.4703 259.05 85.4986 258.884C85.6964 257.727 85.8756 256.526 86.0467 255.212C86.4063 252.447 86.6041 250.171 86.669 248.049C86.7441 245.605 86.7152 243.123 86.5829 240.674C86.5183 239.48 86.436 238.197 86.2703 236.899C86.1941 236.302 86.1279 235.801 86.0525 235.297C86.0243 235.11 85.993 234.919 85.9564 234.716L87.9848 234.944C90.9555 235.276 94.1248 235.604 97.339 235.654H97.357C97.5172 235.656 97.6755 235.62 97.819 235.548C97.9625 235.477 98.0871 235.373 98.1825 235.244C98.2906 235.42 98.4432 235.564 98.6249 235.661C98.8066 235.758 99.0108 235.805 99.2167 235.798H99.2227C103.686 235.781 107.832 234.282 111.648 232.665C112.602 232.261 113.564 231.834 114.494 231.421L114.498 231.42C115.524 230.965 116.584 230.494 117.636 230.053C118.409 229.728 119.218 229.438 120 229.156C121.138 228.769 122.254 228.323 123.345 227.819L128.152 230.341C128.276 230.79 128.556 231.181 128.941 231.445C129.221 231.641 129.523 231.802 129.841 231.926C130.297 232.116 130.786 232.213 131.28 232.213C131.414 232.213 131.549 232.206 131.682 232.192C136.078 234.495 139.453 236.26 142.623 237.914L146.273 239.817C148.384 240.916 150.509 242.029 152.565 243.105C157.645 245.766 162.899 248.518 168.105 251.148L168.644 251.419C171 252.601 173.798 253.941 176.69 254.93C176.73 255.647 176.717 256.366 176.649 257.082L176.634 257.245C176.628 257.314 176.621 257.381 176.614 257.454V257.461C176.556 257.895 176.541 258.333 176.571 258.769C176.594 259.191 176.777 259.588 177.085 259.878C177.254 260.026 177.472 260.108 177.697 260.108C177.835 260.113 177.972 260.078 178.091 260.008C178.21 259.938 178.306 259.836 178.369 259.713C178.547 259.311 178.617 258.871 178.573 258.434C178.538 257.961 178.472 257.491 178.376 257.027C178.336 256.811 178.299 256.608 178.271 256.419C178.222 256.065 178.153 255.714 178.064 255.368C179.199 255.71 180.353 255.98 181.521 256.179C182.676 256.374 183.844 256.475 185.015 256.479C185.97 256.481 186.923 256.405 187.865 256.252C188.641 256.124 189.399 255.904 190.123 255.598C190.83 255.296 191.504 254.923 192.135 254.484C192.769 254.041 193.367 253.547 193.922 253.008C194.485 252.46 195.014 251.879 195.507 251.267C196.552 249.976 197.452 248.574 198.19 247.086C198.927 245.598 199.5 244.034 199.899 242.421C200.338 240.584 200.613 238.711 200.723 236.826C200.85 234.926 200.858 232.981 200.848 231.163C200.835 228.93 200.784 226.958 200.693 225.131C200.584 222.974 200.419 221.007 200.188 219.12C200.661 218.998 201.146 218.929 201.634 218.915C201.71 218.915 201.786 218.917 201.858 218.923C201.974 219.105 202.139 219.252 202.333 219.346C202.525 219.439 202.735 219.486 202.948 219.486C203.004 219.486 203.059 219.482 203.115 219.476C203.21 219.567 203.279 219.681 203.316 219.807C203.354 219.933 203.357 220.067 203.327 220.194C203.232 220.568 202.847 220.958 202.184 221.356C201.718 221.63 201.227 221.86 200.718 222.041C200.651 222.066 200.595 222.114 200.56 222.176C200.525 222.238 200.513 222.311 200.526 222.381C200.534 222.441 200.564 222.497 200.611 222.537C200.657 222.577 200.717 222.597 200.778 222.595H200.793L201.002 222.585C202.302 222.516 203.608 222.289 204.354 221.109C204.639 220.667 204.761 220.14 204.699 219.617C204.634 219.106 204.409 218.629 204.055 218.254C203.63 214.235 202.66 210.248 201.723 206.392L201.717 206.367C201.61 205.926 201.499 205.471 201.391 205.022C200.43 201.04 199.315 196.849 197.981 192.212L197.434 190.312C196.508 187.105 195.501 183.676 194.415 180.33C193.223 176.659 192.057 173.458 190.849 170.547C190.103 168.749 189.39 167.209 188.668 165.838C187.871 164.301 186.956 162.83 185.93 161.436C184.975 160.15 183.921 158.94 182.778 157.818C181.634 156.697 180.408 155.663 179.11 154.724C176.911 153.129 174.349 151.684 171.278 150.307C168.572 149.093 165.764 148.057 162.887 147.016L162.635 146.925C159.834 145.912 156.841 144.815 153.933 143.662C152.617 143.14 151.307 142.536 150.042 141.952C148.858 141.406 147.635 140.842 146.409 140.346C146.493 140.194 146.573 140.041 146.648 139.892L146.695 139.932H146.696C146.703 139.938 146.711 139.943 146.718 139.949C146.814 140.013 146.927 140.046 147.042 140.045C147.234 140.042 147.417 139.97 147.559 139.84C147.686 139.735 147.785 139.6 147.849 139.449C147.914 139.297 147.941 139.132 147.928 138.967C147.882 138.644 147.753 138.338 147.555 138.078L147.504 138.005C147.134 137.487 146.791 136.938 146.457 136.408C146.359 136.252 146.248 136.075 146.14 135.905L145.86 135.465C145.125 134.315 144.324 133.111 143.32 132.137C142.879 131.709 142.369 131.358 141.812 131.099C141.815 131.091 141.816 131.082 141.814 131.073C141.813 131.064 141.809 131.055 141.803 131.048C141.707 130.945 141.574 130.883 141.433 130.876C141.4 130.874 141.367 130.883 141.34 130.904C140.356 130.571 139.321 130.414 138.282 130.44C137.429 130.44 136.564 130.514 135.821 130.583L135.467 129.459C135.337 129.104 135.103 128.797 134.796 128.577C134.535 128.396 134.224 128.3 133.906 128.301C133.548 128.301 133.2 128.419 132.915 128.636C132.63 128.853 132.424 129.157 132.329 129.503C132.255 129.775 132.239 130.061 132.282 130.34C132.457 131.566 133.101 132.839 133.771 134.032C134.198 134.793 134.796 135.76 135.63 136.48C134.242 137.774 132.793 139.03 131.323 140.208C129.707 141.499 128.018 142.695 126.263 143.788C125.789 144.085 125.301 144.375 124.829 144.656C123.739 145.277 122.685 145.958 121.671 146.696C120.99 147.198 120.364 147.77 119.801 148.401C119.236 149.031 118.786 149.755 118.472 150.541C118.159 151.364 118.03 152.246 118.096 153.124C118.163 154 118.327 154.867 118.586 155.706L118.642 155.899C118.701 156.098 118.764 156.297 118.83 156.507C119.316 158.053 119.868 159.806 118.808 161.208C118.362 161.798 117.763 162.267 117.183 162.721C116.969 162.888 116.748 163.061 116.54 163.237C115.857 163.812 115.219 164.437 114.63 165.108C113.335 166.556 112.325 168.234 111.651 170.055L111.592 170.222C111.284 171.065 111.081 171.944 110.988 172.838C110.884 173.722 111.018 174.618 111.378 175.432C111.419 175.518 111.484 175.59 111.565 175.64C111.646 175.689 111.74 175.714 111.835 175.71C111.965 175.713 112.092 175.674 112.198 175.599C112.303 175.525 112.382 175.418 112.423 175.295C112.559 174.747 112.652 174.188 112.702 173.625C112.748 173.149 112.82 172.676 112.917 172.207C113.164 171.148 113.556 170.129 114.085 169.179C115.106 167.35 116.468 165.733 118.097 164.417L118.583 164.022C119.217 163.528 119.795 162.966 120.305 162.346C120.813 161.714 121.146 160.96 121.27 160.159C121.49 158.687 121.058 157.256 120.64 155.872L120.638 155.868C120.535 155.525 120.428 155.171 120.334 154.824C119.957 153.44 119.931 152.336 120.252 151.349C120.592 151.876 120.966 152.381 121.371 152.86C121.505 153.027 121.633 153.184 121.754 153.34C122.484 154.274 123.227 155.214 123.945 156.124L124.042 156.247L124.582 156.93C125.654 158.289 126.573 159.515 127.393 160.68C127.826 161.296 128.241 161.897 128.589 162.403C128.752 162.639 128.953 162.879 129.148 163.112L129.149 163.113C129.312 163.308 129.481 163.509 129.628 163.709C129.583 163.823 129.566 163.946 129.578 164.068C129.591 164.19 129.632 164.307 129.698 164.41C130.004 164.823 130.353 165.033 130.735 165.033C131.376 165.033 132.121 164.452 132.949 163.303C133.514 162.488 134.02 161.634 134.464 160.748L134.5 160.679L134.513 160.653C135.161 159.41 135.735 158.107 136.291 156.847C136.854 155.573 137.434 154.255 138.091 152.999C139.444 150.397 140.986 147.898 142.704 145.521C143.098 144.979 143.516 144.442 143.92 143.922C144.583 143.07 145.268 142.188 145.859 141.27C147.011 142.284 148.276 143.161 149.63 143.883C151.03 144.656 152.538 145.344 153.751 145.897H153.752C156.064 146.951 158.483 147.869 160.823 148.758L160.828 148.759C161.497 149.013 162.188 149.276 162.866 149.537L163.767 149.887C166.732 151.045 169.199 152.062 171.601 153.263C174.444 154.685 176.789 156.18 178.771 157.833C180.035 158.892 181.198 160.065 182.248 161.336C183.284 162.596 184.225 163.932 185.062 165.333C185.903 166.739 186.663 168.193 187.338 169.686C187.978 171.087 188.587 172.582 189.199 174.256C190.417 177.585 191.596 181.113 192.803 185.043C193.798 188.283 194.802 191.756 195.961 195.971C196.996 199.737 197.978 203.522 198.878 207.221C199.153 208.353 199.417 209.507 199.672 210.624V210.627C200.164 212.78 200.673 215.006 201.288 217.167C201.204 217.164 201.121 217.162 201.039 217.162C199.88 217.162 198.664 217.428 197.488 217.685C196.817 217.832 196.183 217.971 195.614 218.045C191.643 218.565 188.058 219.202 184.655 219.992C182.811 220.42 181.003 220.9 179.281 221.418C177.473 221.962 175.697 222.565 174.005 223.213C173.815 223.282 173.641 223.388 173.494 223.527C173.348 223.665 173.231 223.832 173.151 224.018C173.009 224.36 172.985 224.74 173.083 225.097L172.49 224.928L172.468 224.922C172.158 224.834 171.879 224.755 171.596 224.675C172.039 223.998 171.949 222.888 171.878 221.997C171.861 221.794 171.846 221.603 171.838 221.432L171.835 221.368C171.807 220.56 171.738 219.739 171.672 218.944V218.94C171.637 218.528 171.601 218.1 171.572 217.681C171.397 215.201 171.18 212.915 170.908 210.693L170.835 210.111C170.697 209.033 170.572 207.935 170.453 206.874V206.873C170.291 205.441 170.123 203.959 169.921 202.509L169.879 202.22C170.026 201.658 170.202 201.065 170.451 200.299C170.836 199.115 171.34 197.96 171.828 196.843C172.038 196.363 172.254 195.866 172.46 195.372C172.471 195.348 172.476 195.323 172.474 195.297C172.472 195.271 172.464 195.246 172.45 195.225C172.429 195.196 172.401 195.174 172.369 195.158C172.338 195.143 172.303 195.136 172.268 195.137C172.22 195.136 172.173 195.152 172.137 195.184C171.56 195.709 171.037 196.291 170.578 196.921C170.115 197.555 169.699 198.221 169.332 198.914C169.326 198.885 169.321 198.857 169.315 198.829C169.309 198.795 169.302 198.756 169.294 198.718L169.21 198.306C169.002 197.29 168.747 196.231 168.133 195.42C168.117 195.398 168.097 195.38 168.073 195.368C168.049 195.355 168.023 195.348 167.996 195.348C167.971 195.348 167.947 195.354 167.925 195.367C167.904 195.38 167.886 195.398 167.875 195.42C167.604 195.9 167.42 196.424 167.331 196.967C167.238 197.515 167.174 198.067 167.141 198.622C167.136 198.691 167.13 198.76 167.125 198.828C167.008 200.283 167.013 201.743 167.027 202.715C167.055 204.736 167.177 206.793 167.294 208.783C167.322 209.249 167.353 209.779 167.382 210.296C167.51 212.562 167.76 214.976 168.147 217.675L168.214 218.135C168.26 218.45 168.305 218.772 168.349 219.083V219.085C168.467 219.929 168.588 220.799 168.754 221.645L168.818 221.961C168.856 222.139 168.889 222.34 168.924 222.553C168.991 223.051 169.102 223.542 169.256 224.021C163.315 222.364 157.029 220.65 150.572 218.927C147.37 218.073 144.113 217.213 140.964 216.382C139.679 216.043 138.351 215.693 137.037 215.346C136.796 214.907 136.491 214.507 136.133 214.157C135.754 213.783 135.316 213.473 134.837 213.24C134.388 213.021 133.897 212.904 133.398 212.899C132.838 212.901 132.29 213.061 131.817 213.359C131.787 213.378 131.762 213.404 131.746 213.435C131.73 213.466 131.722 213.501 131.723 213.536C131.723 213.568 131.732 213.6 131.748 213.628C131.765 213.655 131.788 213.678 131.817 213.693C132.151 213.876 132.421 214.029 132.664 214.174L129.955 213.44C129.358 213.278 128.748 213.101 128.157 212.93H128.155C126.736 212.518 125.269 212.093 123.808 211.823C120.065 209.976 116.015 208.619 112.098 207.306L111.863 207.227L111.389 207.067C111.115 206.973 110.83 206.875 110.578 206.789C108.78 206.169 106.922 205.528 105.072 205.19C104.748 205.13 104.42 205.1 104.09 205.099C103.465 205.087 102.846 205.223 102.283 205.497C101.722 205.778 101.286 206.258 101.061 206.844C100.275 207.381 99.521 207.962 98.8017 208.585C98.4343 208.893 98.0718 209.22 97.7214 209.536L97.7169 209.54C97.5722 209.672 97.4227 209.806 97.2748 209.937L97.181 210.019L97.0891 210.098L97.0853 210.102C96.7191 210.416 96.4298 210.664 96.3359 211.193C96.3212 211.282 96.3253 211.372 96.3479 211.459C96.3705 211.547 96.4112 211.628 96.4673 211.698C96.5055 211.746 96.554 211.785 96.6092 211.812C96.6644 211.838 96.7249 211.852 96.7862 211.852C96.8027 211.852 96.8191 211.851 96.8354 211.849C97.7277 211.754 98.479 210.917 99.1421 210.178C99.3079 209.993 99.4648 209.819 99.6166 209.664C100.277 208.988 100.82 208.413 101.325 207.792C101.441 207.856 101.572 207.89 101.704 207.891C101.819 207.894 101.933 207.864 102.032 207.804C102.13 207.745 102.21 207.659 102.261 207.556C102.434 207.213 102.711 206.933 103.053 206.758C103.386 206.601 103.752 206.525 104.12 206.534C105.023 206.534 106.067 206.889 106.906 207.174H106.907C107.178 207.265 107.433 207.352 107.66 207.419L109.891 208.08C110.816 208.354 112.032 208.715 113.234 209.081C114.356 209.421 115.492 209.782 116.591 210.131C118.497 210.736 120.467 211.362 122.424 211.903C122.354 211.98 122.303 212.072 122.276 212.173C122.25 212.274 122.248 212.379 122.271 212.481C122.299 212.59 122.355 212.69 122.431 212.772C122.508 212.854 122.604 212.916 122.711 212.952C124.465 213.64 126.365 214.093 128.202 214.53H128.205C128.892 214.693 129.601 214.862 130.287 215.04C131.859 215.448 133.458 215.866 135.04 216.281C135.327 216.742 135.514 217.259 135.589 217.797C135.722 218.913 135.689 220.041 135.491 221.147C135.303 222.259 135.052 223.36 134.74 224.444L134.655 224.751C134.42 225.641 134.108 226.509 133.725 227.346C133.258 228.312 132.717 229.011 132.074 229.483C131.71 229.749 131.282 229.912 130.833 229.956C127.99 228.492 125.209 227.061 122.441 225.64C122.331 225.582 122.208 225.55 122.083 225.549C121.908 225.557 121.74 225.621 121.604 225.731C121.468 225.842 121.371 225.993 121.327 226.163C120.354 226 119.394 225.759 118.459 225.441C117.591 225.114 116.762 224.693 115.985 224.186C115.466 223.873 114.93 223.55 114.364 223.279C113.688 222.954 112.947 222.787 112.197 222.793C111.267 222.815 110.349 223.005 109.487 223.353C108.603 223.702 107.74 224.099 106.899 224.542C106.732 224.626 106.56 224.713 106.392 224.796L105.829 225.073C105.078 225.437 103.981 225.921 103.123 225.921C102.506 225.921 102.101 225.669 101.922 225.172C101.802 224.831 101.793 224.46 101.896 224.113C102.004 223.749 102.179 223.408 102.412 223.108C102.867 222.517 103.427 222.014 104.063 221.624C104.688 221.251 105.353 220.948 106.044 220.718C106.774 220.467 107.517 220.278 108.145 220.127C108.963 219.93 109.778 219.774 110.569 219.663C110.864 219.621 111.167 219.595 111.459 219.569C112.096 219.538 112.726 219.432 113.337 219.253C113.447 219.212 113.54 219.137 113.604 219.039C113.669 218.941 113.7 218.825 113.694 218.709C113.692 218.608 113.655 218.511 113.59 218.434C113.525 218.358 113.436 218.306 113.337 218.287C112.946 218.202 112.547 218.161 112.148 218.164C111.099 218.164 109.969 218.404 108.905 218.663L108.158 218.847C106.949 219.143 105.379 219.582 103.953 220.348C103.45 220.619 102.974 220.939 102.534 221.305C102.078 221.678 101.675 222.111 101.336 222.592C101.019 222.296 100.598 222.137 100.164 222.15C99.8764 222.155 99.5908 222.197 99.3143 222.276L98.9126 222.388C98.4847 222.526 98.0399 222.605 97.5906 222.622C97.4142 222.623 97.2382 222.605 97.0652 222.571C96.9823 222.121 96.8924 221.637 96.7977 221.162C95.8571 216.439 94.8337 211.798 93.7558 207.367C92.8053 203.46 91.7607 199.498 90.6517 195.592C89.5545 191.727 88.3627 187.808 87.1092 183.941L86.8578 183.169C86.7289 182.775 86.6032 182.364 86.4816 181.968L86.4803 181.964C86.0506 180.563 85.6065 179.113 84.8838 177.853C84.4649 177.122 83.889 176.492 83.1976 176.009C82.5011 175.535 81.7291 175.182 80.9146 174.966C79.4754 174.591 78.0184 174.288 76.549 174.059L76.5428 174.058C76.0589 173.974 75.5587 173.887 75.071 173.797C74.8121 173.749 74.5429 173.701 74.3052 173.659C74.1299 173.627 73.9487 173.595 73.7704 173.563C74.0303 173.07 74.2611 172.563 74.4618 172.044C74.5296 171.878 74.5932 171.722 74.6562 171.575L74.6994 171.475C75.2761 170.16 75.7844 168.824 76.1628 167.807L76.5062 166.879C77.297 164.746 78.1683 162.485 79.3552 160.356C79.9569 159.277 80.6758 158.267 81.4988 157.345C82.3242 156.427 83.243 155.596 84.2402 154.868C86.1709 153.451 88.322 152.34 90.4022 151.266C91.5893 150.653 92.8165 150.019 93.9899 149.335C95.173 148.658 96.3028 147.891 97.3694 147.042C97.3944 147.025 97.4129 146.999 97.4221 146.97C97.4313 146.94 97.4306 146.909 97.4202 146.88C97.4054 146.842 97.3797 146.809 97.3463 146.786C97.3129 146.763 97.2734 146.75 97.2326 146.749C97.206 146.749 97.1799 146.755 97.1562 146.767C95.2637 147.719 93.2349 148.468 91.2733 149.193H91.2724C90.4281 149.505 89.5564 149.827 88.7085 150.161L88.1527 150.38C85.9763 151.243 83.6895 152.205 81.7386 153.652C80.6811 154.435 79.7136 155.333 78.8539 156.329C77.9973 157.329 77.2505 158.418 76.6266 159.577C75.6046 161.468 74.8761 163.563 74.1716 165.589V165.59C74.0138 166.044 73.8507 166.513 73.6877 166.97L73.4513 167.63C73.1111 168.573 72.7368 169.582 72.304 170.57C72.1691 170.878 71.9899 171.198 71.8 171.538C71.5047 172.028 71.2567 172.544 71.0593 173.081L70.9039 173.054L70.8975 173.053C70.1859 172.93 69.45 172.802 68.7256 172.681C64.532 171.981 60.2662 171.344 56.0467 170.787C51.8307 170.232 47.5459 169.741 43.3114 169.33C39.0769 168.919 34.7796 168.576 30.5342 168.31C26.2888 168.044 21.9803 167.848 17.728 167.728H17.6991C17.5736 167.726 17.4492 167.751 17.335 167.803C17.2209 167.855 17.1198 167.932 17.0394 168.029C16.9391 168.154 16.8669 168.299 16.8277 168.455C16.7885 168.61 16.7832 168.773 16.8122 168.93C17.7362 174.395 18.6154 179.952 19.4657 185.327L19.4676 185.338C20.1277 189.509 20.8101 193.823 21.5084 198.061C22.2214 202.386 22.9405 206.658 23.6473 210.758C23.8053 211.675 23.976 212.603 24.1411 213.5C24.3631 214.706 24.5924 215.952 24.7927 217.182C24.853 217.552 24.9108 217.93 24.9665 218.295L24.9685 218.308C25.1481 219.672 25.4138 221.024 25.7641 222.355C26.266 224.109 26.9836 225.463 27.9606 226.495C28.5476 227.103 29.249 227.589 30.0244 227.925C30.7995 228.261 31.6133 228.499 32.447 228.634C35.3665 229.136 38.3833 229.437 41.3008 229.728C42.5879 229.856 43.9184 229.989 45.2207 230.137L67.8194 232.707C67.6592 234.164 67.5668 235.631 67.5379 237.191C67.5107 238.616 67.5366 240.091 67.6169 241.701L67.7032 243.359C67.7708 244.634 67.8533 245.992 68.0498 247.347C68.1665 248.15 68.4124 248.928 68.778 249.651C69.149 250.373 69.6146 251.042 70.1626 251.641C71.149 252.734 72.3218 253.661 73.6415 254.674C74.7902 255.556 76.1439 256.547 77.673 257.164L77.8648 257.24C78.5628 257.513 79.2763 257.745 80.0016 257.934C80.8299 258.162 81.6831 258.287 82.5419 258.305C82.8167 258.306 83.0913 258.286 83.3629 258.244C83.3182 258.468 83.2644 258.699 83.2128 258.923C82.9903 259.882 82.7602 260.873 83.0815 261.799C83.1406 261.967 83.2495 262.112 83.3937 262.216C83.5307 262.317 83.6956 262.372 83.8654 262.374V262.374ZM68.9117 232.831L71.2795 233.1C74.0564 233.416 76.7895 233.716 79.0969 233.967L84.7579 234.583C84.765 234.742 84.778 234.897 84.7905 235.046V235.047C84.8031 235.198 84.8151 235.341 84.8187 235.464C84.8562 236.77 84.8856 238.095 84.9093 239.236C84.9613 241.741 84.9038 244.283 84.7384 246.791C84.5519 249.619 84.329 251.937 84.0368 254.085L83.9695 254.569L83.9305 254.823C83.7839 254.839 83.642 254.884 83.513 254.955C83.3839 255.027 83.2703 255.123 83.1788 255.239C83.04 255.404 82.7829 255.488 82.4145 255.488C81.7604 255.488 80.8977 255.23 80.289 255.014C79.1558 254.61 78.071 253.909 77.1593 253.277C76.225 252.613 75.3505 251.868 74.5459 251.052L73.8768 250.39C73.2235 249.741 72.5509 249.036 72.1374 248.192C71.6814 247.262 71.5542 246.168 71.431 245.11C71.4056 244.892 71.3794 244.667 71.3508 244.451C71.176 243.129 70.9568 241.69 70.6623 239.925L68.9115 232.832L68.9117 232.831ZM199.89 219.194L199.901 221.654C199.913 225 199.91 228.562 199.73 232.1L199.696 232.746C199.493 236.533 199.179 240.539 197.79 244.232C197.227 245.729 196.503 247.16 195.63 248.5C194.759 249.841 193.729 251.071 192.561 252.163C191.99 252.703 191.367 253.184 190.7 253.599C190.031 254.012 189.306 254.325 188.548 254.53C187.516 254.795 186.454 254.923 185.389 254.91C184.968 254.91 184.538 254.894 184.074 254.862C177.86 254.428 172.235 251.444 166.794 248.558H166.793C165.97 248.121 165.118 247.67 164.286 247.239C154.537 242.192 144.145 236.813 133.701 231.432C133.979 231.242 134.238 231.024 134.473 230.782C135.621 229.596 136.435 227.938 137.036 225.562C137.55 223.538 137.833 221.462 137.878 219.373L137.649 216.969L137.895 217.034C140.435 217.709 143.012 218.399 145.503 219.067C151.779 220.749 158.269 222.489 164.674 224.111C167.226 224.757 169.828 225.387 172.344 225.996C174.194 226.443 176.107 226.906 177.986 227.372L178.704 227.552C182.142 228.421 185.724 229.483 188.421 232.037C188.44 232.056 188.465 232.067 188.492 232.068C188.514 232.067 188.534 232.06 188.552 232.048C188.57 232.036 188.583 232.019 188.592 231.999C188.6 231.981 188.602 231.96 188.599 231.94C188.595 231.92 188.585 231.902 188.57 231.888C187.266 230.499 185.607 229.361 183.498 228.407C181.588 227.544 179.554 226.935 177.635 226.386C177.234 226.271 176.826 226.156 176.431 226.045L176.414 226.04C176.133 225.96 175.782 225.862 175.448 225.766C181.414 223.64 186.771 222.082 191.827 221.006C192.538 220.855 193.266 220.721 193.969 220.592H193.97C194.685 220.461 195.424 220.325 196.146 220.17C196.79 220.033 197.435 219.852 198.058 219.678C198.402 219.582 198.758 219.482 199.112 219.39L199.89 219.194ZM18.8565 169.662C23.3343 169.797 27.8491 170.013 32.2754 170.305C36.7455 170.599 41.2496 170.978 45.6621 171.43C53.9108 172.277 62.2387 173.419 70.4144 174.826C72.1207 175.12 73.8492 175.43 75.5521 175.747L76.578 175.941C76.9606 176.013 77.3541 176.075 77.7708 176.14C78.4837 176.253 79.2194 176.367 79.9266 176.544C80.6194 176.701 81.285 176.961 81.9019 177.313C82.5742 177.738 83.1103 178.348 83.4462 179.069C83.7889 179.796 84.0684 180.551 84.2817 181.326C84.3447 181.533 84.4096 181.744 84.4761 181.951C85.1007 183.892 85.7183 185.869 86.3121 187.825C88.7077 195.718 90.8791 203.648 92.7664 211.395C93.4402 214.161 94.0708 216.984 94.6802 219.714V219.716V219.718C94.9363 220.865 95.2012 222.051 95.4657 223.216C96.1665 226.305 96.9889 229.621 98.0538 233.65C97.9305 233.556 97.7874 233.491 97.6353 233.46C93.8743 232.66 89.9869 232.227 86.2277 231.808C85.441 231.721 84.6277 231.63 83.8243 231.537L83.3775 231.485C78.8421 230.951 73.9667 230.381 69.0446 229.828L37.4003 226.269C36.8718 226.21 36.3226 226.164 35.7918 226.119C34.4293 226.007 33.0208 225.889 31.7185 225.53C30.3419 225.15 29.3184 224.229 28.5899 222.715C27.9788 221.445 27.6729 219.986 27.3891 218.477L27.3733 218.394C26.4391 213.425 25.6052 208.347 24.7986 203.436V203.432C24.2575 200.137 23.6978 196.73 23.1118 193.38L18.8565 169.662ZM99.2224 233.231H99.2179C98.9625 233.225 98.7117 233.299 98.5008 233.443L97.3187 223.994C97.9191 223.955 98.6221 223.668 99.3027 223.391C99.9663 223.12 100.593 222.865 101.062 222.865C101.096 222.865 101.129 222.867 101.161 222.869C100.618 223.781 100.474 224.708 100.733 225.627C101.038 226.709 101.794 227.258 102.98 227.258C103.672 227.237 104.357 227.105 105.008 226.868C105.613 226.658 106.204 226.408 106.776 226.119C107.089 225.963 107.405 225.797 107.71 225.636C108.775 225.076 109.877 224.496 111.083 224.242C111.392 224.176 111.708 224.142 112.024 224.14C113.243 224.14 114.22 224.672 115.352 225.288L115.517 225.377C116.74 226.044 118.062 226.511 119.432 226.76C119.891 226.842 120.356 226.883 120.822 226.882C121.054 226.882 121.287 226.873 121.537 226.854C121.581 226.89 121.628 226.921 121.678 226.948L122.043 227.139C120.392 227.214 118.687 227.732 117.183 228.188C115.53 228.69 113.89 229.307 112.483 229.846L110.957 230.433C109.084 231.179 107.172 231.826 105.231 232.37C103.292 232.918 101.289 233.207 99.2741 233.232L99.2224 233.231ZM141.285 132.098C141.639 132.303 141.962 132.558 142.243 132.855C143.145 133.812 143.794 134.997 144.422 136.144L144.46 136.213C144.616 136.498 144.771 136.786 144.92 137.065L144.922 137.068C145.105 137.409 145.293 137.761 145.484 138.105C145.648 138.402 145.818 138.695 145.947 138.917C146.015 139.02 146.088 139.119 146.167 139.213V139.213C146.231 139.293 146.296 139.376 146.341 139.44C146.231 139.594 146.111 139.755 145.974 139.932C145.965 139.945 145.824 140.1 145.591 140.356L145.581 140.367C144.627 141.417 142.392 143.875 141.478 144.994C140.585 146.087 139.745 147.206 138.983 148.321C138.191 149.478 137.456 150.668 136.799 151.858C136.018 153.271 135.337 154.758 134.678 156.195C134.225 157.185 133.756 158.208 133.258 159.2C132.668 160.436 131.943 161.602 131.096 162.679C131.076 162.703 131.055 162.727 131.034 162.75L131.033 162.752L131.031 162.754C131.018 162.769 131.005 162.784 130.992 162.799C130.722 162.071 130.112 161.302 129.666 160.741C129.566 160.615 129.471 160.495 129.392 160.391L129.353 160.339C128.504 159.195 127.56 158.009 126.383 156.606C125.475 155.525 124.509 154.425 123.512 153.336L123.143 152.936C123.019 152.802 122.892 152.659 122.757 152.507C122.158 151.835 121.413 150.999 120.593 150.567C120.704 150.369 120.829 150.18 120.966 150C121.932 148.738 123.315 147.834 124.535 147.085L125.382 146.57C127.899 145.037 129.224 144.142 130.097 143.533C131.638 142.472 133.107 141.311 134.496 140.057C135.822 138.848 137.352 137.391 138.644 135.756L139.081 135.204L141.285 132.098ZM135.954 131.134C136.304 131.163 136.669 131.185 137.021 131.205C138.185 131.273 139.389 131.344 140.448 131.717C139.718 132.407 138.998 133.142 138.302 133.852C137.828 134.335 137.338 134.835 136.85 135.315C136.754 134.686 136.624 134.062 136.462 133.447C136.421 133.283 136.38 133.114 136.34 132.947L135.954 131.134ZM136.338 253.076C136.468 253.07 136.594 253.031 136.704 252.963C136.815 252.895 136.907 252.801 136.971 252.688C137.041 252.58 137.08 252.455 137.086 252.327C137.092 252.198 137.063 252.07 137.004 251.956C135.2 248.514 133.073 245.244 131.043 242.224L130.765 241.811C129.81 240.389 128.822 238.919 127.841 237.479C127.311 236.701 126.876 236.079 126.472 235.52L126.191 235.134L124.668 233.468C124.648 233.457 124.625 233.451 124.602 233.451C124.567 233.451 124.534 233.465 124.509 233.49C124.484 233.514 124.47 233.547 124.469 233.582C124.443 234.251 124.751 234.9 125.048 235.529C125.093 235.624 125.144 235.731 125.19 235.832L125.224 235.907C125.576 236.688 125.988 237.53 126.486 238.479C127.392 240.206 128.321 241.888 129.249 243.479C131.4 247.169 133.561 250.231 135.857 252.842C135.916 252.914 135.989 252.972 136.072 253.013C136.155 253.053 136.246 253.075 136.338 253.077V253.076ZM97.8287 219.679C98.6291 219.679 99.3991 219.27 100.252 218.39L100.826 217.791C101.193 217.382 101.615 217.024 102.078 216.727C102.575 216.432 103.144 216.282 103.722 216.293C103.772 216.293 103.824 216.294 103.875 216.296C104.852 216.352 105.824 216.468 106.786 216.641H106.787C107.337 216.729 107.905 216.82 108.462 216.885C110.119 217.081 111.86 217.258 113.638 217.413H113.644C113.66 217.412 113.675 217.406 113.687 217.395C113.698 217.384 113.705 217.369 113.706 217.353C113.709 217.336 113.706 217.319 113.696 217.304C113.687 217.29 113.673 217.279 113.657 217.274L111.72 216.792L104.192 215.274C103.935 215.242 103.676 215.225 103.417 215.224C102.5 215.196 101.603 215.498 100.888 216.075C100.54 216.374 100.212 216.697 99.9085 217.041C99.5571 217.446 99.1676 217.817 98.7452 218.148C98.3133 218.477 97.7942 218.673 97.2521 218.711C97.1443 218.716 97.042 218.76 96.9636 218.834C96.8853 218.909 96.8361 219.008 96.8249 219.116C96.8112 219.217 96.8353 219.32 96.8925 219.404C96.9497 219.489 97.0361 219.549 97.135 219.574C97.36 219.642 97.5936 219.678 97.8287 219.679V219.679ZM96.3318 214.969C96.3547 214.969 96.3775 214.966 96.3997 214.96C96.9993 214.808 97.5723 214.566 98.0991 214.242C98.6239 213.917 99.1322 213.566 99.622 213.191C99.9987 212.912 100.388 212.623 100.787 212.363C101.674 211.784 102.638 211.526 103.913 211.526C104.518 211.526 105.132 211.581 105.781 211.638L105.895 211.649C107.758 211.814 109.545 212.04 111.208 212.32C111.782 212.417 112.365 212.534 112.93 212.648C114.006 212.887 115.094 213.063 116.191 213.177V213.174C116.239 213.171 116.285 213.153 116.321 213.122C116.358 213.091 116.383 213.048 116.393 213.001C116.404 212.96 116.4 212.916 116.383 212.878C116.365 212.839 116.334 212.808 116.296 212.79C114.638 211.962 112.745 211.565 110.914 211.182L110.794 211.156L105.364 210.312L105.164 210.292C104.535 210.231 104.055 210.204 103.607 210.204C103.027 210.197 102.449 210.258 101.883 210.385C101.295 210.521 100.732 210.75 100.215 211.063L99.9134 211.245C98.5182 212.093 96.9549 213.116 96.0622 214.52C96.0351 214.562 96.0199 214.61 96.0184 214.659C96.0168 214.708 96.0289 214.757 96.0534 214.8C96.0808 214.85 96.121 214.892 96.1699 214.922C96.2188 214.951 96.2747 214.968 96.3318 214.969V214.969ZM51.367 207.279C52.4775 207.299 53.5855 207.167 54.6604 206.888C55.1759 206.746 55.6712 206.54 56.134 206.272C56.5847 206.01 56.9841 205.668 57.3124 205.263C57.8431 204.599 58.0374 203.932 57.8901 203.28C57.7346 202.711 57.4084 202.203 56.9554 201.824C56.4665 201.393 55.919 201.034 55.3291 200.756C55.5624 200.549 55.7371 200.284 55.8357 199.988C55.9327 199.683 55.9257 199.355 55.8158 199.054C55.5559 198.316 54.8683 197.867 54.2035 197.433C53.8379 197.212 53.495 196.956 53.1798 196.668C52.6855 196.188 52.2937 195.612 52.028 194.976C51.7626 194.343 51.6859 193.645 51.8072 192.969L51.8222 192.894C51.8483 192.788 51.8501 192.677 51.8273 192.57C51.8046 192.463 51.7579 192.363 51.6909 192.277C51.6234 192.196 51.539 192.131 51.4435 192.087C51.3481 192.042 51.244 192.019 51.1387 192.02C51.0176 192.021 50.8987 192.052 50.7919 192.109C50.6851 192.166 50.5935 192.248 50.525 192.347L50.4263 192.484C50.3188 192.631 50.2079 192.78 50.0906 192.937L50.0872 192.942C49.569 193.605 49.0991 194.305 48.6812 195.036C48.2238 195.887 48.0159 196.638 48.0451 197.332C47.5947 197.347 47.1559 197.479 46.7729 197.717C46.3911 197.943 46.0879 198.28 45.9045 198.684C45.7452 199.083 45.6843 199.514 45.7269 199.941C44.9004 200.005 44.0244 200.557 43.5602 201.042C43.174 201.44 42.9372 201.958 42.89 202.51C42.8488 203.062 42.9803 203.613 43.2664 204.086C44.6818 206.497 47.8785 207.08 49.6581 207.214L49.7416 207.22C50.3308 207.259 50.8623 207.279 51.3672 207.279L51.367 207.279ZM54.77 201.129C55.239 201.607 55.6949 202.104 56.136 202.584C56.2949 202.735 56.4184 202.919 56.4977 203.124C56.5769 203.328 56.6099 203.547 56.5942 203.766C56.543 204.216 56.2409 204.644 55.721 205.001C55.1104 205.398 54.4235 205.664 53.7043 205.781C52.9574 205.913 52.1997 205.974 51.4413 205.964H51.4404C50.973 205.964 50.5184 205.947 50.1747 205.933C49.2739 205.904 48.3798 205.766 47.5121 205.523C46.6431 205.282 45.8346 204.861 45.1394 204.287L45.0794 204.234C44.8243 204.011 44.6038 203.751 44.4253 203.463C44.2533 203.207 44.1693 202.902 44.1861 202.594C44.2128 202.421 44.2823 202.257 44.3882 202.118C44.4941 201.978 44.6331 201.867 44.7927 201.795C45.0733 201.654 45.3767 201.565 45.6886 201.531C45.8459 201.508 46.0018 201.476 46.1554 201.435C46.5952 202.297 47.2656 202.856 47.9941 202.967C48.0293 202.973 48.0649 202.975 48.1005 202.975C48.2429 202.975 48.3816 202.93 48.4964 202.846C48.6111 202.761 48.6959 202.642 48.7384 202.506C48.7742 202.389 48.7693 202.263 48.7244 202.149C48.6795 202.035 48.5974 201.939 48.4913 201.877L48.36 201.796C47.9887 201.567 47.6669 201.266 47.4134 200.911C47.1556 200.551 47.0195 200.119 47.025 199.676C47.0455 199.405 47.1619 199.15 47.3534 198.956C47.4404 198.853 47.5474 198.769 47.6679 198.708C47.7885 198.647 47.92 198.611 48.0547 198.603C48.1449 198.603 48.234 198.623 48.3164 198.66C48.3987 198.697 48.4725 198.75 48.533 198.817L48.56 198.846C48.6122 198.909 48.6775 198.96 48.7513 198.995C48.8252 199.031 48.9058 199.049 48.9876 199.05C49.1071 199.045 49.2235 199.011 49.326 198.949C49.4286 198.888 49.5139 198.801 49.5741 198.698C49.6319 198.607 49.6647 198.502 49.6691 198.395C49.6735 198.287 49.6494 198.18 49.5992 198.085L49.5835 198.057L50.4918 194.655C50.6278 195.238 50.8558 195.795 51.1672 196.306C51.4855 196.829 51.8763 197.304 52.328 197.717C52.6779 198.039 53.0589 198.325 53.4654 198.571L53.5144 198.599C53.5675 198.629 53.6352 198.665 53.7007 198.699C54.1187 198.917 54.7504 199.247 54.6921 199.635C54.6482 199.926 54.0956 200.273 53.86 200.408C53.4335 200.653 52.9817 200.831 52.7856 200.831C52.7626 200.833 52.7407 200.842 52.7235 200.857C52.7063 200.873 52.6948 200.894 52.6909 200.916C52.6859 200.935 52.6878 200.955 52.6962 200.973C52.7046 200.99 52.7191 201.004 52.7369 201.012C53.1131 201.199 53.5249 201.305 53.945 201.322C54.2311 201.321 54.5133 201.255 54.77 201.129V201.129ZM160.69 191.16C160.823 191.169 160.954 191.127 161.057 191.042C161.16 190.958 161.227 190.838 161.245 190.706C161.584 188.524 161.92 186.308 162.248 184.165V184.162C162.633 181.629 163.032 179.008 163.435 176.433C163.722 174.601 164.051 172.744 164.368 170.947V170.944C164.465 170.4 164.564 169.836 164.662 169.275L165.715 162.388C165.715 162.37 165.712 162.353 165.705 162.337C165.699 162.321 165.689 162.306 165.677 162.294C165.648 162.266 165.61 162.25 165.57 162.25C165.546 162.249 165.522 162.255 165.501 162.267C165.481 162.279 165.464 162.296 165.452 162.317C164.427 164.121 163.848 166.254 163.289 168.317C163.225 168.552 163.16 168.793 163.095 169.03C162.526 171.102 162.011 173.343 161.475 176.08C161.003 178.487 160.641 180.907 160.398 183.274C160.151 185.679 160.017 188.123 160 190.538C159.999 190.614 160.013 190.691 160.042 190.761C160.071 190.832 160.114 190.897 160.169 190.951C160.309 191.086 160.496 191.161 160.69 191.16V191.16ZM152.966 184.314C153.083 184.313 153.197 184.286 153.303 184.237C153.408 184.188 153.502 184.116 153.577 184.027C153.647 183.943 153.697 183.844 153.723 183.737C153.749 183.631 153.751 183.52 153.727 183.412L154.363 165.901C154.374 165.871 154.378 165.838 154.374 165.807C154.369 165.775 154.358 165.745 154.339 165.718C154.318 165.692 154.29 165.67 154.259 165.656C154.228 165.641 154.194 165.634 154.16 165.635C154.112 165.634 154.065 165.648 154.026 165.674C153.986 165.701 153.956 165.739 153.939 165.784C153.361 167.202 152.883 168.659 152.509 170.143C152.135 171.632 151.871 173.146 151.72 174.673C151.404 177.726 151.612 180.811 152.335 183.795C152.362 183.942 152.44 184.075 152.555 184.17C152.671 184.265 152.816 184.316 152.966 184.314V184.314ZM117.832 168.227C117.887 168.229 117.941 168.217 117.991 168.194C118.04 168.171 118.084 168.136 118.118 168.093C118.208 167.973 118.291 167.848 118.367 167.718C118.497 167.467 118.678 167.247 118.899 167.071C119.256 166.818 119.704 166.728 120.137 166.641C120.329 166.603 120.527 166.563 120.711 166.51C121.473 166.298 122.164 165.886 122.713 165.317L124.678 160.883C124.68 160.859 124.677 160.836 124.67 160.813C124.663 160.791 124.651 160.77 124.635 160.753C124.616 160.735 124.595 160.72 124.571 160.711C124.547 160.701 124.521 160.697 124.495 160.697C124.461 160.697 124.427 160.704 124.396 160.72C124.365 160.735 124.338 160.757 124.317 160.785C123.997 161.258 123.707 161.751 123.45 162.261C123.158 162.853 122.814 163.419 122.422 163.951C122.018 164.488 121.479 164.909 120.86 165.172C120.493 165.312 120.114 165.419 119.728 165.491C119.127 165.623 118.507 165.757 117.986 166.169C117.7 166.386 117.474 166.671 117.33 167C117.26 167.161 117.231 167.337 117.246 167.512C117.26 167.687 117.318 167.855 117.413 168.003C117.46 168.071 117.522 168.127 117.595 168.166C117.668 168.205 117.749 168.226 117.832 168.227V168.227ZM114.52 164.851C114.587 164.852 114.653 164.84 114.715 164.815C114.777 164.79 114.833 164.753 114.88 164.706C115.394 164.162 115.504 163.351 115.207 162.294C114.942 161.458 114.574 160.658 114.113 159.912C113.283 158.503 112.15 157.525 110.951 156.49C110.723 156.294 110.488 156.091 110.254 155.884C108.673 154.486 107.66 152.571 106.766 150.882C106.503 150.387 106.242 149.879 105.988 149.387L105.983 149.377L105.98 149.372C105.669 148.769 105.348 148.147 105.023 147.539C105.552 147.071 105.778 146.199 105.959 145.497C105.991 145.373 106.022 145.255 106.053 145.143L106.072 145.075C106.424 143.859 106.69 142.62 106.87 141.367C107.04 140.176 107.105 138.973 107.063 137.771L107.05 137.463L106.459 135.255C106.426 135.238 106.39 135.229 106.352 135.228C106.315 135.229 106.279 135.239 106.247 135.257C106.215 135.275 106.187 135.301 106.167 135.332C106.142 135.357 106.123 135.387 106.111 135.42C106.099 135.454 106.095 135.489 106.098 135.524C106.101 135.559 106.113 135.593 106.131 135.624C106.149 135.654 106.173 135.68 106.203 135.7C106.037 136.132 105.905 136.576 105.809 137.028C105.699 137.513 105.579 138.009 105.444 138.543C105.316 139.049 105.193 139.565 105.075 140.063L105.073 140.069L105.072 140.074C104.954 140.575 104.831 141.093 104.702 141.6C104.443 142.622 104.119 143.697 103.74 144.795C103.718 144.858 103.693 144.926 103.664 145.003L103.623 145.109L103.612 145.093C103.603 145.077 103.59 145.063 103.573 145.053C103.557 145.043 103.539 145.038 103.52 145.037C103.503 145.037 103.487 145.041 103.472 145.048C103.456 145.056 103.443 145.066 103.432 145.079C103.42 145.093 103.412 145.109 103.407 145.127C103.402 145.144 103.4 145.163 103.403 145.181C103.414 145.249 103.426 145.318 103.438 145.385V145.387V145.392C103.446 145.433 103.454 145.476 103.461 145.518L103.423 145.618C103.185 146.259 103.024 146.93 103.459 147.492C103.591 147.686 103.794 147.82 104.024 147.865C104.388 149.039 104.818 150.191 105.312 151.315L105.453 151.64C106.132 153.198 106.89 154.834 108.041 156.247C108.583 156.879 109.172 157.471 109.801 158.018C110.599 158.745 111.424 159.497 112.034 160.438C112.516 161.2 112.895 162.022 113.159 162.884L113.265 163.213C113.468 163.835 113.697 164.424 114.272 164.783C114.346 164.829 114.433 164.852 114.52 164.851ZM104.799 163.175C105.043 163.178 105.281 163.097 105.471 162.944L106.759 161.874C106.976 161.694 107.192 161.514 107.402 161.337C107.598 161.172 107.776 161.02 107.946 160.871L108.215 160.634C108.245 160.606 108.302 160.548 108.374 160.474C108.583 160.259 108.899 159.934 109.013 159.916C109.024 159.914 109.035 159.913 109.047 159.913C109.389 159.913 110.075 160.628 110.444 161.012L110.445 161.014C110.494 161.065 110.537 161.109 110.572 161.145L110.61 161.182C111.176 161.741 111.699 162.342 112.174 162.979C112.185 162.995 112.199 163.008 112.217 163.017C112.234 163.026 112.252 163.031 112.272 163.032C112.291 163.032 112.31 163.027 112.327 163.018C112.343 163.009 112.358 162.995 112.368 162.979C112.379 162.962 112.384 162.942 112.385 162.922C112.385 162.902 112.381 162.882 112.371 162.864C111.948 161.943 111.438 161.065 110.849 160.241L110.729 160.077C110.662 159.987 110.591 159.885 110.517 159.776L110.513 159.772C110.144 159.24 109.685 158.579 109.108 158.449C109.026 158.43 108.942 158.421 108.858 158.421C108.225 158.421 107.598 158.931 107.094 159.341C106.987 159.428 106.886 159.509 106.79 159.583L106.751 159.613C106.43 159.854 106.114 160.099 105.875 160.285C105.899 159.485 105.84 158.685 105.697 157.898C105.556 157.115 105.278 156.363 104.874 155.677C104.449 155.026 103.948 154.428 103.382 153.894C103.144 153.652 102.897 153.401 102.666 153.143C102.231 152.622 101.849 152.059 101.526 151.462C101.262 150.986 100.967 150.528 100.643 150.091C100.551 149.973 100.416 149.897 100.267 149.878C100.245 149.269 100.169 148.65 100.096 148.052L100.095 148.043C100.075 147.876 100.054 147.703 100.035 147.534L100.009 147.303C99.9957 147.182 99.9805 147.061 99.9646 146.931C99.8708 146.179 99.7653 145.325 100.118 144.652C100.428 144.058 101.07 143.596 101.637 143.188C101.785 143.082 101.924 142.982 102.057 142.881L102.595 142.463L104.151 140.976C104.175 140.946 104.189 140.91 104.192 140.872C104.195 140.834 104.188 140.796 104.17 140.763C104.145 140.717 104.109 140.68 104.065 140.653C104.021 140.626 103.971 140.611 103.92 140.61C103.904 140.61 103.888 140.611 103.873 140.614C102.897 140.816 101.954 141.341 101.043 141.849C100.9 141.929 100.738 142.019 100.583 142.104L100.473 142.163C99.6931 142.584 98.8364 143.131 98.3985 144.005C97.9424 144.915 97.9651 145.954 98.0328 147.028L98.0388 147.123C98.0555 147.383 98.0696 147.65 98.0831 147.909V147.914C98.1081 148.882 98.2096 149.846 98.3869 150.797C98.4242 151.005 98.5374 151.191 98.7043 151.32C98.8566 151.43 99.0405 151.488 99.2284 151.485C99.3358 151.484 99.4427 151.468 99.5454 151.436C99.9618 152.75 100.937 153.812 101.88 154.839C102.207 155.195 102.545 155.563 102.847 155.929C103.468 156.683 103.832 157.616 103.96 158.783C104.072 159.812 103.993 160.881 103.916 161.915C103.907 162.04 103.898 162.165 103.889 162.289C103.878 162.397 103.89 162.507 103.924 162.611C103.958 162.715 104.013 162.811 104.087 162.891C104.18 162.985 104.291 163.058 104.414 163.107C104.536 163.155 104.668 163.179 104.799 163.175V163.175Z" fill="#2B283A"/>
<path d="M86.6513 87.4588C84.5165 85.9255 87.6997 80.8809 88.7812 79.3799C89.7219 77.4218 90.6627 75.4637 91.6036 73.5054C91.4891 71.8995 93.0573 70.4708 94.6069 70.9593C95.955 69.9925 98.2128 70.4554 98.898 71.9691C113.804 65.477 139.596 68.1778 140.93 88.2108C143.813 93.9145 146.671 99.6671 149.229 105.525C152.779 105.716 154.499 110.028 152.386 112.814C152.105 117.34 149.236 117.698 145.407 117.497C143.868 117.902 142.273 118.121 141.121 119.309C140.244 120.205 139.648 121.341 139.073 122.442C136.419 127.528 133.047 131.928 128.477 135.445C121.369 140.764 111.747 144.583 102.885 141.993C83.8302 134.51 80.0884 104.605 86.6526 87.456L86.6513 87.4588Z" fill="white"/>
<path d="M106.926 143.048C107.436 143.048 107.954 143.029 108.465 142.994C110.299 142.865 112.119 142.579 113.904 142.137L114.332 142.031C115.946 141.626 117.638 141.154 119.026 140.223C119.308 140.046 119.525 139.782 119.644 139.472C119.74 139.205 119.746 138.914 119.662 138.644C119.568 138.344 119.382 138.082 119.131 137.894C118.857 137.689 118.523 137.58 118.181 137.583C118.094 137.582 118.007 137.589 117.921 137.601C116.841 137.791 115.777 138.062 114.739 138.413C113.963 138.654 113.161 138.903 112.358 139.078C110.723 139.447 109.053 139.637 107.378 139.644C107.182 139.644 106.985 139.641 106.791 139.635C103.536 139.543 100.377 138.512 97.6949 136.667C87.6288 129.87 85.9541 116.854 85.6438 103.801C85.4798 96.8759 85.9018 91.6852 87.0116 86.971C88.3034 81.4806 90.5216 76.2903 93.4264 71.9611C94.0825 72.2255 94.7709 72.4015 95.4734 72.4846C96.1019 72.847 96.7978 73.0773 97.5185 73.1613C98.2469 73.2472 98.9804 73.2825 99.7137 73.2668H99.9184C101.305 73.2651 102.799 73.1902 104.487 73.0379C105.918 72.911 107.387 72.7287 108.808 72.5525C111.503 72.2182 114.29 71.8724 117.026 71.8724C118.284 71.8661 119.54 71.9497 120.786 72.1223L121.007 72.1544C121.111 72.1701 121.228 72.187 121.351 72.2048H121.357C122.729 72.4037 125.283 72.7741 127.508 73.8328C129.228 74.6509 130.703 76.1688 131.411 76.8982L131.43 76.917L131.501 76.9905C131.82 77.447 132.1 77.8287 132.37 78.1979C133.079 79.1338 133.726 80.1157 134.305 81.137C134.814 82.425 135.251 83.7404 135.613 85.0771C135.949 86.3155 136.157 87.36 136.167 87.869L136.168 87.9376C136.25 90.8837 136.169 93.832 135.925 96.7691C135.824 97.9581 135.668 99.1682 135.516 100.339V100.34C135.306 101.97 135.088 103.656 135.017 105.315C135.008 105.436 135.024 105.557 135.064 105.672C135.104 105.786 135.168 105.891 135.251 105.98C135.35 106.078 135.468 106.155 135.597 106.206C135.727 106.258 135.865 106.283 136.005 106.28C136.269 106.282 136.526 106.192 136.732 106.025C136.856 105.922 136.982 105.827 137.105 105.742C138.319 104.881 139.699 104.576 140.889 104.391C140.955 104.381 141.015 104.347 141.058 104.296L141.075 104.275L141.221 104.395C140.927 104.763 140.684 105.168 140.499 105.601C140.491 105.62 140.488 105.64 140.489 105.66C140.491 105.681 140.498 105.7 140.509 105.717C140.517 105.731 140.529 105.742 140.543 105.75C140.556 105.758 140.572 105.762 140.588 105.763C140.608 105.762 140.627 105.756 140.643 105.746C142.002 104.902 143.565 104.444 145.164 104.421C145.716 104.422 146.267 104.48 146.808 104.593C148.988 105.048 150.607 106.417 151.138 108.254C151.402 109.186 151.445 110.166 151.262 111.117C151.08 112.068 150.678 112.963 150.088 113.731C148.524 115.722 146.109 115.786 143.773 115.848C143.485 115.856 143.187 115.864 142.898 115.875C142.458 115.894 141.854 116.099 141.599 116.62C141.332 117.168 141.332 117.552 141.599 118.138C141.635 118.217 141.681 118.291 141.736 118.357C141.549 118.513 141.356 118.691 141.113 118.935L140.443 119.61C140.033 120.023 139.552 120.515 139.089 121.019C137.799 122.434 136.582 123.914 135.442 125.452L135.336 125.595C135.098 125.92 134.863 126.264 134.614 126.629C133.482 128.29 132.198 130.172 130.289 130.647C129.298 130.895 128.718 131.37 128.518 132.099C128.463 132.303 128.45 132.515 128.478 132.724C128.507 132.933 128.576 133.134 128.683 133.315C128.892 133.681 129.208 133.974 129.587 134.156C129.923 134.314 130.29 134.393 130.661 134.389C131.201 134.377 131.734 134.257 132.229 134.038C132.716 133.829 133.178 133.565 133.604 133.25C134.681 132.422 135.62 131.429 136.388 130.309C137.189 129.19 137.885 127.986 138.557 126.821L138.561 126.816C138.656 126.652 138.75 126.489 138.844 126.328L139.232 125.66C139.932 124.453 140.664 123.15 141.286 121.798C141.401 121.548 141.52 121.295 141.636 121.05C141.871 120.552 142.113 120.038 142.33 119.524C142.431 119.285 142.52 119.068 142.591 118.841C142.692 118.863 142.795 118.878 142.899 118.884C143.317 118.912 143.735 118.925 144.14 118.925C145.542 118.944 146.937 118.75 148.281 118.351C149.615 117.961 150.827 117.236 151.801 116.244C152.218 115.804 152.587 115.321 152.901 114.803C153.216 114.283 153.478 113.732 153.685 113.16C154.098 112.013 154.286 110.796 154.236 109.577C154.198 108.555 153.968 107.549 153.56 106.611C153.143 105.657 152.522 104.805 151.742 104.116C151.363 103.785 150.948 103.496 150.506 103.257C151.109 102.176 151.562 101.018 151.853 99.814C152.288 98.1308 152.562 96.4101 152.673 94.675C152.908 91.325 152.566 87.7603 151.656 84.0799C150.89 80.9836 149.725 77.9998 148.191 75.2034C146.678 72.4426 144.808 69.8934 142.629 67.6219C140.458 65.3573 137.981 63.4071 135.27 61.8279C132.51 60.2231 129.526 59.0394 126.417 58.316C123.707 57.6906 120.935 57.3763 118.154 57.3792C115.648 57.3803 113.149 57.629 110.692 58.1216C108.237 58.6131 105.838 59.3485 103.53 60.3168C101.225 61.2827 99.0287 62.4884 96.9766 63.9141C94.9171 65.3459 93.0269 67.0069 91.3423 68.8653C91.062 69.1609 90.9073 69.5537 90.9108 69.961C90.9209 70.3411 91.0723 70.7037 91.3355 70.978C91.1449 71.1327 90.9549 71.2932 90.7712 71.4481L90.7479 71.4669L90.5944 71.5962C90.5389 71.6455 90.4942 71.7058 90.4632 71.7733C90.4323 71.8408 90.4157 71.914 90.4147 71.9883C90.4104 72.0781 90.4241 72.1679 90.455 72.2523C90.4858 72.3368 90.5332 72.4142 90.5944 72.4801C90.7219 72.5982 90.8897 72.6632 91.0635 72.6619C91.1419 72.6654 91.2201 72.6509 91.2919 72.6194C91.3638 72.5878 91.4275 72.5402 91.4779 72.4801L91.7849 72.0917C91.9219 71.9187 92.0825 71.7138 92.2365 71.5041C92.3678 71.5525 92.4975 71.6029 92.6228 71.6519L92.7639 71.7067C91.4482 72.5782 90.2401 73.6022 89.1649 74.7575C88.089 75.9152 87.1648 77.2052 86.4145 78.5962C84.8967 81.4173 83.8006 84.5713 83.0636 88.2382C82.4736 91.2432 82.098 94.2863 81.9397 97.3445C81.7834 100.082 81.7521 103.086 81.8425 106.527L81.8515 106.854C81.9099 108.916 82.0016 110.727 82.133 112.389C82.2894 114.376 82.5017 116.176 82.7816 117.892C83.4338 121.889 84.449 125.354 85.8856 128.486C86.5181 129.863 87.2602 131.186 88.1048 132.443C88.9593 133.717 89.9191 134.917 90.9742 136.031C92.0249 137.142 93.1776 138.152 94.4171 139.047C95.6451 139.934 96.9663 140.685 98.3572 141.286C101.064 142.45 103.98 143.05 106.926 143.048V143.048ZM141.081 112.037C141.304 112.033 141.522 111.974 141.716 111.865L141.77 111.835C142.425 111.477 143.099 111.155 143.789 110.871C144.106 110.733 144.435 110.591 144.753 110.444L144.965 110.344C145.069 110.294 145.204 110.222 145.36 110.138C146.009 109.789 146.99 109.262 147.724 109.262C148.251 109.262 148.562 109.543 148.648 110.098C148.653 110.121 148.665 110.141 148.684 110.155C148.702 110.169 148.725 110.175 148.748 110.173C148.771 110.175 148.794 110.169 148.813 110.155C148.832 110.141 148.845 110.121 148.851 110.098C148.943 109.561 148.862 109.135 148.607 108.834C148.407 108.613 148.145 108.456 147.856 108.383C147.501 108.289 147.135 108.245 146.768 108.252C145.317 108.252 143.457 108.745 142.098 109.105C141.528 109.256 141.077 109.375 140.798 109.42L140.753 109.427C140.009 109.53 139.782 110.122 139.818 110.641C139.843 110.991 139.975 111.324 140.196 111.596C140.301 111.73 140.435 111.84 140.589 111.916C140.742 111.993 140.91 112.034 141.081 112.037V112.037Z" fill="#2B283A"/>
<path d="M99.2619 139.152C99.2619 139.152 107.591 140.376 111.319 138.645C115.035 136.921 118.651 135.253 122.023 132.969C125.477 130.63 128.408 127.851 130.499 124.294C132.445 120.985 134.062 117.473 135.691 113.989C135.786 113.785 136.721 111.761 137.051 111.082C137.56 110.029 139.046 110.36 139.046 111.994C139.046 113.628 139.119 126.002 136.264 130.869C133.688 135.265 129.322 138.336 124.984 141.018C120.184 143.983 113.809 147.187 108.083 148.034C102.9 148.8 96.9866 146.649 93.2341 143.105C89.3109 139.399 88.2002 134.363 86.1757 129.54C85.7235 128.462 87.3266 127.812 87.7968 128.872C88.6818 130.869 99.2619 139.152 99.2619 139.152Z" fill="#2B283A"/>
<g clip-path="url(#clip0)">
<path d="M93.7299 111.085C95.4321 110.297 97.2591 109.811 99.1284 109.652C99.9393 109.578 101.532 109.349 102.395 109.878C102.806 110.136 103.153 110.483 103.409 110.894C103.528 110.759 103.639 110.616 103.741 110.467C104.214 109.618 107.113 109.601 107.987 109.673C110.053 109.836 112.079 110.335 113.984 111.15C117.399 112.621 120.268 115.677 119.366 119.557C119.238 120.107 118.623 120.32 118.116 120.226L107.86 118.303L105.481 117.857C104.763 117.722 103.884 117.68 103.202 117.37C102.91 117.486 102.607 117.572 102.297 117.626C98.1839 118.443 94.0657 119.235 89.9502 120.04C89.4567 120.136 88.8094 119.886 88.7209 119.339C88.1302 115.691 90.4536 112.616 93.7304 111.084" fill="#2B283A"/>
</g>
<path d="M101.827 125.998C102.005 125.998 102.184 125.995 102.356 125.993H102.377H102.378C102.542 125.99 102.713 125.988 102.879 125.988H103.001H103.072C103.227 125.99 103.383 125.991 103.536 125.991C104.844 125.997 106.151 125.914 107.446 125.744C107.491 125.735 107.531 125.714 107.561 125.682C107.59 125.65 107.608 125.609 107.611 125.567C107.62 125.525 107.614 125.481 107.594 125.442C107.575 125.403 107.542 125.371 107.501 125.351C106.239 124.841 104.937 124.42 103.607 124.093L103.218 123.997C103.038 123.951 102.854 123.901 102.676 123.853H102.675C101.976 123.663 101.252 123.466 100.551 123.466C100.021 123.458 99.4998 123.592 99.0489 123.852C98.9393 123.914 98.8458 123.998 98.7753 124.098C98.7047 124.198 98.6589 124.311 98.6409 124.429C98.6242 124.551 98.6366 124.674 98.6772 124.791C98.7177 124.907 98.7855 125.014 98.8757 125.103C99.2425 125.47 99.7168 125.73 100.24 125.849C100.76 125.961 101.294 126.011 101.827 125.998V125.998ZM101.173 111.372C101.951 111.361 102.721 111.216 103.443 110.946C104.397 110.589 105.295 110.114 106.113 109.534C106.303 109.397 106.434 109.201 106.485 108.982C106.529 108.775 106.511 108.56 106.432 108.362C106.343 108.127 106.188 107.918 105.983 107.757C105.789 107.597 105.541 107.507 105.283 107.502C105.09 107.503 104.901 107.557 104.741 107.657C104.683 107.698 104.622 107.742 104.558 107.788C104.029 108.185 103.471 108.547 102.887 108.871C102.132 109.271 101.476 109.466 100.884 109.466C100.593 109.467 100.305 109.415 100.037 109.311C99.739 109.189 99.4707 109.012 99.2491 108.79C99.0383 108.536 98.8883 108.243 98.8093 107.93C98.7302 107.617 98.7238 107.292 98.7907 106.977C98.9516 106.368 99.2892 105.811 99.7664 105.368C100.203 104.938 100.7 104.565 101.244 104.258C101.317 104.199 101.369 104.119 101.391 104.031C101.414 103.943 101.405 103.851 101.367 103.767C101.326 103.646 101.247 103.54 101.14 103.461C101.015 103.372 100.861 103.325 100.704 103.327C100.651 103.327 100.599 103.331 100.547 103.34C99.9321 103.431 99.3413 103.63 98.8054 103.926C98.3457 104.184 97.9471 104.526 97.6341 104.932C97.0524 105.712 96.7874 106.659 96.8863 107.604C96.9301 108.087 97.0595 108.561 97.2693 109.006C97.4779 109.452 97.7703 109.86 98.1327 110.21C98.527 110.588 99.0003 110.886 99.5232 111.085C100.046 111.285 100.608 111.383 101.173 111.372V111.372ZM115.073 102.264C115.253 102.258 115.43 102.221 115.595 102.155C115.617 102.157 115.639 102.157 115.662 102.157C115.919 102.138 116.169 102.07 116.397 101.958C116.591 101.879 116.767 101.765 116.915 101.623C116.987 101.607 117.056 101.581 117.119 101.544C117.321 101.424 117.478 101.248 117.567 101.04C117.658 100.834 117.71 100.614 117.718 100.391C117.718 100.376 117.718 100.36 117.719 100.344C117.719 100.332 117.719 100.321 117.719 100.31C117.736 100.246 117.749 100.188 117.759 100.133C117.895 99.3798 117.74 98.5403 117.552 97.7455C117.534 97.666 117.516 97.5822 117.498 97.4935C117.473 97.3746 117.448 97.2508 117.416 97.1298L117.582 97.1239C117.937 97.111 118.304 97.0977 118.667 97.0838C118.891 97.0753 119.125 97.0746 119.346 97.0746H119.563C120.471 97.0746 121.276 97.0512 121.954 96.7628C121.966 96.7578 121.977 96.7498 121.986 96.7394C121.994 96.729 121.999 96.7168 122 96.704C122.001 96.6863 121.998 96.6685 121.99 96.6523C121.982 96.6362 121.969 96.6222 121.954 96.6115C121.245 96.1388 120.208 95.979 119.293 95.8382C119.05 95.8008 118.821 95.7654 118.601 95.7253L118.51 95.7083C117.26 95.4694 115.998 95.2645 114.654 95.0818C111.911 94.7091 109.19 94.5375 107.125 94.4297C103.744 94.2533 100.3 94.1857 96.9697 94.1204C95.2315 94.0865 93.4346 94.0511 91.6683 94.0015C91.6471 94.0015 91.6258 94.0006 91.605 94.0006C91.3985 93.9949 91.1929 94.0281 91.0006 94.0983C90.8083 94.1685 90.6332 94.2743 90.4858 94.4092C90.1604 94.7335 89.9861 95.1647 90.0009 95.6084C89.9983 96.0116 90.1473 96.403 90.422 96.7145C90.575 96.8787 90.7655 97.0091 90.9795 97.0961C91.1934 97.1831 91.4255 97.2245 91.6588 97.2174H91.6676C92.1195 97.2155 92.5783 97.2148 93.0222 97.2141H93.0405L93.6587 97.2131C93.2813 98.5521 93.4715 99.975 94.1898 101.187C94.3166 101.387 94.4994 101.551 94.7187 101.663C94.9304 101.77 95.1674 101.825 95.4082 101.825C95.5907 101.827 95.7716 101.794 95.9406 101.73C96.1096 101.666 96.2634 101.571 96.393 101.452C96.6621 101.203 96.8879 100.916 97.0623 100.603C97.2311 100.297 97.3528 99.9713 97.424 99.6342C97.5623 98.947 97.5297 98.2394 97.329 97.5657L97.4096 97.3878C97.4349 97.3306 97.455 97.2716 97.4699 97.2112C98.9028 97.2124 100.357 97.2148 101.763 97.2174L103.907 97.2209L107.125 97.2235C107.767 97.2235 108.417 97.2254 109.045 97.2271C109.725 97.2288 110.428 97.2306 111.12 97.2306C111.988 97.2306 112.711 97.2279 113.396 97.222L113.394 97.2245C113.367 97.2598 113.344 97.2969 113.323 97.3355C113.203 97.6086 113.127 97.8967 113.096 98.1904C113.027 98.6748 113.033 99.166 113.115 99.6487C113.166 100.028 113.292 100.394 113.487 100.731L113.488 100.738C113.579 101.103 113.698 101.484 114.029 101.772C114.114 101.848 114.211 101.91 114.318 101.957C114.413 102.053 114.528 102.13 114.656 102.183C114.784 102.236 114.923 102.264 115.063 102.264L115.073 102.264Z" fill="#2B283A"/>
<defs>
<clipPath id="clip0">
<rect width="30.9048" height="10.7083" fill="white" transform="matrix(-1 0 0 1 119.534 109.539)"/>
</clipPath>
</defs>
</svg>
