<svg width="230" height="280" viewBox="0 0 230 280" fill="none" xmlns="http://www.w3.org/2000/svg">
<path d="M62.7812 180.98H106.312V234.585H62.7812V180.98Z" fill="#2B283A"/>
<path d="M162.169 261.183H162.172C162.385 261.19 162.597 261.149 162.792 261.063C162.987 260.978 163.161 260.85 163.301 260.689C163.466 260.482 163.585 260.242 163.651 259.985C163.716 259.728 163.726 259.461 163.681 259.2C163.488 257.921 163.301 256.621 163.12 255.364V255.362V255.357C163.02 254.664 162.917 253.947 162.814 253.241C166.743 254.309 170.793 254.866 174.864 254.898C176.582 254.9 178.299 254.784 180.001 254.549C181.711 254.312 183.4 253.942 185.053 253.442C185.132 253.361 185.161 253.295 185.14 253.246C185.104 253.16 184.923 253.12 184.568 253.12C184.435 253.12 184.297 253.125 184.155 253.131L184.123 253.132C184.001 253.137 183.886 253.142 183.792 253.142C183.729 253.145 183.666 253.14 183.604 253.127C184.974 252.199 186.091 250.944 186.853 249.475C187.22 248.765 187.516 248.021 187.737 247.254C187.962 246.467 188.128 245.664 188.233 244.852C188.437 243.16 188.488 241.454 188.385 239.753C188.302 238.028 188.123 236.32 187.949 234.668V234.665C187.854 233.753 187.763 232.89 187.692 232.055C187.083 228.132 186.529 224.058 185.993 220.117V220.114C184.625 210.052 183.21 199.648 180.669 189.743C180.012 187.184 179.294 184.715 178.533 182.404C177.717 179.927 176.82 177.531 175.867 175.282C174.857 172.9 173.747 170.597 172.567 168.436C171.344 166.192 169.995 164.017 168.528 161.924C166.985 159.848 165.274 157.904 163.41 156.11C161.545 154.312 159.52 152.687 157.361 151.254C155.212 149.827 152.92 148.625 150.524 147.669C148.117 146.711 145.605 146.04 143.041 145.67L142.754 145.63C142.258 145.564 141.743 145.504 141.244 145.446C138.628 145.142 135.925 144.827 133.714 143.452C132.564 142.534 131.68 141.328 130.823 140.163C130.149 139.245 129.512 138.376 128.8 137.73C128.463 137.414 128.08 137.152 127.664 136.952C127.251 136.757 126.8 136.654 126.343 136.649H126.327C125.91 136.679 125.508 136.811 125.155 137.034C124.728 137.267 124.272 137.582 123.789 137.915C123.338 138.227 122.871 138.549 122.392 138.83C122.326 137.704 121.954 136.696 121.596 135.722C121.331 135.074 121.129 134.403 120.994 133.717L120.975 133.587C120.929 133.251 120.903 132.917 120.879 132.595C120.773 131.216 120.673 129.913 119.01 128.549C118.2 127.952 117.325 127.45 116.4 127.055C115.328 126.587 114.221 126.202 113.089 125.905C111.87 125.579 110.63 125.332 109.379 125.165C108.115 124.994 106.842 124.907 105.567 124.904C104.063 124.89 102.561 125.042 101.089 125.358C99.6573 125.681 98.4593 126.17 97.5285 126.809C96.6757 127.402 95.9026 128.102 95.2284 128.892C94.5967 129.638 94.0444 130.447 93.5807 131.306C92.6502 133.005 92.0189 134.825 91.3504 136.752C90.8657 138.149 90.3646 139.594 89.7381 140.991C89.2242 140.76 88.6653 140.645 88.1018 140.656C87.0657 140.672 86.0508 140.952 85.1522 141.468C84.7289 141.705 84.3436 142.004 84.0092 142.356C83.7073 142.667 83.4791 143.041 83.3416 143.452C82.8854 144.008 82.6827 145.152 82.4862 146.258V146.259C82.3436 147.065 82.209 147.825 81.9845 148.358C80.538 148.588 79.1345 148.88 77.8134 149.226C76.5485 149.555 75.3024 149.953 74.0807 150.417C72.9446 150.85 71.8352 151.35 70.7583 151.915C69.7422 152.448 68.7603 153.045 67.8182 153.7C66.9143 154.331 66.0509 155.017 65.233 155.756C64.4335 156.479 63.6785 157.249 62.9723 158.064C62.2712 158.874 61.6162 159.723 61.0104 160.607C60.4005 161.499 59.8359 162.42 59.3186 163.368C58.2592 165.326 57.3609 167.367 56.6324 169.471C55.8612 171.687 55.2125 173.944 54.6891 176.231C53.6448 180.696 52.912 185.426 52.133 191.155C51.0925 197.024 49.6588 202.994 48.2723 208.767V208.768C47.3728 212.513 46.4429 216.386 45.6257 220.206C44.7089 224.492 44.0356 228.251 43.5674 231.699C43.0281 235.533 42.7361 239.398 42.693 243.27C42.6788 245.247 42.7436 247.206 42.8858 249.093C43.035 251.073 43.2745 253.042 43.5977 254.945C43.1233 255.626 42.7187 256.353 42.3898 257.115C42.1869 257.464 42.0866 257.863 42.1007 258.266C42.1141 258.659 42.2235 259.042 42.4193 259.383C42.5953 259.711 42.8556 259.986 43.1734 260.179C43.4912 260.373 43.8548 260.478 44.2269 260.484H44.228C44.2588 260.484 44.2904 260.484 44.3217 260.482C44.9393 260.427 45.5647 260.367 46.1696 260.308H46.172C47.7085 260.159 49.2971 260.004 50.8744 259.945C54.0752 259.834 57.5217 259.78 61.4107 259.78C63.6782 259.78 66.1422 259.798 69.165 259.837L69.9962 259.848C82.3307 260.002 94.8672 260.219 106.991 260.428C125.074 260.74 143.775 261.064 162.169 261.183ZM94.8438 192.321C95.2651 194.138 94.5855 195.617 93.8662 197.181C93.4596 198.008 93.122 198.867 92.8567 199.749C92.6856 200.373 92.7508 201.335 92.8084 202.184C92.8319 202.531 92.8542 202.858 92.8567 203.123C92.8247 203.632 92.5525 204.194 92.2885 204.737C91.9528 205.428 91.6059 206.143 91.7241 206.787C92.0018 208.299 92.7422 209.817 93.4583 211.286C94.0683 212.537 94.699 213.83 95.0259 215.094C95.1941 215.711 95.2735 216.348 95.2617 216.987C95.2456 217.637 95.1036 218.278 94.8435 218.874C93.7029 221.117 90.2661 222.268 87.9919 223.028L87.9805 223.032C87.3349 223.274 86.6661 223.449 85.9846 223.555C85.2464 223.67 84.5003 223.727 83.7531 223.725C81.4786 223.714 79.2262 223.277 77.1128 222.436C76.1133 222.042 75.1647 221.53 74.2873 220.91C73.4931 220.357 72.8033 219.668 72.2501 218.874C71.332 217.508 70.3057 214.797 69.4813 212.618C68.9741 211.278 68.5363 210.121 68.2094 209.483L68.0155 206.776C67.7897 203.597 67.5504 199.968 67.568 197.136C67.587 193.991 67.9187 192.239 68.5801 191.78C70.0494 190.759 72.1581 190.003 74.8473 189.532C77.3709 189.122 79.9249 188.928 82.4814 188.953C85.3438 188.953 87.856 189.145 89.4594 189.306C91.3223 189.493 92.4985 189.691 92.5987 189.757C92.8268 189.908 93.0207 190.021 93.1914 190.121C93.6649 190.399 93.9506 190.567 94.2914 191.105C94.7448 191.166 95.2073 191.229 95.666 191.294C95.9701 191.394 96.1298 191.6 96.0908 191.846C96.0594 192.002 95.9691 192.141 95.8384 192.233C95.6785 192.35 95.4849 192.411 95.2871 192.407C95.1354 192.406 94.9853 192.377 94.844 192.321H94.8438Z" fill="white"/>
<path d="M162.171 261.183C162.384 261.19 162.596 261.149 162.791 261.063C162.987 260.978 163.16 260.85 163.3 260.689C163.465 260.482 163.585 260.242 163.65 259.985C163.716 259.728 163.726 259.461 163.68 259.2C163.487 257.918 163.3 256.619 163.119 255.362L163.115 255.331C163.016 254.647 162.914 253.938 162.812 253.241C166.741 254.309 170.792 254.866 174.863 254.898C176.581 254.9 178.297 254.784 180 254.549C181.71 254.312 183.4 253.943 185.053 253.443C185.132 253.363 185.161 253.297 185.141 253.247C185.105 253.161 184.923 253.121 184.568 253.121C184.435 253.121 184.298 253.126 184.156 253.132L184.123 253.134C184.001 253.138 183.886 253.143 183.793 253.143C183.729 253.146 183.666 253.141 183.604 253.128C184.974 252.2 186.091 250.944 186.853 249.475C187.22 248.765 187.516 248.021 187.736 247.254C187.961 246.467 188.127 245.664 188.232 244.852C188.436 243.16 188.487 241.453 188.384 239.752C188.301 238.028 188.122 236.32 187.948 234.668C187.853 233.755 187.762 232.892 187.69 232.055C187.082 228.132 186.528 224.058 185.992 220.117V220.114C184.623 210.052 183.208 199.648 180.667 189.743C180.011 187.184 179.292 184.715 178.531 182.404C177.716 179.926 176.819 177.53 175.866 175.282C174.856 172.9 173.746 170.597 172.566 168.436C171.343 166.192 169.995 164.017 168.528 161.924C166.985 159.848 165.273 157.904 163.41 156.11C161.544 154.312 159.52 152.687 157.361 151.254C155.211 149.827 152.92 148.625 150.523 147.669C148.116 146.711 145.605 146.04 143.04 145.67L142.753 145.63L142.464 145.592C142.061 145.541 141.645 145.493 141.242 145.446C138.627 145.142 135.924 144.827 133.713 143.451C132.563 142.534 131.679 141.328 130.822 140.163C130.176 139.283 129.566 138.452 128.89 137.815C128.571 137.505 128.21 137.24 127.819 137.029C127.437 136.824 127.017 136.7 126.586 136.661L124.699 137.819L113.738 143.237C112.681 143.533 111.877 143.863 111.348 144.218C110.819 144.573 110.551 144.962 110.551 145.376V153.839C110.551 154.402 110.048 155.336 109.056 156.613C108.064 157.89 106.554 159.548 104.57 161.539L100.885 157.866L100.968 157.385C101.317 155.322 101.494 153.923 101.494 153.227C101.494 153.039 101.266 152.717 100.818 152.267C100.174 151.648 99.4975 151.065 98.7906 150.519C96.9968 149.096 94.2682 147.122 90.6807 144.652L87.5269 141.683L87.8632 140.661C87.367 140.686 86.8761 140.775 86.4022 140.924C85.9285 141.071 85.4741 141.273 85.0487 141.528C84.1698 142.056 83.5632 142.74 83.3408 143.452C82.8846 144.007 82.682 145.151 82.4854 146.258V146.259C82.3428 147.064 82.2082 147.825 81.9838 148.357C80.5372 148.587 79.1338 148.88 77.8126 149.225C76.5477 149.554 75.3016 149.952 74.0799 150.417C72.9438 150.85 71.8344 151.35 70.7575 151.914C69.7414 152.448 68.7595 153.044 67.8174 153.7C66.9136 154.33 66.0501 155.017 65.2322 155.755C64.4328 156.478 63.678 157.249 62.9719 158.064C62.2707 158.874 61.6157 159.723 61.01 160.607C60.4001 161.499 59.8355 162.42 59.3182 163.368C58.2587 165.326 57.3602 167.367 56.6316 169.47C55.8604 171.686 55.2117 173.943 54.6884 176.23C53.644 180.696 52.9112 185.426 52.1322 191.154C51.0917 197.023 49.658 202.993 48.2715 208.766V208.767C47.372 212.512 46.4421 216.385 45.6249 220.205C44.7081 224.491 44.0348 228.25 43.5667 231.698C43.0273 235.532 42.7353 239.397 42.6922 243.269C42.678 245.246 42.7428 247.205 42.885 249.092C43.0342 251.072 43.2737 253.041 43.5969 254.944C43.1225 255.625 42.7179 256.352 42.3891 257.114C42.186 257.463 42.0858 257.862 42.0999 258.265C42.1133 258.658 42.2227 259.041 42.4185 259.382C42.5945 259.71 42.8548 259.985 43.1726 260.179C43.4904 260.372 43.854 260.477 44.2261 260.483H44.2272C44.2578 260.483 44.2894 260.483 44.3209 260.481C44.9364 260.427 45.5603 260.367 46.1637 260.308H46.1688C47.7064 260.158 49.2957 260.004 50.8737 259.945C54.0753 259.834 57.5218 259.78 61.4103 259.78C63.6775 259.78 66.1412 259.798 69.1642 259.837L69.9954 259.848C82.3255 260.001 94.8621 260.218 106.986 260.428H106.99C125.074 260.741 143.775 261.064 162.169 261.184L162.171 261.183ZM130.915 211.04L132.44 222.103L128.771 230.003L120.464 227.205L106.928 223.637L99.1613 215.757L94.7798 214.286C95.0507 215.025 95.212 215.799 95.2586 216.584C95.2987 217.37 95.1566 218.153 94.8434 218.875C93.7029 221.118 90.2661 222.268 87.9919 223.029L87.9805 223.033C87.3349 223.275 86.6661 223.45 85.9845 223.555C85.2464 223.671 84.5002 223.728 83.7531 223.725C81.4785 223.715 79.2262 223.277 77.1127 222.437C76.1133 222.043 75.1647 221.531 74.2873 220.911C73.4932 220.358 72.8035 219.669 72.2505 218.874C71.3323 217.509 70.306 214.797 69.4816 212.619C68.9745 211.279 68.5367 210.122 68.2097 209.484L67.959 205.967C67.7366 202.774 67.5357 199.452 67.5718 196.807C67.6119 193.869 67.9419 192.225 68.5806 191.781C70.05 190.761 72.1586 190.004 74.8478 189.533C77.3714 189.123 79.9254 188.929 82.482 188.954C85.3443 188.954 87.8565 189.146 89.4599 189.307C91.3228 189.494 92.4991 189.693 92.5992 189.758C92.8274 189.909 93.0212 190.022 93.1919 190.122C93.6655 190.4 93.9512 190.568 94.292 191.107L94.5323 191.139L93.1805 189.305L93.659 189.05C95.359 188.148 96.7814 187.463 97.8869 187.012C98.9925 186.561 99.8125 186.333 100.324 186.333C100.859 186.333 101.686 186.754 102.781 187.585C104.244 188.745 105.629 190 106.929 191.341L107.222 191.476C108.94 192.257 110.615 193.131 112.238 194.094C113.565 194.9 114.567 195.656 115.218 196.34L115.264 196.389C116.579 197.8 119.218 201.603 123.11 207.692L128.772 211.04L130.915 211.04ZM92.9589 199.404L95.0058 195.485V192.372C94.9507 192.359 94.8965 192.342 94.8434 192.321C95.2647 194.139 94.5853 195.617 93.866 197.182C93.5169 197.902 93.2139 198.645 92.9587 199.404L92.9589 199.404Z" fill="white"/>
<path d="M161.802 259.96C162.025 259.96 162.244 259.906 162.442 259.803L162.488 259.778L162.565 259.733C162.844 259.564 163.062 259.31 163.188 259.009C163.328 258.713 163.348 258.374 163.245 258.063C162.972 257.268 162.746 256.458 162.569 255.637C162.402 254.93 162.229 254.199 161.994 253.5L162.393 253.678L162.918 253.907C165.06 254.86 167.264 255.668 169.514 256.323C172.006 257.023 174.259 257.363 176.402 257.363C177.986 257.368 179.563 257.165 181.093 256.757C182.465 256.4 183.764 255.808 184.934 255.008C186.107 254.211 187.072 253.145 187.751 251.901C188.4 250.648 188.833 249.294 189.033 247.898C189.236 246.502 189.345 245.094 189.359 243.683C189.448 240.22 189.263 236.755 188.808 233.321C188.522 230.999 188.107 228.696 187.565 226.42C187.881 226.14 188.083 225.753 188.13 225.333C188.348 223.572 188.077 221.744 187.816 219.977V219.973C187.756 219.572 187.695 219.157 187.641 218.754C187.342 216.516 187.034 214.455 186.698 212.452C185.967 208.092 185.129 203.841 184.205 199.817C183.365 196.154 182.369 192.433 181.245 188.758C180.146 185.165 178.896 181.522 177.529 177.929L177.291 177.308C175.878 173.633 174.519 170.488 173.139 167.694C171.61 164.553 169.836 161.537 167.835 158.674C166.896 157.317 165.874 156.019 164.777 154.786C163.679 153.555 162.454 152.445 161.121 151.473C158.787 149.786 156.03 148.412 152.691 147.272C151.202 146.765 149.688 146.336 148.156 145.985C146.669 145.643 145.109 145.361 143.518 145.144C143.046 145.08 142.562 145.018 142.095 144.959C139.375 144.613 136.562 144.256 134.044 143.148C134.132 142.982 134.186 142.799 134.201 142.611C134.216 142.424 134.193 142.235 134.132 142.056C134.019 141.69 133.785 141.372 133.467 141.156C131.624 139.939 129.902 138.402 128.235 136.916C127.992 136.698 127.739 136.474 127.49 136.253C127.39 136.16 127.259 136.108 127.123 136.107C127.029 136.108 126.936 136.133 126.854 136.18C126.772 136.226 126.703 136.293 126.653 136.373C126.606 136.453 126.58 136.543 126.58 136.636C126.579 136.729 126.604 136.82 126.65 136.9C127.268 138.122 128.002 139.283 128.841 140.366C129.384 141.039 129.964 141.672 130.511 142.256C129.066 143.505 127.839 145.031 126.652 146.506L126.579 146.597C126.21 147.056 125.841 147.526 125.484 147.98C124.359 149.411 123.196 150.891 121.897 152.208C121.084 153.04 120.18 153.776 119.202 154.404C118.223 155.027 117.175 155.534 116.08 155.915L115.624 156.073C114.456 156.459 113.331 156.963 112.265 157.577C111.089 158.291 110.233 159.114 109.65 160.095C109.606 160.168 109.583 160.251 109.583 160.337C109.583 160.422 109.606 160.506 109.65 160.579C109.693 160.658 109.757 160.725 109.834 160.772C109.911 160.819 109.999 160.846 110.09 160.849C110.176 160.848 110.26 160.824 110.333 160.777C111.75 159.9 113.355 159.461 114.909 159.037C115.794 158.795 116.71 158.544 117.587 158.215C118.739 157.78 119.842 157.224 120.875 156.555C121.908 155.883 122.874 155.114 123.761 154.259C125.252 152.83 126.568 151.209 127.84 149.642L127.847 149.634C128.107 149.314 128.375 148.983 128.641 148.658C130.183 146.809 131.88 145.096 133.715 143.537C135.12 144.459 136.639 145.195 138.234 145.727C139.759 146.258 141.338 146.661 143.096 147.096L143.456 147.185C145.381 147.661 146.943 148.096 148.373 148.554C149.997 149.063 151.589 149.672 153.138 150.376C154.515 150.998 155.854 151.7 157.149 152.478C158.445 153.254 159.661 154.156 160.78 155.171C163.212 157.403 165.091 160.286 166.661 162.813C168.522 165.842 170.162 169.002 171.567 172.268C172.821 175.138 174.039 178.3 175.398 182.217C176.598 185.679 177.721 189.236 178.734 192.791C179.739 196.317 180.663 199.931 181.481 203.534C182.285 207.079 182.96 210.703 183.543 214.612C183.807 216.382 184.047 218.193 184.256 219.997C184.31 220.462 184.355 220.939 184.398 221.4V221.404C184.533 222.849 184.673 224.342 185.119 225.741C185.213 226.071 185.411 226.363 185.683 226.573C185.919 226.745 186.204 226.836 186.495 226.834C186.519 226.834 186.542 226.834 186.565 226.832L186.687 228.349C186.841 230.294 186.997 232.365 187.048 234.429C187.14 238.128 187.075 241.443 186.85 244.56L186.816 245.021C186.741 246.294 186.536 247.556 186.203 248.787C185.795 250.167 185.187 251.237 184.345 252.057C183.46 252.919 182.289 253.57 180.867 253.99C179.573 254.356 178.234 254.544 176.889 254.547C176.806 254.548 176.724 254.549 176.645 254.549C175.225 254.541 173.81 254.394 172.42 254.109C171.019 253.822 169.639 253.439 168.29 252.964C165.574 252.022 162.942 250.787 160.396 249.592L159.738 249.283C157.041 248.019 154.307 246.652 151.613 245.219C148.99 243.823 146.327 242.323 143.697 240.762C141.072 239.203 138.424 237.56 135.826 235.88C134.565 235.064 133.29 234.219 132.038 233.371C131.788 233.201 131.539 233.023 131.298 232.851C130.849 232.531 130.385 232.2 129.91 231.918C130.088 231.756 130.213 231.543 130.266 231.307C130.291 231.187 130.292 231.062 130.268 230.941C130.244 230.82 130.197 230.705 130.128 230.603C130.658 230.135 131.117 229.591 131.488 228.99C131.871 228.372 132.187 227.716 132.429 227.031C132.903 225.685 133.17 224.275 133.223 222.849C133.294 221.01 133.068 219.149 132.85 217.35L132.849 217.341C132.814 217.053 132.778 216.755 132.743 216.462C132.614 215.362 132.455 214.276 132.303 213.266C132.276 213.09 132.253 212.914 132.228 212.728C132.194 212.474 132.16 212.212 132.117 211.954C134.938 213.504 137.857 215.001 140.794 216.403C143.691 217.786 146.689 219.118 149.707 220.361C152.693 221.591 155.761 222.724 159.087 223.823L159.729 224.035C161.547 224.63 162.951 225.06 164.281 225.429C165.96 225.895 167.474 226.248 168.909 226.508C168.919 226.509 168.928 226.51 168.937 226.51C168.979 226.508 169.019 226.493 169.05 226.466C169.082 226.44 169.104 226.403 169.113 226.362C169.121 226.332 169.116 226.3 169.102 226.273C169.087 226.246 169.062 226.225 169.033 226.215C167.025 225.329 164.938 224.523 162.92 223.742C161.899 223.347 160.842 222.939 159.809 222.526L159.304 222.32C159.365 222.317 159.425 222.308 159.485 222.294C160.758 221.986 162.042 221.556 163.284 221.139L163.287 221.138C163.796 220.967 164.322 220.79 164.838 220.626C165.353 220.461 165.898 220.313 166.426 220.17C167.592 219.853 168.799 219.525 169.85 218.983C169.872 218.973 169.891 218.955 169.901 218.933C169.912 218.911 169.915 218.885 169.909 218.861C169.904 218.832 169.888 218.806 169.866 218.786C169.844 218.766 169.816 218.754 169.787 218.751C169.614 218.739 169.433 218.733 169.249 218.733C168.073 218.733 166.85 218.974 165.667 219.208C165.265 219.287 164.887 219.362 164.507 219.428L163.873 219.539C162.901 219.71 161.772 219.916 160.668 220.191C160.647 220.011 160.591 219.837 160.502 219.679C160.413 219.521 160.293 219.383 160.15 219.272C157.574 217.365 157.358 213.846 157.167 210.741V210.74C157.128 210.104 157.091 209.503 157.036 208.928L156.79 206.391C156.373 202.109 155.907 197.556 155.206 193.106C155.201 193.064 155.179 193.025 155.146 192.998C155.113 192.97 155.071 192.956 155.029 192.959C154.972 192.956 154.917 192.976 154.875 193.014C154.833 193.051 154.807 193.104 154.803 193.16C154.779 196.903 154.968 200.697 155.151 204.366C155.235 206.052 155.322 207.795 155.387 209.513L155.419 210.408L155.423 210.549C155.536 213.87 155.651 217.303 157.742 219.857C157.613 219.781 157.466 219.74 157.315 219.738C157.219 219.736 157.123 219.756 157.034 219.796C156.946 219.836 156.868 219.895 156.805 219.969C156.521 220.279 156.357 220.681 156.345 221.101C154.501 220.328 152.577 219.498 150.626 218.634C147.63 217.306 144.585 215.864 141.575 214.348C138.647 212.872 135.673 211.286 132.738 209.633C132.612 209.557 132.473 209.507 132.328 209.486C132.182 209.464 132.034 209.472 131.892 209.508C131.749 209.544 131.616 209.608 131.498 209.697C131.381 209.785 131.282 209.896 131.208 210.022L131.163 210.016C131.156 210.015 131.148 210.014 131.141 210.014L131.096 210.012H131.091C130.828 209.871 130.533 209.799 130.235 209.803C129.571 209.821 128.937 210.083 128.455 210.539C128.438 210.555 128.423 210.573 128.409 210.589L128.398 210.601C127.494 210.194 126.66 209.647 125.926 208.98C125.151 208.27 124.434 207.5 123.781 206.676C123.178 205.926 122.576 205.091 121.939 204.121C121.417 203.327 120.906 202.497 120.412 201.694C119.663 200.475 118.888 199.216 118.048 198.037C117.222 196.849 116.277 195.748 115.227 194.753C114.083 193.704 112.799 192.817 111.413 192.117C110.027 191.42 108.575 190.863 107.079 190.456C107.084 190.412 107.08 190.367 107.066 190.325C107.052 190.283 107.028 190.245 106.998 190.213C106.963 190.168 106.92 190.13 106.871 190.102C106.822 190.073 106.767 190.056 106.711 190.049C106.649 190.052 106.59 190.068 106.535 190.096C106.522 190.103 106.511 190.113 106.504 190.126L106.212 189.627C105.999 189.266 105.879 189.071 105.832 189.012C105.494 188.587 105.143 188.161 104.786 187.744C104.195 187.01 103.492 186.373 102.703 185.857C102.066 185.464 101.329 185.26 100.579 185.27C99.5147 185.27 98.4249 185.626 97.3717 185.97L97.3475 185.978C96.6432 186.208 95.9289 186.447 95.2375 186.678L95.2185 186.684C94.8555 186.805 94.48 186.931 94.1107 187.053L93.9995 187.09C93.9329 187.111 93.8664 187.132 93.7915 187.155C93.4086 187.261 93.0376 187.405 92.6843 187.587C92.3502 187.755 92.0817 188.03 91.921 188.368C91.7602 188.706 91.7164 189.088 91.7964 189.453C88.8671 188.728 85.8591 188.37 82.8415 188.387C80.3489 188.394 77.8609 188.601 75.4012 189.004C72.9721 189.4 70.5728 189.961 68.2198 190.683C68.0687 190.725 67.9309 190.805 67.8201 190.915C67.7093 191.026 67.6292 191.164 67.5878 191.315C67.1555 193.506 66.8585 195.722 66.6986 197.95C66.5396 200.178 66.5534 202.415 66.7398 204.641C66.9008 206.558 67.2079 208.46 67.6583 210.33C68.1108 212.199 68.7377 214.022 69.5309 215.775L69.6221 215.974C70.5764 218.037 71.5487 219.67 72.5946 220.967C73.1986 221.73 73.8945 222.417 74.6665 223.01C75.4167 223.586 76.2676 224.016 77.1757 224.28C78.1382 224.533 79.131 224.65 80.1259 224.63C80.99 224.63 81.868 224.568 82.7173 224.507C83.1631 224.476 83.6241 224.443 84.0691 224.421C84.5603 224.396 85.0628 224.375 85.5489 224.356H85.55C87.2344 224.287 88.976 224.217 90.6543 223.951C91.5931 223.811 92.5002 223.507 93.3345 223.055C94.165 222.596 94.8903 221.968 95.4635 221.212C96.4982 219.851 97.0424 218.19 97.4764 216.599C97.7098 216.673 97.9016 216.74 98.0795 216.81C98.9009 217.15 99.6454 217.653 100.269 218.287C100.882 218.881 101.442 219.543 101.984 220.183C102.632 220.987 103.336 221.743 104.093 222.446C105.38 223.565 106.837 224.474 108.408 225.139C109.74 225.702 111.114 226.162 112.516 226.515C113.912 226.878 115.353 227.176 116.745 227.463L116.757 227.466C117.356 227.59 117.976 227.718 118.584 227.849L118.824 227.901C119.908 228.139 121.326 228.469 122.696 228.916C123.965 229.314 125.187 229.85 126.34 230.515C126.378 230.906 126.562 231.268 126.855 231.529C126.653 231.715 126.515 231.961 126.461 232.23C126.411 232.522 126.473 232.822 126.636 233.069C127.463 234.382 128.803 235.229 130.097 236.048L130.099 236.05C130.349 236.208 130.608 236.373 130.859 236.536L130.959 236.602C132.456 237.595 133.988 238.582 135.511 239.535C138.496 241.403 141.605 243.218 145.019 245.083C147.669 246.531 150.311 247.915 152.87 249.196C155.567 250.546 158.261 251.827 160.877 253.003C160.722 253.881 160.633 254.768 160.611 255.659C160.587 256.387 160.526 257.114 160.429 257.836L160.391 258.064C160.33 258.328 160.339 258.603 160.417 258.863C160.495 259.123 160.64 259.357 160.837 259.544L160.88 259.583V259.578L160.918 259.613L160.931 259.624L160.927 259.621C160.973 259.663 161.021 259.702 161.072 259.738L161.136 259.779C161.337 259.899 161.568 259.962 161.802 259.96ZM130.906 212.32C130.904 212.451 130.904 212.587 130.903 212.707C130.903 212.901 130.902 213.085 130.897 213.267C130.875 214.098 130.864 214.983 130.864 215.898C130.864 216.561 130.877 217.235 130.889 217.886C130.911 219.041 130.934 220.235 130.886 221.407C130.859 222.23 130.769 223.049 130.614 223.857C130.462 224.666 130.191 225.448 129.809 226.177C129.542 226.676 129.209 227.137 128.818 227.546C128.435 227.94 128.018 228.299 127.572 228.62C126.447 227.943 125.259 227.377 124.024 226.931C122.781 226.479 121.513 226.1 120.227 225.795C119.212 225.548 118.172 225.325 117.166 225.108H117.165C115.088 224.661 112.941 224.199 110.894 223.508C109.425 223.032 108.031 222.353 106.751 221.489C105.51 220.634 104.52 219.48 103.564 218.365L103.553 218.352C103.47 218.255 103.387 218.158 103.304 218.062L103.138 217.87C102.083 216.66 100.892 215.446 99.3374 214.762C98.8036 214.546 98.2545 214.369 97.6946 214.234C96.7809 213.988 95.8365 213.734 95.124 213.179C94.5325 212.718 94.4732 212.062 94.4105 211.368L94.4068 211.328C94.5741 211.351 94.7428 211.362 94.9117 211.361C95.3332 211.351 95.7535 211.311 96.1695 211.243H96.1722C96.3347 211.22 96.5026 211.197 96.6651 211.178L97.0468 211.133C97.7415 211.063 98.4306 210.945 99.1094 210.782C99.137 210.774 99.1612 210.757 99.1784 210.733C99.1955 210.71 99.2048 210.682 99.2048 210.653C99.2048 210.624 99.1955 210.596 99.1784 210.573C99.1612 210.55 99.137 210.533 99.1094 210.524C98.3378 210.342 97.5545 210.214 96.7651 210.14L96.6649 210.129L96.4697 210.104C96.3746 210.092 96.2766 210.078 96.1819 210.065H96.1796C95.7632 209.998 95.3427 209.959 94.921 209.948C94.6756 209.946 94.4306 209.971 94.1907 210.023C94.0566 209.511 93.8578 209.019 93.5993 208.557C93.4853 208.353 93.3429 208.143 93.1918 207.92C92.8428 207.407 92.4822 206.875 92.4151 206.325C92.3897 206.076 92.4374 205.825 92.5525 205.602L92.5905 205.531C92.6329 205.444 92.6957 205.368 92.7736 205.311C92.7934 205.328 92.8173 205.34 92.843 205.346C93.0906 205.427 93.3587 205.418 93.6008 205.322C93.8428 205.225 94.0435 205.047 94.1679 204.819C94.9221 204.897 95.68 204.935 96.4383 204.931C96.8263 204.936 97.1928 204.941 97.5462 204.957L98.6036 205.008C98.9517 205.024 99.41 205.042 99.8681 205.042C100.576 205.055 101.282 204.992 101.977 204.854C102.014 204.843 102.047 204.821 102.072 204.79C102.096 204.76 102.11 204.722 102.112 204.683C102.117 204.649 102.111 204.613 102.095 204.582C102.079 204.552 102.053 204.527 102.021 204.512C100.888 204.027 99.5691 203.833 98.2955 203.645C98.1103 203.618 97.9189 203.589 97.7347 203.561C97.2154 203.481 96.6849 203.413 96.1716 203.347L96.1589 203.345C95.9051 203.313 95.6428 203.279 95.3852 203.244C95.2183 203.222 95.0446 203.194 94.8764 203.167H94.8748C94.5095 203.102 94.141 203.056 93.7708 203.03C93.4398 202.618 93.2186 202.129 93.1279 201.609C93.0397 201.106 93.0632 200.589 93.1967 200.096C93.3229 199.623 93.5498 199.183 93.862 198.806C94.1729 198.428 94.5758 198.137 95.0318 197.96C95.3042 198.078 95.5986 198.136 95.8954 198.131C96.1426 198.126 96.3892 198.105 96.6339 198.071H96.6366C96.7812 198.053 96.9306 198.035 97.0854 198.022C97.9189 197.95 98.6089 197.917 99.2571 197.917H99.336C99.96 197.931 100.583 197.977 101.202 198.054C101.842 198.134 102.485 198.18 103.129 198.192C103.397 198.193 103.664 198.179 103.93 198.15C104.002 198.139 104.071 198.108 104.127 198.06C104.183 198.012 104.225 197.95 104.248 197.88C104.264 197.83 104.263 197.776 104.247 197.726C104.23 197.676 104.199 197.633 104.156 197.602C103.563 197.141 102.883 196.804 102.158 196.61C101.427 196.407 100.682 196.259 99.9291 196.168L99.6288 196.128C99.4976 196.111 99.3569 196.091 99.2208 196.072C98.8306 196.018 98.389 195.956 97.9393 195.916C97.8668 195.771 97.7592 195.648 97.6263 195.556C97.4934 195.464 97.3396 195.407 97.1789 195.39C97.0785 195.377 96.9766 195.368 96.878 195.36L96.8449 195.357L96.8466 195.346C96.7323 195.342 96.621 195.309 96.5231 195.25C96.4251 195.191 96.3439 195.108 96.287 195.008C95.9766 194.514 96.0416 193.607 96.225 193.173C96.4469 192.649 96.904 192.268 97.584 192.04C98.2131 191.852 98.8679 191.765 99.5242 191.782C99.8093 191.782 100.106 191.793 100.456 191.816C102.151 191.929 103.832 192.198 105.478 192.619C107.125 193.03 108.719 193.63 110.228 194.407C111.691 195.188 113.011 196.21 114.133 197.431C115.25 198.654 116.254 199.974 117.134 201.378L117.219 201.511C117.513 201.967 117.812 202.448 118.1 202.914L118.102 202.917C118.848 204.118 119.619 205.361 120.493 206.498C121.334 207.641 122.352 208.643 123.508 209.465C125.196 210.617 126.813 211.371 128.314 211.705C128.373 211.812 128.453 211.905 128.55 211.979C128.646 212.053 128.757 212.107 128.876 212.136L128.993 212.162C129.481 212.273 129.979 212.332 130.479 212.341C130.622 212.341 130.764 212.334 130.906 212.32V212.32ZM158.588 221.956C158.604 221.981 158.621 222.005 158.64 222.027L158.669 222.061L158.519 222L158.588 221.956ZM86.8329 189.568C88.5188 189.568 90.2355 189.613 91.8492 189.66C92.0216 190.181 92.3471 190.639 92.7833 190.973C93.203 191.319 93.7216 191.523 94.2647 191.555C93.8631 192.18 93.6284 192.897 93.583 193.638C93.5288 194.369 93.6505 195.102 93.9381 195.777C93.3317 196.015 92.7708 196.356 92.2796 196.784C91.7755 197.226 91.3596 197.758 91.0539 198.355C90.8405 198.769 90.6808 199.209 90.5786 199.663C90.481 200.101 90.4387 200.548 90.4526 200.996C90.485 201.888 90.727 202.76 91.159 203.54C90.7818 203.89 90.4878 204.32 90.2986 204.799C90.1005 205.282 90.0076 205.802 90.0261 206.324C90.0692 207.334 90.6041 208.21 91.1213 209.058C91.1881 209.167 91.2569 209.28 91.3227 209.39C91.8197 210.222 91.9264 210.972 92.0499 211.84C92.0784 212.04 92.107 212.247 92.1431 212.462C92.2615 213.23 92.6055 213.946 93.1315 214.519C93.661 215.069 94.2994 215.503 95.006 215.793L94.9286 216.098C94.751 216.842 94.5182 217.571 94.2323 218.281C93.9528 218.984 93.5386 219.626 93.0129 220.17C91.735 221.443 89.7921 221.526 88.0778 221.6C87.9307 221.607 87.7982 221.613 87.6672 221.619L87.5792 221.624C86.2186 221.692 84.8359 221.771 83.4986 221.847H83.4957H83.4855L82.5704 221.899L81.3183 221.969C80.9256 221.99 80.4629 222.013 80.0067 222.013C79.2991 222.027 78.5927 221.949 77.9051 221.781C77.2012 221.603 76.5446 221.274 75.9808 220.816C74.8036 219.863 73.7071 218.547 72.7221 216.905C71.8545 215.432 71.1276 213.88 70.5511 212.27C69.9737 210.681 69.5267 209.047 69.2146 207.385C68.9042 205.725 68.7087 204.045 68.6295 202.358C68.5507 200.667 68.5685 198.973 68.6827 197.283C68.7899 195.658 68.9846 193.964 69.261 192.249C72.8601 191.082 76.5691 190.286 80.3302 189.873C82.4907 189.654 84.6614 189.552 86.8329 189.568V189.568ZM99.602 189.235C98.834 189.226 98.0678 189.312 97.3209 189.491C96.6045 189.662 95.9299 189.976 95.3371 190.414C95.3347 190.41 95.3326 190.406 95.3305 190.402C95.3284 190.398 95.324 190.389 95.32 190.383C95.1344 190.117 94.9233 189.87 94.6899 189.645L94.6825 189.637C94.661 189.616 94.6395 189.595 94.6167 189.571L94.4895 189.436L94.7802 189.336C95.2229 189.179 95.72 188.991 96.0171 188.879C96.1368 188.834 96.2231 188.802 96.2568 188.79L96.2648 188.787L96.67 188.65H96.6714C97.3177 188.431 97.9877 188.205 98.6428 187.973C98.7597 187.931 98.8749 187.888 98.9969 187.842C99.5252 187.644 100.071 187.439 100.623 187.439C100.731 187.439 100.839 187.447 100.946 187.464C101.498 187.574 102.02 187.804 102.473 188.138C102.96 188.486 103.426 188.862 103.868 189.266L103.869 189.267C104.112 189.481 104.342 189.682 104.57 189.867L104.033 189.763C102.604 189.489 101.079 189.235 99.602 189.235ZM63.3635 259.781C63.4934 259.781 63.6197 259.738 63.7218 259.657C63.7772 259.613 63.8231 259.558 63.8565 259.495C63.89 259.433 63.9104 259.364 63.9164 259.293L64.0018 258.47C64.0823 257.427 64.28 256.396 64.5911 255.397C64.9733 254.216 65.2248 252.997 65.341 251.762C65.5609 249.815 65.6588 247.82 65.7401 245.942L65.7972 244.598C65.9789 240.4 66.0563 236.297 66.0274 232.404C65.9962 228.224 65.8415 224.124 65.5672 220.216L65.5255 219.637C65.3529 217.29 65.1847 215.493 64.9796 213.809C64.7171 211.653 64.3979 209.742 64.0039 207.968C63.0455 203.652 61.6264 200.104 59.6655 197.122C59.6528 197.102 59.635 197.085 59.6138 197.073C59.5927 197.061 59.5689 197.055 59.5448 197.055C59.5225 197.055 59.5004 197.06 59.4803 197.07C59.4601 197.079 59.4424 197.093 59.4284 197.111C59.4154 197.128 59.4064 197.148 59.4023 197.169C59.3982 197.19 59.399 197.211 59.4047 197.232C60.3911 201.272 61.3923 205.614 62.0342 209.987C62.2864 211.705 62.4797 213.464 62.625 215.363C62.7542 217.055 62.8422 218.821 62.8938 220.762C62.9888 224.366 62.9417 228.033 62.8953 231.58V231.615C62.8875 232.214 62.8793 232.833 62.8721 233.441L62.8673 233.846C62.8248 237.589 62.7613 242.017 62.6136 246.485C62.5966 246.998 62.5755 247.523 62.5546 248.029C62.4896 249.626 62.4216 251.277 62.4795 252.893C62.5174 253.545 62.5994 254.194 62.7252 254.835C62.8069 255.307 62.8913 255.794 62.9379 256.283C62.9961 257.115 62.9926 257.95 62.9272 258.782C62.9187 258.941 62.9082 259.12 62.9008 259.294C62.895 259.357 62.9022 259.421 62.9222 259.481C62.9421 259.541 62.9743 259.597 63.0167 259.644C63.0622 259.689 63.1165 259.725 63.1762 259.748C63.2359 259.772 63.2997 259.783 63.3638 259.781H63.3635ZM42.3737 259.428C42.6011 259.432 42.8267 259.389 43.0373 259.303C43.2479 259.217 43.439 259.09 43.5994 258.929C43.7167 258.805 43.8066 258.658 43.8634 258.497C43.9201 258.336 43.9423 258.165 43.9286 257.995C43.6359 253.547 43.3952 248.768 43.6131 243.966C43.8237 239.333 44.2643 234.618 44.9226 229.952C45.3317 227.052 45.8987 224.131 46.4471 221.306C46.6385 220.32 46.8364 219.301 47.0259 218.29L47.14 217.677C47.7093 214.593 48.3048 211.461 48.8808 208.432L48.8819 208.426L49.0057 207.775L49.943 202.835C51.2235 196.094 52.7293 188.267 54.3989 180.685L54.4939 180.252C55.441 176.025 56.441 172.658 57.6414 169.659C58.3212 167.943 59.1187 166.277 60.028 164.672C60.9342 163.075 61.984 161.564 63.1644 160.157C63.7611 159.453 64.3956 158.782 65.0653 158.147C65.7086 157.537 66.4051 156.939 67.1354 156.371C68.5719 155.263 70.0904 154.266 71.6779 153.389C73.1036 152.591 74.7064 151.794 76.5796 150.955C78.2974 150.185 80.0681 149.456 81.6302 148.812C81.685 148.792 81.7307 148.753 81.7591 148.701C81.7875 148.65 81.7967 148.591 81.7851 148.534C81.7773 148.484 81.7517 148.438 81.713 148.406C81.6743 148.373 81.6252 148.356 81.5747 148.357C81.5522 148.357 81.5297 148.36 81.5078 148.365L80.9659 148.494C77.1886 149.399 73.1831 150.433 69.387 152.247C67.5502 153.126 65.8281 154.227 64.259 155.525C62.6924 156.825 61.2776 158.297 60.0413 159.914C57.8209 162.807 56.0376 166.187 54.5897 170.245C53.2135 174.102 52.2975 178.145 51.5829 181.59C50.7395 185.657 49.9185 189.799 49.1247 193.805C48.2539 198.199 47.3534 202.742 46.4201 207.202L46.089 208.79C45.0977 213.557 44.3677 217.235 43.7218 220.713C42.9151 225.058 42.264 228.982 41.7314 232.708L41.6487 233.291C40.9695 238.136 40.587 242.12 40.445 245.829C40.3614 248.016 40.3645 250.136 40.4542 252.13C40.5448 254.224 40.7463 256.311 41.0577 258.384C41.0777 258.541 41.1295 258.692 41.2099 258.828C41.2904 258.965 41.3978 259.083 41.5255 259.177C41.7749 259.348 42.0718 259.436 42.3741 259.428H42.3737ZM99.6455 252.452C99.8364 252.454 100.023 252.395 100.178 252.284C100.333 252.173 100.45 252.015 100.51 251.834C100.798 250.836 100.935 249.8 100.918 248.761C100.923 247.701 100.831 246.634 100.742 245.602V245.599C100.716 245.296 100.691 245.01 100.669 244.722L100.531 242.952C100.409 241.363 100.27 239.49 100.163 237.636C100.02 235.184 99.901 232.688 99.7934 230.356C99.7588 229.606 99.7204 228.832 99.6763 227.991L99.6122 226.809C99.605 226.679 99.5987 226.546 99.5932 226.416C99.5518 225.531 99.509 224.615 99.1522 223.821C99.1247 223.763 99.0806 223.715 99.0257 223.682C98.9708 223.65 98.9075 223.634 98.8437 223.638C98.7762 223.636 98.7094 223.651 98.6501 223.684C98.5907 223.716 98.541 223.763 98.5059 223.821C98.0653 224.634 97.9759 225.672 97.8976 226.588V226.592C97.8891 226.691 97.8803 226.792 97.8714 226.891L97.8617 226.996C97.7201 228.492 97.6321 229.644 97.5766 230.729C97.4559 233.097 97.3983 235.484 97.4055 237.823C97.414 240.543 97.4754 242.921 97.5929 245.095L97.6283 245.745C97.6752 246.832 97.7853 247.916 97.9579 248.991C98.1207 250.054 98.4552 251.083 98.9482 252.039C99.0149 252.165 99.1154 252.271 99.2386 252.344C99.3618 252.417 99.5027 252.454 99.6459 252.452L99.6455 252.452ZM181.669 235.589C181.679 235.589 181.689 235.587 181.699 235.584C181.824 235.554 181.94 235.497 182.041 235.418C182.142 235.338 182.224 235.238 182.283 235.124C182.413 234.836 182.369 234.437 182.151 233.935C181.62 232.717 180.746 231.603 179.901 230.525L179.886 230.506C179.804 230.4 179.721 230.295 179.639 230.191C178.747 229.048 177.777 227.969 176.736 226.961L176.431 226.666C176.313 226.55 176.192 226.429 176.065 226.3C175.636 225.842 175.171 225.421 174.674 225.039C174.094 224.621 173.562 224.418 173.045 224.418C173.004 224.418 172.963 224.42 172.922 224.422C172.796 224.425 172.673 224.456 172.561 224.513C172.449 224.57 172.352 224.651 172.276 224.751C172.2 224.851 172.147 224.966 172.122 225.089C172.097 225.212 172.1 225.339 172.131 225.461C172.323 226.369 173.084 226.933 173.82 227.479C174.031 227.634 174.229 227.781 174.416 227.936C175.355 228.717 176.227 229.539 177.112 230.384C177.872 231.107 178.612 231.859 179.376 232.681L179.65 232.978C179.696 233.029 179.795 233.125 179.919 233.247L179.921 233.249C180.514 233.828 181.746 235.034 181.58 235.395L181.569 235.414C181.558 235.43 181.552 235.449 181.552 235.468C181.551 235.487 181.556 235.506 181.566 235.523C181.576 235.542 181.59 235.558 181.609 235.57C181.627 235.581 181.648 235.588 181.669 235.588L181.669 235.589ZM109.446 212.079C109.899 212.074 110.332 211.89 110.65 211.568C110.986 211.228 111.227 210.806 111.349 210.344C111.452 209.876 111.488 209.395 111.455 208.917C111.445 208.355 111.434 207.774 111.641 207.277C111.757 207.02 111.897 206.775 112.057 206.543C112.213 206.316 112.35 206.077 112.466 205.827C112.679 205.321 112.803 204.782 112.831 204.233C112.825 203.773 112.741 203.316 112.582 202.884C112.386 202.225 112.183 201.544 112.488 200.983C112.517 200.924 112.531 200.858 112.528 200.793C112.525 200.727 112.506 200.663 112.472 200.607C112.447 200.561 112.411 200.524 112.368 200.497C112.324 200.471 112.274 200.457 112.222 200.456H112.215L112.187 200.458C111.811 200.503 111.462 200.678 111.201 200.952C110.938 201.231 110.752 201.574 110.662 201.947C110.579 202.298 110.517 202.654 110.476 203.013C110.383 203.714 110.295 204.376 109.844 205.04C109.128 206.095 108.721 206.903 108.622 208.146C108.609 208.307 108.603 208.469 108.595 208.626V208.629C108.59 208.986 108.553 209.343 108.484 209.694L108.4 210.051C108.294 210.426 108.254 210.817 108.282 211.206C108.288 211.382 108.349 211.552 108.456 211.692C108.562 211.832 108.71 211.935 108.878 211.988C109.061 212.047 109.253 212.078 109.446 212.079V212.079ZM145.57 193.376C146.302 193.382 147.033 193.331 147.757 193.224C147.8 193.219 147.84 193.198 147.869 193.165C147.898 193.133 147.915 193.091 147.915 193.048C147.92 192.994 147.907 192.94 147.879 192.894C147.85 192.849 147.807 192.814 147.757 192.794C146.35 192.368 144.825 192.194 143.35 192.026C143.013 191.988 142.664 191.948 142.324 191.906C140.746 191.71 138.672 191.444 136.613 191.123C134.558 190.802 132.702 190.486 130.937 190.158C130.089 190 129.23 189.833 128.383 189.661C128.202 189.624 128.021 189.578 127.828 189.53C127.399 189.402 126.957 189.327 126.51 189.306C126.271 189.302 126.034 189.344 125.81 189.429C125.702 189.469 125.605 189.536 125.529 189.623C125.452 189.71 125.398 189.814 125.371 189.927C125.352 190.022 125.357 190.121 125.386 190.213C125.415 190.306 125.468 190.39 125.539 190.456C126.052 190.971 126.77 191.08 127.463 191.185C127.596 191.205 127.734 191.226 127.868 191.25L127.941 191.263C128.903 191.441 129.89 191.614 130.874 191.777C132.748 192.087 134.613 192.358 136.416 192.581C138.548 192.845 140.42 193.042 142.138 193.184L142.878 193.245C143.737 193.313 144.658 193.376 145.57 193.376ZM99.5012 184.57C99.6189 184.57 99.7347 184.54 99.8368 184.481C99.9389 184.422 100.024 184.338 100.083 184.236C100.83 182.995 101.21 181.564 101.578 180.179C101.763 179.482 101.954 178.761 102.19 178.074C102.497 177.178 102.831 176.274 103.154 175.4V175.399C103.551 174.323 103.961 173.213 104.326 172.105C104.767 170.805 105.1 169.469 105.32 168.114C105.542 166.763 105.583 165.389 105.441 164.028L105.45 164.014C105.457 164.003 105.463 163.992 105.469 163.98L105.686 163.505C106.27 162.237 106.841 161.104 107.928 160.07C108.201 159.81 108.485 159.553 108.759 159.304C109.609 158.534 110.487 157.738 111.156 156.758C111.502 156.254 111.768 155.7 111.944 155.114C112.107 154.563 112.201 153.992 112.223 153.417C112.276 152.271 112.099 151.078 111.928 149.924C111.821 149.206 111.711 148.465 111.657 147.738L111.63 147.361C111.582 146.632 111.586 145.831 111.982 145.412C112.316 145.057 112.969 144.891 113.544 144.745C113.777 144.686 113.996 144.631 114.175 144.567C115.791 144.006 117.364 143.327 118.881 142.537C120.324 141.791 121.704 140.929 123.008 139.959L123.665 139.465C124.706 138.679 125.78 137.824 126.473 136.763C126.488 136.736 126.497 136.706 126.497 136.676C126.497 136.645 126.488 136.615 126.473 136.589C126.459 136.56 126.438 136.537 126.412 136.519C126.386 136.502 126.356 136.492 126.325 136.49C126.307 136.49 126.289 136.493 126.271 136.499C125.401 136.884 124.566 137.343 123.775 137.871L123.772 137.873C123.508 138.038 123.235 138.209 122.966 138.371C122.948 138.33 122.928 138.29 122.907 138.251C122.245 137.056 121.764 135.769 121.481 134.432C121.202 133.095 121.116 131.724 121.225 130.363C121.241 130.226 121.229 130.087 121.188 129.956C121.147 129.824 121.079 129.703 120.988 129.599C120.883 129.493 120.757 129.41 120.619 129.354C120.48 129.298 120.331 129.272 120.182 129.276C119.892 129.274 119.609 129.37 119.38 129.548C119.258 129.647 119.157 129.771 119.085 129.911C119.013 130.051 118.971 130.205 118.962 130.363C118.726 133.503 119.418 136.643 120.952 139.394C120.96 139.407 120.968 139.419 120.975 139.432L120.988 139.451C119.879 140.028 118.955 140.473 118.082 140.849C116.726 141.435 115.465 141.913 114.225 142.311C113.89 142.419 113.541 142.506 113.171 142.599C112.251 142.829 111.301 143.067 110.588 143.635C110.118 144.013 109.757 144.51 109.544 145.074C109.329 145.65 109.214 146.258 109.201 146.873C109.151 148.141 109.403 149.511 109.606 150.612C109.631 150.748 109.657 150.888 109.681 151.023L109.744 151.378C109.941 152.514 110.093 153.716 109.602 154.832C109.125 155.92 108.209 156.741 107.324 157.535L107.314 157.544C107.238 157.611 107.163 157.679 107.089 157.746L106.899 157.917C106.009 158.728 105.103 159.617 104.504 160.625C104.011 159.605 103.354 158.743 102.659 157.832L102.656 157.829C102.567 157.712 102.475 157.591 102.384 157.471C101.92 156.859 102.102 156.574 102.402 156.102C102.472 155.992 102.552 155.867 102.63 155.726C102.826 155.381 102.97 155.01 103.058 154.623C103.143 154.236 103.156 153.836 103.096 153.444C103.039 153.079 102.925 152.726 102.758 152.396C102.592 152.071 102.387 151.767 102.148 151.49C101.658 150.938 101.096 150.454 100.478 150.05C99.6503 149.506 98.7963 149.005 97.9187 148.547C97.2971 148.21 96.6546 147.861 96.0424 147.485C93.0226 145.65 90.1691 143.554 87.5148 141.221C87.4985 141.207 87.4772 141.199 87.4553 141.199C87.4378 141.199 87.4206 141.203 87.4055 141.212C87.3903 141.221 87.3777 141.233 87.369 141.249C87.3623 141.261 87.3592 141.276 87.3603 141.29C87.3613 141.304 87.3664 141.318 87.3749 141.329C89.3954 144.46 91.9279 147.229 94.8665 149.521C95.9002 150.321 97.0019 151.02 98.0676 151.695C98.2687 151.823 98.4498 151.938 98.6312 152.054L98.9994 152.29C99.5909 152.673 100.169 153.102 100.387 153.636C100.565 154.07 100.314 154.429 100.072 154.776C99.9956 154.885 99.9175 154.997 99.8534 155.109C99.6543 155.452 99.5146 155.826 99.4404 156.216C99.3769 156.568 99.3765 156.929 99.4392 157.282C99.596 158.02 99.9342 158.708 100.423 159.283L100.47 159.341C101.489 160.597 102.242 161.753 102.601 163.313C102.956 164.853 102.955 166.535 102.598 168.455C102.277 170.182 101.714 171.872 101.153 173.441L101.108 173.567C100.958 173.985 100.804 174.408 100.654 174.817L100.652 174.822C100.186 176.099 99.7042 177.419 99.2986 178.74L99.1511 179.223C98.6629 180.839 98.2698 182.424 98.8123 184.069C98.8596 184.214 98.9518 184.341 99.0756 184.431C99.1993 184.521 99.3484 184.57 99.5014 184.57H99.5012ZM93.4226 161.538C93.5716 161.538 93.7237 161.533 93.8746 161.522C94.7698 161.469 95.6421 161.218 96.4294 160.789C96.7535 160.581 97.0554 160.34 97.3304 160.07C97.9056 159.549 98.5002 159.01 99.1581 159.01C99.2833 159.01 99.4077 159.03 99.5267 159.069C99.5373 159.072 99.5484 159.074 99.5596 159.074C99.5866 159.072 99.6125 159.062 99.6339 159.046C99.6554 159.029 99.6714 159.007 99.6799 158.981C99.6884 158.96 99.6899 158.937 99.6842 158.915C99.6785 158.893 99.6659 158.874 99.6483 158.86C99.3714 158.626 99.0203 158.498 98.6578 158.499C97.9999 158.499 97.3253 158.889 96.6729 159.267C96.2881 159.51 95.8788 159.713 95.4518 159.87C94.5169 160.168 93.5127 160.17 92.5769 159.875C91.6411 159.58 90.8193 159.003 90.2243 158.223C88.9075 156.531 87.6946 154.76 86.5921 152.921C86.0278 152.007 85.5213 151.059 85.0756 150.082C84.8432 149.524 84.6636 148.946 84.539 148.355C84.4378 147.902 84.3115 147.456 84.1609 147.018C84.0617 146.745 83.8733 146.513 83.6262 146.36C83.3925 146.216 83.1236 146.14 82.8493 146.14C82.6846 146.135 82.5209 146.165 82.3678 146.225C82.2148 146.286 82.0756 146.377 81.9587 146.493C81.8547 146.609 81.7759 146.746 81.7274 146.894C81.6788 147.042 81.6615 147.198 81.6766 147.353C81.7355 148.411 82.1573 149.389 82.5651 150.335C82.604 150.425 82.6428 150.516 82.6814 150.606L82.7293 150.718C83.1868 151.805 83.7356 152.851 84.3698 153.844C85.6102 155.754 87.0126 157.553 88.5614 159.222C89.1821 159.917 89.9274 160.49 90.7589 160.91C91.5862 161.323 92.4981 161.538 93.4227 161.538H93.4226ZM82.3687 145.377C82.6702 145.368 82.9563 145.242 83.1659 145.025C84.0433 144.201 84.8531 143.308 85.5877 142.354C86.3324 141.41 86.9168 140.35 87.3175 139.216C87.327 139.186 87.3292 139.155 87.3239 139.125C87.3186 139.094 87.3059 139.065 87.2871 139.041C87.2662 139.012 87.2389 138.988 87.2073 138.971C87.1757 138.954 87.1406 138.945 87.1048 138.944C87.0687 138.944 87.0334 138.955 87.0033 138.974C86.4056 139.384 85.8371 139.835 85.3018 140.324V140.324C85.0461 140.547 84.7819 140.777 84.5171 140.994C83.5988 141.744 82.6685 142.483 81.7517 143.19C81.5245 143.354 81.3563 143.587 81.2719 143.855C81.2061 144.082 81.2128 144.325 81.2909 144.548C81.3639 144.78 81.5065 144.984 81.6993 145.132C81.8921 145.28 82.1258 145.366 82.3687 145.377V145.377ZM88.7772 141.683C89.0468 141.681 89.3075 141.587 89.5157 141.416C90.7249 140.44 91.6175 139.128 92.0805 137.644C92.3138 136.912 92.4442 136.151 92.4681 135.382C92.493 134.607 92.407 133.831 92.2128 133.08C92.1632 132.847 92.0336 132.639 91.8464 132.493C91.6593 132.346 91.4265 132.269 91.1886 132.276C91.0027 132.276 90.8189 132.316 90.6503 132.395C90.4817 132.473 90.3324 132.588 90.2129 132.73C90.1122 132.857 90.0423 133.004 90.0089 133.162C89.9754 133.32 89.9793 133.484 90.0202 133.64L90.0304 133.682C90.3177 134.784 90.273 135.946 89.9019 137.023C89.5276 138.096 88.863 139.044 87.982 139.762L87.9159 139.816C87.7467 139.943 87.6217 140.12 87.5589 140.322C87.5109 140.496 87.5185 140.682 87.5806 140.852C87.6756 141.093 87.84 141.301 88.0529 141.449C88.2659 141.597 88.5179 141.678 88.7772 141.683Z" fill="#2B283A"/>
<path d="M97.1065 140.96C101.326 140.985 104.912 139.787 107.648 137.807C111.062 136.59 115.18 134.711 117.682 132.74C118.658 132.989 119.825 131.953 120.571 131.405C125.214 127.938 128.859 122.864 129.939 117.78C131.606 119.885 133.978 119.972 136.25 118.926C141.014 116.225 140.836 110.536 139.121 106.286C142.727 98.1966 145.226 76.8409 139.722 68.2221C138.596 66.9325 136.944 66.1611 135.755 64.8385C134.696 63.6831 133.69 62.5023 132.459 61.5884C128.701 58.7287 122.23 57.2061 118.178 56.49C101.263 52.8331 88.2674 59.4061 72.9458 64.9503C73.8421 67.1244 75.0186 69.172 76.4454 71.0413C72.6417 72.4611 74.3888 75.6532 77.3397 77.2714L79.0965 76.4176C76.3579 86.2159 70.0553 110.582 72.7748 118.406C74.9433 130.614 84.4603 141.048 97.1061 140.96" fill="white"/>
<path d="M139.583 105.413C142.965 96.7063 145.082 76.6064 139.784 68.3096C138.659 67.02 137.007 66.2486 135.817 64.926C134.759 63.7706 133.752 62.5898 132.521 61.6759C128.764 58.8162 122.292 57.2936 118.24 56.5773C101.326 52.9206 88.3298 59.4936 73.0083 65.0378C73.9044 67.2119 75.0809 69.2596 76.5078 71.1288C72.7039 72.5486 74.451 75.7407 77.4012 77.3589L78.698 76.7286C79.0402 74.8996 79.9526 71.3202 81.8822 71.1284C84.4801 70.8703 90.2297 75.7303 92.7334 75.7303C95.237 75.7303 107.957 70.2937 114.944 70.2937C121.931 70.2937 127.88 76.0656 130.244 80.2483C132.607 84.431 126.727 89.6259 126.727 89.6259C126.727 89.6259 130.244 94.1346 130.244 96.1062C130.244 98.0778 129.422 104.257 129.422 104.257C129.422 104.257 133.209 103.014 135.375 103.014C137.542 103.014 139.136 105.413 139.136 105.413H139.583Z" fill="#2B283A"/>
<path d="M97.0827 142.134C98.3159 142.136 99.5472 142.038 100.765 141.841C101.986 141.645 103.185 141.333 104.347 140.909C105.494 140.492 106.586 139.94 107.602 139.264C108.615 138.588 109.525 137.767 110.301 136.828C110.402 136.707 110.458 136.555 110.461 136.398C110.464 136.239 110.413 136.084 110.316 135.958C110.256 135.878 110.178 135.814 110.088 135.769C109.999 135.725 109.9 135.702 109.8 135.702C109.683 135.702 109.567 135.734 109.466 135.793L109.13 135.98C107.892 136.676 106.613 137.296 105.299 137.835C103.984 138.376 102.617 138.778 101.219 139.035C99.9278 139.265 98.6192 139.381 97.308 139.382C95.6769 139.382 94.0511 139.199 92.4607 138.837C89.9198 138.258 87.5078 137.215 85.3459 135.76C83.2397 134.332 81.3755 132.576 79.8242 130.56C78.0694 128.281 76.6635 125.755 75.6527 123.062C74.6269 120.361 73.9697 117.534 73.6988 114.657C73.5415 112.937 73.503 111.208 73.5834 109.482C73.6535 107.855 73.8151 106.171 74.0776 104.336C74.5639 100.937 75.3157 97.5923 76.1085 94.179C77.9309 86.3329 79.728 79.481 81.6021 73.2313C81.6607 73.0431 81.6815 72.8451 81.6633 72.6489C81.927 72.5468 82.2075 72.4953 82.4902 72.4968C82.8597 72.5028 83.2258 72.5694 83.5737 72.6941C84.7366 73.0868 85.9188 73.981 86.8685 74.6995L86.9215 74.7396C87.2561 74.9928 87.6018 75.2546 87.9071 75.4637C89.2876 76.408 90.6106 76.9084 91.952 76.9935C92.0851 77.0019 92.2221 77.0063 92.3586 77.0063C93.0629 77 93.7634 76.9013 94.442 76.7128C95.1215 76.5256 95.7866 76.2896 96.432 76.0064C97.1527 75.6977 97.8645 75.3762 98.553 75.0653L98.5785 75.0539C100.522 74.1762 102.532 73.2685 104.68 72.6909C107.473 71.9386 110.352 71.5571 113.244 71.5562C113.344 71.5562 113.445 71.5562 113.546 71.5576C114.877 71.5646 116.205 71.6694 117.521 71.8712C118.813 72.0685 120.081 72.3973 121.306 72.8522C122.515 73.3031 123.658 73.9148 124.704 74.671C125.783 75.4605 126.733 76.4144 127.517 77.4978C128.187 78.3805 128.698 79.3738 129.025 80.4326C129.176 80.9506 129.258 81.4864 129.267 82.0259C129.274 82.5888 129.195 83.1494 129.033 83.6886C128.845 84.3018 128.59 84.8923 128.272 85.4492C127.955 86.0068 127.603 86.5441 127.219 87.0578L126.96 87.407C126.567 87.9409 126.188 88.519 126.077 89.1278C125.978 89.6876 126.099 90.2639 126.414 90.7369C126.651 91.0983 126.918 91.4391 127.212 91.7556L127.222 91.7661C127.429 91.9931 127.625 92.231 127.807 92.4787C128.172 92.9898 128.484 93.5367 128.739 94.1108C129.209 95.2345 129.46 96.4377 129.479 97.6558C129.532 99.1115 129.325 100.56 129.126 101.961L129.121 101.997C128.978 102.998 128.831 104.034 128.773 105.07C128.761 105.218 128.804 105.366 128.895 105.484C128.991 105.606 129.131 105.685 129.284 105.704C129.313 105.708 129.342 105.71 129.371 105.71C129.39 105.71 129.411 105.71 129.431 105.707C129.407 105.805 129.385 105.906 129.366 106.006C129.464 105.881 129.57 105.756 129.682 105.636C129.689 105.632 129.696 105.629 129.703 105.624C129.821 105.561 129.917 105.462 129.977 105.342C130.136 105.194 130.302 105.055 130.476 104.925C130.923 104.589 131.416 104.321 131.94 104.127C132.446 103.939 132.98 103.838 133.52 103.829H133.575C134.61 103.819 135.611 104.204 136.373 104.906C137.145 105.661 137.701 106.609 137.985 107.651C138.283 108.687 138.432 109.761 138.428 110.839C138.451 111.945 138.296 113.048 137.969 114.106C137.582 115.28 136.961 116.178 136.123 116.775C135.381 117.308 134.495 117.604 133.582 117.623H133.551C132.833 117.623 132.139 117.374 131.468 117.134L131.406 117.112C131.193 117.035 130.972 116.956 130.755 116.885C130.637 116.846 130.513 116.826 130.389 116.825C130.288 116.825 130.187 116.84 130.089 116.869C129.871 116.936 129.679 117.07 129.542 117.253C129.4 117.441 129.311 117.664 129.284 117.898C129.255 118.131 129.29 118.367 129.385 118.581C129.408 118.633 129.433 118.684 129.461 118.739L129.058 119.403C127.497 121.963 125.926 124.44 123.879 126.603C122.707 127.863 121.432 129.021 120.065 130.066L119.867 130.213C119.743 130.304 119.6 130.42 119.476 130.523C119.434 130.557 119.392 130.592 119.348 130.628C118.973 130.94 118.547 131.293 118.144 131.309C118.127 131.309 118.11 131.31 118.093 131.31C117.998 131.308 117.902 131.3 117.808 131.286L117.789 131.283C117.687 131.268 117.583 131.26 117.48 131.259C117.353 131.256 117.226 131.279 117.108 131.326C116.889 131.424 116.706 131.586 116.582 131.791C116.459 131.98 116.394 132.202 116.397 132.428C116.396 132.655 116.457 132.877 116.573 133.072C116.764 133.4 117.052 133.66 117.397 133.817C117.616 133.91 117.852 133.957 118.09 133.955C118.231 133.954 118.371 133.94 118.51 133.914C119.513 133.727 120.631 132.869 121.231 132.408L121.363 132.307C122.887 131.164 124.294 129.873 125.564 128.453C128.043 125.647 129.745 122.815 130.624 120.037C130.979 120.266 131.368 120.439 131.777 120.55C132.203 120.666 132.641 120.732 133.082 120.746C133.168 120.749 133.255 120.751 133.342 120.751C134.538 120.74 135.719 120.475 136.806 119.973C137.886 119.461 138.826 118.693 139.543 117.736C140.25 116.782 140.768 115.703 141.071 114.556C141.437 113.181 141.577 111.756 141.484 110.337C141.407 108.963 141.119 107.61 140.631 106.324C140.601 106.248 140.571 106.174 140.546 106.112C141.27 104.267 141.876 102.379 142.361 100.458C142.847 98.5281 143.229 96.5737 143.503 94.6029C144.039 90.6678 144.237 86.6941 144.096 82.7253C143.987 79.3008 143.755 75.3025 142.862 71.6064C142.438 69.8564 141.717 68.3749 140.719 67.2036C140.095 66.4712 139.331 65.9064 138.592 65.3597L138.561 65.3375C137.9 64.8805 137.284 64.3607 136.722 63.7854L136.459 63.4978L136.381 63.4117L136.289 63.3106C135.365 62.2917 134.409 61.2386 133.238 60.3655C131.882 59.3779 130.411 58.5582 128.858 57.9244C127.185 57.2279 125.465 56.6493 123.711 56.1927C122.135 55.7726 120.449 55.4017 118.403 55.0257C114.827 54.3569 111.197 54.0136 107.559 54C105.497 53.9982 103.437 54.1213 101.39 54.3686C99.3336 54.6186 97.2961 55.006 95.2913 55.5281C91.7636 56.451 88.2961 57.7311 84.9416 58.9687L84.7199 59.0505L84.7136 59.0528C84.4729 59.1415 84.2321 59.2302 83.9913 59.3189C81.4569 60.252 78.8804 61.1964 76.3878 62.1096L76.0344 62.239C74.5825 62.7713 73.4074 63.2016 72.3362 63.5947C72.0518 63.7032 71.8127 63.9049 71.6578 64.1669C71.5809 64.2939 71.5344 64.437 71.5221 64.5849C71.5097 64.7329 71.5318 64.8816 71.5865 65.0196C72.3346 66.9213 73.2983 68.7308 74.4587 70.4128C74.051 70.6931 73.7076 71.0568 73.4513 71.48C73.1116 72.0416 72.9265 72.683 72.9148 73.3393C72.9054 73.8811 73.0162 74.4182 73.2393 74.912C73.4638 75.3977 73.7627 75.8453 74.1251 76.2389C74.8591 77.0562 75.8169 77.7238 76.6562 78.269C76.799 78.3641 76.9592 78.4299 77.1276 78.4627C75.758 83.6997 73.9966 90.612 72.5191 97.6358L72.4261 98.0816C71.6038 102.053 71.1259 105.286 70.9218 108.259C70.6659 111.985 70.8391 115.336 71.4512 118.503C72.0155 121.455 72.9658 124.32 74.2776 127.024C75.5837 129.731 77.2914 132.225 79.3429 134.421C81.3423 136.547 83.704 138.3 86.3176 139.598C88.9319 140.896 91.7582 141.713 94.6617 142.011C95.4661 142.093 96.2741 142.134 97.0827 142.134V142.134ZM107.444 56.2398C109.518 56.2434 111.59 56.3644 113.651 56.6023C115.651 56.8304 117.715 57.1726 119.787 57.6157L120.23 57.7107C122.103 58.1192 123.523 58.4798 124.834 58.88C126.351 59.3301 127.828 59.9069 129.248 60.6043C130.647 61.278 131.939 62.1539 133.083 63.2037C133.578 63.6687 134.033 64.1855 134.473 64.6853L134.487 64.7014C135.1 65.4397 135.776 66.1238 136.507 66.746L137.206 67.3062C138.265 68.159 139.188 68.9699 139.771 70.26C140.406 71.6667 140.695 73.2282 140.916 74.5817C141.208 76.366 141.424 78.2371 141.559 80.1425C141.687 81.9406 141.746 83.8236 141.734 85.7389C141.703 88.8542 141.482 91.9647 141.074 95.0533C140.726 97.785 140.238 100.71 139.541 104.256C138.461 102.71 137.057 101.784 135.482 101.577C134.611 101.464 133.727 101.56 132.901 101.857C132.075 102.155 131.333 102.645 130.735 103.288C131.525 100.782 131.809 98.3399 131.558 96.2271C131.392 94.7792 130.943 93.3779 130.239 92.1021C129.826 91.3732 129.343 90.6869 128.795 90.053L128.608 89.8384L128.587 89.8135C128.497 89.7271 128.43 89.6202 128.391 89.5021C128.377 89.4163 128.393 89.3285 128.436 89.2529C128.548 89.0455 128.687 88.8537 128.85 88.6826L128.856 88.6758L128.89 88.6363C128.99 88.5197 129.104 88.3876 129.195 88.2637C129.998 87.2074 130.643 86.0397 131.109 84.7974C131.333 84.1816 131.488 83.5431 131.572 82.8935C131.655 82.2327 131.651 81.5639 131.559 80.9042C131.344 79.5676 130.862 78.288 130.142 77.1418C129.432 75.9872 128.587 74.9215 127.625 73.9673C126.713 73.0566 125.68 72.2771 124.553 71.6513C123.428 71.0287 122.237 70.5319 121.003 70.1699C118.741 69.4947 116.154 69.1524 113.313 69.1524C112.822 69.1524 112.318 69.1628 111.814 69.1833C108.607 69.3117 105.432 69.876 102.377 70.8609C100.875 71.3498 99.406 71.936 97.9797 72.6158L97.6638 72.7678C97.4874 72.8534 97.3139 72.9389 97.1527 73.0176L97.1146 73.0366C96.0275 73.5689 94.9033 74.1201 93.7058 74.415C93.3181 74.5119 92.9202 74.5619 92.5206 74.5638C92.1113 74.5639 91.704 74.5083 91.3097 74.3986C90.928 74.2907 90.5584 74.1434 90.207 73.9593C89.4894 73.5658 88.8039 73.1162 88.1571 72.6146L88.0522 72.5386C87.483 72.1221 86.8943 71.6914 86.2642 71.3112L86.1359 71.2352C85.0225 70.5664 83.755 70.1972 82.4567 70.1633C82.4288 70.1633 82.3997 70.1633 82.3729 70.1633C81.8147 70.1676 81.2615 70.2691 80.7381 70.4634C80.1961 70.6693 79.7015 70.9832 79.2845 71.3861C79.1236 71.5355 79.0078 71.7271 78.9503 71.9391C78.8452 72.0882 78.768 72.2551 78.7222 72.4318C78.4154 73.5831 78.098 74.7803 77.7784 75.9898L77.5222 75.8247C76.6965 75.2884 75.9255 74.7412 75.5643 73.9428C75.4224 73.5391 75.4428 73.0961 75.6213 72.7072C75.6756 72.574 75.7665 72.4588 75.8835 72.3751C75.9596 72.3261 76.0485 72.3006 76.1391 72.3019C76.1545 72.3019 76.1705 72.3019 76.1865 72.3038C76.2543 72.3126 76.3227 72.3171 76.3912 72.3171C76.5858 72.3181 76.7787 72.2798 76.9582 72.2046C77.204 72.1033 77.4119 71.9276 77.5528 71.7022C77.6922 71.4791 77.7505 71.2148 77.7178 70.9538C77.6826 70.6933 77.5693 70.4496 77.3929 70.2547C76.096 68.7708 75.0138 67.1122 74.178 65.3274L79.663 63.2995C81.2706 62.7051 83.3902 61.9218 85.5299 61.1352L86.601 60.7415C90.2207 59.4139 93.7731 58.1533 97.4361 57.3216C99.078 56.9508 100.74 56.6766 102.414 56.5004C104.085 56.3255 105.764 56.2385 107.443 56.2398H107.444ZM129.039 112.509H129.077C129.779 112.49 130.192 112.21 130.743 111.787C130.807 111.738 130.87 111.689 130.936 111.64C131.433 111.263 131.978 110.956 132.558 110.726C133.426 110.384 134.35 110.206 135.283 110.202C135.693 110.202 136.102 110.238 136.506 110.309C136.639 110.332 136.777 110.307 136.894 110.238C137.006 110.172 137.095 110.071 137.147 109.951C137.203 109.821 137.207 109.674 137.157 109.542C137.106 109.412 137.006 109.306 136.879 109.249C136.309 108.976 135.712 108.765 135.098 108.618C134.486 108.472 133.859 108.398 133.23 108.397C132.886 108.397 132.542 108.42 132.201 108.466L132.042 108.489C131.231 108.609 130.079 108.859 129.202 109.371C128.876 109.554 128.585 109.794 128.343 110.079C128.115 110.351 127.963 110.678 127.9 111.027C127.868 111.207 127.873 111.393 127.914 111.572C127.956 111.751 128.033 111.92 128.142 112.068C128.246 112.207 128.382 112.319 128.537 112.396C128.693 112.473 128.865 112.512 129.039 112.509V112.509Z" fill="#2B283A"/>
<path d="M103 120.787C103 116.848 97.8597 116 93.4227 116C88.9858 116 84 117.155 84 120.787C84 124.42 89.2277 125 92.4829 125C95.738 125 103 124.727 103 120.787Z" fill="white"/>
<path d="M103.5 106C99.9101 106 97 103.538 97 100.5C97 97.4624 99.9101 95 103.5 95C107.09 95 110 97.4624 110 100.5C110 103.538 107.09 106 103.5 106Z" fill="white"/>
<path d="M83 106C80.2386 106 78 103.538 78 100.5C78 97.4624 80.2386 95 83 95C85.7614 95 88 97.4624 88 100.5C88 103.538 85.7614 106 83 106Z" fill="white"/>
<path d="M93.7352 125C94.8683 124.998 96.0003 124.928 97.125 124.79L97.8054 124.703C98.6243 124.608 99.4375 124.468 100.241 124.284C101.037 124.107 101.8 123.802 102.499 123.382C103.139 122.983 103.651 122.407 103.973 121.724C104.136 121.387 104.231 121.021 104.252 120.646C104.273 120.272 104.22 119.897 104.096 119.543C103.854 118.869 103.339 118.307 102.519 117.826C101.813 117.441 101.072 117.124 100.306 116.879L100.268 116.866C98.6608 116.297 96.9687 116.007 95.2642 116.006C94.8516 116.006 94.435 116.024 94.0259 116.058C93.3682 115.825 92.6753 115.708 91.9778 115.711C90.9446 115.729 89.9227 115.93 88.9591 116.304L88.8099 116.36C87.9785 116.666 87.1887 117.075 86.4591 117.577C85.6314 118.167 85.0686 118.829 84.7861 119.545C84.667 119.85 84.6027 120.174 84.5961 120.501C84.3778 120.523 84.1789 120.549 83.9882 120.583C83.9 120.601 83.821 120.649 83.7655 120.72C83.7099 120.791 83.6815 120.88 83.6853 120.97C83.6782 121.066 83.7044 121.161 83.7597 121.24C83.8149 121.319 83.8957 121.376 83.9882 121.402C84.2238 121.453 84.4726 121.494 84.7486 121.526C84.8699 121.899 85.0491 122.25 85.2797 122.567C85.5091 122.886 85.7846 123.169 86.0972 123.407C87.5717 124.526 89.6407 124.724 91.3031 124.884C92.098 124.961 92.9164 125 93.7352 125ZM96.8258 121.199C96.8106 121.547 96.7968 121.899 96.7835 122.24C96.7795 122.342 96.7756 122.443 96.7717 122.545C96.767 122.675 96.8024 122.804 96.8731 122.914C95.9195 123.025 94.9603 123.08 94.0004 123.079H93.9789C94.154 122.549 94.1647 121.952 94.1749 121.374V121.359C95.1431 121.312 96.0101 121.259 96.8258 121.199ZM93.2717 121.401L93.1947 121.691C93.0594 122.135 92.9878 122.596 92.9822 123.06C92.522 123.042 92.0695 123.015 91.6368 122.977L91.0673 122.929C90.9207 122.916 90.7923 122.905 90.6748 122.893C90.6507 122.51 90.6089 122.117 90.5686 121.738C90.5599 121.655 90.5509 121.574 90.5427 121.493C91.5539 121.466 92.4469 121.436 93.2717 121.401V121.401ZM89.6636 121.513C89.6234 121.913 89.5837 122.34 89.5671 122.759C88.8529 122.668 88.1577 122.463 87.5073 122.154C87.2276 122.016 86.9767 121.826 86.7682 121.593C87.0442 121.587 87.3233 121.577 87.5935 121.567C87.9267 121.555 88.2705 121.543 88.6026 121.538C88.7173 121.536 88.8342 121.533 88.9471 121.531H88.9563L89.6644 121.513L89.6636 121.513ZM102.357 120.569C102.309 121.424 100.966 122.035 100.263 122.238C99.5971 122.43 98.9223 122.587 98.2409 122.71C98.2542 122.656 98.2591 122.6 98.2556 122.545L98.2329 122.291V122.29C98.1975 121.898 98.1621 121.493 98.124 121.095L98.4903 121.066L98.8318 121.04H98.8332C100.01 120.951 101.226 120.859 102.356 120.569L102.357 120.569ZM93.9264 117.305C93.8155 118.406 93.6608 119.482 93.468 120.506L93.1017 120.513C92.3051 120.526 91.4428 120.533 90.4639 120.534V120.532C90.4618 120.493 90.4595 120.448 90.4579 120.405C90.4285 119.606 90.4324 118.751 90.4701 117.715C91.5972 117.497 92.7387 117.36 93.8855 117.307L93.9271 117.304L93.9264 117.305ZM90.0107 117.828C89.9234 118.631 89.8429 119.49 89.7569 120.532L88.9862 120.531C88.8319 120.531 88.7131 120.53 88.6012 120.529C88.1736 120.525 87.7303 120.506 87.3017 120.488H87.3005C87.0041 120.476 86.6986 120.463 86.3976 120.455C86.4856 120.002 86.7355 119.596 87.1005 119.315C87.946 118.605 88.9415 118.096 90.0116 117.828L90.0107 117.828ZM94.6136 117.099C95.4637 117.19 96.3065 117.341 97.1358 117.549C96.9973 118.035 96.9308 118.54 96.9383 119.045C96.9322 119.215 96.9262 119.391 96.9145 119.559C96.8968 119.81 96.8807 120.078 96.8614 120.428C95.8444 120.453 94.9974 120.473 94.1965 120.49C94.2241 119.445 94.2073 118.368 94.1464 117.289L94.2433 117.283C94.3848 117.269 94.5164 117.204 94.6127 117.099L94.6136 117.099ZM101.008 120.285C100.348 120.285 99.674 120.319 99.022 120.351C98.7044 120.367 98.3761 120.383 98.0553 120.396C98.032 120.171 98.0127 119.994 97.9948 119.838L97.9622 119.559C97.9417 119.389 97.9268 119.208 97.9121 119.034C97.8922 118.583 97.8209 118.136 97.6997 117.701C98.0957 117.815 98.4845 117.94 98.8547 118.074L99.2709 118.225C99.8228 118.417 100.361 118.647 100.882 118.913C101.492 119.238 101.91 119.574 102.16 119.941C102.245 120.062 102.306 120.197 102.339 120.341C101.932 120.303 101.497 120.285 101.008 120.285ZM90.6057 112.242C91.3613 112.23 92.1083 112.079 92.8096 111.797C93.7355 111.424 94.6072 110.928 95.4012 110.323C95.5855 110.179 95.7135 109.975 95.7629 109.746C95.8058 109.53 95.788 109.305 95.7116 109.098C95.6246 108.853 95.474 108.635 95.2754 108.466C95.0872 108.3 94.8463 108.206 94.5954 108.2C94.4081 108.202 94.2254 108.258 94.0694 108.362C94.0137 108.405 93.9554 108.45 93.8945 108.497L93.892 108.499C93.3784 108.914 92.8363 109.292 92.2697 109.63C91.5368 110.048 90.9007 110.251 90.3251 110.251C90.0432 110.253 89.7638 110.198 89.5035 110.089C89.2139 109.963 88.9534 109.778 88.7384 109.546C88.5337 109.28 88.3881 108.974 88.3113 108.647C88.2345 108.32 88.2283 107.981 88.2931 107.652C88.4494 107.016 88.777 106.435 89.2403 105.972C89.6644 105.523 90.1467 105.133 90.6742 104.812C90.7459 104.751 90.7962 104.668 90.8178 104.576C90.8395 104.484 90.8313 104.387 90.7945 104.3C90.754 104.174 90.6771 104.063 90.5735 103.981C90.4522 103.887 90.3031 103.838 90.1502 103.84C90.0992 103.841 90.0483 103.845 89.998 103.854C89.401 103.95 88.8274 104.157 88.3073 104.466C87.861 104.735 87.4741 105.093 87.1702 105.517C86.6056 106.331 86.3483 107.32 86.4444 108.307C86.4869 108.812 86.6125 109.307 86.8161 109.771C87.0186 110.237 87.3024 110.663 87.6542 111.029C88.037 111.423 88.4966 111.734 89.0043 111.943C89.512 112.151 90.0571 112.253 90.6057 112.242V112.242ZM103.836 106.684C104.844 106.686 105.847 106.535 106.81 106.237C107.584 105.998 108.301 105.6 108.915 105.07C109.508 104.559 109.994 103.935 110.346 103.235C110.714 102.509 110.931 101.716 110.986 100.903C111.041 100.091 110.932 99.2754 110.666 98.506C110.378 97.6685 109.892 96.9131 109.25 96.3042C108.618 95.7067 107.873 95.2417 107.06 94.9363C106.815 94.5087 106.511 94.1188 106.155 93.7786C105.815 93.4555 105.432 93.1814 105.017 92.9641C104.183 92.5371 103.259 92.318 102.323 92.3252C100.635 92.3275 99.0099 92.9668 97.7712 94.1158C96.522 95.3056 95.7564 96.917 95.6222 98.6391C95.5488 99.4845 95.6229 100.336 95.841 101.156C96.0604 101.989 96.432 102.773 96.9368 103.469C97.3265 104.004 97.7883 104.482 98.3089 104.89C98.8239 105.292 99.3865 105.629 99.984 105.893C101.199 106.421 102.511 106.691 103.836 106.684V106.684ZM107.262 96.2179C107.819 96.6618 108.287 97.207 108.643 97.8249C109.006 98.4632 109.224 99.1737 109.283 99.906C109.345 100.467 109.293 101.035 109.132 101.576C108.97 102.118 108.701 102.62 108.342 103.055C107.554 103.983 106.341 104.556 104.928 104.667C104.642 104.69 104.357 104.701 104.078 104.701C103.482 104.704 102.888 104.647 102.303 104.533C101.734 104.423 101.181 104.24 100.658 103.99C99.5833 103.481 98.7142 102.619 98.1952 101.547C97.6682 100.479 97.5646 99.251 97.9052 98.1095C98.2481 96.9673 99.0046 95.9948 100.026 95.3829C100.368 95.1787 100.738 95.0265 101.125 94.9315C101.518 94.8352 101.921 94.7876 102.325 94.7895C103.069 94.7955 103.806 94.9317 104.503 95.192C105.182 95.4385 105.814 95.801 106.371 96.2634C106.491 96.3715 106.645 96.4331 106.806 96.4371C106.894 96.4364 106.98 96.4164 107.059 96.3786C107.137 96.3407 107.207 96.2858 107.262 96.2179V96.2179ZM83.6763 106.211C84.0374 106.211 84.3979 106.18 84.7535 106.116C85.5138 105.977 86.2392 105.689 86.8878 105.268C87.5375 104.849 88.1084 104.319 88.5743 103.702C89.0431 103.088 89.3989 102.395 89.625 101.656C89.854 100.916 89.9312 100.136 89.8519 99.3651C89.7169 98.0826 89.1652 96.8802 88.2816 95.9428C88.2755 95.9106 88.2668 95.8789 88.2556 95.8481C87.9879 95.0918 87.5395 94.4127 86.9496 93.8702C86.3443 93.3399 85.6074 92.9833 84.8167 92.8381C84.4116 92.7581 83.9996 92.7181 83.5867 92.7186C82.5497 92.7039 81.5253 92.9475 80.6055 93.4276C79.6856 93.9077 78.8991 94.6093 78.3165 95.4694C77.877 96.1041 77.5401 96.8044 77.3181 97.5443C76.8494 99.0194 76.8999 100.611 77.4611 102.053C77.714 102.668 78.0603 103.239 78.4879 103.747C79.3428 104.762 80.4683 105.512 81.7328 105.91C82.3617 106.108 83.017 106.21 83.6763 106.211V106.211ZM83.6231 95.2159C84.8052 95.2063 85.9598 95.5736 86.9199 96.265C87.9516 97.5986 88.3808 99.3578 88.0132 100.747C87.7509 101.718 87.1941 102.583 86.4199 103.223C86.0409 103.539 85.613 103.791 85.1531 103.968C84.6891 104.147 84.1964 104.239 83.6993 104.24C83.5602 104.24 83.4213 104.233 83.2831 104.218C82.2668 104.104 81.3147 103.663 80.5693 102.961C80.1996 102.618 79.8903 102.214 79.6544 101.767C79.4163 101.316 79.2661 100.824 79.2118 100.317C79.1122 99.3211 79.3207 98.3184 79.8091 97.4451C80.0491 97.0129 80.3576 96.6227 80.7226 96.2898C81.092 95.9526 81.5195 95.6856 81.9842 95.5018C82.5079 95.3064 83.0632 95.2095 83.6221 95.2161L83.6231 95.2159ZM82.724 101.506C82.813 101.506 82.9016 101.495 82.9879 101.473C83.7292 101.287 84.0008 100.515 83.9397 99.876C83.9303 99.6269 83.8632 99.3833 83.7437 99.1646C83.6242 98.9459 83.4556 98.7581 83.2512 98.616C83.17 98.556 83.0718 98.5234 82.9709 98.523C82.8402 98.5335 82.7152 98.5812 82.6107 98.6606C82.5061 98.74 82.4264 98.8477 82.3809 98.971L82.3101 99.1179C82.2729 99.1956 82.2338 99.2776 82.2325 99.2808L82.2191 99.32C82.2049 99.3467 82.1885 99.372 82.1723 99.3967V99.3976L82.1594 99.4176C82.1458 99.4271 82.0454 99.5518 82.0075 99.5988L81.9935 99.6166C81.7788 99.8475 81.6639 100.154 81.6736 100.47C81.6776 100.746 81.7903 101.011 81.9871 101.205C82.1839 101.399 82.4491 101.507 82.7252 101.507L82.724 101.506ZM101.867 101.441C102.061 101.433 102.25 101.379 102.419 101.283C102.588 101.187 102.732 101.052 102.839 100.889C103.238 100.349 103.117 99.2075 102.611 98.7466C102.456 98.6034 102.253 98.5233 102.042 98.5223C101.942 98.522 101.842 98.5416 101.749 98.58C101.656 98.6185 101.571 98.6751 101.5 98.7465C101.395 98.8596 101.307 98.9882 101.239 99.1278C101.208 99.1859 101.176 99.2457 101.139 99.3053L101.081 99.3965L101.051 99.4412C100.92 99.6118 100.829 99.8101 100.786 100.021C100.74 100.287 100.77 100.56 100.872 100.809C100.982 101.056 101.185 101.25 101.436 101.349C101.572 101.408 101.719 101.44 101.867 101.441ZM110.168 94.2489C110.215 94.2503 110.262 94.2416 110.305 94.2232C110.348 94.2048 110.387 94.1773 110.419 94.1424C111.078 93.3944 110.808 92.35 110.464 91.6063C110.065 90.7708 109.51 90.0193 108.829 89.3922C108.086 88.7467 107.253 88.2145 106.355 87.8127C105.433 87.3743 104.431 87.1325 103.412 87.1029C102.981 87.099 102.552 87.1627 102.141 87.2915C101.794 87.4098 101.495 87.6382 101.289 87.9421C101.077 88.2401 100.952 88.591 100.927 88.956C100.899 89.244 100.963 89.5335 101.11 89.7826C101.257 90.0318 101.479 90.2279 101.744 90.3425C102.54 90.7076 103.412 90.8206 104.256 90.9299C105.122 91.0423 106.018 91.1583 106.846 91.545C107.667 91.9289 108.244 92.3458 108.659 92.8571C108.735 92.9499 108.809 93.0462 108.887 93.1483C109.203 93.5598 109.529 93.9854 109.967 94.1996C110.029 94.2309 110.098 94.2477 110.168 94.2489V94.2489ZM79.2821 92.6068C79.5149 92.6059 79.7433 92.5428 79.9437 92.424C80.382 92.1704 80.689 91.7584 80.9859 91.3592C81.1853 91.073 81.4115 90.8063 81.6612 90.5629C82.1823 90.0911 82.7835 89.7167 83.4364 89.4575C84.1417 89.1749 84.8934 89.0262 85.653 89.0192H85.6969C86.0499 89.0311 86.4009 89.0764 86.7453 89.1546C86.9714 89.1984 87.2056 89.2433 87.4326 89.2681C87.4303 89.2719 87.4292 89.2763 87.4292 89.2807C87.4292 89.2851 87.4303 89.2894 87.4326 89.2932C87.4451 89.3134 87.4936 89.3241 87.573 89.3241C87.7558 89.3187 87.937 89.2882 88.1115 89.2334C88.3199 89.1446 88.3013 88.8832 88.2407 88.7395C88.0908 88.3845 87.7523 88.0557 87.2346 87.7634C86.3013 87.2525 85.253 86.9898 84.1897 87.0003C83.7223 87.0014 83.256 87.0426 82.7957 87.1235C81.7653 87.3013 80.7892 87.7134 79.9424 88.3281L79.8468 88.3991C79.3559 88.7513 78.9138 89.1674 78.5323 89.6364C78.1099 90.1819 77.9088 90.7303 77.9345 91.2662C77.9505 91.6279 78.1035 91.9697 78.3624 92.2221C78.6072 92.4661 78.9376 92.6043 79.2828 92.607L79.2821 92.6068Z" fill="#2B283A"/>
</svg>
