<svg width="230" height="280" viewBox="0 0 230 280" fill="none" xmlns="http://www.w3.org/2000/svg">
<path d="M49.8253 266.142C73.7441 269.775 98.0969 269.958 122.214 268.638C131.759 267.924 141.333 267.795 150.87 268.709C156.506 269.128 181.215 271.015 183.234 265.969C181.963 239.092 179.389 211.985 171.495 186.136C168.249 176.957 165.46 169.339 159.124 161.744C157.127 159.67 152.82 155.321 150.352 153.902C148.214 152.674 147.32 153.112 146.093 151.036C144.873 148.744 143.973 144.915 142.241 143.297C140.477 141.649 137.864 142.239 134.625 142.77C135.22 134.727 131.507 132.678 126.393 131.149C117.403 127.718 108.524 129.441 106.261 140.386C102.065 140.386 99.7087 142.191 97.1617 143.926C96.1201 144.635 96.8448 146.442 95.6007 146.999C93.299 147.819 89.2318 147.618 87.0156 148.627C76.9362 153.212 67.9606 159.862 62.066 169.576C48.8511 190.313 39.7733 233.996 41.3442 258.574C40.656 259.654 41.6076 261.201 41.8495 262.361C41.9961 262.851 42.3081 263.275 42.7323 263.561C43.1565 263.846 43.6666 263.976 44.1757 263.928C45.6159 265.476 47.8434 265.821 49.8253 266.142Z" fill="white"/>
<path d="M99.5871 142.029C101.061 140.491 103.372 139.573 105.56 139.625L105.663 139.628L106.406 139.661L105.91 142.097L105.885 142.212L105.784 142.635L105.649 143.189L105.601 143.393L105.55 143.618C105.542 143.655 105.535 143.691 105.527 143.727L105.505 143.833L105.293 144.868L105.333 144.959L105.321 145.194C105.289 146.045 105.472 146.512 105.875 146.662L105.907 146.673L106.137 146.746L106.325 147.153C106.757 148.085 107.161 148.899 107.574 149.666C108.85 152.004 110.29 154.249 111.882 156.384C113.46 158.518 115.103 160.554 116.812 162.49C117.581 163.36 118.392 164.233 119.256 165.122L120 165.884L120.236 166.123L120.396 166.282L120.594 166.476L120.88 166.748L121.087 166.952L121.154 167.016C121.219 167.079 121.289 167.135 121.363 167.186L121.385 167.199L121.45 167.238L124.898 170.863L126.115 171.533L126.693 171.853L126.811 171.62L126.834 171.545L128.116 168.731L128.898 167.008C130.504 163.462 131.754 160.642 132.896 157.956L133.038 157.621L133.459 156.622L133.682 156.089C134.703 153.641 135.458 151.753 136.133 149.919L136.229 149.657L136.371 149.265L136.582 148.674L136.621 148.573C136.804 148.103 136.354 146.397 135.91 145.462L135.885 145.41L135.77 145.179L135.645 144.935C135.336 144.306 135.106 143.642 134.96 142.957C134.931 142.833 134.904 142.707 134.878 142.581L134.842 142.39L134.818 142.265L134.785 142.09L134.738 141.84L135.731 141.674L136.276 141.585L136.514 141.548C136.821 141.501 137.095 141.462 137.353 141.429L137.449 141.417L137.622 141.396L137.628 141.43L137.982 141.465L138.245 141.493C139.254 141.585 140.257 141.737 141.248 141.948L141.318 141.965L141.445 141.997L141.503 142.012C142.131 142.183 142.676 142.575 143.039 143.115C143.339 143.561 143.582 144.042 143.761 144.548L143.861 144.797L144.19 145.613C144.229 145.712 144.289 145.871 144.37 146.089L144.65 146.851L146.053 150.728L147.49 151.483C148.157 151.833 148.646 152.085 148.887 152.204L148.973 152.245L149.034 152.273L149.528 152.47L149.475 152.624L149.535 152.658C155.448 156.06 160.009 161.294 163.56 168.241L163.667 168.453L163.777 168.671C166.607 174.33 168.635 180.646 170.614 189.078L170.737 189.602L170.833 190.019L171.349 192.269C173.289 200.764 174.621 207.1 175.724 213.316L175.795 213.721L175.979 214.777C177.363 222.822 178.521 230.794 179.451 238.69L179.605 240.019C179.992 243.411 180.342 246.918 180.722 251.128L180.772 251.694L180.94 253.585C181.117 255.624 181.28 257.658 181.427 259.687L181.499 260.702L181.648 262.907L181.735 264.165L181.746 264.335L181.781 264.99L181.791 265.143C181.804 265.34 181.819 265.507 181.838 265.66L181.853 265.773L181.87 265.883C181.922 266.188 182.025 266.482 182.176 266.752L182.217 266.828L182.492 267.319L181.994 267.582C179.396 268.951 174.282 269.552 167.265 269.584H167.052H166.613C163.204 269.582 159.59 269.451 155.82 269.226L154.967 269.173L154.256 269.128C153.949 269.108 153.651 269.088 153.341 269.067L152.867 269.033L150.884 268.888C141.967 268.034 132.615 268.048 122.31 268.82C95.4456 270.289 72.2577 269.669 50.4633 266.416L49.8033 266.317L49.317 266.238L49.027 266.189C46.7152 265.795 45.2638 265.288 44.131 264.227L44.0717 264.171L44.0223 264.122H44.0009C43.4348 264.114 42.8849 263.932 42.4255 263.601C41.966 263.27 41.6191 262.806 41.4315 262.272L41.4113 262.213L41.3857 262.131L41.3674 262.049C41.3491 261.97 41.3268 261.884 41.2995 261.791L41.2781 261.719L41.0986 261.13L41.7052 261.019C41.7385 261.01 41.7698 260.995 41.7972 260.974C41.8245 260.953 41.8474 260.926 41.8645 260.897L41.915 260.824L42.0025 260.702L42.2138 260.413C42.385 260.2 42.5173 259.959 42.6045 259.7C42.6581 259.465 42.6788 259.224 42.666 258.984L42.662 258.83L42.638 258.274C42.6363 258.229 42.6354 258.19 42.6347 258.153V258.097V257.313L42.6367 256.453C42.6382 256.077 42.6402 255.711 42.6431 255.351L42.6481 254.816L42.653 254.385C42.6822 252 42.7522 249.617 42.863 247.237C43.0796 242.592 43.4509 237.957 43.9767 233.333C45.022 223.987 46.6948 214.722 48.9838 205.601L49.211 204.708C51.6559 195.152 54.0133 187.786 57.0103 180.974C60.821 172.31 65.4675 165.179 71.3179 159.478C74.4571 156.395 78.013 153.766 81.8818 151.669C83.6825 150.711 85.5451 149.874 87.4572 149.163L87.7415 149.057L88.2005 148.889L88.5526 148.759L89.6877 148.335C89.9257 148.246 90.1857 148.146 90.4932 148.025L90.6833 147.951L92.7155 147.14L93.0529 147.007L93.428 146.861L93.7038 146.755C94.1547 146.583 94.563 146.433 94.942 146.301L95.166 146.224L95.3693 146.155L96.2365 145.855L96.2197 146.644C96.2085 147.168 96.3436 147.565 96.6437 147.85L96.6538 147.859L96.6642 147.867L96.6736 147.873L96.7261 147.871L96.931 147.87C96.9522 147.859 96.9722 147.845 96.9906 147.829C97.2823 147.582 97.4178 147.25 97.5494 146.488L97.5842 146.276L97.645 145.879L97.6692 145.729C97.7193 145.331 97.8246 144.943 97.9819 144.575C98.2034 144.082 98.4829 143.617 98.8145 143.19L98.8925 143.091L99.2038 142.716L99.2515 142.657C99.3362 142.561 99.4004 142.449 99.4405 142.327L99.4462 142.303L99.4773 142.145L99.5871 142.029Z" fill="white"/>
<path d="M183.268 268.77C183.038 268.769 182.812 268.712 182.609 268.604C182.405 268.496 182.231 268.341 182.101 268.151L181.958 267.933C181.613 267.458 181.375 266.914 181.261 266.338C181.2 265.909 181.162 265.478 181.147 265.045C181.138 264.861 181.128 264.67 181.114 264.485C181.069 263.858 181.027 263.226 180.986 262.614L180.985 262.599C180.953 262.11 180.919 261.604 180.884 261.106C180.719 258.755 180.532 256.364 180.325 253.999C179.684 246.668 179.248 242.665 178.94 239.996C178.007 231.899 176.805 223.569 175.37 215.236C173.951 206.991 172.152 198.873 170.419 191.328L170.23 190.507C169.267 186.326 168.371 182.951 167.409 179.889C166.319 176.318 164.951 172.839 163.318 169.481C162.503 167.827 161.596 166.221 160.601 164.669C159.614 163.133 158.522 161.668 157.332 160.283C156.14 158.901 154.837 157.618 153.434 156.45C151.999 155.259 150.457 154.202 148.829 153.294C148.805 153.282 148.786 153.263 148.775 153.239C148.763 153.215 148.761 153.187 148.768 153.162C148.773 153.142 148.782 153.123 148.794 153.108C148.807 153.092 148.823 153.079 148.842 153.07C148.86 153.062 148.88 153.057 148.9 153.057C148.921 153.058 148.941 153.062 148.959 153.071C152.457 154.735 155.639 156.993 158.365 159.745C161.09 162.497 163.43 165.604 165.322 168.983C167.136 172.178 168.72 175.791 170.165 180.029C171.538 184.054 172.618 188.162 173.495 191.65L173.565 191.929C175.459 199.489 177.237 207.689 178.999 216.997C179.787 221.151 180.521 225.455 181.185 229.791C181.823 233.96 182.414 238.286 182.943 242.651C183.511 247.349 183.947 251.526 184.273 255.42C184.452 257.55 184.616 259.702 184.76 261.817C184.828 262.803 184.878 263.617 184.921 264.378L184.954 265.019C184.959 265.11 184.965 265.204 184.97 265.293C185.025 265.781 185.004 266.274 184.909 266.755C184.79 267.158 184.625 267.546 184.417 267.911C184.378 267.984 184.335 268.068 184.293 268.15C184.199 268.341 184.053 268.5 183.871 268.61C183.69 268.72 183.481 268.775 183.268 268.77V268.77ZM71.1536 268.344C70.9307 268.337 70.7171 268.253 70.5494 268.106L70.4348 268.015L70.3539 267.952L70.35 267.949C69.9943 267.713 69.6998 267.395 69.4908 267.023C69.1585 266.379 69.1041 265.696 69.0467 264.972L69.0454 264.955C68.9798 264.134 68.997 263.291 69.0139 262.476C69.0192 262.217 69.0247 261.949 69.0274 261.684C69.0496 259.521 69.08 257.32 69.119 255.144C69.2726 246.397 69.5748 238.556 70.0428 231.17C70.292 227.238 70.6267 223.445 71.0375 219.895L71.1202 219.193C71.1838 218.66 71.2451 218.12 71.3042 217.597C71.3691 217.024 71.4361 216.432 71.5066 215.846C69.4948 214.423 67.7076 212.706 66.2047 210.753C66.1859 210.73 66.1742 210.701 66.171 210.672C66.1677 210.642 66.1731 210.612 66.1864 210.585C66.1973 210.561 66.2147 210.54 66.2367 210.525C66.2588 210.51 66.2846 210.501 66.3112 210.5C66.3301 210.501 66.3486 210.505 66.3657 210.513C66.3827 210.521 66.398 210.533 66.4104 210.547C67.1745 211.337 68.0048 212.061 68.8923 212.71C69.7772 213.354 70.7116 213.928 71.6869 214.425C71.9531 212.474 72.3742 209.929 73.2729 207.546C73.2869 207.511 73.3108 207.482 73.3417 207.461C73.3725 207.44 73.4088 207.429 73.4459 207.429C73.4796 207.428 73.5126 207.439 73.5386 207.461C73.5647 207.482 73.582 207.512 73.5875 207.546C74.0379 209.573 74.1065 211.688 74.1733 213.734C74.1775 213.861 74.1816 213.988 74.1858 214.115C74.2486 216.014 74.2605 218.089 74.2224 220.644C74.1318 226.839 73.9773 233.131 73.8277 239.217L73.8257 239.297C73.7828 241.038 73.7387 242.837 73.6975 244.607C73.614 248.126 73.5188 252.302 73.4454 256.596C73.4201 258.07 73.398 259.583 73.3799 261.093L73.3577 263.071C73.3581 263.943 73.3113 264.814 73.2173 265.681C73.1655 266.254 72.9816 266.806 72.6801 267.296C72.5044 267.543 72.2813 267.753 72.0238 267.913C71.9575 267.96 71.889 268.009 71.8224 268.06L71.7638 268.105C71.5937 268.252 71.3783 268.336 71.1536 268.344V268.344ZM123.428 267.056C123.338 267.062 123.248 267.036 123.177 266.982C123.105 266.927 123.055 266.849 123.037 266.761C122.588 263.976 122.508 261.099 122.43 258.316V258.296C122.419 257.898 122.408 257.486 122.395 257.082L122.375 256.437C122.254 252.935 122.2 249.437 122.211 246.04C122.248 235.849 122.477 225.492 122.698 215.475V215.474L122.699 215.412C122.746 213.315 122.794 211.146 122.839 209.013C122.874 207.349 122.907 205.657 122.939 204.02V203.976C123.025 199.529 123.114 194.932 123.264 190.408C123.375 187.037 123.492 183.994 123.62 181.106L123.632 180.84V180.838C123.688 179.565 123.746 178.249 123.833 176.957L123.875 176.364C123.889 176.173 123.902 175.98 123.914 175.794V175.791C123.927 175.603 123.94 175.409 123.954 175.218C123.719 175.304 123.47 175.348 123.219 175.348C122.442 175.348 121.696 174.937 120.975 174.54C120.799 174.443 120.617 174.343 120.439 174.251L119.374 173.703L119.295 173.663C118.401 173.202 117.476 172.726 116.553 172.253L115.257 171.589L112.662 170.265C112.563 170.215 112.466 170.164 112.371 170.115L112.369 170.114C111.693 169.762 111.109 169.458 110.465 169.458C110.071 169.464 109.686 169.573 109.347 169.775C105.388 171.996 101.346 175.066 96.9928 179.162C96.7 179.422 96.32 179.563 95.9285 179.555C95.6205 179.56 95.3184 179.471 95.0618 179.3C94.9323 179.211 94.8227 179.096 94.7397 178.963C94.6566 178.83 94.602 178.68 94.5792 178.525C94.3986 177.387 94.279 176.24 94.2207 175.089C94.1628 174.009 94.1475 172.88 94.1757 171.64C94.2269 169.339 94.4199 167.002 94.6065 164.742L94.6096 164.705C94.6303 164.455 94.6509 164.204 94.6714 163.954L94.8179 162.156C94.9761 160.237 95.174 157.972 95.4442 155.722L95.456 155.624V155.621C95.5658 154.713 95.6775 153.775 95.7996 152.853L95.897 152.137C95.9259 151.931 95.9534 151.721 95.9799 151.519V151.513C96.0741 150.594 96.2464 149.685 96.4951 148.795C96.3829 148.759 96.2802 148.698 96.1947 148.617C95.7454 148.191 95.5486 147.579 95.6099 146.798C95.6845 146.122 95.8609 145.462 96.1332 144.839C96.594 143.721 97.2838 142.711 98.1583 141.875C98.3543 141.685 98.6135 141.574 98.8862 141.564C99.6188 141.069 100.409 140.665 101.239 140.361C102.034 140.071 102.873 139.92 103.72 139.913C104.404 139.914 105.085 140.02 105.737 140.228C105.819 139.835 105.883 139.535 105.947 139.258L106.021 138.935C106.062 138.762 106.097 138.563 106.134 138.354C106.194 137.96 106.283 137.57 106.399 137.188C106.495 136.834 106.693 136.516 106.97 136.274C106.985 136.262 107.004 136.255 107.023 136.254C107.032 136.254 107.04 136.256 107.048 136.259C107.055 136.263 107.062 136.268 107.067 136.274C107.43 136.697 107.427 137.321 107.425 137.87C107.425 137.982 107.425 138.088 107.427 138.193L107.428 138.253C107.455 139.068 107.465 139.934 107.462 141.06L107.452 144.042C107.452 144.194 107.447 144.351 107.442 144.503C107.434 144.763 107.426 145.032 107.439 145.292L107.45 145.451C107.565 145.569 107.65 145.714 107.694 145.873C107.739 146.032 107.743 146.199 107.706 146.36C107.699 146.564 107.643 146.763 107.544 146.941C107.444 147.119 107.304 147.271 107.134 147.384L107.844 148.391L108.554 149.398C110.328 151.913 111.712 153.812 113.043 155.554C114.563 157.544 116.248 159.545 118.051 161.501C118.973 162.502 119.831 163.4 120.675 164.247C120.927 164.5 121.186 164.752 121.436 164.995C121.548 165.104 121.664 165.216 121.778 165.327L122.144 165.689C122.194 165.739 122.245 165.787 122.3 165.839C122.487 165.996 122.648 166.183 122.775 166.392C122.829 166.536 122.863 166.686 122.876 166.839C122.881 166.899 122.892 166.959 122.908 167.018C122.971 167.173 122.996 167.341 122.981 167.507C122.965 167.674 122.91 167.834 122.819 167.975C122.76 168.079 122.674 168.165 122.571 168.226C122.468 168.287 122.352 168.32 122.232 168.323C122.135 168.322 122.039 168.303 121.949 168.267L121.984 168.243C122.029 168.212 122.051 168.19 122.047 168.179C122.045 168.172 122.036 168.169 122.019 168.169C121.916 168.182 121.814 168.205 121.715 168.239C121.517 168.239 121.322 168.192 121.147 168.1L121.095 168.071C120.883 167.946 120.691 167.789 120.526 167.607C120.489 167.571 120.456 167.538 120.423 167.506L120.373 167.458C119.982 167.092 119.601 166.701 119.232 166.323L119.029 166.114C118.053 165.117 117.17 164.17 116.329 163.219C114.625 161.289 112.956 159.222 111.369 157.075C109.762 154.919 108.309 152.653 107.02 150.292C106.582 149.482 106.153 148.614 105.668 147.56C105.48 147.501 105.308 147.398 105.167 147.259C105.025 147.121 104.919 146.951 104.855 146.764C104.713 146.333 104.663 145.876 104.706 145.424C104.392 144.723 104.144 143.995 103.965 143.248C103.962 143.231 103.963 143.214 103.967 143.197C103.971 143.18 103.979 143.164 103.99 143.151C104.001 143.137 104.014 143.126 104.029 143.118C104.045 143.11 104.062 143.106 104.079 143.105C104.093 143.105 104.107 143.108 104.119 143.114C104.132 143.12 104.143 143.129 104.152 143.14C104.416 143.443 104.665 143.76 104.897 144.089C104.979 143.689 105.072 143.312 105.154 142.979V142.977C105.214 142.732 105.267 142.519 105.303 142.346L105.669 140.547C105.554 140.541 105.435 140.538 105.315 140.538C104.308 140.545 103.311 140.746 102.38 141.131C101.453 141.502 100.613 142.062 99.9133 142.775C99.8521 143.084 99.6531 143.319 99.4228 143.591L99.4217 143.592C99.3651 143.659 99.3066 143.728 99.2483 143.801C98.9127 144.218 98.6315 144.676 98.4113 145.164C98.2407 145.612 98.1294 146.081 98.0803 146.558C97.9647 147.33 97.8452 148.129 97.2736 148.614C97.1807 148.693 97.073 148.752 96.9569 148.789C97.298 150.461 97.2553 152.266 97.2143 154.011V154.014C97.2026 154.514 97.1903 155.03 97.1881 155.526V155.719C97.1903 158.284 97.0991 160.865 97.0134 163.083L96.917 165.51C96.7969 168.624 96.7062 171.939 97.0253 175.205C98.4589 173.936 99.9587 172.71 101.483 171.562C102.487 170.806 103.526 170.066 104.573 169.362L105.425 168.792L105.461 168.768C106.466 168.094 107.506 167.397 108.611 166.912C109.174 166.66 109.783 166.529 110.4 166.529C111.261 166.55 112.107 166.762 112.878 167.149C113.842 167.598 114.8 168.105 115.728 168.595C116.153 168.82 116.593 169.053 117.028 169.276C118.1 169.827 119.188 170.383 120.241 170.92L120.391 170.997L121.243 171.432C121.468 171.547 121.717 171.658 121.98 171.776C122.788 172.139 123.703 172.549 124.22 173.212C124.265 173.011 124.317 172.816 124.374 172.633C124.3 172.324 124.344 171.999 124.497 171.72C126.73 167.617 128.772 163.477 131.021 158.879C131.543 157.811 132.061 156.718 132.562 155.663L132.564 155.658C133.086 154.559 133.626 153.422 134.171 152.31L135.21 150.186C135.419 149.761 135.58 149.434 135.733 149.126C135.886 148.818 136.042 148.512 136.194 148.214C136.306 147.995 136.421 147.77 136.533 147.547C136.585 147.444 136.644 147.339 136.701 147.237L136.702 147.235C136.768 147.119 136.836 146.997 136.894 146.879L136.946 146.766C136.948 146.76 137.136 146.171 137.062 146.057C137.059 146.051 137.054 146.047 137.049 146.043C137.043 146.04 137.036 146.039 137.03 146.039C137.021 146.039 137.013 146.041 137.006 146.044L136.989 146.052C136.974 146.061 136.957 146.066 136.94 146.066C136.923 146.066 136.907 146.06 136.893 146.051C136.879 146.042 136.868 146.029 136.862 146.014C136.853 145.996 136.85 145.976 136.852 145.957C136.855 145.938 136.862 145.919 136.875 145.904C136.907 145.859 136.948 145.822 136.997 145.796C137.046 145.77 137.099 145.756 137.154 145.754C137.376 145.754 137.587 145.975 137.69 146.18C138.034 146.87 137.603 147.868 137.258 148.67C137.17 148.874 137.087 149.066 137.025 149.235L137.008 149.281C136.034 152.038 134.936 154.717 133.896 157.201C131.886 161.995 129.697 166.799 127.579 171.446L127.278 172.109L127.251 172.194C127.525 171.984 127.809 171.785 128.085 171.592H128.086C128.296 171.446 128.495 171.306 128.684 171.166C129.815 170.328 131.015 169.508 132.074 168.785C133.997 167.472 136.096 166.149 138.492 164.743L138.929 164.486C139.38 164.214 139.852 163.979 140.341 163.783C140.821 163.593 141.331 163.492 141.847 163.487C142.03 163.487 142.212 163.501 142.392 163.527C143.389 163.674 144.329 164.144 145.238 164.598C145.422 164.689 145.612 164.785 145.797 164.874L145.91 164.928L149.265 166.523C148.935 165.211 148.559 163.813 148.113 162.252C147.334 159.527 146.459 156.759 145.51 154.025C144.661 151.576 143.732 149.109 142.67 146.482L142.367 145.734L142.334 145.651L142.324 145.626C142.145 145.123 141.911 144.642 141.625 144.191C141.335 143.742 140.89 143.416 140.375 143.274C139.944 143.175 139.502 143.132 139.06 143.148H138.883H138.709C138.025 143.148 137.364 143.118 136.785 142.757C136.762 142.742 136.743 142.72 136.732 142.695C136.721 142.669 136.717 142.641 136.722 142.613C136.725 142.588 136.736 142.564 136.753 142.545C136.771 142.526 136.793 142.512 136.818 142.506L137.479 142.339C138.401 142.11 139.378 141.898 140.282 141.898C140.642 141.894 141.001 141.935 141.351 142.02C141.995 142.198 142.587 142.528 143.076 142.984C143.569 143.43 143.984 143.955 144.306 144.536C144.844 145.562 145.31 146.623 145.703 147.712C145.801 147.966 145.902 148.228 146.005 148.487L146.087 148.695C146.694 150.207 147.276 151.727 147.818 153.212C148.907 156.198 149.923 159.289 150.839 162.397C151.256 163.814 151.666 165.283 152.093 166.886C152.154 167.112 152.234 167.362 152.319 167.627V167.629C152.398 167.874 152.479 168.127 152.553 168.387C152.739 168.568 152.908 168.765 153.059 168.976C153.11 169.045 153.146 169.124 153.166 169.208C153.185 169.291 153.187 169.378 153.172 169.462C153.125 169.681 152.993 169.872 152.806 169.993C152.806 170.358 152.704 170.716 152.51 171.025C152.36 171.249 152.157 171.432 151.919 171.557C151.681 171.682 151.415 171.747 151.146 171.744C150.952 171.748 150.758 171.713 150.578 171.64C150.397 171.568 150.233 171.46 150.095 171.323C149.972 171.187 149.878 171.027 149.819 170.854C149.761 170.68 149.739 170.496 149.755 170.314C149.772 170.07 149.859 169.836 150.007 169.642L150.002 169.61L149.986 169.552C149.78 169.453 149.577 169.35 149.364 169.24H149.362C149.21 169.163 149.052 169.082 148.892 169.002L145.371 167.263C145.099 167.129 144.825 166.978 144.534 166.818C143.739 166.381 142.918 165.929 142.087 165.788C141.982 165.771 141.877 165.762 141.771 165.762C140.996 165.762 140.199 166.209 139.496 166.603C139.325 166.699 139.164 166.789 139.005 166.872L138.947 166.903C136.544 168.134 134.186 169.399 132.399 170.363C131.783 170.696 131.161 171.043 130.56 171.378L130.552 171.382C130.122 171.622 129.677 171.87 129.238 172.111C128.995 172.244 128.753 172.39 128.496 172.545H128.495C127.823 172.947 127.129 173.365 126.41 173.564C126.22 173.716 125.984 173.799 125.741 173.799C125.506 173.795 125.276 173.726 125.078 173.6C125.197 174.458 125.262 175.323 125.273 176.189C125.283 176.484 125.293 176.79 125.308 177.091C125.371 178.386 125.39 179.704 125.409 180.979C125.413 181.246 125.417 181.522 125.421 181.793L125.431 182.381C125.495 185.699 125.533 189.1 125.547 192.778C125.577 200.641 125.531 208.636 125.488 216.369C125.463 220.772 125.437 225.324 125.425 229.805C125.412 235.229 125.319 240.967 125.125 248.41C125.054 251.155 124.899 253.913 124.759 256.282L124.674 257.713C124.649 258.142 124.625 258.577 124.601 258.999C124.458 261.558 124.31 264.205 123.83 266.76C123.809 266.849 123.757 266.927 123.683 266.982C123.609 267.036 123.519 267.062 123.427 267.056H123.428ZM129.061 266.614C128.894 266.614 128.729 266.591 128.568 266.548C128.333 266.483 128.113 266.372 127.92 266.222C127.728 266.073 127.567 265.886 127.446 265.674C127.326 265.462 127.248 265.228 127.218 264.986C127.188 264.744 127.206 264.499 127.271 264.264L127.316 264.157C127.404 263.838 127.573 263.548 127.806 263.315C128.04 263.081 128.33 262.912 128.648 262.824C128.811 262.78 128.979 262.757 129.148 262.757C129.656 262.757 130.143 262.958 130.504 263.315C130.736 263.547 130.904 263.834 130.992 264.15C131.08 264.465 131.086 264.798 131.008 265.116C130.93 265.434 130.772 265.727 130.548 265.967C130.325 266.206 130.043 266.383 129.731 266.482L129.662 266.503L129.555 266.548C129.394 266.591 129.228 266.614 129.061 266.614H129.061ZM167.618 262.586C167.456 262.585 167.294 262.571 167.134 262.545C166.947 262.509 166.77 262.436 166.613 262.329C166.457 262.222 166.324 262.084 166.223 261.923C166.01 261.611 165.885 261.248 165.86 260.871C165.656 256.607 165.377 252.107 165.005 247.112C164.604 241.72 164.301 236.228 164.008 230.917V230.915V230.905C163.86 228.217 163.707 225.437 163.543 222.705L163.37 219.862C163.203 217.063 163.019 213.809 162.962 210.614C162.945 209.688 162.959 208.747 162.972 207.838C162.988 206.739 163.004 205.602 162.967 204.485C162.957 204.166 162.942 203.836 162.928 203.516C162.858 201.905 162.784 200.237 163.13 198.699C163.135 198.68 163.146 198.664 163.162 198.653C163.178 198.642 163.197 198.636 163.216 198.637C163.23 198.636 163.245 198.64 163.257 198.647C163.27 198.654 163.28 198.665 163.286 198.678C163.707 199.607 164.015 200.583 164.203 201.586C165.27 200.236 166.423 198.797 167.622 197.421C167.633 197.407 167.646 197.396 167.662 197.389C167.678 197.381 167.695 197.377 167.712 197.376C167.736 197.378 167.759 197.385 167.78 197.398C167.801 197.41 167.818 197.428 167.83 197.449C167.843 197.469 167.851 197.493 167.852 197.517C167.854 197.541 167.848 197.566 167.837 197.588C166.802 199.617 165.66 201.609 164.556 203.535C164.643 204.061 164.733 204.604 164.837 205.137C164.989 205.915 165.156 206.701 165.317 207.462V207.464C165.618 208.881 165.928 210.346 166.155 211.812C167.462 220.258 168.11 228.86 168.615 236.259C169.161 244.254 169.244 252.392 169.324 260.262L169.331 260.872C169.324 261.252 169.199 261.621 168.972 261.925C168.757 262.242 168.429 262.464 168.056 262.545C167.911 262.572 167.765 262.586 167.618 262.586L167.618 262.586ZM41.607 261.937C41.4756 261.933 41.347 261.898 41.2317 261.835C41.1164 261.772 41.0177 261.683 40.9435 261.574L40.8153 261.403L40.7954 261.377C40.4292 260.891 40.0824 260.432 40.0304 259.802C39.9911 259.324 39.9986 258.829 40.0057 258.35C40.0088 258.142 40.0121 257.926 40.0114 257.715C40.0061 256.464 40.0185 255.138 40.0504 253.54C40.1039 250.889 40.2097 248.199 40.3653 245.545C40.6866 240.071 41.2205 234.635 41.9517 229.388C42.6108 224.662 43.4462 219.879 44.4358 215.173C45.4186 210.498 46.5778 205.784 47.8797 201.159C49.2662 196.236 50.6172 191.979 52.0094 188.147C53.5429 183.862 55.3461 179.677 57.4079 175.619C58.3953 173.695 59.4464 171.838 60.5317 170.101C61.6768 168.268 62.8934 166.516 64.1452 164.893C65.433 163.221 66.8156 161.624 68.2863 160.11C69.7616 158.594 71.3347 157.175 72.9956 155.865C74.5422 154.646 76.1658 153.529 77.8562 152.519C79.5475 151.51 81.3067 150.62 83.1211 149.855C84.9617 149.063 86.8824 148.472 88.8498 148.091C90.1361 147.885 91.435 147.768 92.7374 147.74C93.3728 147.712 94.0296 147.683 94.6801 147.632H94.6912C94.7047 147.632 94.7181 147.634 94.7307 147.639C94.7433 147.644 94.7548 147.651 94.7645 147.66C94.7742 147.67 94.7818 147.681 94.7871 147.693C94.7923 147.706 94.7949 147.719 94.7948 147.732C94.7976 147.766 94.7872 147.8 94.7658 147.826C94.7444 147.852 94.7137 147.869 94.6801 147.873C92.8188 148.089 91.0001 148.77 89.2425 149.429L89.237 149.431C88.9362 149.544 88.6251 149.661 88.3216 149.772L88.1447 149.837C86.0584 150.583 84.0289 151.479 82.0724 152.519C78.248 154.591 74.7333 157.189 71.6312 160.238C70.0922 161.741 68.6423 163.333 67.2889 165.005C65.9432 166.67 64.6844 168.403 63.5174 170.198C62.3845 171.937 61.2872 173.802 60.2559 175.742C59.2818 177.574 58.3354 179.531 57.4429 181.561C55.7154 185.532 54.2043 189.594 52.9163 193.729C51.7629 197.375 50.6597 201.306 49.4469 206.102C48.3173 210.569 47.3204 215.193 46.4843 219.848C45.6705 224.378 44.9865 229.059 44.4521 233.762C43.9303 238.348 43.5564 243.014 43.3411 247.63C43.2313 249.99 43.1608 252.388 43.1317 254.758C43.1181 255.859 43.1123 257.054 43.1134 258.411C43.1134 258.565 43.1212 258.728 43.1293 258.9C43.1738 259.338 43.152 259.781 43.0645 260.213C42.9258 260.607 42.7177 260.973 42.4501 261.293C42.3788 261.39 42.3115 261.482 42.247 261.575C42.1788 261.684 42.0845 261.774 41.9728 261.837C41.861 261.9 41.7353 261.935 41.607 261.937V261.937ZM129.148 251.3C129.116 251.3 129.082 251.3 129.047 251.298L128.989 251.294L129.024 251.298L128.962 251.291C128.904 251.287 128.846 251.28 128.789 251.273C128.772 251.271 128.755 251.269 128.738 251.267C128.717 251.265 128.694 251.263 128.671 251.26C128.644 251.258 128.624 251.257 128.604 251.257C128.588 251.257 128.573 251.257 128.558 251.259C128.526 251.262 128.493 251.263 128.46 251.263C128.038 251.235 127.641 251.055 127.343 250.755C127.182 250.597 127.055 250.407 126.969 250.198C126.873 249.993 126.829 249.767 126.84 249.541L126.857 249.376C126.873 249.145 126.931 248.918 127.03 248.708C127.14 248.437 127.309 248.193 127.523 247.993C127.927 247.606 128.464 247.388 129.024 247.382H129.04C129.396 247.376 129.747 247.468 130.054 247.648L130.451 247.955C130.553 248.086 130.658 248.222 130.773 248.371C131.021 248.694 131.054 249.22 131.003 249.604C130.991 249.86 130.912 250.108 130.773 250.324L130.471 250.715C130.213 250.946 129.912 251.123 129.585 251.235C129.444 251.28 129.296 251.302 129.148 251.3ZM129.093 230.429C128.834 230.43 128.577 230.378 128.339 230.275C127.968 230.124 127.651 229.863 127.432 229.527L127.397 229.469C127.382 229.446 127.368 229.421 127.355 229.396L127.336 229.358C127.132 228.985 127.052 228.556 127.106 228.134C127.161 227.712 127.347 227.318 127.639 227.008C127.811 226.827 128.019 226.685 128.25 226.59C128.481 226.495 128.729 226.449 128.978 226.456C129.331 226.455 129.678 226.54 129.989 226.705C130.131 226.787 130.264 226.884 130.386 226.993H130.387C130.421 227.022 130.457 227.052 130.492 227.08C130.974 227.47 131.056 228.184 131.069 228.473C131.074 228.732 131.023 228.99 130.917 229.226C130.819 229.466 130.674 229.683 130.492 229.867L130.409 229.948C130.192 230.161 129.919 230.309 129.622 230.374C129.448 230.408 129.271 230.427 129.093 230.429H129.093ZM128.261 210.634C128.097 210.634 127.933 210.612 127.775 210.569C127.464 210.483 127.181 210.318 126.953 210.09C126.725 209.862 126.56 209.579 126.474 209.268L126.437 209.016C126.382 208.699 126.396 208.373 126.479 208.062C126.532 207.864 126.608 207.674 126.706 207.494C126.839 207.259 127.018 207.054 127.232 206.89C127.447 206.727 127.688 206.603 127.946 206.526C128.098 206.478 128.256 206.453 128.415 206.453C128.527 206.452 128.64 206.465 128.75 206.489C129.271 206.559 129.743 206.831 130.064 207.247C130.241 207.44 130.365 207.676 130.425 207.932L130.496 208.468L130.425 209.003L130.221 209.485C130.156 209.57 130.102 209.639 130.053 209.703C129.861 209.944 129.623 210.143 129.352 210.289C129.033 210.514 128.651 210.635 128.261 210.634H128.261ZM155.19 194.397C154.891 194.391 154.592 194.368 154.295 194.328C154.108 194.307 153.914 194.285 153.727 194.273C152.779 194.209 151.809 194.155 150.843 194.111C148.837 194.022 147.009 193.975 145.253 193.967C144.967 193.966 144.667 193.965 144.359 193.965C142.934 193.965 141.4 193.979 139.669 194.007C139.141 194.015 138.597 194.035 138.07 194.055C137.361 194.081 136.627 194.109 135.907 194.109C135.245 194.113 134.583 194.082 133.924 194.017C133.868 194.013 133.814 193.99 133.773 193.951C133.732 193.912 133.706 193.861 133.699 193.805C133.694 193.751 133.707 193.698 133.736 193.654C133.766 193.609 133.811 193.577 133.862 193.562C135.448 193.013 137.2 192.798 138.894 192.589C139.089 192.565 139.291 192.54 139.49 192.516C141.349 192.281 143.288 192.104 145.253 191.991C147.355 191.87 149.301 191.805 151.203 191.792C151.499 191.79 151.799 191.789 152.096 191.789C152.563 191.789 153.038 191.791 153.51 191.796L154.087 191.804C154.213 191.806 154.336 191.806 154.455 191.806C155.273 191.806 155.978 191.806 156.639 192.39C156.745 192.481 156.829 192.596 156.883 192.725C156.937 192.855 156.96 192.995 156.95 193.135C156.936 193.318 156.882 193.496 156.791 193.656C156.7 193.815 156.574 193.953 156.424 194.058C156.059 194.299 155.627 194.418 155.19 194.397V194.397ZM128.07 189.784L128.006 189.783C127.65 189.783 127.301 189.688 126.993 189.509L126.586 189.195C126.341 188.949 126.163 188.643 126.07 188.308L125.998 187.775C126.014 187.258 126.222 186.765 126.582 186.394C126.942 186.022 127.427 185.798 127.943 185.765L128.006 185.767C128.338 185.766 128.665 185.848 128.957 186.005L129.02 186.04L129.427 186.354C129.672 186.599 129.85 186.905 129.943 187.24L130.015 187.774C129.999 188.29 129.791 188.783 129.431 189.155C129.071 189.526 128.586 189.75 128.07 189.783V189.784ZM135.235 148.281H135.234C135.219 148.281 135.203 148.281 135.187 148.28C134.709 148.267 134.253 148.073 133.91 147.739C133.574 147.391 133.319 146.973 133.165 146.514C132.79 145.504 132.692 144.25 132.639 143.576C132.574 142.704 132.646 141.826 132.852 140.976C133.051 140.123 133.405 139.315 133.896 138.591C133.945 138.507 134.015 138.438 134.099 138.389C134.182 138.341 134.277 138.314 134.374 138.312C134.471 138.316 134.566 138.34 134.653 138.385C134.74 138.429 134.816 138.492 134.876 138.568C134.929 138.63 134.968 138.703 134.99 138.782C135.011 138.861 135.015 138.944 135 139.025C135.033 140.575 135.117 141.878 135.424 143.199C135.56 143.84 135.775 144.462 136.064 145.051L136.189 145.296C136.583 146.074 136.867 146.786 136.353 147.611C136.233 147.805 136.07 147.968 135.877 148.089C135.685 148.212 135.463 148.279 135.235 148.281V148.281Z" fill="#2B283A"/>
<path d="M121.661 67.911C132.056 67.911 142.809 75.9688 146.619 81.1113C151.025 87.0563 154.501 115.598 152.871 125.283C151.24 134.968 143.141 145.524 129.08 145.524C115.02 145.524 106.463 143.792 106.12 141.277C105.777 138.761 96.8459 124.759 96.8459 124.759C96.8459 124.759 87.7126 122.19 87.676 116.053C87.6394 109.917 92.5709 107.684 92.5709 107.684C92.5709 107.684 90.8133 83.4659 95.2402 77.1607C99.6672 70.8555 111.265 67.911 121.661 67.911Z" fill="white"/>
<path d="M128.724 146.616C126.99 146.615 125.259 146.465 123.551 146.169C122.847 146.048 122.152 145.88 121.47 145.667C120.776 145.451 120.101 145.179 119.451 144.854C118.151 144.229 117.018 143.305 116.145 142.156C116.123 142.129 116.11 142.097 116.105 142.063C116.101 142.029 116.107 141.995 116.122 141.964C116.146 141.923 116.181 141.889 116.222 141.866C116.263 141.842 116.309 141.83 116.357 141.83C116.389 141.83 116.421 141.836 116.451 141.85C118.256 142.681 120.151 143.302 122.098 143.701C124.043 144.098 126.023 144.297 128.008 144.293C129.436 144.292 130.863 144.195 132.278 144.005C134.79 143.68 137.237 142.971 139.534 141.903C140.999 141.215 142.314 140.273 143.585 139.361C143.989 139.071 144.406 138.772 144.823 138.485C145.153 138.032 145.509 137.598 145.889 137.185L146.494 136.55C146.927 136.093 147.385 135.598 147.796 135.067C148.425 134.257 148.992 133.401 149.491 132.506C149.992 131.611 150.417 130.677 150.762 129.712C152.005 126.213 151.77 122.43 151.543 118.771V118.76C151.528 118.517 151.512 118.266 151.497 118.019L151.477 117.676C151.236 113.53 150.839 109.339 150.296 105.219C149.765 101.189 149.072 97.0275 148.236 92.8516C148.041 91.8761 147.831 90.8884 147.627 89.9333V89.9322C147.41 88.9087 147.184 87.8505 146.977 86.8062C146.805 85.9428 146.675 85.055 146.548 84.1965L146.544 84.1705C146.519 83.9988 146.494 83.8271 146.468 83.6554C146.391 83.0529 146.359 82.4456 146.373 81.8384V81.7714C146.354 81.7998 146.334 81.827 146.313 81.8529L146.31 81.8557C146.346 81.9345 146.351 82.0235 146.325 82.1058C146.299 82.1881 146.244 82.2581 146.17 82.3026C145.807 82.4877 145.401 82.5739 144.994 82.5525C144.861 82.5525 144.724 82.5481 144.593 82.5437H144.591C144.46 82.5393 144.325 82.5349 144.191 82.5349H144.17C143.445 82.5385 142.709 82.5404 141.997 82.542H141.984C141.552 82.5437 141.099 82.5444 140.597 82.5444C140.318 82.5444 140.027 82.5444 139.708 82.5444L137.431 82.5391L128.324 82.5102C128.106 82.5102 127.878 82.5102 127.645 82.5102C126.427 82.5102 125.186 82.5191 123.986 82.5285H123.983C122.781 82.5373 121.539 82.5468 120.309 82.5468C117.359 82.5468 113.87 82.5019 110.35 82.1693L109.896 82.1244C109.71 82.103 108.778 81.9899 107.597 81.8465L107.577 81.8441C105.8 81.6283 103.588 81.3597 102.732 81.2597L102.688 81.2546C100.089 80.9693 97.5139 80.4975 94.9824 79.843C95.4143 80.016 95.8443 80.2237 96.2605 80.4243C96.6411 80.6074 97.0345 80.7978 97.4263 80.9598C98.5532 81.4236 99.6914 81.817 100.656 82.1407C101.358 82.3765 102.071 82.614 102.762 82.8436L102.768 82.8458C104.267 83.3445 105.816 83.86 107.335 84.389C107.534 84.458 107.826 85.0329 108.229 86.1466C108.572 87.096 108.936 88.2749 109.228 89.2223C109.477 90.0308 109.674 90.6687 109.781 90.9225L109.792 90.9472C109.813 90.9937 109.835 91.0418 109.856 91.0883V91.0894C110.033 91.4739 110.215 91.8719 110.09 92.2912C109.852 93.0916 108.82 93.7361 107.991 94.2538C107.739 94.4113 107.502 94.5596 107.311 94.6969L106.469 95.304L105.369 96.1C105.039 96.3366 104.708 96.5489 104.304 96.5491C104.17 96.5483 104.038 96.5269 103.91 96.4856C103.91 96.4849 103.909 96.4844 103.908 96.4841C103.907 96.4838 103.906 96.4837 103.905 96.4838C104.323 98.4259 104.562 103.922 104.676 106.563V106.565C104.699 107.097 104.718 107.517 104.731 107.745C104.746 108.004 104.774 108.275 104.804 108.562C104.903 109.529 105.017 110.625 104.596 111.445C104.524 111.57 104.422 111.676 104.299 111.751C104.175 111.826 104.035 111.869 103.891 111.875C103.877 111.875 103.864 111.875 103.851 111.874C102.708 111.787 101.547 111.701 100.423 111.618L100.402 111.616L100.138 111.597C99.9744 111.593 99.8161 111.538 99.6858 111.439C99.5555 111.34 99.46 111.202 99.4128 111.046L99.4091 111.027C99.3982 111.03 99.3869 111.032 99.3756 111.032C99.3583 111.032 99.3413 111.028 99.3255 111.021C99.3098 111.014 99.2956 111.004 99.2841 110.991C99.2161 110.923 99.146 110.856 99.0754 110.793C98.532 110.314 97.8998 109.947 97.2147 109.713C96.5245 109.473 95.7992 109.351 95.0686 109.35C94.3246 109.348 93.5862 109.478 92.8879 109.735C92.2931 109.958 90.8103 110.592 89.8908 111.661C89.4923 112.143 89.2141 112.713 89.0794 113.323C88.9416 113.934 88.8766 114.559 88.8857 115.185C88.8847 115.777 88.9377 116.367 89.0441 116.95C89.1501 117.531 89.3117 118.102 89.5267 118.652C89.741 119.201 90.0125 119.727 90.3365 120.219C90.6627 120.714 91.0451 121.17 91.4761 121.577C93.0893 123.093 95.1876 123.528 97.2169 123.949L97.4393 123.995C97.5494 124.023 97.6493 124.081 97.7276 124.164C97.8059 124.246 97.8593 124.348 97.8817 124.46C97.9146 124.572 97.9157 124.691 97.8849 124.803C97.854 124.916 97.7923 125.018 97.7068 125.097C98.503 125.915 99.2429 126.785 99.9214 127.702C100.038 127.853 100.159 128.008 100.278 128.161C101.194 129.331 102.168 130.66 103.345 132.345L103.822 133.029L103.999 133.282C104.857 134.503 105.83 135.888 106.476 137.359C107.229 139.07 107.371 140.533 106.913 141.832C106.872 141.944 106.798 142.041 106.7 142.109C106.602 142.178 106.486 142.215 106.367 142.216C106.279 142.217 106.192 142.193 106.117 142.147C106.042 142.101 105.981 142.036 105.941 141.957C105.552 141.205 105.21 140.429 104.915 139.635C104.645 138.949 104.366 138.239 104.025 137.569C103.334 136.211 102.465 134.929 101.625 133.69L101.548 133.578L101.041 132.827C100.28 131.696 99.3936 130.358 98.586 129.012L98.0462 128.117C97.5208 127.277 97.0582 126.4 96.6625 125.492C96.2517 125.59 95.8307 125.639 95.4084 125.638C94.8747 125.635 94.3435 125.566 93.8273 125.43C93.3018 125.293 92.7916 125.103 92.3046 124.863C91.3338 124.382 90.4503 123.742 89.6907 122.97C89.1405 122.406 88.6593 121.78 88.2572 121.103C87.8537 120.425 87.5248 119.705 87.276 118.956C86.7764 117.456 86.5908 115.869 86.7308 114.293C86.9075 112.38 87.5045 110.948 88.5562 109.916C88.6843 109.791 88.8191 109.674 88.9335 109.575C88.8882 109.554 88.8519 109.517 88.8308 109.471C88.4363 108.493 88.1695 107.467 88.0371 106.421C87.8995 105.372 87.8179 104.317 87.7927 103.26C87.7222 101.142 87.7674 99.0217 87.9282 96.9087C88.2201 93.0275 88.9254 89.1885 90.032 85.4569C90.8422 82.6716 91.9876 79.9949 93.443 77.4857C94.8938 74.972 96.7758 72.7334 99.003 70.8725C101.265 69.0188 104.011 67.6171 107.163 66.7061C108.65 66.2807 110.167 65.9689 111.701 65.7735C113.228 65.5785 114.766 65.4816 116.305 65.4835H116.368H116.554C122.358 65.5348 128.081 66.8546 133.322 69.3506C135.928 70.5878 138.381 72.1223 140.633 73.9236C142.877 75.7172 144.882 77.792 146.596 80.097L146.802 80.3784C146.815 80.3952 147.018 80.698 147.067 80.7846C147.181 80.9906 147.306 81.1945 147.427 81.3915V81.3926C147.605 81.6814 147.788 81.9798 147.94 82.2875C148.107 82.6486 148.249 83.0207 148.365 83.4012C148.394 83.4898 148.427 83.59 148.46 83.6859L148.508 83.8254C148.892 84.9272 149.239 86.0871 149.564 87.3717C150.15 89.6947 150.607 92.0418 151.06 94.4424C151.849 98.6275 152.517 102.928 153.045 107.225C153.565 111.459 153.963 115.793 154.227 120.106L154.33 121.836C154.438 123.65 154.517 125.427 154.315 127.22C154.2 128.247 153.993 129.263 153.699 130.254C153.403 131.244 153.028 132.21 152.578 133.141C151.732 134.874 150.676 136.497 149.434 137.972C148.798 138.738 148.089 139.527 147.215 140.116C146.531 140.578 145.733 140.881 144.96 141.174C144.321 141.801 143.617 142.358 142.861 142.838C142.11 143.317 141.329 143.748 140.524 144.129C139.229 144.744 137.881 145.237 136.495 145.603C135.11 145.968 133.701 146.236 132.278 146.403C131.099 146.545 129.912 146.616 128.724 146.616V146.616ZM97.41 120.241C97.2104 120.246 97.0144 120.186 96.8515 120.071C96.7668 120.005 96.6961 119.924 96.6436 119.831C96.5911 119.738 96.5579 119.635 96.5459 119.529C96.4103 118.531 96.0559 117.576 95.508 116.731C95.3763 116.774 95.2504 116.832 95.1329 116.905C95.0066 116.991 94.8873 117.087 94.776 117.192C94.5329 117.41 94.3033 117.615 93.9425 117.615C93.9021 117.615 93.8618 117.613 93.8218 117.608C93.3573 117.553 92.9031 117.231 92.9337 116.72C92.9369 116.539 92.9821 116.36 93.0658 116.199C93.1494 116.038 93.2692 115.899 93.4157 115.792C93.7126 115.594 94.0598 115.484 94.4168 115.475C94.2899 115.362 94.1907 115.275 94.0948 115.196L93.9752 115.1C93.785 114.963 92.6889 114.216 92.4115 114.216C92.3732 114.216 92.3516 114.231 92.3471 114.259L92.3462 114.274C92.3464 114.289 92.3436 114.304 92.338 114.317C92.3324 114.331 92.3241 114.344 92.3136 114.354C92.2893 114.379 92.2565 114.393 92.222 114.393C92.2069 114.393 92.192 114.39 92.1782 114.384C92.1643 114.378 92.152 114.369 92.1418 114.358C92.0977 114.318 92.0643 114.267 92.0445 114.211C92.0247 114.154 92.0192 114.094 92.0285 114.035C92.0618 113.939 92.1162 113.852 92.1878 113.78C92.2595 113.709 92.3464 113.654 92.4421 113.62C92.5873 113.558 92.7442 113.527 92.9024 113.53C93.6076 113.53 94.4932 114.042 94.7841 114.211L94.8238 114.234C95.7096 114.754 96.4816 115.447 97.094 116.271C97.7097 117.092 98.1747 118.016 98.4672 118.999C98.5127 119.133 98.5252 119.275 98.5037 119.415C98.4821 119.554 98.4271 119.686 98.3434 119.8C98.2309 119.938 98.0886 120.05 97.9271 120.127C97.7655 120.203 97.5888 120.242 97.41 120.241V120.241Z" fill="#2B283A"/>
<path d="M132.317 137C131.911 137.001 131.505 136.978 131.101 136.933L130.907 136.909C130.217 136.828 129.537 136.675 128.879 136.451C128.221 136.23 127.611 135.887 127.08 135.439C127.031 135.393 126.995 135.334 126.978 135.269C126.96 135.203 126.961 135.135 126.981 135.07C126.995 135.002 127.028 134.94 127.076 134.891C127.124 134.841 127.185 134.806 127.252 134.79C128 134.65 128.757 134.558 129.517 134.516C130.031 134.476 130.562 134.435 131.078 134.363C131.485 134.297 131.888 134.209 132.285 134.099C132.87 133.922 133.473 133.817 134.083 133.788C134.471 133.781 134.855 133.863 135.206 134.029C135.367 134.118 135.508 134.241 135.617 134.39C135.726 134.538 135.802 134.709 135.84 134.889C135.889 135.055 135.901 135.23 135.876 135.401C135.85 135.573 135.787 135.736 135.692 135.881C135.443 136.245 135.096 136.531 134.691 136.706C134.275 136.856 133.838 136.94 133.396 136.954C133.023 136.985 132.66 137 132.317 137ZM130.14 133.405C130.139 133.405 130.138 133.405 130.136 133.404C130.135 133.403 130.134 133.402 130.134 133.401C129.732 132.744 129.506 131.995 129.475 131.226C129.475 131.225 129.475 131.223 129.476 131.222C129.476 131.221 129.477 131.22 129.477 131.22C129.478 131.219 129.479 131.218 129.48 131.218C129.481 131.217 129.482 131.217 129.483 131.217C129.484 131.217 129.486 131.217 129.487 131.218C129.488 131.218 129.489 131.219 129.49 131.22C129.49 131.22 129.491 131.221 129.491 131.222C129.492 131.223 129.492 131.224 129.492 131.226C129.522 131.992 129.748 132.738 130.148 133.392C130.149 133.393 130.149 133.395 130.149 133.396C130.149 133.398 130.149 133.399 130.148 133.4C130.147 133.402 130.146 133.403 130.145 133.404C130.143 133.405 130.142 133.405 130.14 133.405H130.14ZM133.838 122.7C133.069 122.688 132.309 122.535 131.596 122.248C130.653 121.87 129.766 121.366 128.958 120.751C128.771 120.605 128.64 120.398 128.59 120.165C128.546 119.945 128.565 119.718 128.642 119.508C128.731 119.258 128.884 119.037 129.086 118.866C129.278 118.697 129.523 118.601 129.778 118.595C129.969 118.597 130.155 118.654 130.314 118.76C130.371 118.804 130.431 118.85 130.494 118.899C131.016 119.32 131.568 119.704 132.145 120.048C132.891 120.472 133.538 120.679 134.124 120.679C134.411 120.68 134.695 120.624 134.96 120.514C135.255 120.385 135.52 120.198 135.739 119.962C135.947 119.692 136.096 119.381 136.174 119.049C136.252 118.717 136.258 118.373 136.192 118.038C136.033 117.392 135.7 116.802 135.228 116.332C134.797 115.876 134.306 115.48 133.769 115.154C133.696 115.092 133.645 115.008 133.623 114.914C133.601 114.821 133.609 114.722 133.647 114.634C133.688 114.506 133.766 114.393 133.871 114.31C133.995 114.215 134.147 114.165 134.302 114.167C134.354 114.167 134.406 114.172 134.457 114.181C135.064 114.278 135.648 114.489 136.178 114.803C136.632 115.076 137.026 115.439 137.335 115.87C137.91 116.697 138.171 117.701 138.074 118.703C138.03 119.216 137.902 119.719 137.695 120.19C137.489 120.664 137.2 121.096 136.842 121.468C136.453 121.868 135.985 122.184 135.468 122.396C134.951 122.608 134.396 122.712 133.838 122.7H133.838ZM140.732 113.524C140.406 113.521 140.089 113.412 139.829 113.215C139.529 112.988 139.281 112.7 139.1 112.37C138.665 111.552 138.447 110.636 138.465 109.71C138.447 108.784 138.665 107.869 139.1 107.051C139.28 106.721 139.529 106.432 139.829 106.205C140.087 106.005 140.405 105.896 140.732 105.896C141.059 105.896 141.377 106.005 141.636 106.205C141.935 106.432 142.184 106.721 142.364 107.051C142.799 107.869 143.018 108.784 142.999 109.71C143.018 110.636 142.799 111.552 142.364 112.37C142.184 112.7 141.935 112.988 141.636 113.215C141.375 113.412 141.058 113.521 140.732 113.524H140.732ZM120.407 113.5C119.758 113.5 119.16 112.941 118.958 112.4C118.719 111.721 118.662 110.992 118.791 110.284C118.839 110.01 118.937 109.748 119.079 109.51L119.121 109.446L119.114 109.355C119.113 109.342 119.114 109.329 119.114 109.316C119.114 109.307 119.114 109.298 119.114 109.288C118.025 109.222 116.888 109.113 115.637 108.954L115.251 108.904C115.081 108.882 114.9 108.862 114.708 108.841C113.802 108.744 112.677 108.622 112.015 108.09C112.01 108.085 112.006 108.079 112.003 108.072C112 108.066 111.999 108.058 112 108.051C112.001 108.043 112.004 108.035 112.008 108.027C112.012 108.02 112.018 108.014 112.025 108.01C112.412 107.802 112.809 107.787 113.228 107.772C113.285 107.77 113.343 107.768 113.401 107.765L113.472 107.762C114.01 107.734 114.549 107.711 115.072 107.693L115.607 107.676C117.037 107.635 118.481 107.563 119.705 107.498C119.911 107.487 120.121 107.474 120.323 107.462L120.417 107.456C120.663 107.352 120.924 107.292 121.191 107.278C121.217 107.277 121.245 107.276 121.271 107.276C121.454 107.276 121.636 107.305 121.81 107.36C122.298 107.323 122.801 107.28 123.306 107.234L123.803 107.188C123.991 107.17 124.186 107.155 124.374 107.14C124.898 107.108 125.42 107.047 125.937 106.956L126.058 106.933C126.241 106.896 126.428 106.875 126.616 106.871C127 106.871 127.301 106.995 127.724 107.327C127.809 107.394 127.879 107.477 127.929 107.572C127.979 107.668 128.009 107.772 128.017 107.88C128.04 108.204 127.935 108.525 127.724 108.773C127.241 109.33 126.764 109.332 126.16 109.335C126.049 109.335 125.934 109.336 125.814 109.34L125.759 109.342C125.104 109.369 124.446 109.387 123.803 109.397C123.685 109.399 123.566 109.399 123.451 109.4H123.267C123.276 110.174 123.062 110.935 122.651 111.592C122.235 112.241 121.703 112.808 121.081 113.264C120.889 113.416 120.652 113.499 120.407 113.5H120.407ZM132.922 101.713C132.916 101.713 132.91 101.713 132.904 101.711C132.156 101.538 131.854 100.81 131.733 100.231C131.606 99.5601 131.612 98.8712 131.75 98.2027C131.926 97.4303 132.27 96.7061 132.756 96.0808C133.236 95.4502 133.854 94.9371 134.561 94.5805C135.363 94.194 136.243 93.9955 137.133 94.0001C137.921 94.0006 138.701 94.1481 139.434 94.4352L139.537 94.4766C140.392 94.824 141.162 95.3525 141.793 96.0259C142.098 96.3561 142.335 96.7433 142.49 97.1654C142.641 97.5898 142.67 98.048 142.573 98.4878C142.502 98.8418 142.298 99.1549 142.002 99.3619C141.721 99.5501 141.389 99.6478 141.051 99.642C140.657 99.6453 140.271 99.5225 139.952 99.2916C139.79 99.1763 139.656 99.027 139.559 98.8544C139.461 98.6817 139.403 98.4898 139.387 98.2921C139.113 97.9223 138.746 97.6313 138.323 97.4484C137.893 97.2593 137.429 97.1623 136.959 97.1636C136.399 97.157 135.848 97.3057 135.366 97.5931C134.726 97.9936 134.19 98.6746 133.774 99.6182C133.666 99.8798 133.577 100.149 133.507 100.423C133.38 100.87 133.251 101.332 132.969 101.694C132.963 101.701 132.955 101.706 132.947 101.709C132.939 101.712 132.931 101.714 132.922 101.713H132.922Z" fill="#2B283A"/>
</svg>
