<svg width="230" height="280" viewBox="0 0 230 280" fill="none" xmlns="http://www.w3.org/2000/svg">
<path d="M14.304 192.545C12.3522 191.526 10.4465 190.419 8.57098 189.267C7.24991 188.477 8.41853 186.487 9.77409 187.206C10.4667 187.574 11.1567 187.945 11.8492 188.311C11.3037 187.844 10.8008 187.33 10.3461 186.774L10.3774 186.743C8.63119 185.178 10.8741 182.227 12.86 183.512C14.6114 184.781 16.3787 186.076 18.389 186.912C22.5529 188.678 27.1456 188.97 31.6147 189.021C33.2502 188.898 34.8123 189.182 36.3992 189.497C35.7771 187.001 34.2201 185.117 33.3943 182.7C32.7845 180.259 36.3078 178.597 37.5562 180.943C37.8626 181.519 38.1547 182.102 38.4404 182.687C41.1389 185.142 45.645 184.925 48.3666 187.561C49.9167 188.937 50.6755 190.804 50.9752 192.677C51.1787 193.95 50.8624 195.225 51.6317 196.352C55.351 201.613 61.2279 209.928 64.2124 215.717C66.3256 201.96 71.9677 184.944 77.797 172.365C79.7246 168.342 81.9298 164.411 84.8246 161.001C84.4965 159.864 85.6547 157.845 86.3911 158.466C88.6586 155.697 92.6653 154.979 95.8875 153.603C100.237 151.744 103.846 147.878 105.62 143.484C107.9 135.115 113.51 134.052 121.292 134.422C128.74 134.413 134.249 137.598 135.875 145.179C139.176 150.934 146.97 149.981 152.578 151.505C156.689 152.46 160.677 153.88 164.467 155.738C168.683 151.738 183.785 168.525 185.158 172.845C184.35 173.001 183.547 173.19 182.751 173.42C182.042 173.625 182.339 174.695 183.054 174.525C183.939 174.316 184.836 174.161 185.739 174.062C185.766 174.148 185.79 174.233 185.808 174.318C185.909 174.311 186.01 174.303 186.111 174.296C185.88 174.414 185.662 174.557 185.462 174.722C184.954 175.143 185.614 175.957 186.154 175.621C186.663 175.24 187.328 175.301 187.938 175.173C187.974 176.427 192.447 175.025 193.141 174.609C196.229 174.223 199.406 174.637 202.288 173.148C206.123 172.341 209.988 171.447 213.78 170.419C214.784 170.81 215.728 172.21 214.93 173.239C214.482 173.706 215.058 174.47 215.623 174.138C217.517 173.023 218.982 171.282 220.224 169.407C220.809 168.817 221.847 168.945 222.632 168.7C222.739 168.887 222.796 169.099 222.798 169.314C226.13 169.863 223.753 173.502 222.078 174.635C222.967 175.214 223 176.347 222.923 177.293C223.023 177.462 223.084 177.653 223.099 177.849C223.114 178.045 223.083 178.243 223.01 178.425C222.383 179.869 221.028 181.085 219.998 182.255C218.861 183.547 217.846 184.847 216.462 185.893C211.186 189.915 204.82 192.163 198.288 193.043C195.969 193.399 192.633 193.944 191.197 195.905C191.549 198.232 192.196 200.464 192.783 202.734C193.604 205.746 193.548 208.9 193.559 211.972C193.587 211.946 193.621 211.928 193.658 211.919C193.695 211.911 193.734 211.911 193.771 211.922C193.807 211.932 193.841 211.951 193.868 211.978C193.895 212.004 193.915 212.038 193.926 212.074C194.117 213.347 194.259 214.649 195.033 215.719C195.706 217.733 196.17 219.811 196.416 221.919C197.432 231.828 197.675 242.027 195.384 251.78C194.504 255.392 193.059 258.842 191.104 262.004C190.874 262.408 190.519 262.728 190.092 262.914C189.666 263.101 189.191 263.145 188.738 263.039C185.915 264.505 182.36 264.975 179.319 264.603C168.95 261.665 172.563 268.734 158.023 266.569C132.927 263.372 107.564 269.655 82.5209 265.966C81.9041 270.73 73.8298 269.364 71.0251 267.35C62.6154 261.098 58.4398 241.305 54.2187 231.264C51.3176 223.349 46.4598 209.331 40.098 204.021C38.1904 202.529 35.8846 201.744 33.5774 201.11C24.9669 198.891 16.3233 196.793 7.69637 194.635C6.23334 194.275 6.49591 191.78 8.06069 191.94C10.1375 192.153 12.2207 192.345 14.304 192.545Z" fill="white"/>
<path d="M78.3018 268.832C78.4584 268.831 78.6129 268.796 78.755 268.73C78.8972 268.664 79.0237 268.569 79.1263 268.451C86.8605 268.14 94.4672 267.912 101.735 267.774C107.793 267.658 114.071 267.599 120.395 267.599C127.427 267.599 134.77 267.672 142.221 267.816C148.749 267.943 155.59 268.126 162.554 268.361C163.529 268.393 164.521 268.43 165.48 268.466H165.488H165.492C167.813 268.552 170.212 268.641 172.573 268.673C172.605 268.673 172.638 268.673 172.671 268.673C173.164 268.672 173.657 268.627 174.142 268.538C174.655 268.449 175.156 268.299 175.633 268.091C176.08 267.904 176.482 267.624 176.813 267.271C177.128 266.926 177.318 266.484 177.351 266.017L177.354 265.956C177.583 266.018 177.815 266.067 178.05 266.102C178.091 266.109 178.134 266.112 178.176 266.112C178.235 266.112 178.294 266.106 178.352 266.093L178.399 266.08C179.067 266.274 179.76 266.369 180.455 266.36C182.317 266.36 184.297 265.808 186.044 265.321C186.385 265.226 186.708 265.136 187.024 265.052L187.234 264.996C188.386 264.721 189.498 264.297 190.54 263.735C191.576 263.155 192.486 262.374 193.217 261.439C193.909 260.555 194.503 259.6 194.988 258.588C195.475 257.571 195.88 256.515 196.199 255.433C196.755 253.568 197.155 251.46 197.457 248.798C197.948 244.676 197.923 240.509 197.383 236.393C197.72 233.015 197.384 229.541 197.012 226.273C196.813 224.526 196.594 222.916 196.343 221.351C196.196 220.439 196.006 219.545 195.807 218.634C195.781 218.513 195.757 218.393 195.731 218.265V218.262C195.682 218.015 195.63 217.76 195.565 217.511L195.52 217.351C195.577 217.359 195.635 217.362 195.694 217.362C195.97 217.358 196.24 217.284 196.48 217.148C196.837 216.949 197.114 216.632 197.263 216.252C197.411 215.872 197.485 215.467 197.482 215.06C197.52 212.777 197.27 210.427 197.028 208.154L197.024 208.118C197.006 207.955 196.989 207.792 196.972 207.63C196.702 205.115 196.336 202.66 195.884 200.334L195.762 199.713C195.43 198.027 195.014 196.083 194.285 194.359C197.007 193.896 199.666 193.412 202.263 192.588C203.544 192.183 204.79 191.673 205.987 191.062C206.435 190.992 206.877 190.884 207.307 190.738H207.308C207.44 190.698 207.575 190.656 207.708 190.618C208.567 190.367 209.426 190.069 210.262 189.732C211.994 189.053 213.658 188.212 215.233 187.222C216.502 186.416 217.691 185.49 218.784 184.457C219.876 183.425 220.854 182.277 221.699 181.034L221.815 180.86C222.287 180.151 222.691 179.398 223.021 178.612C223.434 177.593 223.564 176.752 223.407 176.11C223.353 175.878 223.25 175.659 223.105 175.47C222.959 175.28 222.775 175.124 222.564 175.012C223.255 174.419 223.839 173.711 224.289 172.92C224.513 172.533 224.694 172.122 224.828 171.696C224.952 171.315 225.009 170.916 224.999 170.516C225 170.255 224.942 169.997 224.828 169.762C224.713 169.527 224.546 169.321 224.339 169.161C223.929 168.879 223.439 168.737 222.942 168.755C222.247 168.757 221.567 168.957 220.982 169.331C220.133 169.899 219.482 170.697 218.853 171.47L218.794 171.542C218.105 172.389 217.349 173.23 216.481 174.112C216.265 174.332 216.045 174.547 215.83 174.752L215.609 174.96C215.643 174.877 215.674 174.792 215.7 174.708C215.92 173.989 215.903 173.218 215.651 172.509C215.535 172.155 215.35 171.828 215.105 171.547C214.86 171.266 214.561 171.038 214.225 170.875C213.928 170.739 213.604 170.67 213.277 170.673C212.722 170.699 212.176 170.828 211.669 171.054L211.542 171.106C210.438 171.569 209.308 171.967 208.156 172.297C206.477 172.758 204.771 173.116 203.048 173.367C201.328 173.629 199.566 173.824 197.863 174.013C196.501 174.164 195.093 174.32 193.715 174.508C191.83 174.753 189.96 175.106 188.116 175.566C187.74 174.047 187.163 172.584 186.401 171.217C185.649 169.853 184.782 168.557 183.808 167.342C182.702 165.953 181.489 164.651 180.182 163.449C178.896 162.27 177.529 161.181 176.092 160.192C174.657 159.205 173.164 158.306 171.622 157.497C170.134 156.714 168.53 155.973 166.855 155.292C163.569 153.98 160.197 152.899 156.761 152.056C153.789 151.306 150.521 150.621 146.476 149.899C146.399 149.886 146.322 149.879 146.244 149.879C145.741 149.879 145.284 150.153 144.859 150.433C144.817 150.461 144.775 150.489 144.734 150.517L144.725 150.523C144.351 150.772 144.029 150.988 143.739 150.988C143.655 150.989 143.573 150.968 143.499 150.928C142.272 150.269 141.09 149.322 139.887 148.034C138.29 146.323 136.999 144.361 135.752 142.464C135.246 141.695 134.723 140.901 134.185 140.128C134.068 139.951 133.909 139.806 133.723 139.705C133.536 139.605 133.328 139.552 133.116 139.552C132.874 139.553 132.637 139.616 132.426 139.735C132.22 139.848 132.049 140.016 131.931 140.22C131.83 140.404 131.783 140.613 131.793 140.822C131.804 141.032 131.872 141.234 131.991 141.408L132.41 142.102C133.194 143.39 134.138 144.9 135.191 146.328C136.171 147.691 137.292 148.947 138.535 150.076C139.186 150.656 139.887 151.178 140.63 151.633C141.375 152.087 142.166 152.46 142.991 152.746C143.97 153.094 144.999 153.286 146.038 153.315C146.506 153.321 146.973 153.258 147.423 153.128L147.589 152.886C147.539 152.96 147.484 153.04 147.423 153.128C145.609 155.73 143.59 158.182 141.385 160.462C139.433 162.506 137.237 164.585 134.473 167.004C129.434 171.413 123.94 175.362 119.186 178.718L118.749 179.026C114.469 175.902 110.54 172.323 107.033 168.35C103.524 164.381 100.469 160.031 97.9272 155.383C98.8397 155.273 99.7515 154.75 100.557 154.289L100.566 154.284C100.698 154.208 100.822 154.137 100.946 154.068C102.231 153.346 103.158 152.609 103.865 151.747C104.194 151.346 104.469 150.904 104.683 150.432C104.889 149.975 105.048 149.499 105.159 149.01C105.364 148.013 105.493 147.003 105.544 145.986C105.586 145.434 105.629 144.862 105.696 144.307C105.699 144.288 105.698 144.269 105.693 144.251C105.687 144.232 105.678 144.215 105.666 144.201C105.648 144.183 105.627 144.169 105.603 144.159C105.579 144.15 105.554 144.146 105.529 144.147C105.485 144.146 105.442 144.16 105.406 144.187C104.589 144.866 104.235 145.905 103.894 146.91C103.842 147.062 103.789 147.218 103.735 147.369C103.295 148.607 102.8 149.605 101.813 150.456C100.885 151.256 99.7458 151.849 98.6534 152.369C98.4819 152.45 98.0979 152.573 97.6534 152.714H97.6524C96.6067 153.047 95.1753 153.502 94.9512 153.901C94.031 153.685 93.0889 153.576 92.1436 153.575C90.2262 153.589 88.3337 154.011 86.5913 154.811C84.8114 155.624 83.1757 156.721 81.7481 158.058C80.0171 159.688 78.4724 161.506 77.1423 163.476C75.8066 165.444 74.5759 167.48 73.4554 169.577C71.077 173.981 69.0447 178.564 67.3769 183.283C66.4894 185.749 65.7296 188.193 65.1185 190.547C64.4782 193.002 63.9738 195.49 63.6077 198C63.05 201.864 62.6471 206.07 62.3758 210.856L62.3461 211.393C58.8619 205.924 55.1447 200.283 51.2981 194.623C51.7022 193.535 51.7286 192.342 51.373 191.237C51.0102 190.121 50.4063 189.098 49.6043 188.242C48.8359 187.419 47.9419 186.724 46.9557 186.182C45.9704 185.643 44.9576 185.156 43.9216 184.723C43.6264 184.594 43.3217 184.46 43.0235 184.326L42.7146 184.186C41.6241 183.689 40.477 183.119 39.4753 182.327C39.0565 181.978 38.6628 181.6 38.2973 181.195C37.8622 180.703 37.3777 180.256 36.8515 179.863C36.2927 179.488 35.6346 179.288 34.9614 179.289C34.415 179.273 33.8787 179.438 33.4359 179.759C33.2249 179.923 33.0542 180.133 32.9368 180.373C32.8051 180.652 32.7346 180.956 32.7301 181.264C32.7269 181.891 32.8238 182.514 33.0173 183.11C33.2045 183.708 33.4272 184.294 33.6842 184.865C33.9512 185.472 34.2644 186.057 34.6211 186.615C34.9782 187.172 35.3719 187.706 35.7994 188.211C35.8361 188.255 35.8788 188.294 35.9263 188.326L35.9595 188.346C34.7696 188.555 33.5682 188.691 32.362 188.756C31.898 188.777 31.4283 188.788 30.9675 188.788C28.9681 188.793 26.9739 188.585 25.0182 188.169C22.553 187.646 20.1751 186.773 17.9565 185.578C17.5118 185.337 17.0681 185.075 16.6392 184.823C15.942 184.412 15.221 183.987 14.4847 183.644C13.7504 183.288 12.9678 183.042 12.1619 182.914C11.974 182.885 11.7766 182.865 11.5579 182.853C11.5502 182.853 11.5423 182.853 11.5344 182.853C11.4422 182.858 11.3525 182.885 11.2726 182.931C11.1927 182.977 11.1249 183.042 11.0748 183.12C11.0267 183.184 10.9953 183.26 10.9835 183.34C10.9717 183.42 10.9799 183.501 11.0072 183.577C11.0857 183.775 11.1636 183.958 11.2454 184.135C11.627 184.974 12.0955 185.771 12.6432 186.512C13.1976 187.268 13.8374 187.957 14.55 188.565L14.66 188.657C14.1503 188.481 13.652 188.283 13.1792 188.07C12.1484 187.606 11.1352 187.047 10.1554 186.506C8.41992 185.548 6.62611 184.558 4.66956 184.059C4.54037 184.025 4.40107 183.992 4.23129 183.954C4.15311 183.937 4.07333 183.928 3.99329 183.928C3.82873 183.925 3.66672 183.969 3.5266 184.055C3.38648 184.142 3.27417 184.266 3.20309 184.415C3.12268 184.588 3.09296 184.78 3.11738 184.969C3.1418 185.158 3.21936 185.337 3.34105 185.484C3.44528 185.617 3.53161 185.724 3.61354 185.823C4.97582 187.522 6.49411 189.09 8.14858 190.506C8.7187 190.991 9.30921 191.462 9.90334 191.907C8.11981 191.367 6.25873 190.699 4.37192 189.922C4.26799 189.878 4.15644 189.855 4.0436 189.854C3.9082 189.859 3.77561 189.894 3.65527 189.956C3.53494 190.019 3.4298 190.107 3.34733 190.214C3.17175 190.425 3.05813 190.681 3.01903 190.952C2.96129 191.424 3.03556 191.903 3.23359 192.335C3.43981 192.774 3.71918 193.175 4.05979 193.521C4.74939 194.248 5.65126 194.848 6.37591 195.33L6.43746 195.371C7.90103 196.323 9.47511 197.094 11.1249 197.665C14.2526 198.796 17.5228 199.312 20.8776 199.782L22.4805 200.005C24.0102 200.219 25.6388 200.454 27.2551 200.761C28.8319 201.049 30.3883 201.439 31.9145 201.929C33.422 202.411 34.8718 203.057 36.2379 203.856C36.924 204.263 37.5811 204.716 38.2045 205.213C38.8458 205.726 39.4474 206.287 40.0043 206.89C41.2651 208.286 42.3694 209.816 43.2973 211.452C44.2646 213.113 45.1014 214.849 45.8615 216.476C47.2318 219.411 48.5511 222.598 50.1394 226.81C51.0936 229.337 51.9759 231.94 52.8293 234.456C53.1944 235.533 53.5725 236.646 53.9503 237.74C55.1127 241.099 56.5111 244.435 57.8628 247.661L58.081 248.178C59.5053 251.634 61.138 255.001 62.9701 258.259C63.9114 259.914 64.9042 261.507 65.9211 262.993C66.9943 264.562 68.1344 266.072 69.31 267.48C69.3833 267.578 69.4777 267.659 69.5863 267.715C69.6948 267.772 69.8148 267.804 69.9371 267.808C70.1112 267.804 70.2799 267.747 70.4194 267.643C70.5685 267.535 70.6885 267.391 70.7687 267.226C70.8515 267.059 70.8893 266.874 70.8785 266.688C70.8644 266.484 70.7885 266.289 70.6608 266.129C69.3968 264.492 68.2201 262.79 67.1357 261.029C66.0966 259.347 65.0757 257.521 64.1016 255.599C63.203 253.827 62.3428 251.98 61.472 249.953C60.7062 248.17 59.9499 246.289 59.1599 244.201C58.4082 242.216 57.7146 240.17 57.0437 238.191V238.189C56.5328 236.682 56.0046 235.124 55.4543 233.603L54.6969 231.513C53.7352 228.865 52.6946 226.021 51.6014 223.182C50.2698 219.676 48.7606 216.241 47.0797 212.888L46.9 212.536C46.0779 210.906 45.1508 209.331 44.1247 207.821C43.1022 206.311 41.9054 204.925 40.5591 203.694C39.9583 203.154 39.3227 202.654 38.6565 202.197C38.0037 201.751 37.325 201.343 36.6239 200.977C35.2263 200.254 33.7635 199.666 32.2551 199.219C29.2118 198.294 25.9658 197.819 22.902 197.412L20.9241 197.151C18.3612 196.811 15.6402 196.418 13.0243 195.699C11.5306 195.308 10.0842 194.755 8.7109 194.049C8.16443 193.763 7.63335 193.448 7.11983 193.106C8.5904 193.537 10.0825 193.891 11.5901 194.165C12.3166 194.299 13.0592 194.401 13.7966 194.472C14.8054 194.572 15.8454 194.621 16.9759 194.621C17.7543 194.621 18.5737 194.598 19.4807 194.55C19.5208 194.547 19.5581 194.528 19.5857 194.499C19.6133 194.47 19.6294 194.431 19.6308 194.391C19.6346 194.358 19.6254 194.325 19.6051 194.299C19.5849 194.273 19.5552 194.256 19.5224 194.251C18.3208 194.038 17.0402 193.764 15.4921 193.389L15.0903 193.291C15.0748 193.039 14.977 192.798 14.8119 192.607C14.3696 192.069 13.664 191.705 12.9826 191.353C12.6462 191.187 12.3183 191.005 12.0001 190.806C11.0791 190.207 10.1905 189.558 9.33818 188.864C8.58094 188.246 7.82637 187.572 7.09543 186.858L7.07542 186.839L7.08533 186.849L7.09543 186.859C7.79874 187.182 8.50072 187.548 9.17946 187.9C10.3777 188.557 11.6208 189.13 12.8997 189.612C14.5134 190.187 16.1946 190.551 17.9016 190.694L18.0072 190.703L18.1129 190.71C18.631 190.748 19.1573 190.769 19.6665 190.791C20.9071 190.843 22.1897 190.898 23.4311 191.171C23.4451 191.174 23.4593 191.176 23.4736 191.176C23.5067 191.176 23.539 191.165 23.5647 191.144C23.5903 191.123 23.6076 191.094 23.6133 191.061C23.621 191.024 23.6151 190.985 23.5967 190.951C23.5784 190.918 23.5487 190.892 23.5131 190.878C22.1467 190.31 20.7637 190.059 19.2993 189.792L19.2867 189.79C19.1219 189.76 18.9515 189.729 18.7837 189.698C18.7637 189.629 18.7288 189.565 18.6814 189.512C18.6339 189.458 18.5751 189.416 18.5093 189.387L18.0979 189.191C16.9028 188.617 15.7446 188.022 14.7116 187.053C13.8126 186.212 13.0649 185.223 12.5013 184.128C13.9321 184.442 15.2627 185.252 16.5495 186.036C17.2684 186.492 18.011 186.909 18.7743 187.286C21.0034 188.333 23.3612 189.081 25.7865 189.509L26.0626 189.557C27.6892 189.831 29.3356 189.972 30.9852 189.976C32.5843 189.986 34.1798 189.825 35.7448 189.496C37.2716 189.18 38.7399 188.628 40.0967 187.86C40.1197 187.849 40.138 187.829 40.1484 187.806C40.1588 187.782 40.1607 187.756 40.1539 187.731C40.1455 187.702 40.128 187.676 40.1039 187.658C40.0799 187.64 40.0506 187.63 40.0205 187.63C40.0131 187.63 40.0058 187.63 39.9986 187.631C39.3145 187.743 38.6238 187.87 37.9559 187.992H37.9521L37.9469 187.993C37.4949 188.075 37.0277 188.161 36.5685 188.24C36.6831 188.136 36.7582 187.996 36.781 187.842C36.7919 187.759 36.7844 187.674 36.7589 187.593C36.7334 187.513 36.6905 187.439 36.6333 187.377C35.6043 186.212 34.8067 184.861 34.2831 183.397L34.1842 183.11L34.152 183.018L34.1502 183.013C34.0063 182.636 33.8943 182.247 33.8155 181.851C33.7356 181.375 33.7812 181.018 33.9544 180.76C34.0699 180.609 34.2208 180.49 34.3938 180.413C34.5667 180.335 34.7562 180.301 34.9452 180.315C35.2478 180.317 35.5469 180.381 35.824 180.502C36.5355 180.823 37.1049 181.448 37.6556 182.052C37.9791 182.425 38.3299 182.774 38.7051 183.096C39.844 184.017 41.1659 184.676 42.1902 185.148L42.45 185.266C42.7859 185.417 43.1314 185.567 43.4654 185.712C45.2579 186.489 47.1112 187.293 48.5185 188.715C48.9784 189.173 49.3832 189.683 49.7247 190.234C50.0684 190.785 50.314 191.392 50.4507 192.027C50.576 192.608 50.5629 193.211 50.4126 193.787C50.3759 193.913 50.3314 194.036 50.2792 194.156C50.1691 194.423 50.074 194.655 50.178 194.976C50.3099 195.378 50.6748 195.841 50.9974 196.249C51.1538 196.448 51.3023 196.635 51.4155 196.805C51.8278 197.416 52.244 198.037 52.6464 198.638C53.3368 199.671 54.0357 200.724 54.7116 201.742L54.7241 201.761L55.0911 202.314C56.6508 204.666 58.2321 207.084 59.9254 209.707C60.4454 210.513 60.968 211.327 61.4791 212.126L62.2519 213.337C62.3628 213.51 62.4737 213.683 62.5844 213.857L62.6607 213.976L62.7215 214.071C62.8358 214.25 62.9421 214.417 63.0374 214.568L63.3573 215.071C63.3318 215.17 63.3351 215.274 63.3668 215.372C63.4772 215.684 63.6965 215.946 63.9844 216.109L64.0338 216.138C66.5408 220.101 69.0642 224.145 71.5033 228.055L71.5223 228.087C73.0345 230.51 74.5983 233.016 76.142 235.477C76.383 237.678 76.5768 239.609 76.7346 241.38C77.162 246.161 77.4101 250.542 77.493 254.774C77.5234 256.354 77.4381 257.966 77.3554 259.525V259.532C77.3251 260.105 77.2936 260.698 77.2685 261.279C77.222 262.327 77.1582 263.367 77.0779 264.373L77.0177 265.103C76.9364 266.118 76.8933 267.108 77.2527 268.061C77.3368 268.291 77.4877 268.49 77.686 268.634C77.8657 268.762 78.081 268.832 78.3018 268.832V268.832ZM191.212 194.224C190.482 194.243 189.767 194.437 189.128 194.79C188.561 195.105 188.074 195.547 187.706 196.082C187.493 196.275 187.35 196.533 187.299 196.815C187.116 197.238 186.993 197.684 186.935 198.14C186.915 198.251 186.919 198.364 186.948 198.473C186.976 198.582 187.027 198.683 187.098 198.77C186.92 201.509 187.147 204.426 187.793 207.689C188.41 210.807 189.329 213.834 190.146 216.385L190.327 216.946L190.443 217.301C190.805 218.414 191.183 219.54 191.548 220.628V220.631C192.358 223.047 193.196 225.547 193.917 228.032C194.655 230.515 195.24 233.041 195.666 235.596C196.3 239.547 196.352 243.84 195.825 248.355L195.79 248.646C195.566 250.719 195.161 252.769 194.58 254.772C194.281 255.775 193.904 256.753 193.452 257.698C193.009 258.626 192.466 259.503 191.833 260.314C191.246 261.068 190.519 261.701 189.69 262.176C188.858 262.633 187.97 262.979 187.048 263.206L186.941 263.235C186.448 263.364 185.941 263.512 185.45 263.655H185.447C184.161 264.03 182.831 264.418 181.512 264.562C181.312 264.584 181.11 264.595 180.908 264.595C179.603 264.595 178.453 264.145 177.236 263.669C177.129 263.627 176.996 263.575 176.869 263.525L176.867 263.524C175.386 262.213 174.184 260.551 173.189 258.441C172.416 256.8 171.776 254.923 171.114 252.356C170.424 249.665 169.91 246.932 169.577 244.174C169.247 241.428 169.067 238.667 169.039 235.901C168.98 230.804 169.376 225.383 170.251 219.328C171.07 213.651 172.197 207.93 173.288 202.398L173.322 202.222C173.489 201.375 173.663 200.514 173.831 199.681V199.677V199.676C174.226 197.719 174.635 195.694 174.986 193.695L175.284 192.019C175.431 191.185 175.6 190.2 175.743 189.216C175.917 188.014 175.975 186.852 176.035 185.622L176.044 185.451C177.617 182.897 179.805 180.779 182.408 179.29C184.24 178.241 186.205 177.443 188.25 176.918C191.487 176.045 194.937 175.69 198.273 175.346C200.897 175.076 203.61 174.796 206.181 174.267C208.117 173.855 210.014 173.28 211.854 172.55L212.107 172.451C212.454 172.299 212.825 172.21 213.203 172.187C213.695 172.187 214.037 172.433 214.251 172.939C214.395 173.277 214.436 173.65 214.368 174.011C214.297 174.369 214.144 174.707 213.921 174.997C213.439 175.638 212.706 176.184 211.68 176.668C210.812 177.055 209.918 177.383 209.006 177.65L208.914 177.68C207.905 177.999 206.877 178.254 205.836 178.442C205.521 178.499 205.202 178.544 204.893 178.587C204.165 178.663 203.448 178.817 202.753 179.046C202.655 179.085 202.571 179.153 202.515 179.242C202.458 179.331 202.43 179.436 202.436 179.541C202.44 179.629 202.473 179.713 202.531 179.78C202.588 179.846 202.667 179.891 202.753 179.907C203.154 179.999 203.564 180.044 203.976 180.041C204.831 180.012 205.682 179.901 206.517 179.71L206.549 179.703C207.932 179.429 209.291 179.045 210.613 178.554C210.899 178.449 211.139 178.358 211.367 178.268L211.56 178.192C211.376 178.326 211.179 178.467 210.958 178.623C210.947 178.632 210.938 178.644 210.934 178.657C210.93 178.671 210.93 178.686 210.935 178.699C210.938 178.711 210.944 178.721 210.954 178.729C210.963 178.736 210.974 178.74 210.986 178.741C210.993 178.741 211.001 178.739 211.007 178.737C212.576 178.143 214.059 177.346 215.42 176.366C216.783 175.391 218.031 174.265 219.141 173.009L219.25 172.884C219.367 172.749 219.506 172.575 219.667 172.374C220.092 171.816 220.557 171.29 221.06 170.8C221.686 170.222 222.229 169.941 222.72 169.941C222.909 169.94 223.094 169.985 223.263 170.07C223.366 170.117 223.457 170.187 223.528 170.276C223.599 170.364 223.648 170.468 223.671 170.579C223.711 170.87 223.667 171.167 223.546 171.434C223.402 171.787 223.222 172.125 223.01 172.442C222.57 173.095 222.093 173.723 221.581 174.321C221.512 174.404 221.442 174.489 221.38 174.564L221.276 174.693C220.773 174.721 220.281 174.851 219.83 175.076C219.377 175.296 218.939 175.544 218.516 175.817L218.427 175.872C216.98 176.754 215.482 177.55 213.941 178.256C212.535 178.917 211.064 179.498 209.643 180.059C207.978 180.717 206.257 181.397 204.628 182.21C204.621 182.213 204.615 182.218 204.612 182.224C204.609 182.231 204.608 182.238 204.61 182.246C204.612 182.254 204.618 182.262 204.625 182.268C204.632 182.274 204.641 182.277 204.65 182.277H204.656C206.584 181.958 208.484 181.489 210.339 180.873L210.421 180.847L210.504 180.819C211.596 180.461 212.718 180.045 213.936 179.548C215.189 179.04 216.411 178.461 217.598 177.814C217.916 177.641 218.239 177.429 218.581 177.205C219.394 176.673 220.234 176.123 221.112 176.013C221.188 176.003 221.264 175.998 221.34 175.997C221.383 175.997 221.426 175.999 221.467 176.003C221.587 176.003 221.704 176.035 221.808 176.095C221.912 176.155 221.998 176.242 222.057 176.346C222.457 177.103 221.509 178.859 221.314 179.203C220.66 180.364 219.872 181.445 218.967 182.423C217.113 184.394 214.924 186.02 212.501 187.225C211.735 187.616 210.913 187.985 209.986 188.353C210.129 188.226 210.272 188.094 210.379 187.993C210.893 187.507 211.371 186.984 211.809 186.428C212.247 185.873 212.637 185.281 212.975 184.659L213.151 184.324C213.432 183.78 213.729 183.144 213.803 182.552C213.848 182.262 213.816 181.966 213.712 181.693C213.585 181.399 213.364 181.156 213.084 181.001C212.721 180.792 212.308 180.686 211.889 180.694C211.43 180.704 210.975 180.786 210.542 180.936C210.496 180.951 210.449 180.967 210.404 180.982L210.376 180.992C210.054 181.105 209.702 181.25 209.3 181.437C208.276 181.941 207.295 182.525 206.364 183.184C206.018 183.415 205.662 183.653 205.306 183.88C204.623 184.321 203.901 184.698 203.15 185.009C202.401 185.315 201.624 185.55 200.83 185.711L200.675 185.742C200.518 185.773 200.358 185.803 200.203 185.832C198.8 186.097 197.35 186.372 196.382 187.512C196.322 187.588 196.284 187.679 196.273 187.776C196.262 187.872 196.278 187.969 196.32 188.057C196.349 188.128 196.398 188.189 196.462 188.232C196.525 188.275 196.6 188.299 196.677 188.3C196.727 188.3 196.778 188.291 196.826 188.274C197.869 187.922 198.95 187.663 199.995 187.412C200.959 187.18 201.956 186.941 202.91 186.63C203.879 186.328 204.81 185.916 205.684 185.401C206.16 185.113 206.635 184.803 207.094 184.502C207.723 184.09 208.374 183.664 209.043 183.29C209.651 182.938 210.296 182.653 210.965 182.441L211.334 182.332C211.488 182.281 211.648 182.251 211.811 182.243C211.868 182.242 211.926 182.251 211.981 182.269C212.023 182.278 212.063 182.296 212.098 182.321C212.133 182.345 212.163 182.377 212.186 182.413C212.23 182.504 212.188 182.623 212.136 182.774L212.135 182.777C212.125 182.806 212.114 182.836 212.104 182.868L212.093 182.899C211.184 185.712 208.44 187.823 206.886 188.831C206.42 189.135 205.918 189.429 205.396 189.706C203.917 190.476 202.374 191.114 200.783 191.612C199.196 192.127 197.544 192.559 195.946 192.977L195.938 192.979C195.419 193.115 194.882 193.255 194.356 193.396C194.335 193.402 192.165 194.008 191.454 194.233C191.376 194.227 191.295 194.224 191.212 194.224ZM65.6544 216.642C65.6925 216.651 65.7306 216.661 65.7672 216.672H65.7685L65.7763 216.674C66.5385 216.888 67.3198 217.082 68.0745 217.269C68.3676 217.342 68.6999 217.424 69.0197 217.505C70.7845 217.949 72.6652 218.477 74.4598 219.319C74.7763 223.314 75.2331 227.365 75.6746 231.282V231.284C75.7374 231.841 75.8079 232.474 75.8779 233.091L75.9802 234.009C75.1092 232.393 74.3106 230.97 73.5391 229.658C71.0002 225.34 68.3482 220.961 65.6544 216.642ZM194.864 217.097C194.87 217.492 194.906 217.885 194.971 218.274C194.994 218.435 195.016 218.586 195.033 218.738C195.08 219.143 195.124 219.556 195.166 219.955V219.959C195.213 220.4 195.262 220.855 195.314 221.303C195.537 223.161 195.703 224.847 195.822 226.457C195.906 227.581 195.96 228.71 196.005 229.763C195.098 226.37 193.924 222.987 192.789 219.714L192.784 219.701C192.57 219.084 192.349 218.446 192.133 217.819C192.37 217.789 192.604 217.742 192.833 217.676L193.237 217.567L193.318 217.547H193.319C193.614 217.471 194.305 217.296 194.864 217.097V217.097ZM10.7054 192.493L10.7917 192.555L10.7054 192.493ZM10.1412 192.084C10.1946 192.124 10.2482 192.163 10.3018 192.202C10.2495 192.164 10.1959 192.125 10.1412 192.084V192.084ZM63.0667 214.616L63.0519 214.593L63.0366 214.569L62.7207 214.072L62.6161 213.908L62.5841 213.858L62.2516 213.338L62.2438 213.519C62.2218 213.79 62.3024 214.06 62.4696 214.274C62.6228 214.454 62.8338 214.575 63.0665 214.617L63.0667 214.616ZM180.705 185.687C181.237 185.687 181.815 185.34 182.373 185.005C182.657 184.823 182.954 184.663 183.263 184.529C185.427 183.677 187.786 183.449 190.073 183.87C190.819 184.006 191.551 184.212 192.259 184.485C192.27 184.49 192.282 184.492 192.295 184.492C192.318 184.491 192.339 184.481 192.357 184.466C192.374 184.451 192.386 184.43 192.39 184.408C192.397 184.386 192.396 184.362 192.387 184.341C192.378 184.32 192.363 184.302 192.343 184.291C191.501 183.83 190.607 183.474 189.679 183.228C188.757 182.985 187.806 182.861 186.852 182.861C186.529 182.861 186.202 182.875 185.88 182.904C184.744 182.998 183.628 183.254 182.565 183.666L182.462 183.706L182.291 183.771C181.871 183.917 181.466 184.1 181.079 184.319C180.64 184.585 180.374 184.884 180.268 185.23C180.253 185.277 180.249 185.327 180.256 185.375C180.263 185.424 180.281 185.471 180.309 185.511C180.344 185.561 180.389 185.602 180.442 185.632C180.495 185.662 180.554 185.679 180.614 185.684C180.642 185.686 180.674 185.687 180.705 185.687Z" fill="#2B283A"/>
<path d="M131.747 69.7015C102.865 68.2812 100.848 76.6756 96.882 82.0272C94.9138 84.683 89.8317 88.6161 88.9893 97.6988C88.4041 104.004 92.1291 111.271 92.1291 116.904C92.1291 119.78 88.6082 125.954 90.2473 130.145C93.8957 139.474 101.621 149.828 111.464 149.828C121.308 149.828 139.479 144.402 150.355 128.829C153.919 123.728 160.628 71.1217 131.747 69.7015Z" fill="white"/>
<path d="M89.709 117.467C90.3397 116.771 90.8294 116.2 90.9933 115.243C91.0587 114.84 91.0963 114.432 91.1057 114.023C88.5733 110.483 86.111 102.12 86.1114 97.5466C86.1114 91.0936 88.4914 84.8848 92.3976 79.7493C100.012 69.7475 112.687 64.619 125.092 65.0221C136.971 65.4049 149.606 69.7829 157.016 79.1438C181.601 110.198 160.967 144.119 145.854 151.176C144.539 151.791 140.29 151.577 140.881 150.265C142.581 146.497 143.921 139.555 144.234 137.992C143.75 138.318 143.263 138.637 142.773 138.966C141.906 139.547 140.744 140.212 139.654 140.02C139.629 140.013 139.608 139.998 139.592 139.978C139.577 139.958 139.568 139.933 139.568 139.908C139.518 138.884 140.25 137.832 140.894 137.103C141.788 136.089 142.638 135.05 143.6 134.099C144.01 133.694 144.425 133.292 144.84 132.889C144.902 130.457 144.72 128.024 144.299 125.628C143.55 121.422 142.258 117.326 140.774 113.294C139.53 112.39 138.341 111.412 137.215 110.365C134.53 107.832 132.481 104.734 130.725 101.476C130.704 101.466 130.681 101.455 130.66 101.445C127.255 99.8617 123.877 98.2204 120.528 96.5216C118.8 95.6468 117.083 94.7512 115.366 93.8558C114.433 93.3678 113.47 92.9239 112.516 92.4648C112.776 93.7839 113.118 95.0854 113.541 96.3615C113.888 97.4117 112.828 98.187 111.891 98.0136C108.689 97.4151 105.623 96.2436 102.838 94.5553C101.459 93.7181 100.155 92.7643 98.9391 91.7045C97.7166 93.4949 96.3173 95.1579 94.7623 96.6685C93.7587 97.6537 92.7107 98.5905 91.6183 99.4791C92.1118 102.877 92.5348 106.282 93.0702 109.672C93.3503 111.444 93.6876 113.216 93.8991 114.997C94.1297 116.939 93.4875 118.322 92.209 119.742C90.4216 121.726 90.4235 124.595 91.1076 127.059C91.1914 127.364 91.2962 127.661 91.4048 127.956C91.4277 128.017 91.4944 128.183 91.5192 128.248C91.5191 128.251 91.5197 128.253 91.5211 128.255C91.5211 128.257 91.523 128.259 91.523 128.261C91.523 128.263 91.5249 128.263 91.5268 128.265V128.271L91.5287 128.272C91.6087 128.459 91.6945 128.642 91.7802 128.825C92.1708 129.65 92.6072 130.456 93.0607 131.249C95.3106 135.162 98.0882 138.747 101.315 141.902C102.809 143.373 104.362 144.742 106.117 145.862C106.487 146.097 106.864 146.323 107.251 146.531C107.459 146.643 107.672 146.748 107.885 146.855C108.005 146.921 108.13 146.978 108.259 147.024C108.604 147.161 108.957 147.277 109.316 147.371C109.509 147.421 109.703 147.463 109.899 147.499C109.903 147.5 109.907 147.5 109.911 147.501C109.913 147.501 109.915 147.503 109.917 147.501C109.919 147.502 109.923 147.503 109.926 147.503C109.999 147.508 110.128 147.52 110.153 147.52C112.886 147.52 115.607 147.171 118.251 146.481C119.696 146.128 121.107 145.648 122.468 145.049C123.155 144.737 123.823 144.383 124.467 143.991C124.755 143.814 125.027 143.6 125.33 143.446C125.784 143.213 126.228 143.238 126.717 143.217C127.464 143.187 127.994 143.968 127.811 144.654C127.728 145.029 127.57 145.384 127.348 145.698C127.126 146.012 126.844 146.278 126.517 146.481C125.939 146.875 125.335 147.231 124.711 147.546C123.35 148.237 121.934 148.813 120.479 149.271C117.751 150.135 114.929 150.669 112.074 150.862C110.006 151.003 108.215 150.727 106.332 149.856C104.345 148.936 102.563 147.562 100.915 146.136C97.2242 142.947 94.0134 139.077 91.2905 135.039C88.7314 131.243 86.7459 127.11 87.3995 122.398C87.6422 120.555 88.4488 118.833 89.709 117.467" fill="#2B283A"/>
<path d="M109.827 143.998C110.005 143.998 110.184 143.995 110.356 143.993H110.377H110.378C110.542 143.99 110.713 143.988 110.879 143.988H111.001H111.072C111.227 143.99 111.383 143.991 111.536 143.991C112.844 143.997 114.151 143.914 115.446 143.744C115.491 143.735 115.531 143.714 115.561 143.682C115.59 143.65 115.608 143.609 115.611 143.567C115.62 143.525 115.614 143.481 115.594 143.442C115.575 143.403 115.542 143.371 115.501 143.351C114.239 142.841 112.937 142.42 111.607 142.093L111.218 141.997C111.038 141.951 110.854 141.901 110.676 141.853H110.675C109.976 141.663 109.252 141.466 108.551 141.466C108.021 141.458 107.5 141.592 107.049 141.852C106.939 141.914 106.846 141.998 106.775 142.098C106.705 142.198 106.659 142.311 106.641 142.429C106.624 142.551 106.637 142.674 106.677 142.791C106.718 142.907 106.786 143.014 106.876 143.103C107.243 143.47 107.717 143.73 108.24 143.849C108.76 143.961 109.294 144.011 109.827 143.998V143.998ZM109.173 129.372C109.951 129.361 110.721 129.216 111.443 128.946C112.397 128.589 113.295 128.114 114.113 127.534C114.303 127.397 114.434 127.201 114.485 126.982C114.529 126.775 114.511 126.56 114.432 126.362C114.343 126.127 114.188 125.918 113.983 125.757C113.789 125.597 113.541 125.507 113.283 125.502C113.09 125.503 112.901 125.557 112.741 125.657C112.683 125.698 112.622 125.742 112.558 125.788C112.029 126.185 111.471 126.547 110.887 126.871C110.132 127.271 109.476 127.466 108.884 127.466C108.593 127.467 108.305 127.415 108.037 127.311C107.739 127.189 107.471 127.012 107.249 126.79C107.038 126.536 106.888 126.243 106.809 125.93C106.73 125.617 106.724 125.292 106.791 124.977C106.952 124.368 107.289 123.811 107.766 123.368C108.203 122.938 108.7 122.565 109.244 122.258C109.317 122.199 109.369 122.119 109.391 122.031C109.414 121.943 109.405 121.851 109.367 121.767C109.326 121.646 109.247 121.54 109.14 121.461C109.015 121.372 108.861 121.325 108.704 121.327C108.651 121.327 108.599 121.331 108.547 121.34C107.932 121.431 107.341 121.63 106.805 121.926C106.346 122.184 105.947 122.526 105.634 122.932C105.052 123.712 104.787 124.659 104.886 125.604C104.93 126.087 105.06 126.561 105.269 127.006C105.478 127.452 105.77 127.86 106.133 128.21C106.527 128.588 107 128.886 107.523 129.085C108.046 129.285 108.608 129.383 109.173 129.372V129.372ZM123.073 120.264C123.253 120.258 123.43 120.221 123.595 120.155C123.617 120.157 123.639 120.157 123.662 120.157C123.919 120.138 124.169 120.07 124.397 119.958C124.591 119.879 124.767 119.765 124.915 119.623C124.987 119.607 125.056 119.581 125.119 119.544C125.321 119.424 125.478 119.248 125.567 119.04C125.658 118.834 125.71 118.614 125.718 118.391C125.718 118.376 125.718 118.36 125.719 118.344C125.719 118.332 125.719 118.321 125.719 118.31C125.736 118.246 125.749 118.188 125.759 118.133C125.895 117.38 125.74 116.54 125.552 115.746C125.534 115.666 125.516 115.582 125.498 115.494C125.473 115.375 125.448 115.251 125.416 115.13L125.582 115.124C125.937 115.111 126.304 115.098 126.667 115.084C126.891 115.075 127.125 115.075 127.346 115.075H127.563C128.471 115.075 129.276 115.051 129.954 114.763C129.966 114.758 129.977 114.75 129.986 114.739C129.994 114.729 129.999 114.717 130 114.704C130.001 114.686 129.998 114.668 129.99 114.652C129.982 114.636 129.969 114.622 129.954 114.612C129.245 114.139 128.208 113.979 127.293 113.838C127.05 113.801 126.821 113.765 126.601 113.725L126.51 113.708C125.26 113.469 123.998 113.264 122.654 113.082C119.911 112.709 117.19 112.537 115.125 112.43C111.744 112.253 108.3 112.186 104.97 112.12C103.231 112.086 101.435 112.051 99.6683 112.001C99.6471 112.001 99.6258 112.001 99.605 112.001C99.3985 111.995 99.1929 112.028 99.0006 112.098C98.8083 112.169 98.6332 112.274 98.4858 112.409C98.1604 112.733 97.9861 113.165 98.0009 113.608C97.9983 114.012 98.1473 114.403 98.422 114.715C98.575 114.879 98.7655 115.009 98.9795 115.096C99.1934 115.183 99.4255 115.225 99.6588 115.217H99.6676C100.119 115.215 100.578 115.215 101.022 115.214H101.04L101.659 115.213C101.281 116.552 101.472 117.975 102.19 119.187C102.317 119.387 102.499 119.551 102.719 119.663C102.93 119.77 103.167 119.825 103.408 119.825C103.591 119.827 103.772 119.794 103.941 119.73C104.11 119.666 104.263 119.571 104.393 119.452C104.662 119.203 104.888 118.916 105.062 118.603C105.231 118.297 105.353 117.971 105.424 117.634C105.562 116.947 105.53 116.239 105.329 115.566L105.41 115.388C105.435 115.331 105.455 115.272 105.47 115.211C106.903 115.212 108.357 115.215 109.763 115.217L111.907 115.221L115.125 115.223C115.767 115.223 116.417 115.225 117.045 115.227C117.725 115.229 118.428 115.231 119.12 115.231C119.988 115.231 120.711 115.228 121.396 115.222L121.394 115.225C121.367 115.26 121.344 115.297 121.323 115.335C121.203 115.609 121.127 115.897 121.096 116.19C121.027 116.675 121.033 117.166 121.115 117.649C121.166 118.028 121.292 118.394 121.487 118.731L121.488 118.738C121.579 119.103 121.698 119.484 122.029 119.772C122.114 119.848 122.211 119.91 122.318 119.957C122.413 120.053 122.528 120.13 122.656 120.183C122.784 120.236 122.923 120.264 123.063 120.264L123.073 120.264Z" fill="#2B283A"/>
</svg>
