<svg width="230" height="280" viewBox="0 0 230 280" fill="none" xmlns="http://www.w3.org/2000/svg">
<path d="M116.27 266.617C101.11 266.617 86.0325 265.872 71.4388 264.403L71.4324 264.374L70.6575 264.28C68.4522 264.005 66.1978 263.788 64.0176 263.58C58.2663 263.027 52.3188 262.456 46.7721 260.758L45.7915 260.457L45.6955 260.703C45.552 260.628 45.3998 260.551 45.2388 260.476C46.1115 246.222 47.5675 232.232 48.8822 220.387L48.9362 219.903L48.6144 219.536C46.7555 217.419 46.0706 215.646 46.5232 214.117C50.23 206.38 51.0158 196.509 51.7758 186.962C53.3513 167.174 54.8393 148.485 80.5382 147.676L80.5793 147.674L80.8504 147.655C86.2095 147.288 91.7511 146.908 96.7015 144.444L97.2784 144.157L97.3126 143.514C97.3543 142.738 98.3101 141.814 99.0781 141.072C99.3425 140.817 99.5919 140.576 99.8164 140.334L99.8633 140.284L99.9037 140.228C101.062 138.618 102.423 137.658 103.543 137.658C105.176 137.658 105.966 139.706 106.292 140.927L106.807 142.852L108.168 141.396C111.365 137.977 112.896 134.218 112.724 130.209L112.84 130.172L112.691 129.214C112.41 127.552 112.597 126.319 113.247 125.55C114.008 124.651 115.5 124.213 117.809 124.213C119.335 124.213 120.995 124.405 122.46 124.575C122.939 124.63 123.399 124.684 123.836 124.729C126.768 125.038 129.765 125.593 132.664 126.131L133.071 126.206L132.795 126.956L133.5 127.442C134.438 128.091 135.137 129.392 135.417 131.013L135.43 131.086L135.452 131.157C135.869 132.478 136.027 133.954 136.194 135.515C136.476 138.143 136.767 140.86 138.34 143.2L139.285 144.605L140.191 143.174C140.633 142.476 141.226 142.136 142.003 142.136C144.1 142.136 146.66 144.455 147.115 146.251L147.261 146.828L147.823 147.024C151.683 148.369 154.864 149.349 157.67 150.214C164.716 152.387 168.253 153.478 170.522 156.675C172.857 159.963 174.038 165.703 176.003 177.124C178.154 189.499 179.592 202.219 180.98 214.52C182.725 229.971 184.529 245.942 187.768 261.435C187.563 261.639 187.39 261.872 187.255 262.127C185.826 262.253 184.372 262.368 182.958 262.479C180.604 262.664 178.171 262.856 175.793 263.105L175.265 263.161L175.148 263.343C174.931 263.361 174.717 263.382 174.507 263.404C174.171 263.437 173.848 263.47 173.532 263.488L173.436 263.297L172.669 263.383C153.944 265.508 135.115 266.588 116.27 266.617" fill="white"/>
<path d="M71.7632 268.643C71.4359 268.643 71.0779 268.446 70.6995 268.057C70.4226 267.591 70.2053 267.091 70.0528 266.571C69.9027 266.057 69.7998 265.53 69.7455 264.998C69.6538 263.91 69.6372 262.817 69.6957 261.727C69.7193 260.955 69.7436 260.157 69.7114 259.396C69.7799 255.324 69.938 251.326 70.1816 247.517C70.441 243.461 70.8062 239.473 71.2672 235.664C71.7538 231.643 72.3634 227.688 73.0789 223.908C73.8295 219.943 74.7205 216.044 75.7274 212.319L75.8984 211.789C76.361 210.367 76.7476 209.255 77.0582 208.362V208.361C78.4281 204.421 78.4281 204.421 77.6555 198.943C77.5619 198.28 77.456 197.527 77.3388 196.672C77.3185 196.391 77.2823 196.112 77.2305 195.836C77.0807 194.922 76.8944 193.786 77.5069 193.4C78.1051 193.778 78.3835 194.75 78.6072 195.532C78.6625 195.723 78.7135 195.904 78.7662 196.064L78.7846 196.119C79.1887 197.298 79.5549 198.508 79.8953 199.646C80.2053 198.809 80.5033 197.943 80.7933 197.106C81.6073 194.747 82.4489 192.309 83.6622 190.123C83.6708 190.108 83.6831 190.097 83.6977 190.089C83.7123 190.081 83.7287 190.078 83.7453 190.079C83.7595 190.078 83.7736 190.081 83.7867 190.086C83.7998 190.092 83.8117 190.1 83.8216 190.11C83.8289 190.118 83.8343 190.128 83.8375 190.138C83.8407 190.149 83.8415 190.16 83.84 190.171C83.4591 192.699 82.7404 195.219 82.0454 197.658C81.5848 199.273 81.1085 200.944 80.7358 202.599L80.7642 202.678C81.0236 203.468 81.2092 204.28 81.3186 205.104C81.4241 205.912 81.4713 206.985 81.0975 207.513C81.0281 207.615 80.9339 207.699 80.8235 207.755C80.7132 207.812 80.5904 207.84 80.4664 207.836C80.1814 207.821 79.904 207.739 79.6557 207.598L79.4413 208.721C78.4699 213.827 77.6683 218.338 76.9908 222.511C76.1869 227.462 75.5456 231.997 75.03 236.374C73.8383 246.496 73.3475 255.635 73.5297 264.315C73.5351 265.004 73.4595 265.692 73.3046 266.364C73.1623 266.996 72.8992 267.847 72.45 268.314C72.3646 268.413 72.2594 268.494 72.1412 268.55C72.0229 268.607 71.8942 268.638 71.7632 268.643V268.643ZM127.627 266.911C126.91 266.911 126.476 266.474 126.436 265.712C126.239 265.498 126.1 265.237 126.032 264.954C125.965 264.674 125.961 264.382 126.02 264.099C126.073 263.834 126.184 263.584 126.345 263.367C126.508 263.146 126.726 262.972 126.978 262.863C126.978 262.859 127.074 262.819 127.21 262.762L127.213 262.761L127.22 262.758C127.293 262.727 127.365 262.698 127.402 262.682C127.562 262.634 127.729 262.609 127.896 262.609C128.212 262.619 128.521 262.705 128.797 262.86C129.073 263.015 129.307 263.235 129.48 263.5C129.675 263.767 129.802 264.078 129.851 264.405C129.899 264.732 129.868 265.065 129.76 265.378C129.632 265.829 129.342 266.217 128.945 266.467C128.559 266.742 128.1 266.896 127.626 266.91L127.627 266.911ZM173.456 265.833C173.249 265.84 173.044 265.801 172.854 265.719C172.664 265.638 172.494 265.516 172.356 265.362C172.021 264.97 171.906 264.368 172.023 263.62C169.784 253.921 168.083 245.318 166.825 237.32C166.107 232.761 165.518 228.287 165.074 224.021C164.599 219.463 164.271 214.965 164.098 210.655C163.708 207.308 163.5 203.943 163.475 200.574C163.427 197.184 163.501 193.731 163.572 190.393V190.365C163.598 189.167 163.624 187.928 163.645 186.717C163.678 184.108 163.869 181.504 164.219 178.919C164.235 178.864 164.262 178.832 164.295 178.832C164.31 178.834 164.325 178.839 164.337 178.847C164.35 178.855 164.36 178.866 164.368 178.879C164.383 178.9 164.394 178.924 164.398 178.95C164.403 178.976 164.401 179.002 164.394 179.027C164.609 180.118 164.576 181.296 164.544 182.435C164.525 183.09 164.507 183.766 164.535 184.417C164.755 183.895 165.046 183.404 165.398 182.96C165.428 182.919 165.466 182.886 165.511 182.863C165.555 182.839 165.604 182.827 165.655 182.825C165.733 182.831 165.808 182.858 165.872 182.904C165.937 182.949 165.987 183.011 166.018 183.083C166.053 183.154 166.066 183.234 166.056 183.312C166.046 183.39 166.012 183.463 165.96 183.523C165.565 183.996 165.256 184.534 165.046 185.114C164.839 185.687 164.699 186.283 164.629 186.889C164.928 193.254 165.38 199.673 165.969 205.97C166.564 212.322 167.316 218.717 168.204 224.977C169.1 231.296 170.159 237.648 171.35 243.853C172.554 250.121 173.926 256.408 175.427 262.54C175.595 262.953 175.663 263.399 175.625 263.842C175.589 264.207 175.461 264.556 175.254 264.857C175.052 265.15 174.784 265.391 174.471 265.56C174.159 265.73 173.811 265.823 173.455 265.833L173.456 265.833ZM119.304 265.667C119.092 265.661 118.884 265.612 118.692 265.521C118.501 265.431 118.329 265.302 118.19 265.143C117.97 264.905 117.805 264.622 117.703 264.314C117.583 263.947 117.535 263.56 117.563 263.174C117.529 254.353 117.602 246.254 117.787 238.413C117.99 229.827 118.335 221.496 118.813 213.65C119.331 205.152 120.027 196.847 120.882 188.965C121.333 184.818 121.838 180.684 122.385 176.675C122.948 172.548 123.572 168.43 124.239 164.435C122.176 167.037 120.076 169.684 118.047 172.244L117.968 172.344C115.196 175.84 112.33 179.456 109.505 183.014C109.44 183.098 109.356 183.166 109.26 183.212C109.164 183.258 109.059 183.282 108.952 183.28C108.793 183.275 108.638 183.233 108.498 183.157C108.358 183.081 108.238 182.974 108.147 182.843L108.129 182.814L108.25 183.139C108.023 183.056 107.807 182.947 107.605 182.815C107.55 182.781 107.488 182.744 107.428 182.709C105.654 178.356 104.308 173.775 103.006 169.347C102.494 167.603 101.964 165.8 101.416 164.036C100.86 161.935 100.197 159.812 99.5564 157.76V157.759C98.9429 155.793 98.3085 153.76 97.7668 151.745C97.2123 149.737 96.7798 147.698 96.4716 145.638L96.4309 145.621C95.2123 146.238 93.9345 146.73 92.6169 147.089C91.3017 147.449 89.9473 147.645 88.5841 147.675C85.8236 148.386 82.941 148.759 80.1534 149.12C79.8566 149.159 79.5203 149.202 79.1966 149.245C77.8623 149.299 76.533 149.44 75.2169 149.666C74.0046 149.876 72.8086 150.171 71.6379 150.548C70.541 150.904 69.4721 151.34 68.4399 151.854C67.4531 152.347 66.5047 152.913 65.6025 153.548C64.7228 154.168 63.8891 154.851 63.1078 155.591C62.3323 156.328 61.6069 157.115 60.9364 157.949C59.5812 159.65 58.4221 161.499 57.4811 163.46C56.5035 165.497 55.7006 167.614 55.0811 169.788C54.4384 172.038 53.9378 174.326 53.582 176.639C52.9145 180.892 52.6055 185.636 52.6608 190.739L52.6219 191.617C52.6006 192.119 52.5797 192.63 52.5597 193.124V193.125C52.4602 195.577 52.357 198.113 52.1276 200.595C51.9202 203.076 51.5178 205.537 50.9241 207.955C50.8213 208.161 50.6743 208.592 50.4882 209.139C50.1741 210.117 49.8056 211.076 49.3842 212.012C49.2016 212.416 48.9713 212.797 48.698 213.147C48.4434 213.451 48.1947 213.605 47.9585 213.605C47.7143 213.605 47.4763 213.44 47.251 213.116C46.6162 213.964 46.3739 214.641 46.4884 215.247C46.565 215.602 46.7416 215.927 46.9972 216.185C47.3298 216.526 47.7065 216.821 48.1173 217.061C48.9359 217.767 49.7019 218.53 50.4091 219.347C51.1584 220.209 51.8406 221.126 52.4497 222.092C53.0654 223.064 53.5901 224.091 54.0172 225.159C54.4371 226.204 54.73 227.296 54.8896 228.411C54.9042 228.54 54.8911 228.67 54.8512 228.793C54.8114 228.916 54.7456 229.03 54.6584 229.125C54.5788 229.222 54.4797 229.302 54.3674 229.358C54.2552 229.415 54.1324 229.447 54.0069 229.453C53.8781 229.45 53.7534 229.407 53.6489 229.332C53.5445 229.257 53.4652 229.151 53.4214 229.03L53.2147 228.579C52.261 226.509 51.6906 225.425 51.3 224.71C50.6225 223.452 49.8527 222.245 48.9969 221.1C48.9229 221.227 48.8179 221.333 48.6918 221.407C48.3481 230.417 47.7024 239.564 47.0778 248.409C46.9488 250.249 46.8136 252.151 46.6837 254.027C46.5805 254.418 46.5527 255.314 46.5178 256.448C46.474 257.857 46.4196 259.609 46.188 260.996C46.1098 261.594 45.9408 262.177 45.6869 262.725C45.4474 263.182 45.1476 263.414 44.7942 263.414C44.461 263.386 44.1459 263.25 43.8969 263.027L43.8002 262.949C43.216 261.715 43.3886 260.284 43.5555 258.9C43.5949 258.574 43.632 258.265 43.66 257.957L44.1022 252.748C44.3358 250.15 44.5628 247.514 44.7813 244.965C45.461 237.054 46.1632 228.874 47.1631 220.861L47.0593 220.742C46.1438 219.681 45.5072 218.701 45.1131 217.745C44.8851 217.207 44.7394 216.637 44.6811 216.056C44.6259 215.466 44.6894 214.871 44.8681 214.307C44.9944 213.861 45.2105 213.445 45.5032 213.086C45.7931 212.735 46.1071 212.404 46.4428 212.097C46.778 211.79 47.0924 211.46 47.3838 211.111C47.8593 208.603 48.2453 205.715 48.563 202.282C48.8476 199.214 49.0553 195.981 49.2563 192.852C49.6025 187.464 49.9603 181.892 50.7292 176.661C51.0903 174.106 51.5961 171.574 52.244 169.076C52.5724 167.836 52.9377 166.644 53.3311 165.53C53.7434 164.36 54.2 163.238 54.6879 162.194C55.1824 161.132 55.7385 160.1 56.3535 159.103C56.9602 158.121 57.6327 157.181 58.3662 156.289C59.1023 155.397 59.9039 154.561 60.7645 153.789C61.6477 152.998 62.5914 152.278 63.5868 151.634C64.6344 150.96 65.7326 150.367 66.8714 149.861C68.0989 149.318 69.3639 148.864 70.6566 148.502C72.077 148.107 73.5214 147.803 74.9808 147.593C76.6053 147.36 78.2415 147.217 79.8818 147.166L81.3845 147.062C83.5955 146.905 86.1644 146.7 88.6577 146.245C91.3342 145.756 93.6008 145.038 95.5872 144.05C95.6161 143.511 95.8532 142.953 96.312 142.345C96.7329 141.82 97.1932 141.327 97.6887 140.871C97.9417 140.627 98.1806 140.396 98.3848 140.177C98.9907 139.298 99.7494 138.536 100.625 137.926C100.985 137.683 101.374 137.487 101.784 137.344C102.15 137.216 102.534 137.149 102.922 137.146C103.327 137.145 103.728 137.228 104.099 137.39C104.497 137.569 104.857 137.823 105.159 138.138C105.846 138.84 106.377 139.882 106.739 141.235C110.809 136.861 111.987 132.063 110.241 126.977C110.619 127.018 110.971 127.185 111.242 127.452C111.553 127.753 111.814 128.102 112.013 128.486C112.412 129.256 112.708 130.076 112.891 130.924C113.154 132.239 113.192 133.589 113.003 134.917C112.812 136.248 112.44 137.547 111.898 138.779C111.353 140.023 110.672 141.203 109.867 142.298C109.08 143.373 108.186 144.366 107.199 145.261C110.04 147.825 113.011 150.242 116.099 152.502C119.189 154.762 122.406 156.843 125.733 158.736C125.962 158.489 126.241 158.295 126.552 158.165C126.863 158.036 127.198 157.976 127.534 157.988C128.174 157.996 128.801 158.163 129.359 158.476C130.367 157.522 131.395 156.558 132.39 155.626C134.955 153.223 137.607 150.738 140.14 148.208C138.846 147.392 137.748 146.299 136.927 145.008C136.14 143.746 135.579 142.357 135.268 140.903C134.52 137.579 134.88 134.144 135.314 131.847L135.347 131.672C135.355 131.589 135.394 131.511 135.457 131.455C135.52 131.4 135.601 131.37 135.685 131.373C135.8 131.373 135.912 131.415 135.999 131.49C136.086 131.565 136.144 131.669 136.162 131.783L136.186 132.058C136.229 132.554 136.268 133.063 136.306 133.555C136.558 136.881 136.819 140.32 138.637 143.178C138.939 142.681 139.365 142.271 139.873 141.988C140.339 141.744 140.858 141.619 141.384 141.626C142.063 141.639 142.731 141.791 143.349 142.07C144.022 142.367 144.65 142.755 145.216 143.223C145.782 143.686 146.285 144.221 146.712 144.815C147.101 145.345 147.391 145.941 147.567 146.575C151.409 147.913 154.579 148.89 157.377 149.753C160.905 150.841 163.693 151.701 165.844 152.706C166.844 153.158 167.791 153.723 168.664 154.388C169.484 155.026 170.206 155.781 170.804 156.63C172.012 158.33 172.943 160.622 173.826 164.06C174.663 167.322 175.431 171.469 176.474 177.531C177.434 183.169 178.343 189.356 179.255 196.445C180.068 202.765 180.807 209.202 181.521 215.427V215.43C182.407 223.147 183.323 231.126 184.388 238.95C184.96 243.163 185.53 246.995 186.126 250.666C186.796 254.786 187.485 258.601 188.231 262.329C188.301 263.124 187.579 263.773 186.861 263.881C186.797 263.89 186.733 263.894 186.668 263.894C186.442 263.895 186.22 263.836 186.023 263.723C185.816 263.601 185.635 263.439 185.489 263.248C185.13 262.754 184.862 262.201 184.697 261.613C184.273 260.295 184.039 258.651 183.833 257.201C183.74 256.378 183.594 255.562 183.398 254.757C182.203 247.916 181.17 240.506 180.148 231.437C179.358 224.675 178.709 217.77 178.082 211.093C177.324 203.016 176.539 194.664 175.498 186.491C174.938 182.092 174.35 178.094 173.701 174.271C172.973 169.978 172.187 166.014 171.298 162.151C171.044 161.189 170.709 160.249 170.299 159.343C169.889 158.436 169.351 157.592 168.701 156.839C167.997 156.075 167.205 155.399 166.341 154.824C165.494 154.263 164.599 153.778 163.666 153.375C161.801 152.555 159.76 151.976 157.787 151.416H157.785C155.993 150.908 154.139 150.382 152.414 149.675C151.552 149.328 150.717 148.919 149.915 148.451C149.104 147.978 148.343 147.425 147.643 146.802C148.134 148.312 148.296 150.097 148.154 152.416C147.855 156.953 147.606 161.569 147.366 166.032V166.035C147.08 171.335 146.784 176.814 146.403 182.197C146.388 182.501 146.254 182.786 146.031 182.992C145.828 183.177 145.564 183.278 145.289 183.278C145.101 183.276 144.915 183.227 144.75 183.135C144.585 183.044 144.445 182.914 144.342 182.755C142.62 180.241 140.853 177.699 139.144 175.241L139.137 175.23C135.887 170.554 132.525 165.717 129.331 160.876C128.77 161.155 128.153 161.304 127.527 161.311C127.285 161.311 127.044 161.287 126.807 161.24C126.393 161.763 126.114 162.581 125.956 163.741C125.832 164.832 125.766 165.928 125.756 167.026C125.724 168.225 125.694 169.358 125.531 170.223L125.358 172.113C124.642 179.988 124.039 187.18 123.515 194.1C122.928 201.85 122.455 209.051 122.068 216.113C121.654 223.689 121.344 231.104 121.147 238.152C120.938 245.688 120.849 253.111 120.884 260.216L120.889 261.165C120.889 261.47 120.897 261.785 120.904 262.089V262.092C120.919 262.69 120.934 263.309 120.89 263.905C120.809 264.405 120.587 264.872 120.25 265.25C120.129 265.38 119.982 265.484 119.819 265.556C119.657 265.627 119.481 265.665 119.303 265.667L119.304 265.667ZM104.4 171.207C104.638 172.068 104.953 173.202 105.276 174.332C106.111 177.255 107.123 180.086 107.911 182.226C106.805 178.764 105.656 175.16 104.401 171.207L104.4 171.207ZM103.746 139.42C103.435 139.426 103.132 139.518 102.871 139.687C102.564 139.881 102.287 140.119 102.048 140.392C101.473 141.069 100.949 141.789 100.482 142.544V142.544C99.922 143.396 99.3429 144.277 98.7315 144.904C99.0118 146.909 99.3882 148.934 99.882 151.096C100.322 153.022 100.845 155.013 101.483 157.183C102.667 161.214 104.074 165.263 105.435 169.178C106.728 172.898 108.065 176.745 109.207 180.567C112.097 176.873 115.077 173.067 117.707 169.709L117.852 169.523C119.879 166.936 121.973 164.261 124.032 161.631C124.206 161.407 124.382 161.172 124.549 160.946L124.551 160.944C124.666 160.788 124.786 160.627 124.907 160.468C123.314 159.547 121.775 158.6 120.33 157.651C118.8 156.646 117.322 155.604 115.94 154.556C114.486 153.453 113.09 152.306 111.79 151.148C110.43 149.935 109.133 148.671 107.934 147.39C107.867 147.404 107.798 147.412 107.73 147.412C107.428 147.396 107.139 147.281 106.91 147.083C106.65 146.871 106.407 146.638 106.184 146.386C105.998 146.176 105.796 145.98 105.581 145.8L105.509 145.741C105.179 145.473 104.909 145.137 104.717 144.757C104.621 144.571 104.569 144.366 104.564 144.157C104.56 143.948 104.605 143.741 104.694 143.552C104.683 143.531 104.678 143.509 104.677 143.486C104.677 143.463 104.681 143.44 104.69 143.419C104.704 143.391 104.724 143.366 104.748 143.346C104.771 143.326 104.799 143.312 104.829 143.303C105.049 143.062 105.279 142.82 105.502 142.584C105.779 142.293 106.065 141.993 106.339 141.685C105.431 140.16 104.583 139.419 103.746 139.419L103.746 139.42ZM140.865 144.53C140.498 144.532 140.131 144.565 139.77 144.628C140.259 145.298 140.977 145.689 141.671 146.066C142.34 146.43 143.032 146.805 143.502 147.429C143.576 147.553 143.618 147.692 143.625 147.836C143.633 147.98 143.604 148.123 143.542 148.253C143.472 148.404 143.367 148.536 143.236 148.638C143.105 148.74 142.95 148.809 142.787 148.839C141.079 150.387 139.382 151.974 137.74 153.509C135.345 155.749 132.868 158.066 130.321 160.29C134.068 165.142 137.761 170.151 141.331 174.995L141.333 174.996L141.34 175.006C142.31 176.322 143.313 177.683 144.303 179.021C144.467 174.642 144.7 170.194 144.926 165.893V165.888C145.138 161.83 145.358 157.635 145.52 153.506C145.644 152.115 145.603 150.714 145.398 149.332C145.14 147.783 144.633 146.587 143.887 145.778C143.53 145.387 143.095 145.076 142.609 144.865C142.057 144.635 141.463 144.521 140.865 144.529L140.865 144.53ZM126.421 250.592C126.241 250.589 126.065 250.546 125.905 250.466C125.744 250.386 125.603 250.272 125.492 250.131C125.39 250.003 125.318 249.854 125.284 249.694C125.249 249.533 125.252 249.367 125.292 249.209L125.289 249.011C125.288 248.96 125.286 248.909 125.285 248.857V248.846C125.247 248.346 125.279 247.843 125.38 247.351C125.434 247.108 125.547 246.882 125.71 246.694C125.873 246.506 126.08 246.362 126.313 246.274C126.613 245.958 127.024 245.773 127.459 245.758C127.785 245.771 128.098 245.889 128.351 246.093C128.605 246.298 128.787 246.578 128.869 246.894C129.017 247.397 128.975 247.936 128.753 248.411C128.431 249.085 127.924 249.654 127.291 250.051C127.211 250.214 127.087 250.351 126.933 250.447C126.779 250.542 126.602 250.593 126.421 250.592V250.592ZM126.241 228.446C126.108 228.446 125.976 228.414 125.857 228.353C125.738 228.292 125.635 228.204 125.557 228.095C125.371 227.839 125.254 227.54 125.216 227.225C125.166 226.903 125.178 226.573 125.25 226.255C125.078 225.992 124.963 225.697 124.91 225.387C124.858 225.077 124.871 224.761 124.947 224.456C125.05 224.025 125.241 223.62 125.51 223.267C125.782 222.904 126.122 222.597 126.51 222.361C126.749 222.28 126.999 222.237 127.251 222.232C127.438 222.226 127.623 222.26 127.796 222.331C127.968 222.403 128.123 222.51 128.251 222.646C128.505 222.943 128.669 223.306 128.723 223.693C128.852 224.612 128.738 225.55 128.39 226.411C128.23 226.834 128.008 227.23 127.73 227.587C127.494 227.899 127.18 228.142 126.819 228.292C126.641 228.387 126.443 228.44 126.241 228.446V228.446ZM127.599 208.023C127.498 208.022 127.398 208 127.306 207.958C127.214 207.916 127.132 207.855 127.064 207.779C126.655 207.35 126.38 206.81 126.272 206.227C126.172 205.678 126.235 205.112 126.455 204.599C126.35 204.154 126.311 203.515 126.725 202.992C126.879 202.804 127.073 202.653 127.292 202.55C127.512 202.447 127.752 202.395 127.995 202.397C128.205 202.395 128.412 202.434 128.607 202.513C128.801 202.591 128.978 202.707 129.127 202.854C129.304 203.045 129.441 203.269 129.531 203.513C129.621 203.757 129.662 204.016 129.652 204.276C129.726 204.976 129.366 205.536 129.018 206.079C128.771 206.423 128.577 206.804 128.445 207.208C128.426 207.423 128.33 207.623 128.174 207.773C128.019 207.923 127.814 208.012 127.599 208.024V208.023ZM128.509 183.785C128.123 183.772 127.747 183.662 127.414 183.466C127.046 183.26 126.72 182.986 126.454 182.659C126.035 182.136 125.866 181.57 125.978 181.067C126.066 180.367 126.317 179.836 126.726 179.491C127.058 179.216 127.476 179.068 127.907 179.072C128.448 179.072 128.855 179.288 128.895 179.489C128.925 179.637 128.77 179.734 128.635 179.79C128.611 179.815 128.586 179.841 128.557 179.87C128.728 179.879 128.895 179.924 129.048 180.002C129.2 180.08 129.335 180.19 129.443 180.323C129.674 180.661 129.798 181.061 129.797 181.471C129.813 181.894 129.786 182.318 129.717 182.736C129.659 183.049 129.496 183.333 129.256 183.541C129.043 183.707 128.779 183.793 128.51 183.785L128.509 183.785Z" fill="#2B283A"/>
<path d="M156.784 111.795C155.629 103.459 152.986 95.3655 152.607 86.9045C152.381 83.2838 152.156 79.663 151.93 76.042C151.844 73.7806 148.907 73.0176 147.784 75.0211C145.234 72.1931 140.667 72.6097 137.183 72.6956C116.671 73.4224 97.1787 87.2901 90.1379 106.627C89.9811 107.083 90.0075 107.581 90.2116 108.018C86.9296 118.962 98.5362 126.009 106.452 130.889C109.663 134.282 113.438 137.102 117.7 139.033C122.646 141.35 128.018 142.615 133.477 142.748C134.666 142.776 135.381 141.814 135.467 140.819C137.195 140.417 140.153 140.881 141.067 139.11C151.489 134.584 158.28 123.11 156.785 111.796L156.784 111.795Z" fill="white"/>
<path d="M131.356 142.953C129.777 142.949 128.202 142.81 126.647 142.536L126.327 142.479C125.621 142.351 125.035 142.228 124.482 142.092C123.848 141.939 123.224 141.749 122.612 141.524C122.01 141.304 121.431 141.028 120.88 140.701C120.35 140.387 119.867 139.999 119.447 139.549C119.215 139.285 119.072 138.954 119.04 138.605C118.999 138.252 119.052 137.894 119.192 137.568C119.286 137.32 119.454 137.106 119.672 136.954C119.89 136.803 120.149 136.722 120.415 136.72C120.481 136.721 120.547 136.725 120.613 136.733C121.39 136.812 122.153 136.991 122.884 137.265C123.444 137.484 124.049 137.714 124.68 137.911C125.85 138.281 127.049 138.55 128.264 138.714C130.807 139.039 133.386 138.954 135.903 138.462C138.188 138.012 140.407 137.272 142.504 136.258C144.604 135.25 146.55 133.949 148.285 132.394C150.235 130.655 151.836 128.56 153.001 126.222C154.15 123.875 154.821 121.323 154.976 118.715C155.327 113.23 154.776 107.592 154.243 102.141V102.135C154.193 101.627 154.142 101.103 154.092 100.589C153.795 97.5087 153.412 94.3809 152.955 91.2924C152.621 89.0407 152.384 86.7507 152.152 84.536C152.074 83.7806 151.993 83.0012 151.909 82.2329C151.905 82.2063 151.906 82.1791 151.913 82.1531C151.921 82.1271 151.933 82.103 151.951 82.0824C151.971 82.0612 151.996 82.0446 152.024 82.0337C152.051 82.0227 152.081 82.0176 152.11 82.0187C152.161 82.0172 152.211 82.0312 152.254 82.0587C152.297 82.0863 152.33 82.1261 152.35 82.1731C152.438 82.4146 152.529 82.66 152.617 82.8975L152.621 82.9099C153.184 84.4347 153.767 86.0117 154.219 87.6048C154.703 89.3121 155.062 91.0829 155.41 92.7953L155.454 93.0123C156.066 96.0242 156.594 99.0755 157.023 102.082C157.523 101.689 158.141 101.477 158.777 101.479C159.309 101.485 159.833 101.613 160.306 101.855C160.85 102.123 161.045 102.832 160.919 103.361C160.816 103.799 160.689 104.23 160.538 104.654C160.87 104.946 161.142 105.302 161.337 105.699C161.805 106.651 161.767 107.731 161.222 108.909C161.254 108.963 161.291 109.027 161.327 109.095C162.007 110.417 161.647 111.602 161.145 112.904C161.025 113.25 160.94 113.608 160.894 113.972C160.789 114.617 160.691 115.225 160.174 115.693C159.901 116.601 159.455 117.448 158.861 118.187C158.72 118.439 158.515 118.649 158.267 118.797C158.213 120.221 158.048 121.638 157.773 123.037C157.496 124.397 157.079 125.725 156.529 127C155.977 128.278 155.31 129.504 154.538 130.662C153.763 131.824 152.896 132.921 151.945 133.944C151.001 134.96 149.982 135.904 148.897 136.768C146.822 138.42 144.524 139.772 142.072 140.783C139.617 141.787 137.037 142.455 134.403 142.769C133.392 142.891 132.374 142.953 131.356 142.953V142.953ZM109.134 132.353C107.858 132.353 106.587 131.386 105.659 130.68C105.129 130.277 104.619 129.862 104.143 129.447C104.091 129.451 104.038 129.453 103.986 129.453C103.677 129.451 103.372 129.384 103.09 129.255C102.851 129.15 102.618 129.032 102.392 128.902C102.049 128.989 101.691 129.002 101.342 128.939C100.994 128.876 100.663 128.738 100.373 128.535C99.911 128.649 99.4373 128.707 98.9618 128.708C98.6093 128.709 98.2577 128.673 97.9129 128.6C97.2486 128.45 96.6316 128.139 96.1165 127.693C95.709 127.825 95.2836 127.892 94.8554 127.893C94.1524 127.896 93.4629 127.7 92.8655 127.33C92.56 127.144 92.2841 126.913 92.0469 126.645C91.8164 126.385 91.6305 126.09 91.4965 125.769C91.3555 125.553 91.2771 125.302 91.2701 125.045V124.942C91.2379 124.942 91.2113 124.943 91.1866 124.943C90.7466 124.945 90.3102 124.863 89.9011 124.7C89.473 124.529 89.0856 124.269 88.7643 123.938C88.1574 123.321 87.804 122.499 87.7742 121.634C86.8318 121.369 86.0001 120.806 85.4026 120.031C84.9027 119.392 84.5853 118.63 84.4841 117.826C84.391 117.045 84.4835 116.253 84.7542 115.515C84.7201 115.439 84.6884 115.357 84.6601 115.274C84.238 114.685 83.9012 114.039 83.6598 113.355C83.4183 112.681 83.3027 111.968 83.3187 111.252C83.3256 111.032 83.3521 110.813 83.398 110.598C82.5114 110.126 81.968 109.332 81.9078 108.419C81.8656 107.659 82.1243 106.912 82.628 106.341C82.3811 105.765 82.2866 105.135 82.3537 104.512C82.4197 103.911 82.6379 103.337 82.9876 102.844C82.9801 102.672 82.9899 102.499 83.0169 102.329C82.982 102.154 82.9568 101.977 82.9414 101.8C82.904 101.319 82.9542 100.836 83.0897 100.374C83.2244 99.9186 83.428 99.4868 83.6935 99.0934C83.9615 98.6947 84.2787 98.3315 84.6378 98.0124C84.9951 97.6925 85.3878 97.4143 85.8081 97.1833C86.2509 96.9457 86.7125 96.7448 87.1881 96.5826C87.3188 96.5399 87.4516 96.5041 87.5861 96.4756C87.8557 96.4327 88.1146 96.3384 88.3487 96.1977C88.3432 96.1937 88.3638 96.1609 88.3901 96.1183C88.4284 96.0629 88.4597 96.0029 88.4832 95.9398L88.4902 95.909L88.4928 95.8976C88.5153 95.8059 88.5331 95.713 88.546 95.6194C88.5753 95.269 88.5798 94.9169 88.5595 94.5659C88.5558 94.457 88.5519 94.3448 88.5495 94.2342C88.4996 92.1499 88.5808 90.0646 88.7927 87.9905C88.9875 86.075 89.3567 84.1813 89.8958 82.333C90.4374 80.4842 91.1978 78.7066 92.1609 77.0381C93.7101 74.3849 95.8858 71.9776 98.628 69.882C99.9135 68.9046 101.274 68.0298 102.696 67.2656C104.123 66.5005 105.6 65.831 107.116 65.2618C110.154 64.1355 113.299 63.3253 116.503 62.8443L116.697 62.8146C118.158 62.5922 119.599 62.4212 120.978 62.3065C122.452 62.1839 123.905 62.1222 125.294 62.1222C127.762 62.1124 130.227 62.3257 132.657 62.7595C133.869 62.9809 135.068 63.2687 136.248 63.6216C137.437 63.9779 138.604 64.4061 139.741 64.904C141.143 65.5186 142.49 66.254 143.765 67.1019C144.525 67.0226 145.524 66.9298 146.507 66.9159H146.549C147.095 66.9069 147.632 67.0591 148.092 67.3535C148.313 67.4962 148.499 67.6858 148.638 67.9089C148.777 68.132 148.865 68.3831 148.896 68.6442C149.416 68.7022 149.923 68.8407 150.399 69.0547C150.855 69.2594 151.257 69.5674 151.574 69.9544C151.813 70.2555 151.981 70.6069 152.065 70.9823C152.728 71.1396 153.369 71.3765 153.974 71.6879C154.348 71.9095 154.638 72.2472 154.802 72.6494C154.966 73.0516 154.993 73.4963 154.88 73.9157C154.821 74.092 154.751 74.2674 154.674 74.4373L154.615 74.564L154.65 74.6119C154.789 74.838 154.878 75.0909 154.913 75.354C154.947 75.617 154.925 75.8843 154.849 76.1384C154.703 76.6509 154.374 77.0919 153.924 77.3778C153.244 77.8156 152.493 78.13 151.704 78.3065C151.776 78.6565 151.833 78.9672 151.875 79.2535C151.878 79.273 151.877 79.2929 151.871 79.3119C151.865 79.3308 151.856 79.3483 151.843 79.3631C151.831 79.3768 151.817 79.3879 151.801 79.3957C151.785 79.4035 151.767 79.4079 151.749 79.4084C151.73 79.4078 151.71 79.4019 151.693 79.3912C151.677 79.3805 151.663 79.3654 151.654 79.3476C151.656 79.3539 151.936 80.2237 152.356 81.179C152.381 81.2323 152.392 81.291 152.387 81.3495C152.383 81.408 152.363 81.4644 152.331 81.5133C152.3 81.5621 152.257 81.6027 152.207 81.6316C152.157 81.6605 152.101 81.6768 152.043 81.6791C151.989 81.6779 151.937 81.6615 151.892 81.6318C151.847 81.602 151.811 81.5601 151.789 81.5109C151.49 80.9224 151.22 80.3191 150.982 79.7032C150.81 79.2778 150.632 78.8373 150.43 78.4028C149.969 78.3747 149.517 78.263 149.096 78.073C148.82 77.9436 148.592 77.7317 148.442 77.4668C148.437 77.4731 148.432 77.4798 148.429 77.4867C148.425 77.4925 148.422 77.498 148.418 77.5037C147.812 78.2834 146.913 78.9202 145.671 79.4504C144.59 79.8806 143.481 80.2339 142.351 80.5078L142.34 80.5108C142.197 80.5487 142.062 80.5845 141.927 80.6213C139.564 81.235 137.159 81.6753 134.732 81.9387C131.344 82.3415 127.88 82.4842 124.529 82.6224H124.521C123.691 82.6567 122.832 82.6921 121.988 82.731C121.79 82.7398 121.589 82.7494 121.395 82.7591H121.384L121.144 82.7708C119.384 84.2806 117.215 85.2348 114.913 85.5127C114.464 85.5681 114.011 85.5955 113.559 85.5949C112.73 85.596 111.903 85.5056 111.094 85.3255C110.623 85.8076 110.034 86.1579 109.385 86.3416C109.32 87.5477 108.968 88.7207 108.356 89.7624C107.746 90.8112 106.902 91.7044 105.889 92.372L105.925 92.5156C106.213 93.6889 106.285 94.7348 106.138 95.6244C106.06 96.1237 105.896 96.6058 105.653 97.0493C105.39 97.5184 105.036 97.9305 104.612 98.2617C104.366 98.4553 104.099 98.6221 103.817 98.7591L103.879 98.9016C104.401 100.122 104.653 101.249 104.627 102.251C104.617 102.802 104.51 103.346 104.31 103.86C104.091 104.405 103.766 104.902 103.354 105.321C103.209 105.47 103.036 105.587 102.844 105.667C102.652 105.747 102.447 105.787 102.239 105.785C101.964 105.786 101.693 105.718 101.451 105.588C101.209 105.457 101.003 105.269 100.853 105.038L100.827 104.996C100.809 104.963 100.787 104.93 100.767 104.899V104.898C100.756 104.881 100.746 104.864 100.735 104.848C100.689 104.949 100.608 105.029 100.506 105.074C100.33 105.157 100.138 105.204 99.9424 105.21C99.6616 105.188 99.3905 105.098 99.152 104.948L99.1494 104.947C99.0893 104.916 99.0273 104.885 98.9604 104.853C98.3943 104.58 97.8025 104.365 97.1936 104.21C96.7054 104.082 96.2083 103.99 95.7066 103.935C92.5893 105.126 90.5292 108.792 91.0156 112.28C91.1419 113.232 91.4732 114.145 91.9866 114.957C92.2426 115.357 92.5517 115.72 92.9055 116.036C93.2646 116.356 93.6721 116.616 94.1128 116.808C94.7353 117.078 95.4061 117.217 96.0843 117.218C96.2838 117.218 96.4831 117.205 96.6809 117.179C97.0652 117.116 97.4427 117.016 97.8083 116.882C98.2454 116.709 98.7081 116.608 99.1778 116.584C99.4305 116.584 99.6814 116.627 99.9197 116.711C100.142 116.783 100.338 116.919 100.483 117.103C100.625 117.29 100.705 117.517 100.712 117.752C100.741 118.092 100.692 118.435 100.568 118.753C100.444 119.071 100.249 119.356 99.9973 119.587C100.533 120.065 101.026 120.588 101.47 121.151C101.733 121.464 101.98 121.759 102.24 122.036C103.161 123.018 104.07 123.975 105.057 124.873C105.984 125.726 106.974 126.507 108.019 127.211L108.13 127.284C108.303 127.397 108.486 127.51 108.664 127.62C109.268 127.961 109.828 128.372 110.335 128.846C110.837 129.327 111.131 129.985 111.156 130.681C111.164 130.945 111.094 131.207 110.956 131.433C110.82 131.658 110.633 131.848 110.409 131.987C110.027 132.227 109.585 132.354 109.134 132.353V132.353ZM97.8155 113.975C97.6792 113.975 97.5459 113.936 97.431 113.863C97.3161 113.789 97.2242 113.685 97.1662 113.562C96.8423 113.001 96.7193 112.347 96.8176 111.707C96.8453 111.523 96.8978 111.343 96.9738 111.172C96.9502 111.16 96.9265 111.148 96.9034 111.135C96.8701 111.118 96.8321 111.098 96.7947 111.08L96.687 111.03C96.4769 110.934 94.605 110.098 93.5732 110.098C93.3747 110.077 93.1762 110.136 93.0204 110.261C92.9826 110.301 92.9535 110.35 92.9351 110.402C92.9167 110.455 92.9093 110.511 92.9134 110.566C92.9143 110.58 92.9124 110.593 92.9081 110.605C92.9037 110.618 92.8969 110.629 92.888 110.639C92.8789 110.648 92.8682 110.655 92.8565 110.659C92.8448 110.664 92.8322 110.666 92.8196 110.666C92.7962 110.666 92.7732 110.659 92.7536 110.646C92.7339 110.634 92.7184 110.615 92.7091 110.594C92.6429 110.467 92.6108 110.324 92.6158 110.181C92.6209 110.038 92.6629 109.898 92.7378 109.776C92.9221 109.501 93.3108 109.297 93.8952 109.168C94.395 109.068 94.9036 109.019 95.4133 109.024C95.6343 109.024 95.8554 109.032 96.0191 109.047L96.0436 109.05C97.1476 109.162 98.2269 109.449 99.2413 109.899C99.76 110.128 100.244 110.427 100.68 110.79C101.084 111.122 101.403 111.545 101.609 112.026C101.665 112.169 101.684 112.325 101.664 112.477C101.644 112.63 101.586 112.775 101.494 112.9C101.388 113.061 101.244 113.195 101.075 113.29C100.906 113.385 100.717 113.438 100.524 113.445C100.426 113.446 100.329 113.43 100.237 113.398C99.709 113.218 99.3488 112.889 98.9676 112.542C98.8187 112.406 98.6654 112.266 98.4988 112.133C98.3592 112.021 98.2064 111.909 98.0185 111.781C98.0974 112.051 98.2406 112.299 98.4356 112.502L98.4811 112.544C98.5999 112.637 98.6856 112.765 98.7255 112.91C98.7653 113.056 98.7572 113.21 98.7022 113.35C98.63 113.529 98.5072 113.682 98.3489 113.791C98.1941 113.906 98.0079 113.97 97.8155 113.975V113.975Z" fill="#2B283A"/>
<path d="M128 112C133.523 112 138 108.642 138 104.5C138 100.358 133.523 97 128 97C122.477 97 118 100.358 118 104.5C118 108.642 122.477 112 128 112Z" fill="white"/>
<path d="M144.709 110C149.404 110 154 107.09 154 103.5C154 99.9101 150.194 97 145.5 97C140.806 97 137 99.9101 137 103.5C137 105.469 137.682 104.192 139.491 105.384C140.979 106.364 142.59 110 144.709 110Z" fill="white"/>
<path d="M146.938 123.999C146.684 123.999 146.421 123.986 146.167 123.972C145.979 123.962 145.784 123.952 145.591 123.947C144.71 123.925 143.805 123.909 142.902 123.899C141.718 123.887 140.511 123.881 139.315 123.881C138.725 123.881 138.123 123.883 137.527 123.886C137.286 123.887 137.04 123.888 136.795 123.888C135.484 123.888 134.098 123.871 132.677 123.837L131.984 123.819C131.629 123.81 131.263 123.805 130.91 123.8C129.598 123.782 128.241 123.764 126.958 123.516L126.888 123.504L126.89 123.5C126.81 123.47 126.74 123.419 126.689 123.351C126.638 123.284 126.608 123.204 126.602 123.121C126.596 123.056 126.612 122.992 126.647 122.937C126.682 122.882 126.734 122.839 126.795 122.814C128.224 122.168 129.831 121.853 131.385 121.548C131.59 121.508 131.801 121.467 132.008 121.425C133.609 121.105 135.356 120.841 137.349 120.619C138.939 120.442 140.697 120.294 142.723 120.168C143.615 120.112 144.553 120.062 145.591 120.016L145.743 120.008C145.863 120.002 145.983 119.994 146.1 119.986C146.387 119.967 146.685 119.948 146.972 119.948C147.579 119.922 148.181 120.069 148.704 120.369C148.995 120.544 149.234 120.791 149.397 121.084C149.631 121.507 149.69 122.002 149.561 122.466C149.432 122.931 149.125 123.329 148.704 123.579C148.438 123.74 148.145 123.855 147.839 123.918C147.542 123.977 147.24 124.004 146.938 123.999V123.999ZM140.417 117.911C139.995 117.914 139.573 117.867 139.162 117.774C138.758 117.682 138.371 117.532 138.013 117.328C137.673 117.126 137.423 116.806 137.314 116.433C137.199 116.062 137.193 115.667 137.297 115.294C137.375 114.993 137.54 114.72 137.772 114.508C138.016 114.295 138.334 114.178 138.662 114.183C138.735 114.183 138.809 114.188 138.882 114.197C139.146 114.231 139.406 114.278 139.658 114.323C140.127 114.42 140.604 114.477 141.084 114.491C141.518 114.496 141.949 114.412 142.349 114.246C142.451 114.205 142.545 114.145 142.623 114.069C142.702 113.992 142.764 113.901 142.805 113.801C142.88 113.593 142.902 113.37 142.869 113.152C142.793 112.688 142.656 112.235 142.461 111.804L142.437 111.745C142.11 110.979 141.74 110.233 141.327 109.508C141.1 109.091 140.865 108.66 140.652 108.231L140.545 108.011C140.41 107.73 140.267 107.45 140.116 107.153C139.861 106.654 139.597 106.137 139.377 105.617C139.175 106.58 138.86 107.518 138.439 108.411C137.545 110.353 135.806 111.721 133.408 112.368C132.415 112.627 131.403 112.809 130.38 112.911C129.342 113.017 128.299 113.069 127.255 113.067C126.881 113.067 126.498 113.06 126.116 113.049C124.906 113.023 123.707 112.827 122.554 112.466C121.399 112.109 120.345 111.495 119.473 110.674C118.763 109.988 118.225 109.152 117.9 108.23C117.583 107.329 117.452 106.376 117.514 105.426C117.584 104.3 117.887 103.201 118.406 102.194C118.665 101.69 118.978 101.215 119.338 100.775C119.699 100.336 120.109 99.938 120.562 99.5891C121.577 98.8146 122.706 98.193 123.91 97.7453C124.522 97.5171 125.152 97.339 125.794 97.2129C126.426 97.0878 127.069 97.0235 127.713 97.0208C128.016 97.0206 128.319 97.0362 128.62 97.0676C129.148 96.9564 129.687 96.9023 130.227 96.9063C131.168 96.9192 132.105 97.0334 133.02 97.2467C133.977 97.4531 134.899 97.7903 135.759 98.2482C136.611 98.6983 137.371 99.2965 138.002 100.013C138.093 99.7891 138.201 99.5716 138.324 99.3624C138.308 99.3549 138.294 99.3437 138.283 99.3298C138.272 99.3159 138.265 99.2998 138.262 99.2827C138.26 99.2696 138.261 99.2561 138.266 99.2435C138.271 99.231 138.278 99.2198 138.289 99.211C138.386 99.1259 138.487 99.0431 138.584 98.9629L138.593 98.9562C139.023 98.3778 139.557 97.88 140.169 97.4867L140.287 97.4095C140.805 97.0712 141.356 96.7856 141.934 96.5572C142.513 96.319 143.134 96.1892 143.762 96.1747C144.168 96.1703 144.571 96.248 144.945 96.4028C145.024 96.4365 145.098 96.4825 145.163 96.5389C145.533 96.546 145.903 96.5765 146.27 96.6302C147.742 96.8547 149.14 97.4156 150.349 98.2671C151.563 99.1078 152.55 100.224 153.225 101.518C153.963 102.959 154.179 104.468 153.851 105.881C153.522 107.294 152.657 108.561 151.353 109.539C150.702 110.032 149.99 110.446 149.235 110.77C148.48 111.094 147.678 111.301 146.857 111.384C146.619 111.407 146.409 111.418 146.217 111.418C145.881 111.424 145.547 111.38 145.225 111.286C145.477 111.796 145.655 112.336 145.754 112.893C145.835 113.347 145.848 113.81 145.793 114.268C145.741 114.689 145.615 115.098 145.421 115.477C145.224 115.854 144.961 116.193 144.642 116.48C144.292 116.792 143.894 117.048 143.462 117.239C142.508 117.672 141.47 117.901 140.417 117.912V117.911ZM125.936 98.6514L125.84 98.6826C124.941 98.9735 124.088 99.3828 123.303 99.8991C122.524 100.42 121.825 101.045 121.225 101.757C120.639 102.453 120.209 103.26 119.963 104.129C119.722 104.964 119.679 105.843 119.838 106.697C119.965 107.375 120.247 108.015 120.664 108.571C121.081 109.126 121.622 109.582 122.246 109.905C123.384 110.512 124.764 110.795 126.588 110.795C126.965 110.795 127.377 110.784 127.847 110.759L128.23 110.74C129.761 110.657 131.533 110.531 133.183 110.08C134.002 109.87 134.761 109.48 135.401 108.939C136.029 108.382 136.512 107.687 136.811 106.912L136.866 106.772C137.221 105.933 137.425 105.041 137.468 104.135C137.479 103.695 137.42 103.257 137.293 102.836C137.155 102.394 136.935 101.981 136.643 101.618C136.291 101.185 135.874 100.806 135.406 100.495C134.92 100.171 134.396 99.9052 133.845 99.7026C132.1 99.0775 130.215 98.9188 128.385 99.2427C127.81 99.3436 127.248 99.5059 126.71 99.7266C126.606 99.7712 126.494 99.7948 126.381 99.7959C126.257 99.7975 126.136 99.7649 126.031 99.7019C125.925 99.639 125.84 99.5482 125.786 99.44C125.73 99.3189 125.71 99.1845 125.73 99.0529C125.749 98.9212 125.807 98.7978 125.896 98.6971L125.936 98.6514ZM145.107 97.995C145.058 98.0428 145.003 98.0849 144.945 98.1205C144.531 98.3346 144.08 98.4698 143.614 98.5188C143.413 98.5527 143.206 98.5878 143.002 98.6371C142.387 98.7726 141.79 98.9774 141.223 99.2474C140.307 99.7008 139.425 100.216 138.582 100.788C138.764 101.073 138.924 101.37 139.06 101.678C139.423 102.529 139.583 103.45 139.529 104.37C139.941 104.735 140.325 105.128 140.68 105.546C140.823 105.707 140.972 105.873 141.12 106.032L141.576 106.522C142.091 107.074 142.633 107.669 143.132 108.275C143.403 108.604 143.717 108.987 144.012 109.375C144.051 109.259 144.106 109.149 144.177 109.048C144.277 108.894 144.415 108.767 144.577 108.678C144.74 108.589 144.923 108.54 145.11 108.537C145.201 108.538 145.292 108.548 145.382 108.569C145.528 108.605 145.672 108.649 145.813 108.701C146.047 108.798 146.298 108.853 146.553 108.863H146.578C147.117 108.853 147.652 108.759 148.161 108.584C149.215 108.251 150.171 107.676 150.948 106.907C151.34 106.518 151.623 106.036 151.768 105.509C151.897 105.011 151.914 104.492 151.819 103.986C151.601 102.936 151.123 101.954 150.426 101.127C149.764 100.309 148.953 99.6177 148.034 99.0869C147.13 98.5618 146.14 98.1924 145.107 97.9949L145.107 97.995ZM124.428 115.785C123.833 115.778 123.241 115.696 122.667 115.542C122.094 115.39 121.534 115.199 120.989 114.969C119.293 114.268 117.962 113.261 117.031 111.976C117.013 111.951 117.002 111.921 117 111.89C116.998 111.86 117.006 111.829 117.021 111.802C117.039 111.768 117.066 111.739 117.099 111.719C117.132 111.698 117.17 111.687 117.21 111.685C117.242 111.685 117.275 111.694 117.302 111.712C118.404 112.405 119.877 113.261 121.52 113.739C122.309 113.945 123.115 114.086 123.929 114.158C124.634 114.225 125.334 114.337 126.024 114.493C126.129 114.513 126.224 114.568 126.294 114.647C126.364 114.726 126.404 114.826 126.409 114.931C126.415 115.052 126.383 115.171 126.318 115.274C126.25 115.384 126.146 115.468 126.024 115.513C125.513 115.698 124.973 115.79 124.428 115.785V115.785ZM130.733 107.109C130.438 107.111 130.146 107.051 129.876 106.933C129.607 106.816 129.366 106.643 129.171 106.426C128.789 105.986 128.542 105.449 128.458 104.878C128.375 104.307 128.458 103.724 128.699 103.197C128.824 102.938 129.005 102.708 129.229 102.524C129.453 102.339 129.716 102.203 129.998 102.126C130.112 102.095 130.229 102.079 130.347 102.08C130.603 102.081 130.855 102.141 131.083 102.256C131.307 102.361 131.487 102.539 131.592 102.759L131.756 103.138L131.754 103.134C131.807 103.259 131.868 103.4 131.915 103.544L132.076 103.666C132.213 103.815 132.341 103.972 132.457 104.138C132.736 104.612 132.813 105.174 132.672 105.704C132.561 106.115 132.308 106.475 131.956 106.725C131.604 106.973 131.181 107.108 130.747 107.109H130.733ZM145.797 106.56C145.388 106.561 144.99 106.429 144.665 106.187C144.34 105.944 144.106 105.604 143.999 105.219C143.759 104.642 143.628 104.027 143.615 103.405C143.61 103.136 143.663 102.869 143.77 102.621C143.877 102.374 144.036 102.151 144.237 101.967C144.433 101.783 144.662 101.637 144.912 101.533C145.167 101.427 145.439 101.366 145.716 101.354C145.745 101.353 145.775 101.352 145.804 101.352C146.077 101.351 146.347 101.411 146.593 101.527C146.828 101.639 147.038 101.796 147.21 101.988C147.559 102.387 147.772 102.882 147.819 103.404C147.853 104.031 147.769 104.658 147.569 105.255C147.459 105.63 147.226 105.961 146.906 106.196C146.586 106.432 146.197 106.559 145.796 106.56L145.797 106.56ZM118.697 96.2046C118.225 96.2046 117.621 96.1714 117.134 95.9123C117.123 95.9072 117.114 95.8999 117.108 95.891C117.101 95.882 117.096 95.8717 117.094 95.8607C117.091 95.8466 117.092 95.8321 117.096 95.8183C117.1 95.8045 117.107 95.7916 117.116 95.7806C117.59 95.211 118.476 94.9155 119.258 94.6555C119.418 94.6017 119.569 94.5519 119.712 94.5005L119.784 94.4745C120.974 94.0367 122.034 93.6834 123.027 93.3943L123.583 93.2331C125.632 92.6163 127.718 92.1247 129.829 91.761C129.979 91.7373 130.131 91.7253 130.284 91.7252C130.783 91.7138 131.272 91.8658 131.672 92.1569C131.873 92.3117 132.04 92.5039 132.164 92.7223C132.288 92.9407 132.366 93.1809 132.394 93.4291C132.436 93.683 132.425 93.9426 132.36 94.1919C132.296 94.4412 132.179 94.675 132.019 94.8788C131.827 95.1132 131.586 95.3038 131.31 95.4371C131.018 95.5801 130.701 95.6696 130.376 95.7011C128.51 95.8946 126.588 95.9698 124.729 96.0415H124.728C124.293 96.0585 123.842 96.0761 123.401 96.0953C122.554 96.1311 121.633 96.1524 120.5 96.1621L120.017 96.1657C119.828 96.1668 119.631 96.1752 119.421 96.1836C119.185 96.1944 118.941 96.2046 118.697 96.2046ZM150.189 95.218C148.8 95.1875 147.414 95.0711 146.04 94.8694H146.039C145.641 94.8194 145.229 94.7677 144.831 94.7221C143.937 94.6202 143.026 94.4892 142.145 94.3638C140.772 94.1677 139.353 93.9651 137.958 93.862C137.603 93.8441 137.265 93.7057 137.003 93.4707C136.78 93.2601 136.635 92.9825 136.591 92.6822C136.546 92.3725 136.608 92.0569 136.766 91.7852C136.951 91.4814 137.239 91.2504 137.58 91.1328C137.812 91.0461 138.058 91.0011 138.307 91C138.785 90.9999 139.244 91.1776 139.592 91.4967C140.739 91.8083 141.925 92.0751 143.072 92.3332H143.074C143.641 92.4609 144.228 92.5928 144.801 92.7274L145.271 92.8401C145.723 92.9501 146.194 93.0571 146.648 93.1605C148.412 93.5612 150.235 93.9755 151.829 94.7406C151.866 94.7553 151.897 94.7821 151.917 94.8164C151.936 94.8507 151.943 94.8905 151.936 94.9291C151.925 94.9803 151.899 95.0271 151.861 95.0634C151.822 95.0997 151.773 95.1236 151.721 95.1319C151.212 95.1909 150.701 95.2196 150.189 95.218H150.189Z" fill="#2B283A"/>
<path d="M138.233 148.749C136.905 148.741 135.581 148.619 134.274 148.383C131.47 147.867 128.742 146.999 126.154 145.802C123.201 144.896 120.317 143.78 117.522 142.464C116.088 141.793 114.567 141.069 113.134 140.234C111.702 139.431 110.379 138.448 109.196 137.309C108.651 136.765 108.159 136.17 107.727 135.532C107.298 134.896 106.919 134.229 106.592 133.534C105.949 132.136 105.448 130.676 105.096 129.178C104.986 128.731 104.879 128.27 104.781 127.809C104.68 127.55 104.6 127.283 104.543 127.011C104.344 126.088 104.16 125.145 103.996 124.21C103.673 122.371 103.409 120.491 103.212 118.624C103.015 116.756 102.888 114.843 102.832 112.931C102.823 112.606 102.804 112.272 102.783 111.918C102.745 111.252 102.706 110.564 102.731 109.89C102.739 109.237 102.853 108.589 103.068 107.972C103.393 107.113 104.125 106.545 104.933 106.525C104.95 106.525 104.967 106.525 104.984 106.525C105.453 106.534 105.903 106.71 106.254 107.022C106.773 107.461 108.119 110.222 109.544 113.145C110.884 115.892 112.269 118.734 113.041 119.786C114.664 122.012 116.507 124.069 118.543 125.925C118.576 125.945 118.61 125.967 118.646 125.99C121.421 125.322 123.944 123.866 125.911 121.796C126.497 121.177 127.056 120.515 127.597 119.874C128.698 118.57 129.836 117.223 131.248 116.181C131.763 115.799 132.319 115.478 132.907 115.223C133.495 114.968 134.114 114.794 134.749 114.705C135.092 114.659 135.437 114.637 135.783 114.639C136.385 114.639 136.997 114.696 137.588 114.752H137.591C138.182 114.807 138.794 114.864 139.398 114.864C139.595 114.864 139.779 114.858 139.96 114.846C140.256 114.827 140.552 114.8 140.838 114.774C141.387 114.724 141.905 114.678 142.43 114.678C143.208 114.658 143.981 114.809 144.695 115.119C145.982 115.698 146.979 116.73 147.943 117.729L148.026 117.815C148.708 118.526 149.452 119.177 150.247 119.76C151.028 120.33 151.863 120.823 152.739 121.232H152.761C152.883 121.229 153.005 121.253 153.117 121.304C153.228 121.354 153.327 121.429 153.406 121.523C153.499 121.561 153.595 121.598 153.699 121.638C153.966 121.319 154.617 120.853 155.092 120.514C155.286 120.375 155.454 120.255 155.538 120.185C155.728 120.032 155.965 119.95 156.209 119.953C156.338 119.95 156.467 119.973 156.588 120.021C156.708 120.069 156.818 120.14 156.91 120.232C156.984 120.313 157.04 120.409 157.074 120.513C157.109 120.617 157.122 120.727 157.111 120.836L156.755 126.364C156.72 126.906 156.282 130.358 156.126 131.555C156 132.521 155.835 133.454 155.635 134.327C155.429 135.235 155.169 136.13 154.855 137.007C154.542 137.88 154.166 138.729 153.729 139.547C153.288 140.372 152.777 141.158 152.203 141.897C150.95 143.499 149.364 144.809 147.554 145.737C146.309 146.645 144.94 147.371 143.49 147.893C142.648 148.193 141.78 148.413 140.896 148.55C140.015 148.685 139.124 148.752 138.233 148.749ZM141.844 123.871C140.242 123.871 138.472 124.156 136.434 124.743C134.899 125.183 133.379 125.752 131.909 126.303C130.331 126.894 128.699 127.505 127.044 127.958C125.939 128.273 124.815 128.517 123.679 128.688C123.856 128.896 124.035 129.128 124.225 129.396C125.853 130.324 127.549 131.128 129.298 131.801C129.548 131.894 129.793 131.986 130.042 132.072C130.422 131.966 130.816 131.837 131.247 131.676C131.996 131.321 132.732 130.877 133.443 130.447C134.306 129.895 135.211 129.41 136.15 128.998C136.878 128.706 137.633 128.486 138.404 128.341C139.171 128.198 139.95 128.126 140.73 128.127C142.809 128.131 144.858 128.619 146.716 129.551C146.846 129.6 146.976 129.648 147.106 129.697C147.601 129.883 148.113 130.075 148.625 130.243C149.036 130.381 149.454 130.497 149.878 130.593C150.792 129.568 151.517 128.389 152.019 127.11C151.189 127.034 150.378 126.814 149.624 126.46C149.029 126.203 148.449 125.887 147.888 125.582C147.152 125.157 146.385 124.789 145.592 124.483C144.989 124.27 144.368 124.113 143.735 124.014C143.11 123.917 142.477 123.869 141.844 123.871L141.844 123.871Z" fill="#2B283A"/>
</svg>
