<svg width="230" height="280" viewBox="0 0 230 280" fill="none" xmlns="http://www.w3.org/2000/svg">
<path d="M182.943 237.69C182.212 233.562 181.542 229.425 180.933 225.277C180.644 223.308 180.362 221.337 180.109 219.363C179.931 217.98 179.661 216.398 180.602 215.374C181.926 213.932 183.129 212.698 183.291 210.633C183.444 208.69 182.787 206.572 182.376 204.686C181.514 200.73 180.441 196.824 179.256 192.955C178.052 189.024 176.732 185.129 175.392 181.242C174.14 177.608 172.937 173.941 171.306 170.454C168.21 163.836 162.974 158.937 156.503 155.665C154.893 154.851 151.611 151.946 149.929 151.295C148.383 150.697 148.388 152.444 146.867 151.785C145.651 151.259 144.519 150.558 143.838 149.384C143.098 148.108 141.245 146.325 140.962 144.841C140.363 141.695 141.012 139.017 138.766 136.649C136.773 134.546 134.094 133.106 131.321 132.333C125.223 130.632 117.089 131.821 113.41 137.488C111.653 140.194 111.038 143.466 108.667 145.674C106.596 147.603 107.06 148.921 104.378 149.915C104.226 149.971 100.108 149.088 99.9566 149.145C97.0226 148.516 94.2185 150.275 91.5267 151.294C87.5178 152.824 83.6876 154.785 80.104 157.145C72.8662 161.887 66.6672 168.045 61.5558 175.014C56.4029 182.039 52.4048 189.914 49.558 198.145C48.8671 200.144 48.2472 202.166 47.6983 204.211C47.3917 205.354 47.0637 206.54 47.4374 207.711C47.7427 208.668 48.4219 209.382 49.2195 209.956C50.3007 210.736 52.4693 211.242 52.4271 212.809C52.3948 214 51.9907 215.254 51.7934 216.431C51.5577 217.833 51.3657 219.243 51.1728 220.651C50.2952 227.061 49.6122 233.506 49.3102 239.97C49.0128 246.334 48.7662 252.829 49.2075 259.191C49.2324 259.591 49.3547 259.979 49.5636 260.321C49.5181 260.344 49.4802 260.379 49.4548 260.423C49.4294 260.467 49.4177 260.518 49.421 260.568C49.4244 260.619 49.4428 260.668 49.4738 260.708C49.5048 260.748 49.547 260.778 49.5952 260.794L50.0876 260.899C50.4509 261.171 50.8904 261.322 51.3441 261.331C51.6761 261.341 52.0079 261.356 52.3395 261.373C55.8388 262.105 59.3382 262.796 62.8832 263.319C67.1926 263.955 71.515 264.48 75.8503 264.895C84.759 265.761 93.5976 265.474 102.518 265.007C111.425 264.541 120.333 264.427 129.243 264.664C138.166 264.896 147.087 265.284 156.013 265.443C165.985 265.621 175.941 265.348 185.885 264.555C187.248 264.446 188.091 263.362 187.822 262.008C186.211 253.895 184.386 245.837 182.943 237.69Z" fill="white"/>
<path d="M91.5266 151.294L91.7214 151.219C94.3535 150.191 97.0933 148.532 99.9566 149.145C100.058 149.107 101.921 149.487 103.197 149.728L101.986 150.992L99.8481 151.403C107.223 163.574 115.945 169.66 126.014 169.66C136.084 169.66 143.725 163.574 148.936 151.403L149.648 151.207C149.743 151.229 149.837 151.259 149.929 151.295C151.611 151.945 154.893 154.85 156.503 155.664C162.974 158.936 168.21 163.836 171.306 170.453C172.883 173.824 174.06 177.363 175.267 180.878L175.392 181.241C176.732 185.128 178.052 189.022 179.256 192.953C180.39 196.655 181.42 200.39 182.262 204.169L182.376 204.685C182.786 206.571 183.444 208.689 183.291 210.632C183.241 211.306 183.062 211.964 182.763 212.57L168.177 217.818L175.126 265.212C168.761 265.485 162.39 265.562 156.012 265.442C147.087 265.283 138.166 264.895 129.242 264.662C120.596 264.438 111.958 264.538 103.328 264.964L101.134 265.077C92.6823 265.499 84.2975 265.715 75.8495 264.894L75.2738 264.837V257.906L78.2414 219.303L63.203 216.472L48.4403 209.301C47.9823 208.86 47.6381 208.314 47.4373 207.711C47.0916 206.627 47.3467 205.529 47.6302 204.465L47.6982 204.212C48.246 202.169 48.8661 200.147 49.5583 198.146C52.4049 189.915 56.4032 182.041 61.5561 175.015C66.6667 168.046 72.8658 161.888 80.1043 157.146C83.6877 154.786 87.5178 152.824 91.5266 151.294V151.294Z" fill="#2B283A"/>
<path d="M75.3266 265.419C75.2649 265.419 75.2032 265.415 75.142 265.408C74.7463 265.359 74.3827 265.165 74.1212 264.864C73.8558 264.565 73.7076 264.18 73.7042 263.78C73.6973 262.264 73.8311 260.713 73.9604 259.214V259.212C74.0148 258.58 74.0712 257.927 74.1159 257.288C74.2409 255.503 74.381 253.612 74.5692 251.157C74.9344 246.423 75.3411 241.613 75.7342 236.962V236.961C75.9601 234.287 76.1938 231.523 76.4177 228.797C76.6079 226.479 76.8278 223.96 77.11 220.871C75.0796 220.8 73.0578 220.572 71.0626 220.188C69.0795 219.805 67.1217 219.3 65.1999 218.679C63.3797 218.095 61.5166 217.4 59.5042 216.554C57.8049 215.838 55.9918 215.011 53.9597 214.025C53.859 216.309 53.6193 218.625 53.3874 220.865L53.3512 221.21C52.5828 228.639 52.0095 235.189 51.5977 241.238C51.3983 244.168 51.2307 247.298 51.0538 251.384C50.9825 253.04 50.9236 254.72 50.879 256.374C50.8637 256.936 50.8501 257.496 50.8385 258.038L50.8135 259.308C50.7936 260.096 50.7189 260.853 50.0339 261.445C49.7122 261.733 49.2978 261.896 48.8662 261.904C48.4446 261.901 48.04 261.737 47.7354 261.445C47.3716 261.11 47.1303 260.663 47.0498 260.175C46.9799 259.691 46.963 259.201 46.9994 258.713V258.712C47.004 258.588 47.0087 258.46 47.0118 258.335C47.0339 257.4 47.0611 256.44 47.0928 255.482C47.1552 253.595 47.2362 251.676 47.3338 249.78C47.6518 243.601 48.2791 237.109 49.2519 229.932L49.6004 227.388C49.914 225.109 50.2582 222.681 50.7091 220.263C51.1334 217.898 51.7052 215.561 52.421 213.268C51.8726 212.996 51.3025 212.709 50.7267 212.417C50.4319 212.268 50.1283 212.119 49.8359 211.975C49.1349 211.63 48.4102 211.273 47.7267 210.88C46.8038 210.349 46.2648 209.713 46.0786 208.934C45.8722 208.072 46.1117 207.159 46.3435 206.276L46.3445 206.272C46.3808 206.133 46.4151 206.003 46.4479 205.871L46.4689 205.785C46.6965 204.848 46.9539 203.863 47.2339 202.857C48.3351 198.916 49.6847 195.05 51.2746 191.28C54.4376 183.71 58.5698 176.583 63.5676 170.076C65.8201 167.144 68.2912 164.386 70.9597 161.827C72.3195 160.532 73.7254 159.309 75.1389 158.191C76.5877 157.043 78.0944 155.971 79.653 154.979C81.1762 154.008 82.755 153.128 84.3813 152.342C86.0083 151.558 87.6851 150.881 89.4009 150.317C91.0381 149.758 92.7275 149.365 94.4434 149.144C95.2504 149.053 96.1182 148.99 97.1741 148.944C97.2762 148.94 97.3828 148.938 97.4909 148.938C98.1005 148.95 98.7089 148.995 99.3134 149.075H99.3198C99.529 149.098 99.7453 149.122 99.9565 149.143C99.9766 149.146 99.9952 149.155 100.009 149.17C100.023 149.185 100.031 149.204 100.032 149.225C100.033 149.241 100.029 149.257 100.019 149.27C100.008 149.283 99.9938 149.291 99.9776 149.294C98.3441 149.635 96.7321 150.1 95.0858 150.586L94.3933 150.791C92.6792 151.298 90.8438 151.869 89.0347 152.606C85.5125 154.068 82.1773 155.946 79.0998 158.199C73.46 162.276 68.3047 167.542 63.7768 173.849C61.6318 176.848 59.6789 179.98 57.9298 183.226C56.1956 186.442 54.6429 189.753 53.2788 193.144C51.8095 196.79 50.5665 200.524 49.5567 204.324C49.3197 205.218 49.0853 206.155 48.8622 207.107C48.8481 207.167 48.8238 207.247 48.7955 207.34C48.6985 207.658 48.552 208.14 48.6717 208.358C48.771 208.539 49.084 208.67 49.3353 208.776C49.4272 208.815 49.5139 208.851 49.5793 208.885L50.4063 209.314C52.016 210.143 54.6998 211.508 54.9754 211.645L55.3956 211.852C59.4346 213.832 62.8198 215.23 66.0492 216.254C67.876 216.838 69.7372 217.308 71.622 217.663C73.5119 218.017 75.4267 218.222 77.3487 218.277L77.4093 217.616C77.7402 214.111 78.1855 210.369 79.1945 206.754C79.2011 206.721 79.2186 206.692 79.244 206.671C79.2694 206.65 79.3013 206.638 79.3343 206.638C79.378 206.639 79.4198 206.655 79.4523 206.684C79.4848 206.714 79.5058 206.753 79.5116 206.797C79.7718 208.888 79.8953 210.994 79.8813 213.101C79.8813 215.131 79.797 217.164 79.694 219.419C79.4596 224.563 79.1673 229.789 78.8846 234.842V234.846C78.7577 237.119 78.6261 239.47 78.5017 241.78C78.361 244.391 78.1888 247.044 78.0221 249.61V249.614C77.9511 250.708 77.8771 251.838 77.8071 252.961C77.7464 253.927 77.6952 254.918 77.6459 255.876V255.879C77.5041 258.632 77.3574 261.478 76.9604 264.221C76.9295 264.402 76.8605 264.574 76.7578 264.726C76.6552 264.879 76.5213 265.007 76.3651 265.104C76.0565 265.307 75.6959 265.416 75.3266 265.419V265.419ZM186.5 262.435C186.341 262.433 186.185 262.397 186.041 262.329L185.926 262.276C185.334 261.999 184.825 261.711 184.601 260.997C184.512 260.689 184.446 260.374 184.401 260.056C184.376 259.905 184.35 259.748 184.321 259.599C184.145 258.719 183.978 257.834 183.824 256.97C183.512 255.217 183.204 253.441 182.908 251.694L182.63 250.046C181.712 244.588 180.776 238.771 180.308 232.91C180.096 230.253 179.868 227.575 179.671 225.274L179.508 223.365C179.476 222.984 179.441 222.597 179.408 222.221V222.214C179.229 220.183 179.044 218.085 179.014 216.024L178.192 216.315L174.183 217.732C173.935 217.82 173.674 217.929 173.397 218.045C172.674 218.346 171.856 218.688 171.12 218.688C171.031 218.688 170.942 218.683 170.854 218.672C170.396 218.641 169.962 218.455 169.623 218.144C170.006 223.546 170.522 228.789 171.158 233.728C171.831 238.959 172.509 243.568 173.229 247.818C173.55 249.714 173.981 252.217 174.464 254.76C174.68 255.899 174.909 257.063 175.143 258.22C175.179 258.4 175.218 258.582 175.256 258.758C175.339 259.148 175.426 259.551 175.488 259.95C175.591 260.607 175.417 261.01 175.038 261.568C174.938 261.72 174.802 261.846 174.642 261.935C174.483 262.024 174.304 262.073 174.121 262.079C173.948 262.079 173.778 262.03 173.632 261.937C173.343 261.771 173.084 261.558 172.865 261.307C172.661 261.047 172.517 260.746 172.445 260.424C172.323 259.952 172.234 259.461 172.147 258.985L172.147 258.981C172.109 258.773 172.07 258.558 172.029 258.349C171.782 257.097 171.539 255.815 171.305 254.538C170.801 251.79 170.351 249.099 169.967 246.536C169.273 241.908 168.687 237.136 168.226 232.351C167.777 227.695 167.433 222.899 167.204 218.095C166.992 213.631 166.909 209.02 166.951 204C166.973 201.381 167.062 199.016 167.221 196.771C167.363 194.772 167.635 192.77 167.899 190.833L167.901 190.815C167.958 190.398 168.016 189.969 168.073 189.545C168.075 189.527 168.083 189.51 168.096 189.498C168.11 189.486 168.127 189.479 168.145 189.479C168.154 189.479 168.162 189.481 168.17 189.484C168.178 189.487 168.185 189.492 168.191 189.498C168.197 189.504 168.202 189.512 168.205 189.52C168.208 189.528 168.21 189.536 168.21 189.545C168.273 190.664 168.351 191.801 168.427 192.901V192.903C168.536 194.458 168.647 196.067 168.715 197.652C168.783 199.232 168.829 200.84 168.873 202.395V202.397C168.9 203.384 168.929 204.404 168.963 205.41C169.082 208.878 169.247 212.308 169.454 215.606C169.618 215.423 169.817 215.276 170.041 215.174C170.264 215.072 170.506 215.018 170.752 215.014C170.837 215.014 170.922 215.021 171.006 215.035C171.575 214.895 172.131 214.71 172.671 214.48C172.982 214.357 173.276 214.242 173.563 214.146L176.597 213.132C178.108 212.628 179.734 212.088 181.388 211.557C180.149 207.391 179.147 202.87 178.139 196.899L177.766 194.669C177.412 192.566 177.02 190.314 176.554 188.103C176.046 185.691 175.502 183.578 174.892 181.64C174.193 179.419 173.312 177.26 172.258 175.184C171.201 173.109 169.972 171.127 168.583 169.259C167.196 167.408 165.687 165.651 164.067 164.001C162.615 162.504 161.014 160.99 159.03 159.233C157.309 157.71 155.488 156.249 153.727 154.836C152.467 153.825 151.163 152.779 149.906 151.717C149.939 151.901 149.943 152.09 149.917 152.275C149.755 153.445 149.485 154.597 149.111 155.717C148.737 156.838 148.267 157.924 147.708 158.964C147.148 160.006 146.505 161.002 145.786 161.941C143.197 165.328 139.7 167.909 135.701 169.383C134.288 169.909 132.83 170.303 131.344 170.562C129.853 170.821 128.342 170.951 126.828 170.95C125.279 170.949 123.733 170.817 122.206 170.556C120.669 170.294 119.157 169.904 117.684 169.39C115.544 168.639 113.495 167.653 111.572 166.449C109.63 165.238 107.826 163.818 106.191 162.214C104.56 160.619 103.121 158.838 101.903 156.909C100.691 154.992 99.7379 152.923 99.0688 150.755C99.0625 150.738 99.0604 150.72 99.0627 150.701C99.0651 150.683 99.0719 150.666 99.0824 150.651C99.0951 150.635 99.1113 150.622 99.1298 150.613C99.1482 150.605 99.1684 150.601 99.1887 150.601C99.2107 150.601 99.2324 150.606 99.2521 150.616C99.2718 150.625 99.2889 150.64 99.302 150.657C99.4289 150.831 99.5558 151.005 99.6875 151.183L99.7442 151.26C99.739 151.217 99.7492 151.172 99.7729 151.135C99.7966 151.097 99.8324 151.069 99.8744 151.055C103.403 149.693 106.242 147.918 108.311 145.779C109.446 144.61 110.418 143.294 111.201 141.866C111.579 141.185 111.904 140.476 112.175 139.746L112.243 139.557C112.279 139.453 112.317 139.346 112.349 139.252C112.626 138.454 112.911 137.628 113.512 136.984C113.65 136.833 113.818 136.714 114.006 136.633C114.193 136.552 114.395 136.511 114.6 136.514C114.884 136.518 115.164 136.588 115.418 136.718C115.671 136.848 115.891 137.034 116.061 137.263C116.199 137.45 116.289 137.669 116.323 137.899C116.358 138.129 116.336 138.364 116.259 138.583C115.659 140.405 114.835 142.145 113.807 143.764C113.292 144.563 112.715 145.321 112.081 146.03C111.438 146.748 110.733 147.408 109.975 148.003C108.679 149.034 107.244 149.878 105.712 150.507C104.191 151.13 102.565 151.456 100.921 151.466C100.59 151.466 100.254 151.452 99.9243 151.424C99.8981 151.422 99.8726 151.415 99.8488 151.404L100.169 151.838C101.206 153.24 102.588 155.075 104.091 156.834C105.455 158.452 106.937 159.966 108.525 161.364C109.795 162.469 111.151 163.47 112.581 164.358C114.006 165.243 115.503 166.007 117.056 166.641C118.599 167.271 120.198 167.758 121.831 168.096C123.461 168.432 125.122 168.603 126.787 168.606C128.696 168.607 130.598 168.371 132.449 167.903C134.14 167.471 135.768 166.824 137.295 165.978C138.827 165.133 140.247 164.098 141.523 162.899C142.794 161.708 143.902 160.353 144.816 158.869C145.73 157.386 146.418 155.775 146.856 154.088C146.683 154.165 146.497 154.204 146.308 154.204C146.198 154.203 146.089 154.191 145.982 154.167C144.593 153.865 143.218 152.412 142.305 151.344C141.339 150.227 140.564 148.957 140.014 147.587C139.476 146.26 139.177 144.848 139.132 143.417C139.111 142.7 139.174 141.984 139.321 141.282C139.466 140.59 139.715 139.924 140.06 139.306C140.083 139.258 140.119 139.218 140.164 139.19C140.209 139.162 140.26 139.147 140.313 139.146C140.4 139.149 140.483 139.184 140.547 139.243C140.611 139.302 140.651 139.382 140.661 139.469L140.714 139.932C140.981 142.227 141.312 144.463 142.406 146.578C142.928 147.624 143.583 148.598 144.354 149.476C144.77 149.942 145.222 150.373 145.708 150.765C145.897 150.915 146.104 151.05 146.305 151.182C146.62 151.372 146.914 151.595 147.182 151.848L147.26 151.931L147.262 151.916C147.292 151.542 147.46 151.193 147.733 150.937C147.969 150.732 148.271 150.621 148.583 150.623C148.601 150.623 148.619 150.623 148.638 150.624C149.19 150.672 149.73 150.814 150.234 151.044L150.26 151.056C154.103 152.901 157.964 155.393 162.063 158.677C165.827 161.671 169.137 165.195 171.89 169.138C174.636 173.086 176.73 177.448 178.093 182.059C179.347 186.318 180.117 190.765 180.862 195.066L180.87 195.115C180.927 195.441 180.983 195.768 181.04 196.094L181.544 198.98C181.892 200.96 182.31 203.261 182.856 205.507C183.359 207.659 184.039 209.766 184.888 211.807C185.001 212.039 185.065 212.293 185.076 212.551C185.087 212.809 185.045 213.067 184.952 213.308C184.85 213.529 184.703 213.726 184.522 213.887C184.34 214.048 184.127 214.17 183.896 214.246C182.706 214.693 181.399 215.17 179.784 215.748C180.27 217.835 180.624 220.001 180.966 222.094L180.967 222.101C181.099 222.905 181.234 223.736 181.375 224.545C181.98 228.025 182.673 231.55 183.343 234.96L183.344 234.966C183.864 237.612 184.402 240.348 184.895 243.045C185.185 244.634 185.466 246.251 185.737 247.815C186.005 249.36 186.283 250.957 186.569 252.527C186.74 253.459 186.921 254.429 187.082 255.285L187.097 255.363C187.203 255.928 187.312 256.512 187.419 257.086C187.519 257.626 187.614 258.176 187.706 258.707C187.751 258.966 187.802 259.26 187.853 259.548L187.878 259.684C187.884 259.717 187.891 259.751 187.897 259.784C187.976 260.184 188.056 260.598 187.946 260.999C187.825 261.441 187.502 261.768 187.19 262.084L187.187 262.088C187.151 262.124 187.115 262.16 187.08 262.197C187.005 262.274 186.915 262.335 186.815 262.376C186.715 262.417 186.608 262.437 186.5 262.435V262.435Z" fill="#2B283A"/>
<path d="M156.131 91.4071C155.431 87.1719 157.729 86.2931 156.131 82.267C152.581 74.8071 142.905 75.1286 135.805 74.5551C127.886 74.251 119.87 75.297 112.569 78.4711C110.828 79.2297 109.147 80.1198 107.54 81.1336C106.15 82.0096 106.34 83.6751 107.218 84.5836C100.896 93.5354 104.512 105.551 99.4684 114.974C98.5367 116.658 97.3043 118.168 96.4949 119.921C95.2638 122.585 95.1849 126.402 97.9768 128.171C101.909 130.281 104.103 126.102 106.035 132.16C115.683 153.282 135.083 154.472 153.499 143.46C155.093 142.573 156.719 141.572 157.922 140.179C160.653 137.106 160.332 132.784 160.392 128.945C160.426 126.696 160.432 124.447 160.41 122.197C160.324 113.085 157.304 100.444 156.131 91.4071Z" fill="white"/>
<path d="M131.851 150.926C130.79 150.939 129.732 150.805 128.708 150.529C127.522 150.197 126.487 149.631 125.792 148.933C125.41 148.562 125.117 148.11 124.935 147.61C124.751 147.071 124.715 146.493 124.831 145.936C124.867 145.732 124.981 145.551 125.15 145.431C125.312 145.321 125.504 145.263 125.701 145.266C125.869 145.262 126.036 145.301 126.185 145.379C126.335 145.457 126.462 145.571 126.555 145.711L126.647 145.859C127.078 146.542 127.61 147.305 128.485 147.715C128.979 147.941 129.502 148.099 130.04 148.184C130.576 148.27 131.119 148.315 131.663 148.317C131.73 148.317 131.797 148.318 131.863 148.318C134.772 148.318 137.785 147.599 140.623 146.863C146.685 145.289 151.963 142.833 155.888 139.761C158.036 138.081 159.311 136.236 159.788 134.12C160.323 131.751 160.02 129.214 159.727 126.759C159.664 126.223 159.598 125.671 159.543 125.137C159.011 119.906 158.36 114.352 157.434 107.129L157.28 105.931C157.228 105.525 157.175 105.12 157.123 104.715L157.12 104.691C156.533 100.167 155.927 95.4901 155.63 90.8656C155.495 90.6828 155.405 90.4702 155.369 90.2455L155.319 89.9173C155.275 89.6609 155.268 89.3996 155.299 89.1413C155.3 88.2038 155.327 87.3124 155.378 86.416C155.387 86.2528 155.395 86.0878 155.4 85.9285C154.517 86.1232 153.582 86.2933 152.543 86.4488C148.05 87.124 143.512 87.4634 138.969 87.4642C136.717 87.4642 134.437 87.3797 132.192 87.2129C129.06 86.9795 125.759 86.5783 122.099 85.9852C120.344 85.7016 118.629 85.3918 117.002 85.0642C116.005 84.8647 115.009 84.6034 114.045 84.3507L114.033 84.3474C113.817 84.2909 113.595 84.2325 113.375 84.1757C112.11 85.9937 111.483 88.1804 111.593 90.3929C111.654 91.4331 111.984 92.4481 112.303 93.4297C112.542 94.1162 112.738 94.8168 112.89 95.5275C113.041 96.2406 113.056 96.9755 112.935 97.6942C112.85 98.2078 112.659 98.698 112.373 99.1335C112.088 99.569 111.715 99.9403 111.279 100.224C110.441 100.794 109.373 101.134 108.438 101.408L107.581 101.656C106.897 101.855 106.44 102.045 106.322 102.827C106.177 103.786 106.26 104.83 106.341 105.839C106.375 106.274 106.407 106.684 106.423 107.09C106.442 107.584 106.464 108.086 106.484 108.572V108.577C106.532 109.681 106.581 110.824 106.608 111.947C106.613 112.173 106.619 112.401 106.626 112.622C106.642 113.226 106.66 113.851 106.659 114.464C106.687 114.947 106.575 115.428 106.338 115.849C106.517 116.075 106.677 116.316 106.816 116.569C106.823 116.582 106.827 116.596 106.827 116.611C106.826 116.625 106.822 116.639 106.815 116.652C106.807 116.665 106.796 116.676 106.783 116.684C106.769 116.691 106.754 116.696 106.739 116.696C106.728 116.696 106.718 116.694 106.708 116.69C106.699 116.685 106.69 116.679 106.683 116.672C106.507 116.488 106.316 116.319 106.112 116.166C106 116.302 105.881 116.431 105.755 116.554L105.744 116.539C105.637 116.647 105.51 116.732 105.37 116.791C105.23 116.849 105.08 116.879 104.928 116.879C104.619 116.875 104.322 116.759 104.091 116.553L103.951 116.431C103.583 116.109 103.293 115.816 103.181 115.235C103.176 115.206 103.17 115.176 103.167 115.148C103.105 115.145 103.041 115.144 102.976 115.144C102.027 115.145 101.094 115.386 100.264 115.844C98.9157 116.564 97.8538 117.723 97.2541 119.129C97.4944 119.411 97.7746 119.657 98.0859 119.858C98.0939 119.863 98.1 119.87 98.1033 119.879C98.1066 119.887 98.1068 119.897 98.1041 119.906C98.1014 119.915 98.0961 119.923 98.0887 119.928C98.0813 119.934 98.0724 119.937 98.0631 119.937C98.056 119.937 98.0491 119.936 98.0428 119.932C97.7241 119.783 97.4265 119.592 97.158 119.365C96.9422 119.928 96.7908 120.514 96.7065 121.111C96.4164 123.093 96.8251 125.878 98.9294 127.205C99.7794 127.744 100.764 128.033 101.771 128.039H101.785C102.253 128.031 102.718 127.964 103.169 127.839C103.244 127.821 103.321 127.8 103.395 127.78H103.397C103.643 127.701 103.897 127.656 104.155 127.644C104.438 127.643 104.717 127.718 104.962 127.862L104.893 127.868C104.857 127.868 104.822 127.873 104.788 127.883C104.855 127.892 104.923 127.895 104.991 127.891C105.153 127.894 105.312 127.939 105.451 128.022C105.591 128.104 105.707 128.222 105.789 128.362C105.869 128.505 105.912 128.665 105.914 128.829C105.915 128.993 105.875 129.155 105.798 129.299L105.754 129.398L105.743 129.422L105.731 129.447L105.705 129.617L105.701 129.638V129.64C105.7 129.649 105.698 129.658 105.697 129.667L105.687 129.701C105.685 129.707 105.683 129.712 105.68 129.718L106.768 131.376C108.051 133.328 109.435 135.391 111.017 137.28C112.103 138.592 113.258 139.845 114.476 141.035C115.187 141.724 115.972 142.171 116.804 142.645C117.239 142.892 117.689 143.148 118.124 143.441C118.293 143.553 118.435 143.7 118.54 143.872C118.646 144.044 118.712 144.238 118.734 144.439C118.752 144.617 118.729 144.796 118.667 144.964C118.606 145.132 118.507 145.283 118.378 145.408C118.126 145.669 117.823 145.876 117.488 146.017C117.154 146.158 116.794 146.23 116.431 146.227C115.714 146.204 115.014 146.003 114.395 145.641C113.761 145.29 113.178 144.853 112.663 144.343C111.451 143.148 110.281 141.643 109.088 139.741C108.178 138.31 107.381 136.81 106.703 135.255C106.369 134.483 106.075 133.694 105.822 132.891C105.568 132.085 105.361 131.265 105.203 130.436C104.928 130.667 104.609 130.84 104.266 130.945C103.572 131.17 102.848 131.291 102.119 131.304C102.037 131.307 101.953 131.308 101.87 131.308C100.572 131.294 99.2936 130.993 98.1265 130.425C97.0494 129.912 96.1123 129.147 95.3952 128.193C94.6943 127.256 94.1894 126.186 93.9107 125.049C93.5504 123.604 93.498 122.099 93.7569 120.632C94.0009 119.174 94.5724 117.79 95.4282 116.585C95.1287 115.656 94.8859 114.71 94.7012 113.752C94.6423 113.476 94.5864 113.214 94.5288 112.959L94.414 112.461C94.0436 110.843 93.7783 109.502 93.58 108.243C93.3491 106.832 93.2071 105.409 93.1548 103.98C93.0541 100.83 93.5087 98.0838 94.544 95.5837C94.8296 94.8791 95.1647 94.1956 95.5468 93.5383C95.6475 93.3672 95.7691 93.1956 95.898 93.014C96.1633 92.6401 96.4374 92.2539 96.5366 91.8485C96.7556 90.9639 95.9133 90.041 95.1701 89.2269C94.8291 88.8832 94.5246 88.5052 94.2613 88.099C93.9167 87.5105 93.732 86.8421 93.7255 86.1602C93.7268 85.4782 93.9707 84.8189 94.4136 84.3003C94.5318 84.1597 94.6629 84.0305 94.8053 83.9145C94.3568 83.1111 94.1308 82.2026 94.1507 81.2827C94.1741 80.3397 94.4868 79.4267 95.0464 78.6673C95.8287 77.6073 96.9877 76.8877 98.2846 76.6565C98.5842 76.6062 98.8875 76.5814 99.1912 76.5825C99.7628 76.5833 100.332 76.6613 100.882 76.8144C103.249 74.6149 105.784 72.6029 108.463 70.7969C111.141 68.9923 113.965 67.413 116.904 66.0751C121.38 64.0542 126.063 62.5272 130.869 61.5211C138.065 60.0079 145.452 59.6206 152.766 60.3731C154.062 60.5088 155.347 60.737 156.61 61.0559C157.642 61.3152 158.658 61.6319 159.655 62.0045C161.348 62.6391 162.393 63.2227 162.434 63.2643C162.756 63.5707 163.103 63.8503 163.471 64.1003C164.91 65.1477 166.881 66.5825 167.249 70.4743C167.245 70.5144 166.882 74.49 166.662 75.2532C166.249 76.6846 165.742 77.8641 165.156 78.7607C164.516 79.7377 163.806 80.333 163.047 80.5299C162.914 81.5662 162.679 82.5868 162.345 83.5768C162.062 84.4427 161.669 85.2685 161.176 86.0342C160.685 86.8162 160.006 87.4622 159.2 87.9129C159.125 88.6624 158.969 89.4016 158.734 90.1175C158.618 90.4877 158.452 90.8403 158.24 91.1655C158.167 91.2924 158.07 91.4032 157.953 91.4911C157.836 91.5789 157.702 91.6419 157.56 91.6762C157.524 91.6817 157.488 91.6853 157.451 91.6888C159.104 97.6637 160.104 103.893 160.987 109.762C161.404 112.531 161.808 115.464 162.298 119.271L162.434 120.329C162.533 121.11 162.639 121.903 162.742 122.669C163.093 125.285 163.455 127.99 163.601 130.653C163.645 131.424 163.636 132.197 163.575 132.967C163.515 133.72 163.393 134.466 163.21 135.198C163.026 135.927 162.772 136.636 162.451 137.316C162.119 138.014 161.715 138.676 161.246 139.291C159.669 141.353 157.44 143.108 154.621 144.507C151.767 145.932 148.819 147.158 145.797 148.178C144.272 148.687 142.73 149.135 141.215 149.509C139.653 149.894 138.073 150.211 136.519 150.451L136.096 150.517C134.693 150.76 133.274 150.897 131.851 150.926V150.926ZM106.63 124.143C106.374 124.143 106.126 124.058 105.923 123.901C105.612 123.668 105.329 123.425 105.056 123.19C104.383 122.612 103.747 122.066 102.801 121.76C101.858 121.448 100.874 121.281 99.8816 121.263C99.5426 121.262 99.204 121.29 98.8697 121.347C98.8611 121.348 98.8524 121.349 98.8436 121.349C98.8081 121.348 98.7735 121.337 98.7442 121.317C98.7149 121.297 98.6921 121.269 98.6788 121.236C98.6692 121.21 98.6679 121.182 98.6752 121.156C98.6825 121.13 98.6979 121.107 98.7192 121.091C99.2514 120.607 99.8597 120.214 100.519 119.928C101.173 119.652 101.876 119.512 102.585 119.516C102.754 119.516 102.927 119.524 103.102 119.538C104.027 119.617 104.934 119.844 105.786 120.212C106.74 120.635 107.463 121.199 107.935 121.888C108.069 122.09 108.143 122.324 108.149 122.566C108.156 122.808 108.094 123.046 107.971 123.254C107.846 123.508 107.656 123.723 107.42 123.879C107.185 124.035 106.912 124.127 106.63 124.143V124.143Z" fill="#2B283A"/>
<path d="M131 132.787C131 128.848 136.14 128 140.577 128C145.014 128 150 129.155 150 132.787C150 136.42 144.772 137 141.517 137C138.262 137 131 136.727 131 132.787Z" fill="white"/>
<path d="M130.5 118C134.09 118 137 115.538 137 112.5C137 109.462 134.09 107 130.5 107C126.91 107 124 109.462 124 112.5C124 115.538 126.91 118 130.5 118Z" fill="white"/>
<path d="M151 118C153.761 118 156 115.538 156 112.5C156 109.462 153.761 107 151 107C148.239 107 146 109.462 146 112.5C146 115.538 148.239 118 151 118Z" fill="white"/>
<path d="M140.265 137C139.132 136.998 138 136.928 136.875 136.79L136.195 136.703C135.376 136.608 134.563 136.468 133.759 136.284C132.963 136.107 132.2 135.802 131.501 135.382C130.861 134.983 130.349 134.407 130.027 133.724C129.864 133.387 129.769 133.021 129.748 132.646C129.727 132.272 129.78 131.897 129.904 131.543C130.146 130.869 130.661 130.307 131.481 129.826C132.187 129.441 132.928 129.124 133.694 128.879L133.732 128.866C135.339 128.297 137.031 128.007 138.736 128.006C139.148 128.006 139.565 128.024 139.974 128.058C140.632 127.825 141.325 127.708 142.022 127.711C143.055 127.729 144.077 127.93 145.041 128.304L145.19 128.36C146.022 128.666 146.811 129.075 147.541 129.577C148.369 130.167 148.931 130.829 149.214 131.545C149.333 131.85 149.397 132.174 149.404 132.501C149.622 132.523 149.821 132.549 150.012 132.583C150.1 132.601 150.179 132.649 150.235 132.72C150.29 132.791 150.318 132.88 150.315 132.97C150.322 133.066 150.296 133.161 150.24 133.24C150.185 133.319 150.104 133.376 150.012 133.402C149.776 133.453 149.527 133.494 149.251 133.526C149.13 133.899 148.951 134.25 148.72 134.567C148.491 134.886 148.215 135.169 147.903 135.407C146.428 136.526 144.359 136.724 142.697 136.884C141.902 136.961 141.084 137 140.265 137ZM137.174 133.199C137.189 133.547 137.203 133.899 137.216 134.24C137.22 134.342 137.224 134.443 137.228 134.545C137.233 134.675 137.198 134.804 137.127 134.914C138.08 135.025 139.04 135.08 140 135.079H140.021C139.846 134.549 139.835 133.952 139.825 133.374V133.359C138.857 133.312 137.99 133.259 137.174 133.199ZM140.728 133.401L140.805 133.691C140.941 134.135 141.012 134.596 141.018 135.06C141.478 135.042 141.931 135.015 142.363 134.977L142.933 134.929C143.079 134.916 143.208 134.905 143.325 134.893C143.349 134.51 143.391 134.117 143.431 133.738C143.44 133.655 143.449 133.574 143.457 133.493C142.446 133.466 141.553 133.436 140.728 133.401V133.401ZM144.336 133.513C144.377 133.913 144.416 134.34 144.433 134.759C145.147 134.668 145.842 134.463 146.493 134.154C146.772 134.016 147.023 133.826 147.232 133.593C146.956 133.587 146.677 133.577 146.407 133.567C146.073 133.555 145.73 133.543 145.397 133.538C145.283 133.536 145.166 133.533 145.053 133.531H145.044L144.336 133.513L144.336 133.513ZM131.643 132.569C131.691 133.424 133.034 134.035 133.737 134.238C134.403 134.43 135.078 134.587 135.759 134.71C135.746 134.656 135.741 134.6 135.744 134.545L135.767 134.291V134.29C135.802 133.898 135.838 133.493 135.876 133.095L135.51 133.066L135.168 133.04H135.167C133.99 132.951 132.774 132.859 131.644 132.569L131.643 132.569ZM140.074 129.305C140.184 130.406 140.339 131.482 140.532 132.506L140.898 132.513C141.695 132.526 142.557 132.533 143.536 132.534V132.532C143.538 132.493 143.54 132.448 143.542 132.405C143.571 131.606 143.568 130.751 143.53 129.715C142.403 129.497 141.261 129.36 140.115 129.307L140.073 129.304L140.074 129.305ZM143.989 129.828C144.077 130.631 144.157 131.49 144.243 132.532L145.014 132.531C145.168 132.531 145.287 132.53 145.399 132.529C145.826 132.525 146.27 132.506 146.698 132.488H146.699C146.996 132.476 147.301 132.463 147.602 132.455C147.514 132.002 147.265 131.596 146.9 131.315C146.054 130.605 145.059 130.096 143.988 129.828L143.989 129.828ZM139.386 129.099C138.536 129.19 137.693 129.341 136.864 129.549C137.003 130.035 137.069 130.54 137.062 131.045C137.068 131.215 137.074 131.391 137.085 131.559C137.103 131.81 137.119 132.078 137.139 132.428C138.156 132.453 139.003 132.473 139.803 132.49C139.776 131.445 139.793 130.368 139.854 129.289L139.757 129.283C139.615 129.269 139.484 129.204 139.387 129.099L139.386 129.099ZM132.992 132.285C133.652 132.285 134.326 132.319 134.978 132.351C135.296 132.367 135.624 132.383 135.945 132.396C135.968 132.171 135.987 131.994 136.005 131.838L136.038 131.559C136.058 131.389 136.073 131.208 136.088 131.034C136.108 130.583 136.179 130.136 136.3 129.701C135.904 129.815 135.516 129.94 135.145 130.074L134.729 130.225C134.177 130.417 133.639 130.647 133.118 130.913C132.508 131.238 132.09 131.574 131.84 131.941C131.755 132.062 131.694 132.197 131.661 132.341C132.068 132.303 132.503 132.285 132.992 132.285ZM143.394 124.242C142.639 124.23 141.892 124.079 141.19 123.797C140.264 123.424 139.393 122.928 138.599 122.323C138.414 122.179 138.286 121.975 138.237 121.746C138.194 121.53 138.212 121.305 138.288 121.098C138.375 120.853 138.526 120.635 138.725 120.466C138.913 120.3 139.154 120.206 139.405 120.2C139.592 120.202 139.775 120.258 139.931 120.362C139.986 120.405 140.045 120.45 140.105 120.497L140.108 120.499C140.622 120.914 141.164 121.292 141.73 121.63C142.463 122.048 143.099 122.251 143.675 122.251C143.957 122.253 144.236 122.198 144.496 122.089C144.786 121.963 145.047 121.778 145.262 121.546C145.466 121.28 145.612 120.974 145.689 120.647C145.766 120.32 145.772 119.981 145.707 119.652C145.551 119.016 145.223 118.435 144.76 117.972C144.336 117.523 143.853 117.133 143.326 116.812C143.254 116.751 143.204 116.668 143.182 116.576C143.161 116.484 143.169 116.387 143.206 116.3C143.246 116.174 143.323 116.063 143.426 115.981C143.548 115.887 143.697 115.838 143.85 115.84C143.901 115.841 143.952 115.845 144.002 115.854C144.599 115.95 145.173 116.157 145.693 116.466C146.139 116.735 146.526 117.093 146.83 117.517C147.394 118.331 147.652 119.32 147.556 120.307C147.513 120.812 147.387 121.307 147.184 121.771C146.981 122.237 146.698 122.663 146.346 123.029C145.963 123.423 145.503 123.734 144.996 123.943C144.488 124.151 143.943 124.253 143.394 124.242V124.242ZM130.164 118.684C129.156 118.686 128.153 118.535 127.19 118.237C126.416 117.998 125.699 117.6 125.085 117.07C124.492 116.559 124.006 115.935 123.654 115.235C123.286 114.509 123.069 113.716 123.014 112.903C122.959 112.091 123.068 111.275 123.334 110.506C123.622 109.668 124.108 108.913 124.75 108.304C125.382 107.707 126.127 107.242 126.94 106.936C127.185 106.509 127.489 106.119 127.845 105.779C128.185 105.456 128.568 105.181 128.983 104.964C129.817 104.537 130.741 104.318 131.677 104.325C133.365 104.327 134.99 104.967 136.229 106.116C137.478 107.306 138.244 108.917 138.378 110.639C138.451 111.485 138.377 112.336 138.159 113.156C137.94 113.989 137.568 114.773 137.063 115.469C136.673 116.004 136.212 116.482 135.691 116.89C135.176 117.292 134.614 117.629 134.016 117.893C132.801 118.421 131.489 118.691 130.164 118.684V118.684ZM126.738 108.218C126.181 108.662 125.713 109.207 125.357 109.825C124.994 110.463 124.776 111.174 124.717 111.906C124.655 112.467 124.707 113.035 124.868 113.576C125.03 114.118 125.299 114.62 125.658 115.055C126.446 115.983 127.659 116.556 129.072 116.667C129.358 116.69 129.643 116.701 129.922 116.701C130.518 116.704 131.112 116.647 131.697 116.533C132.266 116.423 132.819 116.24 133.342 115.99C134.417 115.481 135.286 114.619 135.805 113.547C136.332 112.479 136.435 111.251 136.095 110.11C135.752 108.967 134.995 107.995 133.974 107.383C133.632 107.179 133.262 107.027 132.875 106.931C132.482 106.835 132.079 106.788 131.675 106.789C130.931 106.796 130.194 106.932 129.497 107.192C128.818 107.438 128.186 107.801 127.629 108.263C127.509 108.372 127.355 108.433 127.194 108.437C127.106 108.436 127.02 108.416 126.941 108.379C126.863 108.341 126.793 108.286 126.738 108.218V108.218ZM150.324 118.211C149.963 118.211 149.602 118.18 149.246 118.116C148.486 117.977 147.761 117.689 147.112 117.268C146.463 116.849 145.892 116.319 145.426 115.702C144.957 115.088 144.601 114.395 144.375 113.656C144.146 112.916 144.069 112.136 144.148 111.365C144.283 110.083 144.835 108.88 145.718 107.943C145.725 107.911 145.733 107.879 145.744 107.848C146.012 107.092 146.46 106.413 147.05 105.87C147.656 105.34 148.393 104.983 149.183 104.838C149.588 104.758 150 104.718 150.413 104.719C151.45 104.704 152.475 104.948 153.395 105.428C154.314 105.908 155.101 106.609 155.683 107.469C156.123 108.104 156.46 108.804 156.682 109.544C157.151 111.019 157.1 112.611 156.539 114.053C156.286 114.668 155.94 115.239 155.512 115.747C154.657 116.762 153.532 117.512 152.267 117.91C151.638 118.108 150.983 118.21 150.324 118.211V118.211ZM150.377 107.216C149.195 107.206 148.04 107.574 147.08 108.265C146.048 109.599 145.619 111.358 145.987 112.747C146.249 113.718 146.806 114.583 147.58 115.223C147.959 115.539 148.387 115.791 148.847 115.968C149.311 116.147 149.804 116.239 150.301 116.24C150.44 116.24 150.579 116.233 150.717 116.218C151.733 116.104 152.685 115.663 153.431 114.961C153.8 114.618 154.11 114.214 154.346 113.767C154.584 113.316 154.734 112.824 154.788 112.317C154.888 111.321 154.679 110.318 154.191 109.445C153.951 109.013 153.642 108.623 153.277 108.29C152.908 107.953 152.481 107.686 152.016 107.502C151.492 107.306 150.937 107.21 150.378 107.216L150.377 107.216ZM151.276 113.506C151.187 113.506 151.098 113.495 151.012 113.473C150.271 113.287 149.999 112.515 150.06 111.876C150.07 111.627 150.137 111.383 150.256 111.165C150.376 110.946 150.544 110.758 150.749 110.616C150.83 110.556 150.928 110.523 151.029 110.523C151.16 110.533 151.285 110.581 151.389 110.661C151.494 110.74 151.574 110.848 151.619 110.971L151.69 111.118C151.727 111.196 151.766 111.278 151.767 111.281L151.781 111.32C151.795 111.347 151.812 111.372 151.828 111.397V111.398L151.841 111.418C151.854 111.427 151.955 111.552 151.992 111.599L152.006 111.617C152.221 111.848 152.336 112.154 152.326 112.47C152.322 112.746 152.21 113.011 152.013 113.205C151.816 113.399 151.551 113.507 151.275 113.507L151.276 113.506ZM132.133 113.441C131.939 113.433 131.75 113.379 131.581 113.283C131.412 113.187 131.268 113.052 131.161 112.889C130.762 112.349 130.883 111.208 131.389 110.747C131.544 110.603 131.747 110.523 131.958 110.522C132.058 110.522 132.158 110.542 132.251 110.58C132.344 110.619 132.429 110.675 132.5 110.746C132.605 110.86 132.693 110.988 132.761 111.128C132.792 111.186 132.824 111.246 132.861 111.305L132.919 111.397L132.949 111.441C133.08 111.612 133.171 111.81 133.214 112.021C133.26 112.287 133.23 112.56 133.128 112.809C133.018 113.056 132.815 113.25 132.564 113.349C132.428 113.408 132.281 113.44 132.133 113.441ZM123.832 106.249C123.785 106.25 123.738 106.242 123.695 106.223C123.652 106.205 123.613 106.177 123.581 106.142C122.922 105.394 123.192 104.35 123.536 103.606C123.935 102.771 124.49 102.019 125.171 101.392C125.914 100.747 126.747 100.214 127.645 99.8127C128.567 99.3743 129.569 99.1325 130.588 99.1029C131.019 99.099 131.448 99.1627 131.859 99.2915C132.206 99.4098 132.505 99.6382 132.711 99.9421C132.923 100.24 133.048 100.591 133.073 100.956C133.101 101.244 133.037 101.533 132.89 101.783C132.743 102.032 132.521 102.228 132.256 102.343C131.46 102.708 130.588 102.821 129.744 102.93C128.878 103.042 127.982 103.158 127.154 103.545C126.333 103.929 125.756 104.346 125.341 104.857C125.265 104.95 125.191 105.046 125.113 105.148C124.797 105.56 124.471 105.985 124.033 106.2C123.971 106.231 123.902 106.248 123.832 106.249V106.249ZM154.718 104.607C154.485 104.606 154.257 104.543 154.056 104.424C153.618 104.17 153.311 103.758 153.014 103.359C152.815 103.073 152.589 102.806 152.339 102.563C151.818 102.091 151.216 101.717 150.564 101.458C149.858 101.175 149.107 101.026 148.347 101.019H148.303C147.95 101.031 147.599 101.076 147.255 101.155C147.029 101.198 146.794 101.243 146.567 101.268C146.57 101.272 146.571 101.276 146.571 101.281C146.571 101.285 146.57 101.289 146.567 101.293C146.555 101.313 146.506 101.324 146.427 101.324C146.244 101.319 146.063 101.288 145.889 101.233C145.68 101.145 145.699 100.883 145.759 100.739C145.909 100.385 146.248 100.056 146.765 99.7634C147.699 99.2525 148.747 98.9898 149.81 99.0003C150.278 99.0014 150.744 99.0426 151.204 99.1235C152.235 99.3013 153.211 99.7134 154.058 100.328L154.153 100.399C154.644 100.751 155.086 101.167 155.468 101.636C155.89 102.182 156.091 102.73 156.066 103.266C156.05 103.628 155.896 103.97 155.638 104.222C155.393 104.466 155.062 104.604 154.717 104.607L154.718 104.607Z" fill="#2B283A"/>
</svg>
