<svg width="230" height="280" viewBox="0 0 230 280" fill="none" xmlns="http://www.w3.org/2000/svg">
<path d="M182.943 237.69C182.212 233.562 181.542 229.425 180.933 225.277C180.644 223.308 180.362 221.337 180.109 219.363C179.931 217.98 179.661 216.398 180.602 215.374C181.926 213.932 183.129 212.698 183.291 210.633C183.444 208.69 182.787 206.572 182.376 204.686C181.514 200.73 180.441 196.824 179.256 192.955C178.052 189.024 176.732 185.129 175.392 181.242C174.14 177.608 172.937 173.941 171.306 170.454C168.21 163.836 162.974 158.937 156.503 155.665C154.893 154.851 151.611 151.946 149.929 151.295C148.383 150.697 148.388 152.444 146.867 151.785C145.651 151.259 144.519 150.558 143.838 149.384C143.098 148.108 141.245 146.325 140.962 144.841C140.363 141.695 141.012 139.017 138.766 136.649C136.773 134.546 134.094 133.106 131.321 132.333C125.223 130.632 117.089 131.821 113.41 137.488C111.653 140.194 111.038 143.466 108.667 145.674C106.596 147.603 107.06 148.921 104.378 149.915C104.226 149.971 100.108 149.088 99.9566 149.145C97.0226 148.516 94.2185 150.275 91.5267 151.294C87.5178 152.824 83.6876 154.785 80.104 157.145C72.8662 161.887 66.6672 168.045 61.5558 175.014C56.4029 182.039 52.4048 189.914 49.558 198.145C48.8671 200.144 48.2472 202.166 47.6983 204.211C47.3917 205.354 47.0637 206.54 47.4374 207.711C47.7427 208.668 48.4219 209.382 49.2195 209.956C50.3007 210.736 52.4693 211.242 52.4271 212.809C52.3948 214 51.9907 215.254 51.7934 216.431C51.5577 217.833 51.3657 219.243 51.1728 220.651C50.2952 227.061 49.6122 233.506 49.3102 239.97C49.0128 246.334 48.7662 252.829 49.2075 259.191C49.2324 259.591 49.3547 259.979 49.5636 260.321C49.5181 260.344 49.4802 260.379 49.4548 260.423C49.4294 260.467 49.4177 260.518 49.421 260.568C49.4244 260.619 49.4428 260.668 49.4738 260.708C49.5048 260.748 49.547 260.778 49.5952 260.794L50.0876 260.899C50.4509 261.171 50.8904 261.322 51.3441 261.331C51.6761 261.341 52.0079 261.356 52.3395 261.373C55.8388 262.105 59.3382 262.796 62.8832 263.319C67.1926 263.955 71.515 264.48 75.8503 264.895C84.759 265.761 93.5976 265.474 102.518 265.007C111.425 264.541 120.333 264.427 129.243 264.664C138.166 264.896 147.087 265.284 156.013 265.443C165.985 265.621 175.941 265.348 185.885 264.555C187.248 264.446 188.091 263.362 187.822 262.008C186.211 253.895 184.386 245.837 182.943 237.69Z" fill="white"/>
<path d="M91.5266 151.294L91.7214 151.219C94.3535 150.191 97.0933 148.532 99.9566 149.145C100.058 149.107 101.921 149.487 103.197 149.728L101.986 150.992L99.8481 151.403C107.223 163.574 115.945 169.66 126.014 169.66C136.084 169.66 143.725 163.574 148.936 151.403L149.648 151.207C149.743 151.229 149.837 151.259 149.929 151.295C151.611 151.945 154.893 154.85 156.503 155.664C162.974 158.936 168.21 163.836 171.306 170.453C172.883 173.824 174.06 177.363 175.267 180.878L175.392 181.241C176.732 185.128 178.052 189.022 179.256 192.953C180.39 196.655 181.42 200.39 182.262 204.169L182.376 204.685C182.786 206.571 183.444 208.689 183.291 210.632C183.241 211.306 183.062 211.964 182.763 212.57L168.177 217.818L175.126 265.212C168.761 265.485 162.39 265.562 156.012 265.442C147.087 265.283 138.166 264.895 129.242 264.662C120.596 264.438 111.958 264.538 103.328 264.964L101.134 265.077C92.6823 265.499 84.2975 265.715 75.8495 264.894L75.2738 264.837V257.906L78.2414 219.303L63.203 216.472L48.4403 209.301C47.9823 208.86 47.6381 208.314 47.4373 207.711C47.0916 206.627 47.3467 205.529 47.6302 204.465L47.6982 204.212C48.246 202.169 48.8661 200.147 49.5583 198.146C52.4049 189.915 56.4032 182.041 61.5561 175.015C66.6667 168.046 72.8658 161.888 80.1043 157.146C83.6877 154.786 87.5178 152.824 91.5266 151.294V151.294Z" fill="#2B283A"/>
<path d="M75.3266 265.419C75.2649 265.419 75.2032 265.415 75.142 265.408C74.7463 265.359 74.3827 265.165 74.1212 264.864C73.8558 264.565 73.7076 264.18 73.7042 263.78C73.6973 262.264 73.8311 260.713 73.9604 259.214V259.212C74.0148 258.58 74.0712 257.927 74.1159 257.288C74.2409 255.503 74.381 253.612 74.5692 251.157C74.9344 246.423 75.3411 241.613 75.7342 236.962V236.961C75.9601 234.287 76.1938 231.523 76.4177 228.797C76.6079 226.479 76.8278 223.96 77.11 220.871C75.0796 220.8 73.0578 220.572 71.0626 220.188C69.0795 219.805 67.1217 219.3 65.1999 218.679C63.3797 218.095 61.5166 217.4 59.5042 216.554C57.8049 215.838 55.9918 215.011 53.9597 214.025C53.859 216.309 53.6193 218.625 53.3874 220.865L53.3512 221.21C52.5828 228.639 52.0095 235.189 51.5977 241.238C51.3983 244.168 51.2307 247.298 51.0538 251.384C50.9825 253.04 50.9236 254.72 50.879 256.374C50.8637 256.936 50.8501 257.496 50.8385 258.038L50.8135 259.308C50.7936 260.096 50.7189 260.853 50.0339 261.445C49.7122 261.733 49.2978 261.896 48.8662 261.904C48.4446 261.901 48.04 261.737 47.7354 261.445C47.3716 261.11 47.1303 260.663 47.0498 260.175C46.9799 259.691 46.963 259.201 46.9994 258.713V258.712C47.004 258.588 47.0087 258.46 47.0118 258.335C47.0339 257.4 47.0611 256.44 47.0928 255.482C47.1552 253.595 47.2362 251.676 47.3338 249.78C47.6518 243.601 48.2791 237.109 49.2519 229.932L49.6004 227.388C49.914 225.109 50.2582 222.681 50.7091 220.263C51.1334 217.898 51.7052 215.561 52.421 213.268C51.8726 212.996 51.3025 212.709 50.7267 212.417C50.4319 212.268 50.1283 212.119 49.8359 211.975C49.1349 211.63 48.4102 211.273 47.7267 210.88C46.8038 210.349 46.2648 209.713 46.0786 208.934C45.8722 208.072 46.1117 207.159 46.3435 206.276L46.3445 206.272C46.3808 206.133 46.4151 206.003 46.4479 205.871L46.4689 205.785C46.6965 204.848 46.9539 203.863 47.2339 202.857C48.3351 198.916 49.6847 195.05 51.2746 191.28C54.4376 183.71 58.5698 176.583 63.5676 170.076C65.8201 167.144 68.2912 164.386 70.9597 161.827C72.3195 160.532 73.7254 159.309 75.1389 158.191C76.5877 157.043 78.0944 155.971 79.653 154.979C81.1762 154.008 82.755 153.128 84.3813 152.342C86.0083 151.558 87.6851 150.881 89.4009 150.317C91.0381 149.758 92.7275 149.365 94.4434 149.144C95.2504 149.053 96.1182 148.99 97.1741 148.944C97.2762 148.94 97.3828 148.938 97.4909 148.938C98.1005 148.95 98.7089 148.995 99.3134 149.075H99.3198C99.529 149.098 99.7453 149.122 99.9565 149.143C99.9766 149.146 99.9952 149.155 100.009 149.17C100.023 149.185 100.031 149.204 100.032 149.225C100.033 149.241 100.029 149.257 100.019 149.27C100.008 149.283 99.9938 149.291 99.9776 149.294C98.3441 149.635 96.7321 150.1 95.0858 150.586L94.3933 150.791C92.6792 151.298 90.8438 151.869 89.0347 152.606C85.5125 154.068 82.1773 155.946 79.0998 158.199C73.46 162.276 68.3047 167.542 63.7768 173.849C61.6318 176.848 59.6789 179.98 57.9298 183.226C56.1956 186.442 54.6429 189.753 53.2788 193.144C51.8095 196.79 50.5665 200.524 49.5567 204.324C49.3197 205.218 49.0853 206.155 48.8622 207.107C48.8481 207.167 48.8238 207.247 48.7955 207.34C48.6985 207.658 48.552 208.14 48.6717 208.358C48.771 208.539 49.084 208.67 49.3353 208.776C49.4272 208.815 49.5139 208.851 49.5793 208.885L50.4063 209.314C52.016 210.143 54.6998 211.508 54.9754 211.645L55.3956 211.852C59.4346 213.832 62.8198 215.23 66.0492 216.254C67.876 216.838 69.7372 217.308 71.622 217.663C73.5119 218.017 75.4267 218.222 77.3487 218.277L77.4093 217.616C77.7402 214.111 78.1855 210.369 79.1945 206.754C79.2011 206.721 79.2186 206.692 79.244 206.671C79.2694 206.65 79.3013 206.638 79.3343 206.638C79.378 206.639 79.4198 206.655 79.4523 206.684C79.4848 206.714 79.5058 206.753 79.5116 206.797C79.7718 208.888 79.8953 210.994 79.8813 213.101C79.8813 215.131 79.797 217.164 79.694 219.419C79.4596 224.563 79.1673 229.789 78.8846 234.842V234.846C78.7577 237.119 78.6261 239.47 78.5017 241.78C78.361 244.391 78.1888 247.044 78.0221 249.61V249.614C77.9511 250.708 77.8771 251.838 77.8071 252.961C77.7464 253.927 77.6952 254.918 77.6459 255.876V255.879C77.5041 258.632 77.3574 261.478 76.9604 264.221C76.9295 264.402 76.8605 264.574 76.7578 264.726C76.6552 264.879 76.5213 265.007 76.3651 265.104C76.0565 265.307 75.6959 265.416 75.3266 265.419V265.419ZM186.5 262.435C186.341 262.433 186.185 262.397 186.041 262.329L185.926 262.276C185.334 261.999 184.825 261.711 184.601 260.997C184.512 260.689 184.446 260.374 184.401 260.056C184.376 259.905 184.35 259.748 184.321 259.599C184.145 258.719 183.978 257.834 183.824 256.97C183.512 255.217 183.204 253.441 182.908 251.694L182.63 250.046C181.712 244.588 180.776 238.771 180.308 232.91C180.096 230.253 179.868 227.575 179.671 225.274L179.508 223.365C179.476 222.984 179.441 222.597 179.408 222.221V222.214C179.229 220.183 179.044 218.085 179.014 216.024L178.192 216.315L174.183 217.732C173.935 217.82 173.674 217.929 173.397 218.045C172.674 218.346 171.856 218.688 171.12 218.688C171.031 218.688 170.942 218.683 170.854 218.672C170.396 218.641 169.962 218.455 169.623 218.144C170.006 223.546 170.522 228.789 171.158 233.728C171.831 238.959 172.509 243.568 173.229 247.818C173.55 249.714 173.981 252.217 174.464 254.76C174.68 255.899 174.909 257.063 175.143 258.22C175.179 258.4 175.218 258.582 175.256 258.758C175.339 259.148 175.426 259.551 175.488 259.95C175.591 260.607 175.417 261.01 175.038 261.568C174.938 261.72 174.802 261.846 174.642 261.935C174.483 262.024 174.304 262.073 174.121 262.079C173.948 262.079 173.778 262.03 173.632 261.937C173.343 261.771 173.084 261.558 172.865 261.307C172.661 261.047 172.517 260.746 172.445 260.424C172.323 259.952 172.234 259.461 172.147 258.985L172.147 258.981C172.109 258.773 172.07 258.558 172.029 258.349C171.782 257.097 171.539 255.815 171.305 254.538C170.801 251.79 170.351 249.099 169.967 246.536C169.273 241.908 168.687 237.136 168.226 232.351C167.777 227.695 167.433 222.899 167.204 218.095C166.992 213.631 166.909 209.02 166.951 204C166.973 201.381 167.062 199.016 167.221 196.771C167.363 194.772 167.635 192.77 167.899 190.833L167.901 190.815C167.958 190.398 168.016 189.969 168.073 189.545C168.075 189.527 168.083 189.51 168.096 189.498C168.11 189.486 168.127 189.479 168.145 189.479C168.154 189.479 168.162 189.481 168.17 189.484C168.178 189.487 168.185 189.492 168.191 189.498C168.197 189.504 168.202 189.512 168.205 189.52C168.208 189.528 168.21 189.536 168.21 189.545C168.273 190.664 168.351 191.801 168.427 192.901V192.903C168.536 194.458 168.647 196.067 168.715 197.652C168.783 199.232 168.829 200.84 168.873 202.395V202.397C168.9 203.384 168.929 204.404 168.963 205.41C169.082 208.878 169.247 212.308 169.454 215.606C169.618 215.423 169.817 215.276 170.041 215.174C170.264 215.072 170.506 215.018 170.752 215.014C170.837 215.014 170.922 215.021 171.006 215.035C171.575 214.895 172.131 214.71 172.671 214.48C172.982 214.357 173.276 214.242 173.563 214.146L176.597 213.132C178.108 212.628 179.734 212.088 181.388 211.557C180.149 207.391 179.147 202.87 178.139 196.899L177.766 194.669C177.412 192.566 177.02 190.314 176.554 188.103C176.046 185.691 175.502 183.578 174.892 181.64C174.193 179.419 173.312 177.26 172.258 175.184C171.201 173.109 169.972 171.127 168.583 169.259C167.196 167.408 165.687 165.651 164.067 164.001C162.615 162.504 161.014 160.99 159.03 159.233C157.309 157.71 155.488 156.249 153.727 154.836C152.467 153.825 151.163 152.779 149.906 151.717C149.939 151.901 149.943 152.09 149.917 152.275C149.755 153.445 149.485 154.597 149.111 155.717C148.737 156.838 148.267 157.924 147.708 158.964C147.148 160.006 146.505 161.002 145.786 161.941C143.197 165.328 139.7 167.909 135.701 169.383C134.288 169.909 132.83 170.303 131.344 170.562C129.853 170.821 128.342 170.951 126.828 170.95C125.279 170.949 123.733 170.817 122.206 170.556C120.669 170.294 119.157 169.904 117.684 169.39C115.544 168.639 113.495 167.653 111.572 166.449C109.63 165.238 107.826 163.818 106.191 162.214C104.56 160.619 103.121 158.838 101.903 156.909C100.691 154.992 99.7379 152.923 99.0688 150.755C99.0625 150.738 99.0604 150.72 99.0627 150.701C99.0651 150.683 99.0719 150.666 99.0824 150.651C99.0951 150.635 99.1113 150.622 99.1298 150.613C99.1482 150.605 99.1684 150.601 99.1887 150.601C99.2107 150.601 99.2324 150.606 99.2521 150.616C99.2718 150.625 99.2889 150.64 99.302 150.657C99.4289 150.831 99.5558 151.005 99.6875 151.183L99.7442 151.26C99.739 151.217 99.7492 151.172 99.7729 151.135C99.7966 151.097 99.8324 151.069 99.8744 151.055C103.403 149.693 106.242 147.918 108.311 145.779C109.446 144.61 110.418 143.294 111.201 141.866C111.579 141.185 111.904 140.476 112.175 139.746L112.243 139.557C112.279 139.453 112.317 139.346 112.349 139.252C112.626 138.454 112.911 137.628 113.512 136.984C113.65 136.833 113.818 136.714 114.006 136.633C114.193 136.552 114.395 136.511 114.6 136.514C114.884 136.518 115.164 136.588 115.418 136.718C115.671 136.848 115.891 137.034 116.061 137.263C116.199 137.45 116.289 137.669 116.323 137.899C116.358 138.129 116.336 138.364 116.259 138.583C115.659 140.405 114.835 142.145 113.807 143.764C113.292 144.563 112.715 145.321 112.081 146.03C111.438 146.748 110.733 147.408 109.975 148.003C108.679 149.034 107.244 149.878 105.712 150.507C104.191 151.13 102.565 151.456 100.921 151.466C100.59 151.466 100.254 151.452 99.9243 151.424C99.8981 151.422 99.8726 151.415 99.8488 151.404L100.169 151.838C101.206 153.24 102.588 155.075 104.091 156.834C105.455 158.452 106.937 159.966 108.525 161.364C109.795 162.469 111.151 163.47 112.581 164.358C114.006 165.243 115.503 166.007 117.056 166.641C118.599 167.271 120.198 167.758 121.831 168.096C123.461 168.432 125.122 168.603 126.787 168.606C128.696 168.607 130.598 168.371 132.449 167.903C134.14 167.471 135.768 166.824 137.295 165.978C138.827 165.133 140.247 164.098 141.523 162.899C142.794 161.708 143.902 160.353 144.816 158.869C145.73 157.386 146.418 155.775 146.856 154.088C146.683 154.165 146.497 154.204 146.308 154.204C146.198 154.203 146.089 154.191 145.982 154.167C144.593 153.865 143.218 152.412 142.305 151.344C141.339 150.227 140.564 148.957 140.014 147.587C139.476 146.26 139.177 144.848 139.132 143.417C139.111 142.7 139.174 141.984 139.321 141.282C139.466 140.59 139.715 139.924 140.06 139.306C140.083 139.258 140.119 139.218 140.164 139.19C140.209 139.162 140.26 139.147 140.313 139.146C140.4 139.149 140.483 139.184 140.547 139.243C140.611 139.302 140.651 139.382 140.661 139.469L140.714 139.932C140.981 142.227 141.312 144.463 142.406 146.578C142.928 147.624 143.583 148.598 144.354 149.476C144.77 149.942 145.222 150.373 145.708 150.765C145.897 150.915 146.104 151.05 146.305 151.182C146.62 151.372 146.914 151.595 147.182 151.848L147.26 151.931L147.262 151.916C147.292 151.542 147.46 151.193 147.733 150.937C147.969 150.732 148.271 150.621 148.583 150.623C148.601 150.623 148.619 150.623 148.638 150.624C149.19 150.672 149.73 150.814 150.234 151.044L150.26 151.056C154.103 152.901 157.964 155.393 162.063 158.677C165.827 161.671 169.137 165.195 171.89 169.138C174.636 173.086 176.73 177.448 178.093 182.059C179.347 186.318 180.117 190.765 180.862 195.066L180.87 195.115C180.927 195.441 180.983 195.768 181.04 196.094L181.544 198.98C181.892 200.96 182.31 203.261 182.856 205.507C183.359 207.659 184.039 209.766 184.888 211.807C185.001 212.039 185.065 212.293 185.076 212.551C185.087 212.809 185.045 213.067 184.952 213.308C184.85 213.529 184.703 213.726 184.522 213.887C184.34 214.048 184.127 214.17 183.896 214.246C182.706 214.693 181.399 215.17 179.784 215.748C180.27 217.835 180.624 220.001 180.966 222.094L180.967 222.101C181.099 222.905 181.234 223.736 181.375 224.545C181.98 228.025 182.673 231.55 183.343 234.96L183.344 234.966C183.864 237.612 184.402 240.348 184.895 243.045C185.185 244.634 185.466 246.251 185.737 247.815C186.005 249.36 186.283 250.957 186.569 252.527C186.74 253.459 186.921 254.429 187.082 255.285L187.097 255.363C187.203 255.928 187.312 256.512 187.419 257.086C187.519 257.626 187.614 258.176 187.706 258.707C187.751 258.966 187.802 259.26 187.853 259.548L187.878 259.684C187.884 259.717 187.891 259.751 187.897 259.784C187.976 260.184 188.056 260.598 187.946 260.999C187.825 261.441 187.502 261.768 187.19 262.084L187.187 262.088C187.151 262.124 187.115 262.16 187.08 262.197C187.005 262.274 186.915 262.335 186.815 262.376C186.715 262.417 186.608 262.437 186.5 262.435V262.435Z" fill="#2B283A"/>
<path d="M156.132 91.4071C155.432 87.1719 157.729 86.2931 156.132 82.267C152.581 74.8071 142.906 75.1286 135.805 74.5551C127.886 74.251 119.871 75.297 112.57 78.4711C110.828 79.2297 109.147 80.1198 107.541 81.1336C106.15 82.0096 106.341 83.6751 107.218 84.5836C100.897 93.5354 104.512 105.551 99.4689 114.974C98.5372 116.658 97.3048 118.168 96.4954 119.921C95.2643 122.585 95.1854 126.402 97.9773 128.171C101.909 130.281 104.104 126.102 106.036 132.16C115.684 153.282 135.084 154.472 153.5 143.46C155.093 142.573 156.72 141.572 157.923 140.179C160.654 137.106 160.332 132.784 160.393 128.945C160.426 126.696 160.432 124.447 160.411 122.197C160.325 113.085 157.305 100.444 156.132 91.4071Z" fill="white"/>
<path d="M131.851 150.926C130.79 150.939 129.732 150.805 128.708 150.529C127.523 150.197 126.487 149.631 125.792 148.933C125.411 148.562 125.118 148.11 124.935 147.61C124.751 147.071 124.715 146.493 124.831 145.936C124.867 145.732 124.982 145.551 125.15 145.431C125.313 145.321 125.505 145.263 125.701 145.266C125.87 145.262 126.036 145.301 126.186 145.379C126.335 145.457 126.462 145.571 126.556 145.711L126.648 145.859C127.078 146.542 127.611 147.305 128.485 147.715C128.98 147.941 129.503 148.099 130.04 148.184C130.577 148.27 131.12 148.315 131.663 148.317C131.73 148.317 131.798 148.318 131.864 148.318C134.772 148.318 137.786 147.599 140.624 146.863C146.685 145.289 151.964 142.833 155.888 139.761C158.036 138.081 159.312 136.236 159.788 134.12C160.323 131.751 160.02 129.214 159.728 126.759C159.664 126.223 159.598 125.671 159.544 125.137C159.011 119.906 158.361 114.352 157.435 107.129L157.281 105.931C157.228 105.525 157.176 105.12 157.123 104.715L157.12 104.691C156.534 100.167 155.927 95.4901 155.631 90.8656C155.495 90.6828 155.406 90.4702 155.37 90.2455L155.319 89.9173C155.276 89.6609 155.269 89.3996 155.299 89.1413C155.301 88.2038 155.327 87.3124 155.379 86.416C155.388 86.2528 155.395 86.0878 155.401 85.9285C154.517 86.1232 153.582 86.2933 152.543 86.4488C148.05 87.124 143.513 87.4634 138.969 87.4642C136.717 87.4642 134.438 87.3797 132.193 87.2129C129.061 86.9795 125.759 86.5783 122.099 85.9852C120.345 85.7016 118.63 85.3918 117.002 85.0642C116.005 84.8647 115.009 84.6034 114.046 84.3507L114.033 84.3474C113.818 84.2909 113.595 84.2325 113.376 84.1757C112.11 85.9937 111.483 88.1804 111.594 90.3929C111.655 91.4331 111.985 92.4481 112.304 93.4297C112.542 94.1162 112.739 94.8168 112.891 95.5275C113.041 96.2406 113.056 96.9755 112.935 97.6942C112.85 98.2078 112.659 98.698 112.374 99.1335C112.089 99.569 111.716 99.9403 111.279 100.224C110.441 100.794 109.374 101.134 108.439 101.408L107.581 101.656C106.898 101.855 106.441 102.045 106.323 102.827C106.178 103.786 106.261 104.83 106.341 105.839C106.375 106.274 106.408 106.684 106.423 107.09C106.443 107.584 106.464 108.086 106.485 108.572V108.577C106.532 109.681 106.581 110.824 106.608 111.947C106.614 112.173 106.62 112.401 106.626 112.622C106.643 113.226 106.66 113.851 106.659 114.464C106.687 114.947 106.576 115.428 106.338 115.849C106.518 116.075 106.678 116.316 106.817 116.569C106.824 116.582 106.827 116.596 106.827 116.611C106.827 116.625 106.823 116.639 106.815 116.652C106.807 116.665 106.796 116.676 106.783 116.684C106.77 116.691 106.755 116.696 106.739 116.696C106.729 116.696 106.719 116.694 106.709 116.69C106.699 116.685 106.691 116.679 106.684 116.672C106.507 116.488 106.316 116.319 106.112 116.166C106.001 116.302 105.881 116.431 105.755 116.554L105.744 116.539C105.637 116.647 105.51 116.732 105.37 116.791C105.23 116.849 105.08 116.879 104.928 116.879C104.619 116.875 104.322 116.759 104.091 116.553L103.951 116.431C103.583 116.109 103.293 115.816 103.182 115.235C103.176 115.206 103.171 115.176 103.167 115.148C103.105 115.145 103.041 115.144 102.976 115.144C102.028 115.145 101.095 115.386 100.264 115.844C98.9161 116.564 97.8543 117.723 97.2545 119.129C97.4949 119.411 97.7751 119.657 98.0864 119.858C98.0944 119.863 98.1005 119.87 98.1038 119.879C98.1071 119.887 98.1073 119.897 98.1045 119.906C98.1019 119.915 98.0966 119.923 98.0892 119.928C98.0818 119.934 98.0729 119.937 98.0636 119.937C98.0565 119.937 98.0496 119.936 98.0433 119.932C97.7245 119.783 97.427 119.592 97.1585 119.365C96.9427 119.928 96.7913 120.514 96.707 121.111C96.4169 123.093 96.8256 125.878 98.9299 127.205C99.7799 127.744 100.764 128.033 101.771 128.039H101.785C102.253 128.031 102.718 127.964 103.169 127.839C103.245 127.821 103.321 127.8 103.395 127.78H103.398C103.643 127.701 103.898 127.656 104.155 127.644C104.439 127.643 104.718 127.718 104.962 127.862L104.893 127.868C104.858 127.868 104.822 127.873 104.788 127.883C104.856 127.892 104.924 127.895 104.991 127.891C105.154 127.894 105.312 127.939 105.452 128.022C105.592 128.104 105.708 128.222 105.789 128.362C105.87 128.505 105.913 128.665 105.914 128.829C105.916 128.993 105.876 129.155 105.798 129.299L105.754 129.398L105.743 129.422L105.731 129.447L105.705 129.617L105.702 129.638V129.64C105.7 129.649 105.699 129.658 105.697 129.667L105.687 129.701C105.685 129.707 105.683 129.712 105.681 129.718L106.769 131.376C108.051 133.328 109.436 135.391 111.017 137.28C112.104 138.592 113.259 139.845 114.477 141.035C115.187 141.724 115.973 142.171 116.804 142.645C117.239 142.892 117.689 143.148 118.125 143.441C118.293 143.553 118.435 143.7 118.541 143.872C118.646 144.044 118.712 144.238 118.735 144.439C118.752 144.617 118.729 144.796 118.668 144.964C118.606 145.132 118.507 145.283 118.379 145.408C118.126 145.669 117.824 145.876 117.489 146.017C117.154 146.158 116.794 146.23 116.431 146.227C115.714 146.204 115.015 146.003 114.395 145.641C113.761 145.29 113.179 144.853 112.664 144.343C111.451 143.148 110.282 141.643 109.088 139.741C108.179 138.31 107.381 136.81 106.703 135.255C106.37 134.483 106.076 133.694 105.822 132.891C105.568 132.085 105.362 131.265 105.204 130.436C104.929 130.667 104.61 130.84 104.266 130.945C103.572 131.17 102.849 131.291 102.12 131.304C102.037 131.307 101.953 131.308 101.87 131.308C100.572 131.294 99.294 130.993 98.127 130.425C97.0499 129.912 96.1128 129.147 95.3957 128.193C94.6948 127.256 94.1899 126.186 93.9112 125.049C93.5509 123.604 93.4985 122.099 93.7574 120.632C94.0014 119.174 94.5729 117.79 95.4287 116.585C95.1292 115.656 94.8864 114.71 94.7017 113.752C94.6427 113.476 94.5869 113.214 94.5292 112.959L94.4145 112.461C94.0441 110.843 93.7788 109.502 93.5804 108.243C93.3496 106.832 93.2076 105.409 93.1553 103.98C93.0546 100.83 93.5092 98.0838 94.5445 95.5837C94.8301 94.8791 95.1652 94.1956 95.5473 93.5383C95.6479 93.3672 95.7696 93.1956 95.8985 93.014C96.1638 92.6401 96.4379 92.2539 96.5371 91.8485C96.7561 90.9639 95.9137 90.041 95.1705 89.2269C94.8296 88.8832 94.5251 88.5052 94.2618 88.099C93.9172 87.5105 93.7325 86.8421 93.726 86.1602C93.7273 85.4782 93.9712 84.8189 94.4141 84.3003C94.5322 84.1597 94.6634 84.0305 94.8057 83.9145C94.3573 83.1111 94.1313 82.2026 94.1512 81.2827C94.1746 80.3397 94.4873 79.4267 95.0469 78.6673C95.8292 77.6073 96.9882 76.8877 98.2851 76.6565C98.5847 76.6062 98.8879 76.5814 99.1917 76.5825C99.7633 76.5833 100.332 76.6613 100.883 76.8144C103.25 74.6149 105.784 72.6029 108.463 70.7969C111.142 68.9923 113.965 67.413 116.905 66.0751C121.381 64.0542 126.063 62.5272 130.87 61.5211C138.065 60.0079 145.452 59.6206 152.767 60.3731C154.063 60.5088 155.347 60.737 156.611 61.0559C157.642 61.3152 158.659 61.6319 159.655 62.0045C161.348 62.6391 162.393 63.2227 162.434 63.2643C162.757 63.5707 163.103 63.8503 163.471 64.1003C164.91 65.1477 166.881 66.5825 167.249 70.4743C167.246 70.5144 166.883 74.49 166.663 75.2532C166.25 76.6846 165.743 77.8641 165.156 78.7607C164.517 79.7377 163.807 80.333 163.047 80.5299C162.914 81.5662 162.679 82.5868 162.346 83.5768C162.063 84.4427 161.67 85.2685 161.176 86.0342C160.686 86.8162 160.006 87.4622 159.201 87.9129C159.126 88.6624 158.969 89.4016 158.735 90.1175C158.619 90.4877 158.452 90.8403 158.24 91.1655C158.168 91.2924 158.07 91.4032 157.953 91.4911C157.836 91.5789 157.703 91.6419 157.561 91.6762C157.524 91.6817 157.488 91.6853 157.452 91.6888C159.104 97.6637 160.104 103.893 160.987 109.762C161.404 112.531 161.809 115.464 162.299 119.271L162.434 120.329C162.534 121.11 162.64 121.903 162.743 122.669C163.093 125.285 163.456 127.99 163.602 130.653C163.645 131.424 163.637 132.197 163.576 132.967C163.516 133.72 163.394 134.466 163.21 135.198C163.026 135.927 162.772 136.636 162.451 137.316C162.12 138.014 161.716 138.676 161.246 139.291C159.669 141.353 157.441 143.108 154.621 144.507C151.768 145.932 148.82 147.158 145.798 148.178C144.272 148.687 142.731 149.135 141.216 149.509C139.653 149.894 138.073 150.211 136.52 150.451L136.097 150.517C134.694 150.76 133.275 150.897 131.851 150.926V150.926ZM106.631 124.143C106.375 124.143 106.126 124.058 105.923 123.901C105.612 123.668 105.329 123.425 105.056 123.19C104.383 122.612 103.747 122.066 102.801 121.76C101.859 121.448 100.875 121.281 99.8821 121.263C99.543 121.262 99.2045 121.29 98.8702 121.347C98.8616 121.348 98.8529 121.349 98.8441 121.349C98.8086 121.348 98.774 121.337 98.7447 121.317C98.7154 121.297 98.6926 121.269 98.6793 121.236C98.6697 121.21 98.6684 121.182 98.6757 121.156C98.683 121.13 98.6984 121.107 98.7197 121.091C99.2519 120.607 99.8602 120.214 100.52 119.928C101.173 119.652 101.876 119.512 102.585 119.516C102.754 119.516 102.928 119.524 103.102 119.538C104.027 119.617 104.934 119.844 105.787 120.212C106.74 120.635 107.463 121.199 107.936 121.888C108.069 122.09 108.143 122.324 108.15 122.566C108.156 122.808 108.094 123.046 107.972 123.254C107.847 123.508 107.656 123.723 107.421 123.879C107.185 124.035 106.913 124.127 106.631 124.143V124.143Z" fill="#2B283A"/>
<path d="M141.322 139C141.013 138.998 140.709 138.93 140.427 138.801C140.146 138.673 139.894 138.486 139.689 138.253C139.478 138.02 139.31 137.75 139.193 137.456C139.071 137.152 139.005 136.828 138.997 136.5C138.973 135.49 139.524 134.433 140.636 133.356C141.364 132.639 142.201 132.044 143.116 131.594C143.52 131.393 143.946 131.24 144.386 131.14C144.599 131.1 144.815 131.078 145.031 131.073C145.279 131.069 145.525 131.04 145.766 130.984C145.777 130.981 145.788 130.979 145.8 130.979C145.829 130.98 145.857 130.99 145.881 131.008C145.905 131.025 145.923 131.049 145.933 131.077C145.942 131.1 145.944 131.127 145.939 131.151C145.933 131.176 145.919 131.199 145.9 131.215C145.604 131.526 145.362 131.885 145.183 132.276C145.08 132.469 144.983 132.651 144.88 132.812C144.596 133.254 144.297 133.732 144.029 134.228C143.727 134.769 143.457 135.327 143.219 135.9L143.174 136.017C143.222 136.133 143.264 136.251 143.297 136.345C143.311 136.383 143.324 136.42 143.336 136.452L143.347 136.482C143.429 136.692 143.461 136.917 143.443 137.141C143.424 137.361 143.364 137.576 143.267 137.774C143.139 138.038 142.96 138.274 142.74 138.467C142.52 138.661 142.264 138.807 141.987 138.899C141.772 138.965 141.548 138.999 141.322 139ZM142.772 135.447C142.905 135.529 143.01 135.651 143.072 135.796C143.049 135.72 143.011 135.649 142.959 135.589C142.908 135.528 142.844 135.48 142.772 135.447H142.772ZM143.837 126.071C143.055 126.058 142.282 125.901 141.556 125.607C140.598 125.219 139.696 124.702 138.875 124.071C138.684 123.922 138.552 123.709 138.5 123.471C138.456 123.246 138.474 123.012 138.554 122.797C138.644 122.541 138.799 122.314 139.005 122.138C139.2 121.965 139.449 121.867 139.709 121.861C139.902 121.863 140.091 121.921 140.253 122.03C140.311 122.075 140.372 122.122 140.436 122.172C140.967 122.604 141.528 122.998 142.115 123.35C142.873 123.786 143.532 123.997 144.127 123.997C144.419 123.999 144.708 123.942 144.977 123.829C145.277 123.697 145.546 123.504 145.769 123.263C145.981 122.986 146.131 122.667 146.211 122.327C146.29 121.987 146.296 121.633 146.229 121.29C146.068 120.628 145.729 120.023 145.249 119.541C144.81 119.073 144.311 118.667 143.765 118.333C143.691 118.269 143.639 118.183 143.617 118.087C143.595 117.991 143.603 117.89 143.641 117.799C143.683 117.668 143.763 117.552 143.87 117.467C143.995 117.37 144.15 117.318 144.308 117.321C144.36 117.321 144.413 117.326 144.465 117.335C145.083 117.434 145.676 117.651 146.214 117.972C146.676 118.253 147.077 118.625 147.391 119.067C147.975 119.915 148.242 120.944 148.142 121.972C148.098 122.498 147.968 123.013 147.757 123.497C147.548 123.982 147.254 124.426 146.89 124.807C146.494 125.217 146.019 125.541 145.493 125.759C144.968 125.976 144.404 126.082 143.836 126.071H143.837ZM129.66 115.58C129.466 115.587 129.271 115.552 129.091 115.477C128.911 115.403 128.748 115.291 128.614 115.148C128.18 114.632 127.975 114.162 127.972 113.669C127.971 113.516 127.989 113.364 128.023 113.215L127.376 113.226C126.988 113.232 126.667 113.235 126.367 113.235C125.123 113.254 123.879 113.171 122.648 112.986C122.619 112.992 122.59 112.995 122.56 112.996C122.494 112.994 122.428 112.978 122.367 112.951C122.307 112.923 122.252 112.884 122.206 112.835C122.107 112.734 122.039 112.605 122.012 112.465C121.983 112.324 122.007 112.177 122.08 112.053C122.152 111.929 122.269 111.837 122.405 111.795C124.419 111.001 126.649 110.752 128.805 110.512L128.994 110.491C130.036 110.374 131.101 110.29 132.129 110.208L132.395 110.187L132.639 110.166C132.758 110.156 132.879 110.145 132.996 110.134C133.499 110.086 134.019 110.037 134.53 110.037C134.963 110.032 135.395 110.077 135.818 110.171C136.119 110.235 136.387 110.407 136.572 110.655C136.738 110.888 136.829 111.168 136.833 111.455C136.842 111.774 136.756 112.088 136.587 112.357C136.41 112.639 136.136 112.845 135.818 112.936C135.177 113.101 134.516 113.175 133.855 113.158C133.602 113.158 133.348 113.153 133.102 113.147C132.86 113.142 132.609 113.136 132.361 113.136C132.311 113.136 132.262 113.136 132.216 113.136C132.096 113.137 131.975 113.14 131.858 113.142L131.658 113.146C131.617 113.578 131.479 113.994 131.253 114.363C131.087 114.639 130.898 114.901 130.691 115.146C130.56 115.29 130.401 115.402 130.223 115.477C130.045 115.552 129.853 115.587 129.66 115.58V115.58ZM150.818 114.316C150.588 114.312 150.362 114.254 150.157 114.147C149.953 114.04 149.776 113.887 149.639 113.699C149.52 113.544 149.44 113.362 149.406 113.169C149.371 112.976 149.384 112.777 149.442 112.589L149.456 112.547C149.487 112.46 149.515 112.369 149.545 112.272C149.571 112.188 149.598 112.102 149.627 112.016L149.3 111.988C148.766 111.953 148.237 111.865 147.72 111.725C147.48 111.658 147.251 111.556 147.039 111.423C146.852 111.307 146.701 111.141 146.604 110.942C146.549 110.838 146.528 110.719 146.543 110.602C146.558 110.485 146.608 110.376 146.687 110.289C147.287 109.568 148.653 109.457 149.651 109.376C149.795 109.365 149.93 109.354 150.055 109.341L150.112 109.336C150.373 109.309 150.646 109.277 150.91 109.247H150.911C151.765 109.131 152.625 109.065 153.486 109.047C153.781 109.046 154.076 109.06 154.37 109.09C154.812 109.121 155.225 109.322 155.524 109.652C155.773 109.943 155.909 110.315 155.909 110.699C155.909 111.084 155.773 111.455 155.524 111.747C155.226 112.077 154.812 112.278 154.37 112.309C154.074 112.338 153.777 112.352 153.479 112.351C153.054 112.351 152.596 112.327 152.035 112.275C152.134 112.483 152.183 112.712 152.178 112.943C152.173 113.174 152.114 113.4 152.007 113.604C151.904 113.794 151.758 113.957 151.581 114.079C151.403 114.2 151.2 114.278 150.987 114.304C150.931 114.312 150.874 114.316 150.818 114.316H150.818ZM124.856 107.548C124.19 107.571 123.525 107.478 122.891 107.271L122.894 107.265C122.839 107.248 122.79 107.215 122.752 107.171C122.715 107.126 122.691 107.072 122.683 107.014C122.675 106.956 122.683 106.897 122.707 106.844C122.731 106.791 122.77 106.746 122.819 106.714C123.533 106.205 124.439 105.958 125.316 105.719C125.512 105.665 125.697 105.615 125.88 105.561C126.847 105.28 127.854 105.008 128.959 104.732C129.351 104.634 129.754 104.536 130.143 104.442H130.145C131.918 104.009 133.752 103.563 135.468 102.934C135.622 102.877 135.784 102.848 135.948 102.848C136.361 102.857 136.756 103.023 137.053 103.313C137.357 103.594 137.557 103.97 137.621 104.381C137.656 104.598 137.647 104.82 137.595 105.033C137.543 105.246 137.449 105.447 137.318 105.623C137.163 105.825 136.966 105.99 136.741 106.107C136.502 106.233 136.243 106.314 135.976 106.348L135.926 106.354C134.799 106.479 133.656 106.66 132.552 106.835C131.489 107.004 130.39 107.178 129.303 107.303C128.268 107.422 127.248 107.495 126.271 107.521L125.547 107.538C125.302 107.543 125.08 107.548 124.856 107.548ZM150.91 105.906C150.465 105.906 150.016 105.897 149.576 105.878L149.142 105.859C148.997 105.853 148.846 105.849 148.687 105.844C147.981 105.842 147.276 105.784 146.579 105.672C145.786 105.52 145.243 105.249 144.92 104.844C144.761 104.643 144.653 104.406 144.606 104.153C144.552 103.834 144.558 103.508 144.625 103.191C144.656 103.011 144.723 102.839 144.822 102.686C144.92 102.532 145.048 102.4 145.197 102.297C145.491 102.1 145.837 101.997 146.19 102.001C146.456 101.993 146.72 102.048 146.96 102.163C147.201 102.277 147.411 102.448 147.573 102.66C147.872 102.763 148.265 102.871 148.611 102.966C148.809 103.02 148.995 103.071 149.147 103.117C149.848 103.326 150.601 103.551 151.365 103.77C152.527 104.104 153.686 104.512 154.809 104.907C155.166 105.033 155.537 105.163 155.902 105.29C155.932 105.297 155.958 105.316 155.976 105.341C155.994 105.367 156.002 105.398 155.999 105.429C155.995 105.463 155.98 105.495 155.955 105.519C155.931 105.543 155.899 105.558 155.866 105.562C154.223 105.785 152.568 105.9 150.91 105.906V105.906Z" fill="#2B283A"/>
</svg>
